<?xml version="1.0" encoding="UTF-8"?>
<svg version="1.1" viewBox="0 0 100 100" xmlns="http://www.w3.org/2000/svg"><defs><filter id="filter36" x="-.01875" y="-.12" width="1.0375" height="1.24" color-interpolation-filters="sRGB"><feFlood flood-color="rgb(0,0,0)" in="SourceGraphic" result="flood"/><feGaussianBlur in="SourceGraphic" result="blur" stdDeviation="0.500000"/><feOffset dx="0.000000" dy="-0.000000" in="blur" result="offset"/><feComposite in="flood" in2="offset" operator="out" result="comp1"/><feComposite in="comp1" in2="SourceGraphic" operator="atop" result="comp2"/></filter><filter id="filter52" x="-.2" y="-.12" width="1.4" height="1.29" color-interpolation-filters="sRGB"><feFlood flood-color="rgb(0,0,0)" flood-opacity=".49804" in="SourceGraphic" result="flood"/><feGaussianBlur in="SourceGraphic" result="blur" stdDeviation="0.500000"/><feOffset dx="0.000000" dy="0.500000" in="blur" result="offset"/><feComposite in="flood" in2="offset" operator="out" result="comp1"/><feComposite in="comp1" in2="SourceGraphic" operator="atop" result="comp2"/></filter><filter id="filter54" x="-.2" y="-.12" width="1.4" height="1.29" color-interpolation-filters="sRGB"><feFlood flood-color="rgb(0,0,0)" flood-opacity=".49804" in="SourceGraphic" result="flood"/><feGaussianBlur in="SourceGraphic" result="blur" stdDeviation="0.500000"/><feOffset dx="0.000000" dy="0.500000" in="blur" result="offset"/><feComposite in="flood" in2="offset" operator="out" result="comp1"/><feComposite in="comp1" in2="SourceGraphic" operator="atop" result="comp2"/></filter><filter id="filter223" x="-.025949" y="-.089182" width="1.064" height="1.1861" color-interpolation-filters="sRGB"><feFlood flood-color="rgb(0,0,0)" flood-opacity=".49804" in="SourceGraphic" result="flood"/><feGaussianBlur in="SourceGraphic" result="blur" stdDeviation="0.100000"/><feOffset dx="0.200000" dy="0.000000" in="blur" result="offset"/><feComposite in="flood" in2="offset" operator="in" result="comp1"/><feComposite in="SourceGraphic" in2="comp1" result="comp2"/></filter><filter id="filter225" x="-.025856" y="-.090129" width="1.0638" height="1.188" color-interpolation-filters="sRGB"><feFlood flood-color="rgb(0,0,0)" flood-opacity=".49804" in="SourceGraphic" result="flood"/><feGaussianBlur in="SourceGraphic" result="blur" stdDeviation="0.100000"/><feOffset dx="0.200000" dy="0.000000" in="blur" result="offset"/><feComposite in="flood" in2="offset" operator="in" result="comp1"/><feComposite in="SourceGraphic" in2="comp1" result="comp2"/></filter><filter id="filter305" x="-.047909" y="-.045906" width="1.0958" height="1.0722" color-interpolation-filters="sRGB"><feFlood flood-color="rgb(0,0,0)" flood-opacity=".49804" in="SourceGraphic" result="flood"/><feGaussianBlur in="SourceGraphic" result="blur" stdDeviation="0.500000"/><feOffset dx="0.000000" dy="0.000000" in="blur" result="offset"/><feComposite in="flood" in2="offset" operator="in" result="comp1"/><feComposite in="SourceGraphic" in2="comp1" result="comp2"/></filter><filter id="filter310" x="-.011623" y="-.073413" width="1.0232" height="1.1468" color-interpolation-filters="sRGB"><feFlood flood-color="rgb(0,0,0)" flood-opacity=".49804" in="SourceGraphic" result="flood"/><feGaussianBlur in="SourceGraphic" result="blur" stdDeviation="0.200000"/><feOffset dx="0.000000" dy="0.000000" in="blur" result="offset"/><feComposite in="flood" in2="offset" operator="in" result="comp1"/><feComposite in="SourceGraphic" in2="comp1" result="comp2"/></filter><filter id="filter312" x="-.025183" y="-.051942" width="1.0504" height="1.1039" color-interpolation-filters="sRGB"><feFlood flood-color="rgb(0,0,0)" flood-opacity=".49804" in="SourceGraphic" result="flood"/><feGaussianBlur in="SourceGraphic" result="blur" stdDeviation="0.200000"/><feOffset dx="0.000000" dy="0.000000" in="blur" result="offset"/><feComposite in="flood" in2="offset" operator="in" result="comp1"/><feComposite in="SourceGraphic" in2="comp1" result="comp2"/></filter><filter id="filter314" x="-.016667" y="-.085714" width="1.0333" height="1.1714" color-interpolation-filters="sRGB"><feFlood flood-color="rgb(0,0,0)" flood-opacity=".49804" in="SourceGraphic" result="flood"/><feGaussianBlur in="SourceGraphic" result="blur" stdDeviation="0.200000"/><feOffset dx="0.000000" dy="0.000000" in="blur" result="offset"/><feComposite in="flood" in2="offset" operator="in" result="comp1"/><feComposite in="SourceGraphic" in2="comp1" result="comp2"/></filter><filter id="filter317" x="-.01" y="-.036" width="1.02" height="1.072" color-interpolation-filters="sRGB"><feFlood flood-color="rgb(0,0,0)" flood-opacity=".49804" in="SourceGraphic" result="flood"/><feGaussianBlur in="SourceGraphic" result="blur" stdDeviation="0.300000"/><feOffset dx="0.000000" dy="0.000000" in="blur" result="offset"/><feComposite in="flood" in2="offset" operator="in" result="comp1"/><feComposite in="SourceGraphic" in2="comp1" result="comp2"/></filter><filter id="filter319" x="-.01" y="-.051429" width="1.02" height="1.1029" color-interpolation-filters="sRGB"><feFlood flood-color="rgb(0,0,0)" flood-opacity=".49804" in="SourceGraphic" result="flood"/><feGaussianBlur in="SourceGraphic" result="blur" stdDeviation="0.300000"/><feOffset dx="0.000000" dy="0.000000" in="blur" result="offset"/><feComposite in="flood" in2="offset" operator="in" result="comp1"/><feComposite in="SourceGraphic" in2="comp1" result="comp2"/></filter><filter id="filter321" x="-.01" y="-.04" width="1.02" height="1.08" color-interpolation-filters="sRGB"><feFlood flood-color="rgb(0,0,0)" flood-opacity=".49804" in="SourceGraphic" result="flood"/><feGaussianBlur in="SourceGraphic" result="blur" stdDeviation="0.300000"/><feOffset dx="0.000000" dy="0.000000" in="blur" result="offset"/><feComposite in="flood" in2="offset" operator="in" result="comp1"/><feComposite in="SourceGraphic" in2="comp1" result="comp2"/></filter><filter id="filter323" x="-.0093506" y="-.016744" width="1.0187" height="1.0335" color-interpolation-filters="sRGB"><feFlood flood-color="rgb(0,0,0)" flood-opacity=".49804" in="SourceGraphic" result="flood"/><feGaussianBlur in="SourceGraphic" result="blur" stdDeviation="0.300000"/><feOffset dx="0.000000" dy="0.000000" in="blur" result="offset"/><feComposite in="flood" in2="offset" operator="in" result="comp1"/><feComposite in="SourceGraphic" in2="comp1" result="comp2"/></filter></defs><g fill="#9ca3af"><path d="m88 20-4-14q-1-2-4-2h-8v16z"/><path d="m83 20-3-10h-3v10z" filter="url(#filter54)"/><path d="m12 20 4-14q1-2 4-2h8v16z"/><path d="m17 20 3-10h3v10z" filter="url(#filter52)"/></g><rect x="8" y="20" width="84" height="76" rx="3" fill="#d1d5db"/><rect x="12" y="24" width="76" height="68" fill="#111827"/><g filter="url(#filter314)"><rect x="14" y="28" width="72" height="14" fill="#ff6b00" filter="url(#filter319)"/><g fill="#f3f4f6" filter="url(#filter36)"><circle cx="20" cy="32" r="2" opacity=".5"/><circle cx="26" cy="32" r="2" opacity=".5"/><circle cx="32" cy="32" r="2" opacity=".5"/><circle cx="38" cy="32" r="2" opacity=".5"/><circle cx="44" cy="32" r="2" opacity=".5"/><circle cx="50" cy="32" r="2" opacity=".5"/><circle cx="56" cy="32" r="2" opacity=".5"/><circle cx="62" cy="32" r="2" opacity=".5"/><circle cx="68" cy="32" r="2" opacity=".5"/><circle cx="74" cy="32" r="2" opacity=".5"/><circle cx="80" cy="32" r="2" opacity=".5"/><circle cx="23" cy="38" r="2" opacity=".5"/><circle cx="29" cy="38" r="2" opacity=".5"/><circle cx="35" cy="38" r="2" opacity=".5"/><circle cx="41" cy="38" r="2" opacity=".5"/><circle cx="47" cy="38" r="2" opacity=".5"/><circle cx="53" cy="38" r="2" opacity=".5"/><circle cx="59" cy="38" r="2" opacity=".5"/><circle cx="65" cy="38" r="2" opacity=".5"/><circle cx="71" cy="38" r="2" opacity=".5"/><circle cx="77" cy="38" r="2" opacity=".5"/></g></g><rect x="14" y="44" width="72" height="20" fill="#1f2937" filter="url(#filter317)"/><circle cx="21" cy="50" r="5" fill="#d1d5db"/><rect x="36" y="48.103" width="18" height="3" fill="#f3f4f6" stroke-width=".86602"/><text x="36.200527" y="50.237465" fill="#111827" font-family="'Droid Sans'" font-size="1.8667px" letter-spacing=".12px" stroke="#111827" stroke-width=".166" style="paint-order:fill markers stroke" xml:space="preserve"><tspan x="36.200527" y="50.237465">eth1: 192.168.50.5</tspan></text><rect x="36" y="44.604" width="18" height="3" fill="#f3f4f6" stroke-width=".86603"/><text x="36.200527" y="46.754616" fill="#111827" font-family="'Droid Sans'" font-size="1.8667px" letter-spacing=".12px" stroke="#111827" stroke-width=".166" style="paint-order:fill markers stroke" xml:space="preserve"><tspan x="36.200527" y="46.754616">eth0: 192.168.50.4</tspan></text><path d="m36.571 52.061v5.1549h-2.7807v5.7871h22.569v-5.7871h-2.8654v-5.1549z" fill="#d1d5db" filter="url(#filter312)" stroke="#111827" stroke-width=".17669" style="paint-order:fill markers stroke"/><g fill="#111827" stroke="#111827"><circle cx="54.157" cy="60.106" r="1.0978" stroke-width=".18668" style="paint-order:fill markers stroke"/><path d="m34.703 59.234v1.3204l-.002.002.53516.57031h.002v.002h1.7031v-.002l.52539-.57031-.002-.002h.0078v-1.3203z" stroke-linejoin="round" stroke-width=".166" style="paint-order:fill markers stroke"/></g><g fill="#111827"><rect x="38.321" y="52.456" width="6" height="5"/><rect x="45.593" y="52.456" width="6" height="5"/></g><g fill="#111827"><rect x="39.302" y="58.069" width="5" height="2" style="paint-order:fill markers stroke"/><rect x="39.302" y="60.292" width="5" height="2" style="paint-order:fill markers stroke"/><rect x="45.594" y="58.069" width="5" height="2" style="paint-order:fill markers stroke"/><rect x="45.594" y="60.292" width="5" height="2" style="paint-order:fill markers stroke"/></g><g transform="matrix(1.2862 0 0 1.2862 -17.722 -18.053)" stroke="#111827"><rect x="62" y="54.99" width="16" height="8" fill="#ff6b00" stroke-width=".166"/><g fill="none"><rect x="62.307" y="55.322" width="15.333" height="3.7311" stroke-width=".17258" style="paint-order:fill markers stroke"/><path d="m66.009 55.337 3.1623 3.3318 8.4067-.0071" filter="url(#filter223)" stroke-width=".166" style="paint-order:fill markers stroke"/></g><g fill="none"><rect x="62.306" y="59.052" width="15.336" height="3.6217" stroke-width=".17004" style="paint-order:fill markers stroke"/><path d="m66.009 59.018 3.1522 3.299h8.4511" filter="url(#filter225)" stroke-width=".166" style="paint-order:fill markers stroke"/></g></g><rect x="14" y="66" width="72" height="18" fill="#1f2937" filter="url(#filter321)"/><rect x="15.599" y="67.942" width="10" height="3" fill="#f3f4f6" stroke-width=".79057"/><text x="16.132498" y="70.225525" fill="#111827" font-family="'Droid Sans'" font-size="2.4px" letter-spacing=".12px" stroke="#111827" stroke-width=".2" style="paint-order:fill markers stroke" xml:space="preserve"><tspan x="16.132498" y="70.225525" fill="#111827" font-family="'Droid Sans'" font-size="2.4px" letter-spacing=".12px">2.5Gb/s</tspan></text><rect x="73.634" y="68" width="10" height="3" fill="#f3f4f6" stroke-width=".79057"/><text x="74.349312" y="70.361214" fill="#111827" font-family="'Droid Sans'" font-size="2.4px" letter-spacing=".12px" stroke="#111827" stroke-width=".2" style="paint-order:fill markers stroke" xml:space="preserve"><tspan x="74.349312" y="70.361214">10Gb/s</tspan></text><rect x="24.318" y="73.076" width="49.901" height="7.9005" fill="#252a31" filter="url(#filter310)" stroke="#111827" stroke-width=".2" style="paint-order:fill markers stroke"/><g fill="#111827"><rect x="66" y="74.031" width="6" height="6"/><rect x="56" y="74.031" width="6" height="6"/><rect x="46" y="74.031" width="6" height="6"/><rect x="36" y="74.031" width="6" height="6"/><rect x="26.515" y="74.031" width="6" height="6"/></g><g fill="#111827"><rect x="77.605" y="74.117" width="6" height="6"/><rect x="16.285" y="74.031" width="6" height="6"/></g><g fill="none" filter="url(#filter305)" stroke-width="2.5"><path d="m29.487 76.803c.11672 11.554 12.291 7.7193 12.303 23.218" stroke="#e5e7eb"/><path d="m41.54 54.471c-6.0034 6.8816-1.3508 27.465 7.3385 22.156" stroke="#fbbf24"/><path d="m48.744 54.38c-9.4985 9.2573 3 28.345 10.17 22.91" stroke="#3b82f6"/><path d="m68.828 76.858c.42882 15.256 12.398 12.511 11.772-.17493" stroke="#ef4444"/></g><g fill="#4b5563" filter="url(#filter323)"><circle cx="13" cy="35" r="1.5"/><circle cx="13" cy="54" r="1.5"/><circle cx="13" cy="75" r="1.5"/><circle cx="87" cy="35" r="1.5"/><circle cx="87" cy="54" r="1.5"/><circle cx="87" cy="75" r="1.5"/></g></svg>
