<?xml version="1.0" encoding="UTF-8"?>
<svg version="1.1" viewBox="0 0 24 24" xmlns="http://www.w3.org/2000/svg"><path d="m4.1317 10.523h4.2835l-3.0351-3.0351c-1.1568 0-2.0959-.93916-2.0959-2.1074a2.0959 2.0959 0 012.0959-2.0959c1.1682 0 2.1074.93916 2.1074 2.0959l3.0351 3.0351v-4.2835c-.81318-.82463-.81318-2.1532 0-2.9664.81318-.82463 2.1417-.82463 2.9549 0 .81318.81318.81318 2.1417 0 2.9664v4.2835l3.0465-3.0351c0-1.1568.92771-2.0959 2.0959-2.0959 1.1568 0 2.0959.93916 2.0959 2.0959 0 1.1682-.93916 2.1074-2.0959 2.1074l-3.0351 3.0351h4.2835c.82463-.81318 2.1532-.81318 2.9664 0 .82463.81318.82463 2.1417 0 2.9549-.81318.81318-2.1417.81318-2.9664 0h-4.2835l3.0351 3.0465c1.1568 0 2.0959.92771 2.0959 2.0959a2.0959 2.0959 0 01-2.0959 2.0959c-1.1682 0-2.0959-.93916-2.0959-2.0959l-3.0465-3.0351v4.2835c.81318.82463.81318 2.1532 0 2.9664-.81318.82463-2.1417.82463-2.9549 0-.81318-.81318-.81318-2.1417 0-2.9664v-4.2835l-3.0351 3.0351c0 1.1568-.93916 2.0959-2.1074 2.0959-1.1568 0-2.0959-.93916-2.0959-2.0959 0-1.1682.93916-2.0959 2.0959-2.0959l3.0351-3.0465h-4.2835c-.82463.81318-2.1532.81318-2.9664 0-.82463-.81318-.82463-2.1417 0-2.9549.81318-.81318 2.1417-.81318 2.9664 0z" fill="#0091eb" stroke="#4cae4f" stroke-linecap="round" stroke-linejoin="round" stroke-width=".8"/></svg>
