<?xml version="1.0" encoding="UTF-8" standalone="no"?>
<svg
   viewBox="0 0 100 100"
   fill="currentColor"
   version="1.1"
   id="svg24"
   sodipodi:docname="10-inch-rack-monochrome-light.svg"
   inkscape:version="1.4.3 (0d15f75042, 2025-12-25)"
   xmlns:inkscape="http://www.inkscape.org/namespaces/inkscape"
   xmlns:sodipodi="http://sodipodi.sourceforge.net/DTD/sodipodi-0.dtd"
   xmlns="http://www.w3.org/2000/svg"
   xmlns:svg="http://www.w3.org/2000/svg">
  <defs
     id="defs24" />
  <sodipodi:namedview
     id="namedview24"
     pagecolor="#505050"
     bordercolor="#ffffff"
     borderopacity="1"
     inkscape:showpageshadow="0"
     inkscape:pageopacity="0"
     inkscape:pagecheckerboard="1"
     inkscape:deskcolor="#505050"
     inkscape:zoom="11.88"
     inkscape:cx="50"
     inkscape:cy="50"
     inkscape:window-width="2560"
     inkscape:window-height="1368"
     inkscape:window-x="0"
     inkscape:window-y="0"
     inkscape:window-maximized="1"
     inkscape:current-layer="svg24" />
  <path
     d="M 16 20 L 16 8 Q 16 4 20 4 L 26 4 L 26 20 Z"
     opacity="0.8"
     id="path1"
     style="fill-rule:nonzero;fill:currentColor;fill-opacity:1" />
  <path
     d="M 84 20 L 84 8 Q 84 4 80 4 L 74 4 L 74 20 Z"
     opacity="0.8"
     id="path2"
     style="fill:currentColor;fill-opacity:1" />
  <path
     d="M 10 22 C 10 20.9 10.9 20 12 20 L 88 20 C 89.1 20 90 20.9 90 22 L 90 96 C 90 97.1 89.1 98 88 98 L 12 98 C 10.9 98 10 97.1 10 96 Z"
     fill="none"
     stroke="currentColor"
     stroke-width="3"
     id="path3" />
  <rect
     x="16"
     y="28"
     width="68"
     height="14"
     rx="1"
     fill="currentColor"
     opacity="0.15"
     id="rect3" />
  <circle
     cx="22"
     cy="35"
     r="1.5"
     fill="currentColor"
     id="circle3" />
  <circle
     cx="30"
     cy="35"
     r="1.5"
     fill="currentColor"
     id="circle4" />
  <circle
     cx="38"
     cy="35"
     r="1.5"
     fill="currentColor"
     id="circle5" />
  <circle
     cx="46"
     cy="35"
     r="1.5"
     fill="currentColor"
     id="circle6" />
  <circle
     cx="54"
     cy="35"
     r="1.5"
     fill="currentColor"
     id="circle7" />
  <circle
     cx="62"
     cy="35"
     r="1.5"
     fill="currentColor"
     id="circle8" />
  <circle
     cx="70"
     cy="35"
     r="1.5"
     fill="currentColor"
     id="circle9" />
  <circle
     cx="78"
     cy="35"
     r="1.5"
     fill="currentColor"
     id="circle10" />
  <rect
     x="16"
     y="46"
     width="68"
     height="20"
     rx="1"
     fill="none"
     stroke="currentColor"
     stroke-width="2"
     id="rect10" />
  <rect
     x="40"
     y="58"
     width="6"
     height="5"
     fill="currentColor"
     opacity="0.8"
     id="rect11" />
  <rect
     x="52"
     y="58"
     width="6"
     height="5"
     fill="currentColor"
     opacity="0.8"
     id="rect12" />
  <circle
     cx="28"
     cy="56"
     r="4"
     fill="currentColor"
     opacity="0.4"
     id="circle12" />
  <rect
     x="38"
     y="49"
     width="12"
     height="2"
     fill="currentColor"
     opacity="0.5"
     id="rect13" />
  <rect
     x="38"
     y="53"
     width="12"
     height="2"
     fill="currentColor"
     opacity="0.5"
     id="rect14" />
  <rect
     x="16"
     y="70"
     width="68"
     height="20"
     rx="1"
     fill="none"
     stroke="currentColor"
     stroke-width="2"
     id="rect15" />
  <rect
     x="36"
     y="76"
     width="6"
     height="6"
     fill="currentColor"
     opacity="0.8"
     id="rect16" />
  <rect
     x="46"
     y="76"
     width="6"
     height="6"
     fill="currentColor"
     opacity="0.8"
     id="rect17" />
  <rect
     x="56"
     y="76"
     width="6"
     height="6"
     fill="currentColor"
     opacity="0.8"
     id="rect18" />
  <rect
     x="66"
     y="76"
     width="6"
     height="6"
     fill="currentColor"
     opacity="0.8"
     id="rect19" />
  <circle
     cx="13"
     cy="35"
     r="1.5"
     fill="currentColor"
     id="circle19" />
  <circle
     cx="13"
     cy="56"
     r="1.5"
     fill="currentColor"
     id="circle20" />
  <circle
     cx="13"
     cy="80"
     r="1.5"
     fill="currentColor"
     id="circle21" />
  <circle
     cx="87"
     cy="35"
     r="1.5"
     fill="currentColor"
     id="circle22" />
  <circle
     cx="87"
     cy="56"
     r="1.5"
     fill="currentColor"
     id="circle23" />
  <circle
     cx="87"
     cy="80"
     r="1.5"
     fill="currentColor"
     id="circle24" />
</svg>
