<?xml version="1.0" encoding="UTF-8"?>
<svg version="1.1" viewBox="0 0 100 100" xmlns="http://www.w3.org/2000/svg"><path d="m16 20v-12q0-4 4-4h6v16z" fill="currentColor" opacity=".8"/><path d="m84 20v-12q0-4-4-4h-6v16z" fill="currentColor" opacity=".8"/><path d="m10 22c0-1.1.9-2 2-2h76c1.1 0 2 .9 2 2v74c0 1.1-.9 2-2 2h-76c-1.1 0-2-.9-2-2z" fill="none" stroke="currentColor" stroke-width="3"/><g fill="currentColor"><rect x="16" y="28" width="68" height="14" rx="1" opacity=".15"/><circle cx="22" cy="35" r="1.5"/><circle cx="30" cy="35" r="1.5"/><circle cx="38" cy="35" r="1.5"/><circle cx="46" cy="35" r="1.5"/><circle cx="54" cy="35" r="1.5"/><circle cx="62" cy="35" r="1.5"/><circle cx="70" cy="35" r="1.5"/><circle cx="78" cy="35" r="1.5"/></g><rect x="16" y="46" width="68" height="20" rx="1" fill="none" stroke="currentColor" stroke-width="2"/><g fill="currentColor"><rect x="40" y="58" width="6" height="5" opacity=".8"/><rect x="52" y="58" width="6" height="5" opacity=".8"/><circle cx="28" cy="56" r="4" opacity=".4"/><rect x="38" y="49" width="12" height="2" opacity=".5"/><rect x="38" y="53" width="12" height="2" opacity=".5"/></g><rect x="16" y="70" width="68" height="20" rx="1" fill="none" stroke="currentColor" stroke-width="2"/><g fill="currentColor"><rect x="36" y="76" width="6" height="6" opacity=".8"/><rect x="46" y="76" width="6" height="6" opacity=".8"/><rect x="56" y="76" width="6" height="6" opacity=".8"/><rect x="66" y="76" width="6" height="6" opacity=".8"/><circle cx="13" cy="35" r="1.5"/><circle cx="13" cy="56" r="1.5"/><circle cx="13" cy="80" r="1.5"/><circle cx="87" cy="35" r="1.5"/><circle cx="87" cy="56" r="1.5"/><circle cx="87" cy="80" r="1.5"/></g></svg>
