<?xml version="1.0" encoding="UTF-8" standalone="no"?>
<svg
   height="24px"
   viewBox="0 -960 960 960"
   width="24px"
   fill="currentColor"
   version="1.1"
   id="svg1"
   sodipodi:docname="ac-unit.svg"
   inkscape:version="1.4.3 (0d15f75042, 2025-12-25)"
   xmlns:inkscape="http://www.inkscape.org/namespaces/inkscape"
   xmlns:sodipodi="http://sodipodi.sourceforge.net/DTD/sodipodi-0.dtd"
   xmlns="http://www.w3.org/2000/svg"
   xmlns:svg="http://www.w3.org/2000/svg">
  <defs
     id="defs1" />
  <sodipodi:namedview
     id="namedview1"
     pagecolor="#505050"
     bordercolor="#ffffff"
     borderopacity="1"
     inkscape:showpageshadow="0"
     inkscape:pageopacity="0"
     inkscape:pagecheckerboard="1"
     inkscape:deskcolor="#505050"
     inkscape:zoom="48.333333"
     inkscape:cx="11.989655"
     inkscape:cy="14.917241"
     inkscape:window-width="2560"
     inkscape:window-height="1368"
     inkscape:window-x="0"
     inkscape:window-y="0"
     inkscape:window-maximized="1"
     inkscape:current-layer="svg1" />
  <path
     d="M 432.55173,-5.5172393 V -202.42758 L 278.34482,-50.593101 211.91724,-117.02069 432.55173,-337.65517 v -94.89655 H 337.65518 L 117.0207,-211.91724 50.593104,-278.34482 202.42759,-432.55172 H 5.5172419 v -94.89655 H 202.42759 l -151.834486,-154.2069 66.427596,-66.42759 220.63448,220.63449 h 94.89655 v -94.89655 l -220.63449,-220.63448 66.42758,-66.4276 154.20691,151.83449 v -196.91035 h 94.89655 v 196.91035 l 154.2069,-151.83449 66.42758,66.4276 -220.63448,220.63448 v 94.89655 h 94.89654 l 220.63449,-220.63449 66.42759,66.42759 -151.83448,154.2069 h 196.91034 v 94.89655 H 757.57242 l 151.83448,154.2069 -66.42759,66.42758 -220.63449,-220.63448 h -94.89654 v 94.89655 l 220.63448,220.63448 -66.42758,66.427589 -154.2069,-151.834479 V -5.5172393 Z"
     id="path1"
     style="stroke-width:1.1862" />
</svg>
