<?xml version="1.0" encoding="UTF-8"?>
<svg fill="currentColor" version="1.1" viewBox="0 -960 960 960" xmlns="http://www.w3.org/2000/svg"><path d="m435.94-39.448v-182.83l-143.18 140.98-61.677-61.677 204.86-204.86v-88.11h-88.11l-204.86 204.86-61.677-61.677 140.98-143.18h-182.83v-88.11h182.83l-140.98-143.18 61.677-61.677 204.86 204.86h88.11v-88.11l-204.86-204.86 61.677-61.677 143.18 140.98v-182.83h88.11v182.83l143.18-140.98 61.677 61.677-204.86 204.86v88.11h88.11l204.86-204.86 61.677 61.677-140.98 143.18h182.83v88.11h-182.83l140.98 143.18-61.677 61.677-204.86-204.86h-88.11v88.11l204.86 204.86-61.677 61.677-143.18-140.98v182.83z" stroke-width="1.1014"/></svg>
