<?xml version="1.0" encoding="UTF-8"?>
<svg fill="currentColor" version="1.1" viewBox="0 -960 960 960" xmlns="http://www.w3.org/2000/svg"><path d="m807.26-652.53-154.67-154.57 92.742-92.803 154.67 154.57zm-347.73 518.09q-60.282 60.322-143 71.946-82.718 11.624-127.57-33.202l-92.803-92.742q-45.628-45.598-33.672-127.94 11.956-82.34 72.238-142.66 23.958-23.974 50.625-40.605 26.667-16.631 69.955-33.653 13.914-4.6432 24.736-10.058 10.822-5.4153 19.324-10.057 8.5026-4.6414 15.459-10.055 6.9562-5.414 13.139-11.601l247.31-247.47 247.47 247.31-247.31 247.47q-6.1828 6.1869-11.592 13.147-5.4094 6.9597-10.045 15.465-4.6358 8.5057-10.044 19.331-5.4082 10.825-10.042 24.743-16.994 43.299-33.607 69.977-16.613 26.678-40.571 50.652zm-255.14-38.571 30.914-30.934q6.1828-6.1869 6.1797-15.464-.003-9.2773-6.1899-15.46-6.1869-6.1828-15.464-6.1798-9.2772.003-15.46 6.1899l-30.914 30.934q-6.1828 6.1869-6.1798 15.464.003 9.2772 6.1899 15.46 6.1869 6.1828 15.464 6.1797 9.2773-.003 15.46-6.1899z" stroke-width="1.0933"/></svg>
