<?xml version="1.0" encoding="UTF-8"?>
<svg fill="currentColor" version="1.1" viewBox="0 -960 960 960" xmlns="http://www.w3.org/2000/svg"><path d="m807.96-659.03-158.68-153.39 92.038-95.208 158.68 153.39zm16.924 77.755-245.44 253.89q-12.272 12.694-21.357 29.237-9.085 16.543-19.533 44.814-16.425 43.981-32.743 71.182-16.319 27.201-40.095 51.796-59.825 61.884-143.11 75.001-83.282 13.116-129.3-31.369l-95.208-92.038q-46.81-45.252-36.124-128.55 10.687-83.295 70.512-145.18 23.776-24.596 50.41-41.825t70.033-35.133q27.902-11.398 44.127-21.038 16.226-9.64 28.498-22.334l245.44-253.89zm-422.64 389.56q16.874-17.455 29.014-37.951t24.835-54.269q14.943-39.274 28.591-62.917 13.647-23.643 31.288-41.891l184.08-190.42-126.94-122.72-184.08 190.42q-17.64 18.248-40.809 32.688t-61.913 30.704q-33.323 13.831-53.398 26.657-20.073 12.826-36.947 30.281-36.048 37.29-46.985 82.739-10.937 45.449 10.485 66.158l31.736 30.679 15.34-15.868q6.1359-6.3471 15.498-6.5056 9.3623-.15846 15.71 5.9774 6.3476 6.1358 6.5056 15.498.15847 9.3623-5.9774 15.71l-15.34 15.868 31.736 30.679q21.422 20.709 66.475 8.2399 45.053-12.469 81.101-49.758z" stroke-width="1.1035"/></svg>
