<?xml version="1.0" encoding="UTF-8"?>
<svg fill="currentColor" version="1.1" viewBox="0 -960 960 960" xmlns="http://www.w3.org/2000/svg"><path d="m149.79-291.31h94.345q0-38.917-27.714-66.631-27.714-27.714-66.631-27.714zm167.46 0h68.4q0-97.883-68.99-166.87-68.99-68.99-166.87-68.99v68.4q69.579 0 118.52 48.941 48.941 48.941 48.941 118.52zm141.52 0h68.4q0-77.834-29.483-146.82-29.483-68.99-80.783-120.29t-120.29-80.783q-68.99-29.483-146.82-29.483v68.4q128.54 0 218.76 90.217 90.217 90.217 90.217 218.76zm-167.46 235.86v-94.345h-188.69q-38.917 0-66.631-27.714-27.714-27.714-27.714-66.631v-566.07q0-38.917 27.714-66.631 27.714-27.714 66.631-27.714h754.76q38.917 0 66.631 27.714 27.714 27.714 27.714 66.631v566.07q0 38.917-27.714 66.631-27.714 27.714-66.631 27.714h-188.69v94.345zm-188.69-188.69h754.76v-566.07h-754.76zm0 0v-566.07z" stroke-width="1.1793"/></svg>
