<?xml version="1.0" encoding="UTF-8"?>
<svg version="1.1" viewBox="0 0 56 56" xmlns="http://www.w3.org/2000/svg"><path d="m1.0842 50.266c.5035-.91224 1.6859-3.0157 2.6275-4.6743.94164-1.6586 4.1754-7.2678 7.1862-12.465 3.0108-5.197 7.4201-12.751 9.7984-16.787 2.3784-4.036 4.9913-8.4464 5.8065-9.801.81523-1.3545 1.5467-2.4628 1.6255-2.4628.0788 0 1.5357 2.3296 3.2377 5.1769 1.7019 2.8473 4.8592 8.2077 7.0163 11.912 2.1571 3.7043 5.6602 9.7483 7.7848 13.431 2.1246 3.6829 5.1681 9.0154 6.7635 11.85 1.5953 2.8346 2.9006 5.2269 2.9006 5.3162v.1625h-36.389l.0051-.15078c.0028-.08293 1.122-2.0959 2.487-4.4733l2.4819-4.3225 15.7-.10516-.74612-1.3574c-.41034-.74657-2.9456-5.207-5.6339-9.9121-2.6883-4.7051-5.0475-8.7664-5.2426-9.0251l-.35483-.47041-1.907 3.1974c-1.0489 1.7586-4.396 7.4948-7.438 12.747-3.042 5.2523-6.1051 10.522-6.8069 11.711l-1.276 2.1612h-10.542z" fill="currentColor"/></svg>
