<?xml version="1.0" encoding="UTF-8" standalone="no"?>
<svg
   width="56"
   height="56"
   viewBox="0 0 56 56"
   version="1.1"
   id="svg1"
   xmlns="http://www.w3.org/2000/svg"
   xmlns:svg="http://www.w3.org/2000/svg">
  <path
     fill="currentColor"
     d="m 1.0842052,50.265781 c 0.5035044,-0.912244 1.6858964,-3.015682 2.6275379,-4.674307 0.9416412,-1.658623 4.1754395,-7.267792 7.1862169,-12.464815 3.010778,-5.197026 7.420076,-12.751307 9.798443,-16.787293 2.378365,-4.035987 4.991305,-8.4464221 5.806531,-9.800965 0.815227,-1.3545444 1.546704,-2.4628067 1.625506,-2.4628067 0.0788,0 1.535746,2.3296137 3.237653,5.1769197 1.701909,2.847306 4.859245,8.20768 7.016301,11.911942 2.157058,3.704262 5.66022,9.748326 7.784806,13.431253 2.124587,3.682927 5.168149,9.015409 6.763471,11.849962 1.595323,2.834551 2.900586,5.226856 2.900586,5.316231 v 0.162504 H 37.636647 19.442036 l 0.0051,-0.150784 c 0.0028,-0.08293 1.12201,-2.095899 2.48704,-4.47326 l 2.481871,-4.322478 7.85022,-0.05258 7.850224,-0.05258 -0.746124,-1.357384 c -0.410342,-0.746566 -2.945602,-5.207003 -5.633886,-9.912082 -2.688283,-4.705083 -5.047463,-8.766379 -5.242618,-9.025103 l -0.354832,-0.470411 -1.907029,3.197433 c -1.048866,1.758586 -4.395957,7.494777 -7.437977,12.747088 -3.042023,5.252311 -6.105137,10.522215 -6.806924,11.710896 l -1.275977,2.161238 H 5.4399514 0.16874275 Z"
     id="path1" />
</svg>
