<?xml version="1.0" encoding="UTF-8"?>
<svg fill="currentColor" version="1.1" viewBox="0 -960 960 960" xmlns="http://www.w3.org/2000/svg"><path d="m623.44-712.75q-1.225-30.508 19.691-53.174 20.916-22.666 51.424-23.891 30.508-1.225 53.174 19.691t23.891 51.424q1.225 30.508-19.691 53.174t-51.424 23.891q-30.508 1.225-53.174-19.691-22.666-20.916-23.891-51.424zm-590.91 460.25q-4.095-101.98 65.346-177.23l401.59-435.19q69.441-75.251 171.42-79.346 101.98-4.095 177.23 65.346 75.251 69.441 79.346 171.42 4.095 101.98-65.346 177.23l-401.59 435.19q-69.441 75.251-171.42 79.346-101.98 4.095-177.23-65.346-75.251-69.441-79.346-171.42zm669.97-339.45q50.555-2.03 85.694-40.109 35.139-38.079 33.109-88.634-2.03-50.555-40.109-85.694-38.079-35.139-88.634-33.109-50.555 2.03-85.694 40.109-35.139 38.079-33.109 88.634 2.03 50.555 40.109 85.694 38.079 35.139 88.634 33.109zm-375.3 220.24q20.048-.805 34.271-16.218 14.223-15.413 13.418-35.461-.80501-20.048-16.218-34.271-15.413-14.223-35.461-13.418-20.048.80499-34.271 16.218-14.223 15.413-13.418 35.461.80501 20.048 16.218 34.271t35.461 13.418zm100.4-108.8q20.048-.80499 34.271-16.218 14.223-15.413 13.418-35.461-.805-20.048-16.218-34.271-15.413-14.223-35.461-13.418t-34.271 16.218q-14.223 15.413-13.418 35.461.80499 20.048 16.218 34.271 15.413 14.223 35.461 13.418zm108.8 100.4q20.048-.805 34.271-16.218 14.223-15.413 13.418-35.461-.80499-20.048-16.218-34.271-15.413-14.223-35.461-13.418-20.048.80499-34.271 16.218-14.223 15.413-13.418 35.461.805 20.048 16.218 34.271 15.413 14.223 35.461 13.418zm-100.4 108.8q20.048-.80499 34.271-16.218 14.223-15.413 13.418-35.461-.80499-20.048-16.218-34.271-15.413-14.223-35.461-13.418-20.048.80499-34.271 16.218-14.223 15.413-13.418 35.461.80499 20.048 16.218 34.271 15.413 14.223 35.461 13.418zm-209.19 8.4q20.048-.80499 34.271-16.218 14.223-15.413 13.418-35.461-.80499-20.048-16.218-34.271-15.413-14.223-35.461-13.418-20.048.80499-34.271 16.218-14.223 15.413-13.418 35.461.80499 20.048 16.218 34.271 15.413 14.223 35.461 13.418zm108.8 100.4q20.048-.805 34.271-16.218 14.223-15.413 13.418-35.461-.80501-20.048-16.218-34.271-15.413-14.223-35.461-13.418-20.048.80501-34.271 16.218-14.223 15.413-13.418 35.461.805 20.048 16.218 34.271 15.413 14.223 35.461 13.418z"/></svg>
