<?xml version="1.0" encoding="UTF-8"?>
<svg fill="currentColor" version="1.1" viewBox="0 -960 960 960" xmlns="http://www.w3.org/2000/svg"><path d="m619.75-712.98q-1.5814-30.299 18.931-53.07 20.512-22.772 50.811-24.353t53.07 18.931q22.772 20.513 24.353 50.811 1.5814 30.299-18.931 53.07-20.512 22.772-50.811 24.353t-53.07-18.931q-22.772-20.513-24.353-50.811zm-581.66 464.38q-5.2863-101.28 62.815-176.89l393.84-437.21q68.102-75.602 169.39-80.888t176.89 62.815q75.602 68.102 80.888 169.39t-62.815 176.89l-393.84 437.21q-68.102 75.602-169.39 80.888-101.28 5.2863-176.89-62.815-75.602-68.102-80.888-169.39zm661.65-345.29q50.21-2.6206 84.671-40.877 34.461-38.256 31.84-88.466-2.6206-50.21-40.877-84.671-38.256-34.461-88.466-31.84-50.21 2.6206-84.671 40.877-34.461 38.256-31.84 88.466 2.6206 50.21 40.877 84.671 38.256 34.461 88.466 31.84zm-408.98 479.67q60.598-3.1627 101.62-48.706l301.12-334.29q-41.643.43738-79.726-14.068-38.083-14.505-68.141-41.582-30.059-27.077-48.449-63.442-18.391-36.366-22.291-77.828l-301.12 334.29q-41.025 45.543-37.862 106.14t48.706 101.62q45.543 41.025 106.14 37.862zm38.703-256.36q19.911-1.0392 33.859-16.524 13.948-15.485 12.909-35.395-1.0392-19.911-16.524-33.859-15.485-13.948-35.395-12.909-19.911 1.0392-33.859 16.524-13.949 15.485-12.909 35.395 1.0392 19.911 16.524 33.859 15.485 13.948 35.395 12.909zm98.46-109.3q19.911-1.0392 33.859-16.524 13.948-15.485 12.909-35.395-1.0392-19.911-16.524-33.859-15.485-13.948-35.395-12.909-19.911 1.0392-33.859 16.524-13.948 15.485-12.909 35.395 1.0392 19.911 16.524 33.859 15.485 13.949 35.395 12.909zm109.3 98.46q19.911-1.0392 33.859-16.524 13.948-15.485 12.909-35.395-1.0392-19.911-16.524-33.859-15.485-13.949-35.395-12.909-19.911 1.0392-33.859 16.524-13.948 15.485-12.909 35.395 1.0392 19.911 16.524 33.859 15.485 13.948 35.395 12.909zm-98.46 109.3q19.911-1.0392 33.859-16.524 13.948-15.485 12.909-35.395-1.0392-19.911-16.524-33.859-15.485-13.948-35.395-12.909-19.911 1.0392-33.859 16.524-13.948 15.485-12.909 35.395t16.524 33.859q15.485 13.948 35.395 12.909zm-207.76 10.844q19.911-1.0392 33.859-16.524 13.948-15.485 12.909-35.395-1.0392-19.911-16.524-33.859-15.485-13.948-35.395-12.909-19.911 1.0392-33.859 16.524-13.949 15.485-12.909 35.395t16.524 33.859q15.485 13.949 35.395 12.909zm109.3 98.46q19.911-1.0392 33.859-16.524 13.948-15.485 12.909-35.395-1.0392-19.911-16.524-33.859-15.485-13.948-35.395-12.909-19.911 1.0392-33.859 16.524-13.948 15.485-12.909 35.395 1.0392 19.911 16.524 33.859 15.485 13.949 35.395 12.909z"/></svg>
