<?xml version="1.0" encoding="UTF-8" standalone="no"?>
<svg
   height="48px"
   viewBox="0 -960 960 960"
   width="48px"
   version="1.1"
   id="svg1"
   sodipodi:docname="nest_protect_light.svg"
   inkscape:version="1.4.3 (0d15f75042, 2025-12-25)"
   xmlns:inkscape="http://www.inkscape.org/namespaces/inkscape"
   xmlns:sodipodi="http://sodipodi.sourceforge.net/DTD/sodipodi-0.dtd"
   xmlns="http://www.w3.org/2000/svg"
   xmlns:svg="http://www.w3.org/2000/svg">
  <path
     fill="currentColor"
     d="m 266.32076,-13.790737 q -104.89709,0 -178.713556,-73.816463 -73.816467,-73.81647 -73.816467,-178.71355 v -427.35848 q 0,-106.06262 73.816466,-179.29632 73.816467,-73.23371 178.713557,-73.23371 h 427.35848 q 106.0626,0 179.29631,73.23371 73.23371,73.2337 73.23371,179.29632 v 427.35848 q 0,104.89708 -73.23371,178.71355 -73.23371,73.816463 -179.29631,73.816463 z m 0,-77.701545 h 427.35848 q 74.30858,0 124.56853,-50.259938 50.25994,-50.27291 50.25994,-124.56853 v -427.35848 q 0,-74.30858 -50.25994,-124.56853 -50.25995,-50.25995 -124.56853,-50.25995 H 266.32076 q -74.29564,0 -124.56853,50.25995 -50.259948,50.25995 -50.259948,124.56853 v 427.35848 q 0,74.29562 50.259948,124.56853 50.27289,50.259938 124.56853,50.259938 z M 479.99999,-227.46998 q -104.89707,0 -178.71355,-73.81646 -73.81646,-73.81647 -73.81646,-179.36106 0,-105.54461 73.81646,-178.71355 73.81648,-73.16896 179.36107,-73.16896 105.54459,0 178.71355,73.2337 73.16895,73.23371 73.16895,179.29631 0,104.89709 -73.23371,178.71356 -73.2337,73.81646 -179.29631,73.81646 z m 0,-77.70154 q 74.30858,0 124.56853,-50.25995 50.25995,-50.27289 50.25995,-124.56853 0,-74.30857 -50.25995,-124.56851 -50.25995,-50.25996 -124.56853,-50.25996 -74.29562,0 -124.56851,50.25996 -50.25996,50.25994 -50.25996,124.56851 0,74.29564 50.25996,124.56853 50.27289,50.25995 124.56851,50.25995 z"
     id="path1"/>
</svg>
