<?xml version="1.0" encoding="UTF-8" standalone="no"?>
<svg
   height="48px"
   viewBox="0 -960 960 960"
   width="48px"
   version="1.1"
   id="svg1"
   sodipodi:docname="nest-cam-light.svg"
   inkscape:version="1.4.3 (0d15f75042, 2025-12-25)"
   xmlns:inkscape="http://www.inkscape.org/namespaces/inkscape"
   xmlns:sodipodi="http://sodipodi.sourceforge.net/DTD/sodipodi-0.dtd"
   xmlns="http://www.w3.org/2000/svg"
   xmlns:svg="http://www.w3.org/2000/svg">
  <path
     fill="currentColor"
     d="m 38.415086,-269.00292 q -26.836657,-26.87325 -26.836657,-64.61534 v -371.55346 q 0,-38.31541 26.885446,-65.15207 26.897646,-26.83665 64.651935,-26.83665 37.76649,0 64.60314,26.22673 26.83665,26.22673 26.83665,64.04201 40.25498,-75.63056 114.94627,-121.98478 74.69128,-46.35422 165.61874,-46.35422 63.43209,0 121.37486,23.78703 57.94277,23.78704 103.07715,68.92141 l 228.11154,228.11154 q 9.75879,9.75878 15.2481,23.78703 5.48931,14.02826 5.48931,27.44658 0,13.41833 -5.48931,27.44658 -5.48931,14.02824 -15.2481,23.78703 l -345.21693,345.21694 q -10.97864,10.978625 -24.39696,16.467943 -13.41834,5.489317 -26.83666,5.489317 -13.41832,0 -27.44658,-5.489317 -14.02825,-5.489318 -25.00687,-16.467943 L 250.6686,-333.61826 q -17.07787,-17.07787 -31.10611,-35.98551 -14.02825,-18.90764 -25.00689,-39.64505 v 75.63056 q 0,37.74209 -26.88545,64.61534 -26.89763,26.87325 -64.65192,26.87325 -37.766497,0 -64.603144,-26.87325 z M 243.34952,-559.29011 q 0,46.35422 17.68779,89.0489 17.6878,42.69467 50.68468,75.69155 l 219.51162,219.51162 326.91922,-328.13907 -219.51161,-219.51162 q -32.99689,-32.99689 -74.89866,-50.68468 -41.88958,-17.68779 -88.30479,-17.68779 -96.68514,0 -164.38669,67.60397 -67.70156,67.59177 -67.70156,164.16712 z m 307.40166,76.85041 z"
     id="path1"/>
</svg>
