<?xml version="1.0" encoding="UTF-8"?>
<svg version="1.1" viewBox="0 -960 960 960" xmlns="http://www.w3.org/2000/svg"><path d="m266.32-13.791q-104.9 0-178.71-73.816-73.816-73.816-73.816-178.71v-427.36q0-106.06 73.816-179.3 73.816-73.234 178.71-73.234h427.36q106.06 0 179.3 73.234 73.234 73.234 73.234 179.3v427.36q0 104.9-73.234 178.71-73.234 73.816-179.3 73.816zm0-77.702h427.36q74.309 0 124.57-50.26 50.26-50.273 50.26-124.57v-427.36q0-74.309-50.26-124.57-50.26-50.26-124.57-50.26h-427.36q-74.296 0-124.57 50.26-50.26 50.26-50.26 124.57v427.36q0 74.296 50.26 124.57 50.273 50.26 124.57 50.26zm213.68-135.98q-104.9 0-178.71-73.816-73.816-73.816-73.816-179.36 0-105.54 73.816-178.71 73.816-73.169 179.36-73.169t178.71 73.234q73.169 73.234 73.169 179.3 0 104.9-73.234 178.71-73.234 73.816-179.3 73.816zm0-77.702q74.309 0 124.57-50.26 50.26-50.273 50.26-124.57 0-74.309-50.26-124.57-50.26-50.26-124.57-50.26-74.296 0-124.57 50.26-50.26 50.26-50.26 124.57 0 74.296 50.26 124.57 50.273 50.26 124.57 50.26z" fill="currentColor"/></svg>
