<?xml version="1.0" encoding="UTF-8"?>
<svg fill="currentColor" version="1.1" viewBox="0 -960 960 960" xmlns="http://www.w3.org/2000/svg"><path d="m312.09-337.1 128.61-227.46v-52.398h-184.59v48.826h123.85l2.3818 3.5726-114.32 203.64zm363.81-41.085q30.367-41.085 30.367-101.82 0-60.734-30.963-101.82-30.963-41.085-83.361-41.085-53.589 0-83.956 41.085-30.367 41.085-30.367 101.82 0 60.734 30.367 101.82 30.367 41.085 83.956 41.085t83.956-41.085zm-83.956-7.7407q-30.963 0-46.444-27.986-15.481-27.985-15.481-66.093 0-28.581 13.1-61.33 13.1-32.749 48.826-32.749t48.826 32.749q13.1 32.749 13.1 61.33 0 38.108-15.481 66.093-15.481 27.986-46.444 27.986zm-111.94 382.27q-98.842 0-185.78-37.512-86.934-37.512-151.24-101.82-64.307-64.307-101.82-151.24-37.512-86.934-37.512-185.78 0-98.842 37.512-185.78 37.512-86.934 101.82-151.24 64.307-64.307 151.24-101.82 86.934-37.512 185.78-37.512 98.842 0 185.78 37.512 86.934 37.512 151.24 101.82 64.307 64.307 101.82 151.24 37.512 86.934 37.512 185.78 0 98.842-37.512 185.78-37.512 86.934-101.82 151.24-64.307 64.307-151.24 101.82-86.934 37.512-185.78 37.512zm0-95.27q159.58 0 270.33-110.75 110.75-110.75 110.75-270.33 0-159.58-110.75-270.33-110.75-110.75-270.33-110.75-159.58 0-270.33 110.75-110.75 110.75-110.75 270.33 0 159.58 110.75 270.33 110.75 110.75 270.33 110.75z" stroke-width="1.1909"/></svg>
