<?xml version="1.0" encoding="UTF-8"?>
<svg version="1.1" viewBox="0 -960 960 960" xmlns="http://www.w3.org/2000/svg"><path d="m322.13-6.3808q-86.83 0-148.66-61.834-61.834-61.834-61.834-148.66v-473.62q0-109.2 76.963-186.16 76.963-76.963 186.16-76.963h210.5q109.2 0 186.16 76.963t76.963 186.16v473.62q0 86.83-61.834 148.66-61.834 61.834-148.66 61.834zm0-78.937h315.75q55.256 0 93.408-38.153 38.153-38.153 38.153-93.408v-473.62q0-76.305-53.94-130.25-53.94-53.94-130.25-53.94h-210.5q-76.305 0-130.25 53.94-53.94 53.94-53.94 130.25v473.62q0 55.256 38.153 93.408 38.153 38.153 93.408 38.153zm0-355.21q17.103 0 28.286-11.84t11.183-27.628q0-17.103-11.183-28.286t-28.286-11.183q-15.787 0-27.628 11.183t-11.84 28.286q0 15.787 11.84 27.628t27.628 11.84zm157.87 0q17.103 0 28.286-11.84 11.183-11.84 11.183-27.628 0-17.103-11.183-28.286-11.183-11.183-28.286-11.183-15.787 0-27.628 11.183t-11.84 28.286q0 15.787 11.84 27.628t27.628 11.84zm157.87 0q17.103 0 28.286-11.84t11.183-27.628q0-17.103-11.183-28.286t-28.286-11.183q-15.787 0-27.628 11.183t-11.84 28.286q0 15.787 11.84 27.628t27.628 11.84z" fill="currentColor"/></svg>
