<?xml version="1.0" encoding="UTF-8" standalone="no"?>
<svg
   height="24px"
   viewBox="0 -960 960 960"
   width="24px"
   version="1.1"
   id="svg1"
   sodipodi:docname="nest-display-light.svg"
   inkscape:version="1.4.3 (0d15f75042, 2025-12-25)"
   xmlns:inkscape="http://www.inkscape.org/namespaces/inkscape"
   xmlns:sodipodi="http://sodipodi.sourceforge.net/DTD/sodipodi-0.dtd"
   xmlns="http://www.w3.org/2000/svg"
   xmlns:svg="http://www.w3.org/2000/svg">
  <path
     fill="currentColor"
     d="m 480,-141.97633 q -119.51551,0 -204.62504,-16.29758 -85.10953,-16.29757 -85.10953,-39.23489 v -41.04572 h -88.1276 q -42.252956,0 -71.226413,-31.38791 Q 1.9379599,-301.33035 5.559642,-343.58332 L 38.15478,-729.89607 q 2.414456,-37.42404 30.180685,-62.77583 27.766229,-25.35177 66.397515,-25.35177 h 690.53405 q 38.63128,0 66.39751,25.35177 27.76622,25.35178 30.18069,62.77583 l 32.59513,386.31275 q 3.62168,42.25296 -25.35177,73.64088 -28.97346,31.38791 -71.22642,31.38791 h -88.1276 v 41.04573 q 0,22.93732 -85.10953,39.23489 Q 599.51552,-141.97633 480,-141.97633 Z M 102.13783,-335.13272 H 857.86217 L 825.26703,-721.44547 H 134.73298 Z M 480,-528.28909 Z"
     id="path1"/>
</svg>
