<?xml version="1.0" encoding="UTF-8"?>
<svg version="1.1" viewBox="0 -960 960 960" xmlns="http://www.w3.org/2000/svg"><path d="m480-141.98q-119.52 0-204.63-16.298-85.11-16.298-85.11-39.235v-41.046h-88.128q-42.253 0-71.226-31.388-28.973-31.388-25.352-73.641l32.595-386.31q2.4145-37.424 30.181-62.776 27.766-25.352 66.398-25.352h690.53q38.631 0 66.398 25.352 27.766 25.352 30.181 62.776l32.595 386.31q3.6217 42.253-25.352 73.641-28.973 31.388-71.226 31.388h-88.128v41.046q0 22.937-85.11 39.235-85.11 16.298-204.63 16.298zm-377.86-193.16h755.72l-32.595-386.31h-690.53z" fill="currentColor"/></svg>
