<?xml version="1.0" encoding="UTF-8"?>
<svg version="1.1" viewBox="0 -960 960 960" xmlns="http://www.w3.org/2000/svg"><path d="m38.415-269q-26.837-26.873-26.837-64.615v-371.55q0-38.315 26.885-65.152 26.898-26.837 64.652-26.837 37.766 0 64.603 26.227t26.837 64.042q40.255-75.631 114.95-121.98 74.691-46.354 165.62-46.354 63.432 0 121.37 23.787 57.943 23.787 103.08 68.921l228.11 228.11q9.7588 9.7588 15.248 23.787 5.4893 14.028 5.4893 27.447 0 13.418-5.4893 27.447-5.4893 14.028-15.248 23.787l-345.22 345.22q-10.979 10.979-24.397 16.468-13.418 5.4893-26.837 5.4893t-27.447-5.4893q-14.028-5.4893-25.007-16.468l-228.11-226.89q-17.078-17.078-31.106-35.986-14.028-18.908-25.007-39.645v75.631q0 37.742-26.885 64.615-26.898 26.873-64.652 26.873-37.766 0-64.603-26.873zm204.93-290.29q0 46.354 17.688 89.049 17.688 42.695 50.685 75.692l219.51 219.51 326.92-328.14-219.51-219.51q-32.997-32.997-74.899-50.685-41.89-17.688-88.305-17.688-96.685 0-164.39 67.604-67.702 67.592-67.702 164.17z" fill="currentColor"/></svg>
