<?xml version="1.0" encoding="UTF-8" standalone="no"?>
<svg
   height="48px"
   viewBox="0 -960 960 960"
   width="48px"
   version="1.1"
   id="svg1"
   sodipodi:docname="nest_audio_light.svg"
   inkscape:version="1.4.3 (0d15f75042, 2025-12-25)"
   xmlns:inkscape="http://www.inkscape.org/namespaces/inkscape"
   xmlns:sodipodi="http://sodipodi.sourceforge.net/DTD/sodipodi-0.dtd"
   xmlns="http://www.w3.org/2000/svg"
   xmlns:svg="http://www.w3.org/2000/svg">
  <path
     fill="currentColor"
     d="m 322.12693,-6.3807903 q -86.83019,0 -148.66381,-61.8336197 -61.83362,-61.83362 -61.83362,-148.6638 v -473.61922 q 0,-109.19554 76.96312,-186.15866 76.96313,-76.96312 186.15867,-76.96312 h 210.49743 q 109.19554,0 186.15866,76.96312 76.96312,76.96312 76.96312,186.15866 v 473.61922 q 0,86.83018 -61.83362,148.6638 -61.83362,61.8336197 -148.66381,61.8336197 z m 0,-78.9365377 h 315.74614 q 55.25557,0 93.40823,-38.152662 38.15266,-38.15266 38.15266,-93.40822 v -473.61922 q 0,-76.30532 -53.93996,-130.24528 -53.93997,-53.93996 -130.24528,-53.93996 H 374.75129 q -76.30532,0 -130.24529,53.93996 -53.93996,53.93996 -53.93996,130.24528 v 473.61922 q 0,55.25556 38.15266,93.40822 38.15266,38.152662 93.40823,38.152662 z m 0,-355.214402 q 17.10291,0 28.28559,-11.84048 11.18268,-11.84048 11.18268,-27.62778 0,-17.10292 -11.18268,-28.2856 -11.18268,-11.18268 -28.28559,-11.18268 -15.78731,0 -27.62779,11.18268 -11.84048,11.18268 -11.84048,28.2856 0,15.7873 11.84048,27.62778 11.84048,11.84048 27.62779,11.84048 z m 157.87307,0 q 17.10292,0 28.28559,-11.84048 11.18268,-11.84048 11.18268,-27.62778 0,-17.10292 -11.18268,-28.2856 -11.18267,-11.18268 -28.28559,-11.18268 -15.7873,0 -27.62778,11.18268 -11.84048,11.18268 -11.84048,28.2856 0,15.7873 11.84048,27.62778 11.84048,11.84048 27.62778,11.84048 z m 157.87307,0 q 17.10291,0 28.28559,-11.84048 11.18268,-11.84048 11.18268,-27.62778 0,-17.10292 -11.18268,-28.2856 -11.18268,-11.18268 -28.28559,-11.18268 -15.78731,0 -27.62779,11.18268 -11.84048,11.18268 -11.84048,28.2856 0,15.7873 11.84048,27.62778 11.84048,11.84048 27.62779,11.84048 z M 480,-479.99999 Z"
     id="path1"/>
</svg>
