<?xml version="1.0" encoding="UTF-8" standalone="no"?>
<svg
   height="24px"
   viewBox="0 -960 960 960"
   width="24px"
   fill="currentColor"
   version="1.1"
   id="svg1"
   sodipodi:docname="nest-thermostat.svg"
   inkscape:version="1.4.3 (0d15f75042, 2025-12-25)"
   xmlns:inkscape="http://www.inkscape.org/namespaces/inkscape"
   xmlns:sodipodi="http://sodipodi.sourceforge.net/DTD/sodipodi-0.dtd"
   xmlns="http://www.w3.org/2000/svg"
   xmlns:svg="http://www.w3.org/2000/svg">
  <defs
     id="defs1" />
  <sodipodi:namedview
     id="namedview1"
     pagecolor="#505050"
     bordercolor="#ffffff"
     borderopacity="1"
     inkscape:showpageshadow="0"
     inkscape:pageopacity="0"
     inkscape:pagecheckerboard="1"
     inkscape:deskcolor="#505050"
     inkscape:zoom="34.176828"
     inkscape:cx="7.797681"
     inkscape:cy="10.679751"
     inkscape:window-width="2560"
     inkscape:window-height="1368"
     inkscape:window-x="0"
     inkscape:window-y="0"
     inkscape:window-maximized="1"
     inkscape:current-layer="svg1" />
  <path
     d="m 312.08704,-337.09536 128.61418,-227.45656 v -52.39837 H 256.11606 v 48.82576 h 123.85069 l 2.38175,3.57261 -114.32373,203.63913 z m 363.81143,-41.08508 Q 706.2657,-419.26553 706.2657,-480 q 0,-60.73448 -30.96268,-101.81957 -30.96267,-41.08509 -83.36104,-41.08509 -53.58924,0 -83.95648,41.08509 -30.36723,41.08509 -30.36723,101.81957 0,60.73447 30.36723,101.81956 30.36724,41.08508 83.95648,41.08508 53.58924,0 83.95649,-41.08508 z m -83.95649,-7.74067 q -30.96268,0 -46.44402,-27.9855 Q 530.01664,-441.8921 530.01664,-480 q 0,-28.58093 13.09958,-61.32991 13.0996,-32.74899 48.82576,-32.74899 35.72616,0 48.82575,32.74899 13.0996,32.74898 13.0996,61.32991 0,38.1079 -15.48134,66.09339 -15.48134,27.9855 -46.44401,27.9855 z M 480.00001,-3.6511737 q -98.84239,0 -185.77605,-37.5124663 Q 207.2903,-78.676117 142.98321,-142.98321 78.676113,-207.29031 41.163644,-294.22397 3.6511733,-381.15763 3.6511733,-480 q 0,-98.84239 37.5124707,-185.77605 37.512469,-86.93366 101.819566,-151.24075 64.30709,-64.3071 151.24075,-101.81956 86.93366,-37.51247 185.77605,-37.51247 98.84237,0 185.77603,37.51247 86.93366,37.51246 151.24076,101.81956 64.30709,64.30709 101.81957,151.24075 37.51246,86.93366 37.51246,185.77605 0,98.84237 -37.51246,185.77603 -37.51248,86.93366 -101.81957,151.24076 -64.3071,64.307093 -151.24076,101.81957 -86.93366,37.5124662 -185.77603,37.5124663 z m 0,-95.2697623 q 159.57685,0 270.32795,-110.751114 Q 861.07907,-320.42315 861.07907,-480 q 0,-159.57687 -110.75111,-270.32796 -110.7511,-110.7511 -270.32795,-110.7511 -159.57687,0 -270.32796,110.7511 Q 98.920939,-639.57687 98.920939,-480 q 0,159.57685 110.751111,270.32795 110.75109,110.751114 270.32796,110.751114 z m 0,-381.079064 z"
     id="path1"
     style="stroke-width:1.19087" />
</svg>
