<?xml version="1.0" encoding="UTF-8"?>
<svg fill="currentColor" version="1.1" viewBox="0 -960 960 960" xmlns="http://www.w3.org/2000/svg"><path d="m434.53-493.58q13.583-13.583 13.583-33.662 0-20.079-13.583-33.662-13.583-13.583-33.662-13.583-20.079 0-33.662 13.583t-13.583 33.662q0 20.079 13.583 33.662t33.662 13.583q20.079 0 33.662-13.583zm-157.09 0q13.583-13.583 13.583-33.662 0-20.079-13.583-33.662t-33.662-13.583q-20.079 0-33.662 13.583t-13.583 33.662q0 20.079 13.583 33.662t33.662 13.583q20.079 0 33.662-13.583zm281.7 13.583q20.079 0 33.662-13.583t13.583-33.662q0-20.079-13.583-33.662t-33.662-13.583q-20.079 0-33.662 13.583-13.583 13.583-13.583 33.662 0 20.079 13.583 33.662 13.583 13.583 33.662 13.583zm190.75-13.583q13.583-13.583 13.583-33.662 0-20.079-13.583-33.662t-33.662-13.583q-20.079 0-33.662 13.583t-13.583 33.662q0 20.079 13.583 33.662t33.662 13.583q20.079 0 33.662-13.583zm-647.85 202.56h755.92v-472.45h-755.92zm377.96 188.98q-116.93 0-200.2-15.945t-83.27-38.387v-40.158h-94.491q-38.977 0-66.734-27.757-27.757-27.757-27.757-66.734v-472.45q0-38.977 27.757-66.734 27.757-27.757 66.734-27.757h755.92q38.977 0 66.734 27.757 27.757 27.757 27.757 66.734v472.45q0 38.977-27.757 66.734-27.757 27.757-66.734 27.757h-94.491v40.158q0 22.442-83.27 38.387t-200.2 15.945z" stroke-width="1.1811"/></svg>
