<?xml version="1.0" encoding="UTF-8" standalone="no"?>
<svg
   viewBox="0 0 120 120"
   width="100%"
   height="100%"
   version="1.1"
   id="svg8"
   xmlns="http://www.w3.org/2000/svg"
   xmlns:svg="http://www.w3.org/2000/svg">
  <defs
     id="defs1">
    <rect
       x="8.75"
       y="46.625"
       width="33"
       height="18.125"
       id="rect2" />
  </defs>
  <path
     fill="currentColor"
     d="M 25.048828 11.941406 L 25.048828 27.087891 L 36.699219 41.068359 L 36.699219 70.193359 L 1.7480469 93.496094 L 1.7480469 110.9707 L 118.25195 110.9707 L 118.25195 93.496094 L 83.300781 70.193359 L 83.300781 41.068359 L 94.951172 27.087891 L 94.951172 11.941406 L 73.980469 11.941406 A 13.980583 13.980583 0 0 1 46.019531 11.941406 L 25.048828 11.941406 z M 35.533203 17.183594 A 3.4951456 3.4951456 0 0 1 39.029297 20.679688 A 3.4951456 3.4951456 0 0 1 35.533203 24.173828 A 3.4951456 3.4951456 0 0 1 32.039062 20.679688 A 3.4951456 3.4951456 0 0 1 35.533203 17.183594 z M 84.466797 17.183594 A 3.4951456 3.4951456 0 0 1 87.960938 20.679688 A 3.4951456 3.4951456 0 0 1 84.466797 24.173828 A 3.4951456 3.4951456 0 0 1 80.970703 20.679688 A 3.4951456 3.4951456 0 0 1 84.466797 17.183594 z M 46.019531 35.826172 L 60 45.146484 L 73.980469 35.826172 L 73.980469 42.816406 L 60 52.136719 L 46.019531 42.816406 L 46.019531 35.826172 z M 46.019531 49.806641 L 60 59.126953 L 73.980469 49.806641 L 73.980469 56.796875 L 60 66.117188 L 46.019531 56.796875 L 46.019531 49.806641 z M 70.705078 78.060547 C 71.399967 78.060547 72.009188 78.135117 72.533203 78.283203 C 73.062913 78.425598 73.541564 78.620478 73.96875 78.871094 C 74.395936 79.116014 74.75867 79.381226 75.060547 79.666016 L 75.523438 80.09375 L 73.900391 81.878906 L 73.609375 81.572266 C 73.415717 81.361521 73.181601 81.17299 72.908203 81.007812 C 72.640501 80.836939 72.333772 80.698064 71.986328 80.589844 C 71.64458 80.475928 71.234307 80.417969 70.755859 80.417969 C 69.690743 80.417969 68.795633 80.784773 68.072266 81.519531 C 67.3489 82.248595 66.988281 83.199711 66.988281 84.373047 C 66.988281 85.517904 67.334409 86.456484 68.029297 87.185547 C 68.724187 87.91461 69.621413 88.279297 70.720703 88.279297 C 71.221935 88.279297 71.663303 88.221337 72.044922 88.107422 C 72.426542 87.993506 72.758015 87.842259 73.037109 87.654297 C 73.316203 87.46064 73.546251 87.253387 73.728516 87.03125 L 74.001953 86.697266 L 75.71875 88.279297 L 75.265625 88.798828 C 74.969443 89.146272 74.602639 89.461139 74.164062 89.740234 C 73.725487 90.013632 73.215739 90.231305 72.634766 90.396484 C 72.05949 90.555966 71.396377 90.636719 70.644531 90.636719 C 68.787699 90.636719 67.281249 90.056476 66.125 88.894531 C 64.968751 87.732587 64.390625 86.224184 64.390625 84.373047 C 64.390625 82.493431 64.987476 80.974445 66.183594 79.8125 C 67.379713 78.64486 68.888116 78.060547 70.705078 78.060547 z M 59.765625 78.205078 L 61.277344 78.205078 L 61.277344 90.464844 L 58.988281 90.464844 L 58.988281 81.126953 L 56.707031 82.785156 L 55.65625 81.169922 L 59.765625 78.205078 z M 44.28125 78.230469 L 46.792969 78.230469 L 46.792969 84.011719 L 51.628906 78.230469 L 54.464844 78.230469 L 50.181641 83.251953 L 54.763672 90.464844 L 51.902344 90.464844 L 48.556641 85.085938 L 46.792969 86.994141 L 46.792969 90.464844 L 44.28125 90.464844 L 44.28125 78.230469 z M 7.2597656 95.277344 L 112.74023 95.277344 C 114.20113 95.277344 115.37695 96.455116 115.37695 97.916016 L 115.37695 105.38672 C 115.37695 106.84762 114.20113 108.02344 112.74023 108.02344 L 7.2597656 108.02344 C 5.7988636 108.02344 4.6230469 106.84762 4.6230469 105.38672 L 4.6230469 97.916016 C 4.6230469 96.455116 5.7988636 95.277344 7.2597656 95.277344 z " />
</svg>
