<?xml version="1.0" encoding="UTF-8"?>
<svg version="1.1" viewBox="0 0 120 120" xmlns="http://www.w3.org/2000/svg"><path d="m25.049 11.941v15.146l11.65 13.98v29.125l-34.951 23.303v17.475h116.5v-17.475l-34.951-23.303v-29.125l11.65-13.98v-15.146h-20.971a13.981 13.981 0 01-27.961 0h-20.971zm10.484 5.2422a3.4951 3.4951 0 013.4961 3.4961 3.4951 3.4951 0 01-3.4961 3.4941 3.4951 3.4951 0 01-3.4941-3.4941 3.4951 3.4951 0 013.4941-3.4961zm48.934 0a3.4951 3.4951 0 013.4941 3.4961 3.4951 3.4951 0 01-3.4941 3.4941 3.4951 3.4951 0 01-3.4961-3.4941 3.4951 3.4951 0 013.4961-3.4961zm-38.447 18.643 13.98 9.3203 13.98-9.3203v6.9902l-13.98 9.3203-13.98-9.3203v-6.9902zm0 13.98 13.98 9.3203 13.98-9.3203v6.9902l-13.98 9.3203-13.98-9.3203v-6.9902zm24.686 28.254c.69489 0 1.3041.07457 1.8281.22266.52971.1424 1.0084.33728 1.4355.58789.42719.24492.78992.51013 1.0918.79492l.46289.42773-1.623 1.7852-.29102-.30664c-.19366-.21074-.42777-.39928-.70117-.56445-.2677-.17087-.57443-.30975-.92188-.41797-.34175-.11392-.75202-.17188-1.2305-.17188-1.0651 0-1.9602.3668-2.6836 1.1016-.72337.72906-1.084 1.6802-1.084 2.8535 0 1.1449.34613 2.0834 1.041 2.8125.69489.72906 1.5921 1.0938 2.6914 1.0938.50123 0 .9426-.05796 1.3242-.17188.38162-.11392.71309-.26516.99219-.45312.27909-.19366.50914-.40091.69141-.62305l.27344-.33398 1.7168 1.582-.45312.51953c-.29618.34744-.66299.66231-1.1016.94141-.43858.2734-.94832.49107-1.5293.65625-.57528.15948-1.2384.24024-1.9902.24024-1.8568 0-3.3633-.58024-4.5195-1.7422-1.1562-1.1619-1.7344-2.6703-1.7344-4.5215 0-1.8796.59685-3.3986 1.793-4.5605 1.1961-1.1676 2.7045-1.752 4.5215-1.752zm-10.939.14453h1.5117v12.26h-2.2891v-9.3379l-2.2812 1.6582-1.0508-1.6152 4.1094-2.9648zm-15.484.025391h2.5117v5.7812l4.8359-5.7812h2.8359l-4.2832 5.0215 4.582 7.2129h-2.8613l-3.3457-5.3789-1.7637 1.9082v3.4707h-2.5117v-12.234zm-37.021 17.047h105.48c1.4609 0 2.6367 1.1778 2.6367 2.6387v7.4707c0 1.4609-1.1758 2.6367-2.6367 2.6367h-105.48c-1.4609 0-2.6367-1.1758-2.6367-2.6367v-7.4707c0-1.4609 1.1758-2.6387 2.6367-2.6387z" fill="currentColor"/></svg>
