<?xml version="1.0" encoding="UTF-8"?>
<svg fill="currentColor" version="1.1" viewBox="0 -960 960 960" xmlns="http://www.w3.org/2000/svg"><path d="m5.931-242.97v-474.07h948.14v474.07zm94.814-94.814h758.51v-284.44h-758.51zm47.407-94.814h284.44v-94.814h-284.44zm460.44-13.629q13.629-13.629 13.629-33.777 0-20.148-13.629-33.777-13.629-13.629-33.777-13.629-20.148 0-33.777 13.629-13.629 13.629-13.629 33.777 0 20.148 13.629 33.777 13.629 13.629 33.777 13.629 20.148 0 33.777-13.629zm142.22 0q13.629-13.629 13.629-33.777 0-20.148-13.629-33.777-13.629-13.629-33.777-13.629t-33.777 13.629q-13.629 13.629-13.629 33.777 0 20.148 13.629 33.777 13.629 13.629 33.777 13.629t33.777-13.629zm-650.07 108.44v-284.44z" stroke-width="1.1852"/></svg>
