<?xml version="1.0" encoding="UTF-8" standalone="no"?>
<svg
   height="24px"
   viewBox="0 -960 960 960"
   width="24px"
   fill="currentColor"
   version="1.1"
   id="svg1"
   sodipodi:docname="vacuum-fill.svg"
   inkscape:version="1.4.3 (0d15f75042, 2025-12-25)"
   xmlns:inkscape="http://www.inkscape.org/namespaces/inkscape"
   xmlns:sodipodi="http://sodipodi.sourceforge.net/DTD/sodipodi-0.dtd"
   xmlns="http://www.w3.org/2000/svg"
   xmlns:svg="http://www.w3.org/2000/svg">
  <defs
     id="defs1" />
  <sodipodi:namedview
     id="namedview1"
     pagecolor="#505050"
     bordercolor="#ffffff"
     borderopacity="1"
     inkscape:showpageshadow="0"
     inkscape:pageopacity="0"
     inkscape:pagecheckerboard="1"
     inkscape:deskcolor="#505050"
     inkscape:zoom="48.583333"
     inkscape:cx="12"
     inkscape:cy="9.2418525"
     inkscape:window-width="2560"
     inkscape:window-height="1368"
     inkscape:window-x="0"
     inkscape:window-y="0"
     inkscape:window-maximized="1"
     inkscape:current-layer="svg1" />
  <path
     d="m 480,-480.00001 q 22.50144,0 37.72299,-15.22154 15.22155,-15.22157 15.22155,-37.72299 0,-22.50143 -15.22155,-37.72299 -15.22155,-15.22155 -37.72299,-15.22155 -22.50143,0 -37.72299,15.22155 -15.22154,15.22156 -15.22154,37.72299 0,22.50142 15.22154,37.72299 15.22156,15.22154 37.72299,15.22154 z M 343.66781,-162.33277 H 617.6558 l 96.62379,96.623791 Q 662.65867,-35.265863 603.09606,-19.382504 543.53346,-3.4991442 480,-3.4991442 q -63.53344,0 -122.43424,-15.8833598 -58.90081,-15.883359 -110.52173,-46.326475 z M 480,-956.50086 q 99.27102,0 185.9677,37.72299 86.69668,37.72297 150.89194,101.91823 64.19526,64.19526 101.91824,150.89194 37.72298,86.69668 37.72298,185.96769 0,104.56548 -42.35562,195.23299 -42.35563,90.66753 -113.83076,156.8482 L 687.80732,-240.42596 q 50.29732,-43.67924 80.07862,-105.88908 29.7813,-62.20983 29.7813,-133.68497 0,-132.36134 -92.65294,-225.01429 -92.65294,-92.65295 -225.0143,-92.65295 -132.36134,0 -225.01429,92.65295 -92.65295,92.65295 -92.65295,225.01429 0,71.47514 29.78132,133.68497 29.78129,62.20984 80.0786,105.88908 L 159.68554,-127.91882 Q 88.210408,-194.09949 45.854777,-284.76702 3.4991443,-375.43453 3.4991443,-480.00001 q 0,-99.27101 37.7229847,-185.96769 37.722985,-86.69668 101.918241,-150.89194 64.19526,-64.19526 150.89194,-101.91823 Q 380.72899,-956.50086 480,-956.50086 Z m 0,264.7227 q 87.3585,0 149.56833,62.20983 62.20984,62.20984 62.20984,149.56832 0,87.3585 -62.20984,149.56833 -62.20983,62.20984 -149.56833,62.20984 -87.35848,0 -149.56832,-62.20984 -62.20983,-62.20983 -62.20983,-149.56833 0,-87.35848 62.20983,-149.56832 Q 392.64152,-691.77816 480,-691.77816 Z"
     id="path1"
     style="stroke-width:1.32362" />
</svg>
