<?xml version="1.0" encoding="UTF-8"?>
<svg fill="currentColor" version="1.1" viewBox="0 -960 960 960" xmlns="http://www.w3.org/2000/svg"><path d="m479.25-480.75q-21.25 0-35.625-14.375-14.375-14.375-14.375-35.625 0-21.25 14.375-35.625 14.375-14.375 35.625-14.375t35.625 14.375q14.375 14.375 14.375 35.625 0 21.25-14.375 35.625-14.375 14.375-35.625 14.375zm-78.749 250-67.5 67.5q33.75 16.25 70 24.374 36.25 8.1246 76.25 8.125 40 0 76.25-8.125 36.25-8.125 70-24.374l-66.25-67.5zm78.749-600q-72.5 0-136.25 27.5-63.75 27.5-111.25 74.999-47.5 47.5-74.999 111.25-27.5 63.75-27.5 136.25 0 78.749 31.875 146.25 31.875 67.5 86.875 115l70-70q-40-35-64.375-84.375-24.374-49.375-24.374-106.88 0-103.75 73.124-176.88 73.124-73.124 176.88-73.124t176.88 73.124q73.124 73.124 73.124 176.88 0 57.5-24.374 106.88-24.374 49.375-64.375 84.375l70 70q54.999-47.5 86.875-115 31.875-67.5 31.875-146.25 0-72.5-27.5-136.25-27.5-63.75-74.999-111.25-47.5-47.5-111.25-74.999-63.75-27.5-136.25-27.5zm0 200q-62.499 0-106.25 43.75-43.751 43.75-43.75 106.25 0 62.499 43.75 106.25 43.75 43.752 106.25 43.75 62.499 0 106.25-43.75 43.752-43.75 43.75-106.25 0-62.499-43.75-106.25-43.75-43.751-106.25-43.75zm0 600q-93.75 0-175.63-35.625-81.874-35.625-142.5-96.247-60.624-60.624-96.247-142.5-35.625-81.874-35.625-175.63t35.625-175.63q35.625-81.874 96.247-142.5 60.624-60.624 142.5-96.247 81.875-35.625 175.63-35.625t175.63 35.625q81.875 35.625 142.5 96.247 60.624 60.624 96.247 142.5 35.625 81.875 35.625 175.63t-35.625 175.63q-35.625 81.875-96.247 142.5-60.624 60.624-142.5 96.247-81.874 35.625-175.63 35.625z" stroke-width="1.25"/></svg>
