<?xml version="1.0" encoding="UTF-8"?>
<svg fill="currentColor" version="1.1" viewBox="0 -960 960 960" xmlns="http://www.w3.org/2000/svg"><path d="m480-480q21.257 0 35.637-14.38 14.38-14.38 14.38-35.637t-14.38-35.637-35.637-14.38-35.637 14.38q-14.38 14.38-14.38 35.637t14.38 35.637q14.38 14.38 35.637 14.38zm-128.79 300.11h258.84l91.281 91.281q-48.767 28.76-105.03 43.765-56.27 15.005-116.29 15.005-60.02 0-115.66-15.005-55.644-15.005-104.41-43.765zm128.79-750.26q93.782 0 175.69 35.637 81.903 35.637 142.55 96.285 60.644 60.647 96.285 142.55t35.637 175.69q0 98.788-40.014 184.44-40.014 85.655-107.54 148.18l-106.29-106.29q47.516-41.264 75.651-100.04 28.134-58.77 28.134-126.29 0-125.04-87.53-212.57-87.53-87.527-212.57-87.53-125.04 0-212.57 87.53-87.527 87.53-87.53 212.57 0 67.523 28.134 126.29 28.134 58.77 75.651 100.04l-106.29 106.29q-67.523-62.522-107.54-148.18-40.014-85.655-40.014-184.44 0-93.782 35.637-175.69 35.637-81.903 96.285-142.55 60.646-60.646 142.55-96.285 81.903-35.637 175.69-35.637zm0 250.08q82.528 0 141.3 58.77 58.77 58.77 58.77 141.3 0 82.528-58.77 141.3-58.77 58.77-141.3 58.77-82.528 0-141.3-58.77-58.77-58.77-58.77-141.3 0-82.528 58.77-141.3 58.77-58.77 141.3-58.77z" stroke-width="1.2504"/></svg>
