<?xml version="1.0" encoding="UTF-8" standalone="no"?>
<svg
   height="24px"
   viewBox="0 -960 960 960"
   width="24px"
   fill="currentColor"
   version="1.1"
   id="svg1"
   sodipodi:docname="vacuum.svg"
   inkscape:version="1.4.3 (0d15f75042, 2025-12-25)"
   xmlns:inkscape="http://www.inkscape.org/namespaces/inkscape"
   xmlns:sodipodi="http://sodipodi.sourceforge.net/DTD/sodipodi-0.dtd"
   xmlns="http://www.w3.org/2000/svg"
   xmlns:svg="http://www.w3.org/2000/svg">
  <defs
     id="defs1" />
  <sodipodi:namedview
     id="namedview1"
     pagecolor="#505050"
     bordercolor="#ffffff"
     borderopacity="1"
     inkscape:showpageshadow="0"
     inkscape:pageopacity="0"
     inkscape:pagecheckerboard="1"
     inkscape:deskcolor="#505050"
     inkscape:zoom="48.333333"
     inkscape:cx="11.989655"
     inkscape:cy="12"
     inkscape:window-width="2560"
     inkscape:window-height="1368"
     inkscape:window-x="0"
     inkscape:window-y="0"
     inkscape:window-maximized="1"
     inkscape:current-layer="svg1" />
  <path
     d="m 480,-480 q -22.45172,0 -37.63966,-15.18793 -15.18793,-15.18793 -15.18793,-37.63966 0,-22.45172 15.18793,-37.63965 15.18794,-15.18794 37.63966,-15.18794 22.45172,0 37.63965,15.18794 15.18794,15.18793 15.18794,37.63965 0,22.45173 -15.18794,37.63966 Q 502.45172,-480 480,-480 Z m -83.20345,264.13794 -71.31724,71.31723 q 35.65862,17.16897 73.95862,25.75345 38.3,8.58448 80.56207,8.58448 42.26206,0 80.56206,-8.58448 38.3,-8.58448 73.95863,-25.75345 l -69.99655,-71.31723 z M 480,-849.7931 q -76.6,0 -143.95517,29.05517 -67.35518,29.05518 -117.54138,79.24138 -50.18621,50.18621 -79.24139,117.54137 Q 110.2069,-556.6 110.2069,-480 q 0,83.20345 33.67759,154.52069 33.67757,71.31725 91.78792,121.50345 l 73.95862,-73.95863 Q 267.36896,-314.9138 241.61552,-367.08103 215.86206,-419.24828 215.86206,-480 q 0,-109.61724 77.26035,-186.87759 77.26034,-77.26034 186.87759,-77.26034 109.61724,0 186.87759,77.26034 77.26034,77.26035 77.26034,186.87759 0,60.75172 -25.75344,112.91897 -25.75346,52.16723 -68.01553,89.14654 l 73.95863,73.95863 q 58.11034,-50.1862 91.78793,-121.50345 Q 849.7931,-396.79655 849.7931,-480 q 0,-76.6 -29.05517,-143.95518 -29.05518,-67.35516 -79.24138,-117.54137 -50.18621,-50.1862 -117.54137,-79.24138 Q 556.6,-849.7931 480,-849.7931 Z m 0,211.31035 q -66.03448,0 -112.25862,46.22413 -46.22414,46.22413 -46.22414,112.25862 0,66.03448 46.22414,112.25862 46.22414,46.22414 112.25862,46.22414 66.03449,0 112.25862,-46.22414 46.22413,-46.22414 46.22413,-112.25862 0,-66.03449 -46.22413,-112.25862 Q 546.03449,-638.48275 480,-638.48275 Z m 0,633.9310283 q -99.05172,0 -185.5569,-37.6396553 Q 207.93793,-79.831032 143.88449,-143.88449 79.831032,-207.93793 42.191377,-294.4431 4.5517217,-380.94828 4.5517217,-480 q 0,-99.05172 37.6396553,-185.5569 37.639655,-86.50516 101.693113,-150.55862 64.05344,-64.05344 150.55861,-101.6931 86.50518,-37.63966 185.5569,-37.63966 99.05172,0 185.5569,37.63966 86.50516,37.63966 150.55862,101.6931 64.05344,64.05346 101.6931,150.55862 37.63966,86.50518 37.63966,185.5569 0,99.05172 -37.63966,185.5569 -37.63966,86.50517 -101.6931,150.55861 Q 752.06206,-79.831032 665.5569,-42.191377 579.05172,-4.5517217 480,-4.5517217 Z"
     id="path1"
     style="stroke-width:1.32069" />
</svg>
