<?xml version="1.0" encoding="UTF-8" standalone="no"?>
<svg
   xml:space="preserve"
   style="fill-rule:evenodd;clip-rule:evenodd;stroke-linejoin:round;stroke-miterlimit:2"
   viewBox="0 0 256 256"
   version="1.1"
   id="svg8"
   sodipodi:docname="asus-router-light.svg"
   inkscape:version="1.4.3 (0d15f75042, 2025-12-25)"
   xmlns:inkscape="http://www.inkscape.org/namespaces/inkscape"
   xmlns:sodipodi="http://sodipodi.sourceforge.net/DTD/sodipodi-0.dtd"
   xmlns="http://www.w3.org/2000/svg"
   xmlns:svg="http://www.w3.org/2000/svg"><sodipodi:namedview
     id="namedview8"
     pagecolor="#505050"
     bordercolor="#ffffff"
     borderopacity="1"
     inkscape:showpageshadow="0"
     inkscape:pageopacity="0"
     inkscape:pagecheckerboard="1"
     inkscape:deskcolor="#505050"
     inkscape:zoom="1.6020388"
     inkscape:cx="80.210292"
     inkscape:cy="124.84092"
     inkscape:window-width="2560"
     inkscape:window-height="1368"
     inkscape:window-x="0"
     inkscape:window-y="0"
     inkscape:window-maximized="1"
     inkscape:current-layer="svg8" /><path
     d="M 130.624,255.95 V -0.44 L 58.76,-0.43 C 26.416,-0.414 -0.194,26.196 -0.21,58.54 v 138.45 c 0.016,32.344 26.626,58.954 58.97,58.97"
     style="display:inline;fill:#0090c9"
     transform="matrix(0.99848,0,0,0.99844,0.21,0.44)"
     id="path1" /><path
     d="M 127.35,-0.43 H 58.75 C 26.414,-0.403 -0.184,26.204 -0.2,58.54 v 138.45 c 0.016,32.344 26.626,58.954 58.97,58.97 h 68.59 V -0.44 Z"
     style="display:inline;fill:url(#a)"
     transform="matrix(-0.99848,0,0,-0.99844,255.78,255.561)"
     id="path2" /><path
     d="M48.6 30 0 106.4h33.2l46.8-73zm200.1-1.7V0h-94.5c-12.9.8-18.5 7-22.7 11.4-4.5 4.7-7 14.6-7 14.6V.2H74.2c-3.8 0-7.4 1.6-10.1 5.4-2.8 3.7-14.3 22.7-14.3 22.7zm-153 78.1h132.2c23-4.6 25.4-25.6 25.4-25.6 1.1-6.2.5-11.3.5-11.3-.7-4.2-8.7-22.8-25.9-24.4-10.3-1-102-8.3-102-8.3 1.8 9.2 5.9 13.9 8.7 16.5 6.4 6.1 16.5 7.9 16.5 7.9l70.7 5.9c2.2.1 6.3.7 6.2 6.1 0 .7-.6 5.4-5.8 5.4h-98.9v-42l-27.5-2c-.1 0-.1 71.8-.1 71.8"
     style="fill:#2b2b2b;fill-rule:nonzero;fill-opacity:1"
     transform="translate(96.93 212.77)scale(.1255)"
     id="path3" /><path
     d="m 514.3,13.5 c 0,-6.1 4.9,-11.1 10.9,-11.1 2.9,0 5.6,1.2 7.7,3.2 2.1,2.1 3.2,4.9 3.2,7.8 0,2.9 -1.1,5.7 -3.2,7.8 -2.1,2.1 -4.8,3.3 -7.7,3.3 -6,0 -10.9,-4.9 -10.9,-11 m -0.9,0 c 0,6.6 5.3,12 11.9,12 3.2,0 6.1,-1.2 8.3,-3.5 2.2,-2.3 3.5,-5.3 3.5,-8.5 0,-3.2 -1.2,-6.2 -3.5,-8.5 -2.3,-2.3 -5.2,-3.5 -8.3,-3.5 -6.6,0 -11.9,5.4 -11.9,12 m 7.4,7.1 h 1.7 V 15 h 3.8 c 0.6,0 1.1,0 1.5,0.2 0.5,0.3 0.8,0.9 0.9,1.7 l 0.2,2.2 v 1 c 0.1,0.2 0.1,0.3 0.2,0.4 h 2.1 v -0.3 c -0.3,-0.1 -0.4,-0.4 -0.5,-0.8 -0.1,-0.2 -0.1,-0.6 -0.1,-1.1 l -0.1,-1.7 c 0,-0.8 -0.2,-1.3 -0.4,-1.6 -0.3,-0.3 -0.7,-0.6 -1.2,-0.8 0.6,-0.3 1,-0.7 1.3,-1.2 0.3,-0.5 0.4,-1.1 0.4,-1.9 0,-1.5 -0.6,-2.5 -1.7,-3.1 -0.6,-0.3 -1.4,-0.4 -2.3,-0.4 h -5.7 z m 1.6,-7.1 V 9 h 4 c 0.6,0 1.1,0.1 1.4,0.3 0.6,0.3 0.9,1 0.9,1.9 0,0.9 -0.2,1.5 -0.7,1.8 -0.4,0.3 -1,0.5 -1.8,0.5 z M 505.7,28.3 V 0 H 404.6 c -12.8,0.8 -18.5,7 -22.7,11.4 -4.5,4.7 -7,14.6 -7,14.6 v 2.3 z M 281.9,0.1 h -28.3 v 28.2 h 28.3 z m 92.7,0 h -28.2 v 28.2 h 28.2 z M 253.9,80.5 c 4.5,24 26.2,25.9 26.2,25.9 0,0 2.2,0.1 2.6,0.2 h 64.5 c 0,0 27.6,-2.2 27.6,-28.8 l -0.2,-39.3 -27.8,-1.7 v 32.7 c 0,0 -0.1,9.4 -9.2,9.4 H 290 c 0,0 -8.1,-0.7 -8.1,-9.3 V 32.4 l -28,-2 m 120.9,76.2 H 476 c 25.4,-1.5 29,-25.6 29,-25.6 0.9,-6.3 0.2,-11.5 0.2,-11.5 -0.7,-5.7 -8.8,-22.9 -26.1,-24.6 -10.2,-1 -102.5,-6.4 -102.5,-6.4 2.7,9.5 6.4,12.4 9.2,15 6.4,6.2 15.9,7.6 15.9,7.6 2.4,0.2 71.4,6 71.4,6 2.2,0.1 6.7,0.3 6.7,5.7 0,1.6 -0.8,3.3 -1.8,4.2 0,0 -2.4,1.3 -4.7,1.3 h -98.2 z"
     style="display:inline;fill:#0d0d0d;fill-rule:nonzero;fill-opacity:1"
     transform="matrix(0.1255,0,0,0.1255,96.93,212.77)"
     id="path4" /><path
     d="m 34.47,142.03 h 94.474 c 0,8.479 0.01,51.451 0.01,59.93 H 34.47 c -5.592,-0.005 -10.19,-4.608 -10.19,-10.2 v -39.55 c 0.011,-5.584 4.606,-10.175 10.19,-10.18 m 39.51,19.98 a 17.36,17.36 0 0 0 -14.519,-7.86 c -9.513,0 -17.34,7.827 -17.34,17.34 0,9.513 7.827,17.34 17.34,17.34 a 17.36,17.36 0 0 0 14.479,-7.8 h 55.015 v -19.02 z m -14.53,-3.5 c 7.119,0.003 12.975,5.861 12.975,12.98 0,7.121 -5.859,12.98 -12.98,12.98 H 59.44 c -6.98,-0.196 -12.615,-5.992 -12.615,-12.975 0,-6.986 5.641,-12.784 12.625,-12.975 z"
     style="display:inline;fill:#2b2b2b;fill-opacity:1"
     id="path5" /><path
     d="M 179.737,142.03 V 87.985 l 0.196,-0.002 c 4.57,0 8.33,3.76 8.33,8.33 a 8.34,8.34 0 0 1 -3.703,6.927 v 38.79 h 39.24 c 5.584,0 10.184,4.586 10.2,10.17 v 9.8 h -17.78 v 3.98 H 234 v 3.03 H 216.23 V 173 H 234 v 2.97 h -17.77 v 3.98 H 234 v 11.82 c -0.005,5.588 -4.602,10.185 -10.19,10.19 h -95.196 v -59.93 z m -51.083,19.98 c 0,5.851 -0.04,13.169 -0.04,19.02 H 209.2 a 2.864,2.864 0 0 0 2.85,-2.85 v -13.32 a 2.864,2.864 0 0 0 -2.85,-2.85 z m 77.066,6.33 h -17.44 v 6.46 h 17.44 z m -23.01,0 h -17.45 v 6.46 h 17.45 z m -23.06,0 h -17.44 v 6.46 h 17.44 z M 192.9,83.47 a 4.42,4.42 0 0 1 -3.14,-1.31 13.67,13.67 0 0 0 -10.023,-4.017 v -8.892 l 0.303,-0.001 c 6.05,0 11.73,2.35 16,6.64 a 4.45,4.45 0 0 1 1.287,3.13 c 0,2.433 -1.995,4.437 -4.427,4.45 m 12.04,-12.02 a 4.42,4.42 0 0 1 -3.15,-1.31 c -6.05,-6.026 -14.064,-9 -22.053,-8.923 0,-2.24 -0.037,-8.894 0,-8.894 10.277,-0.077 20.579,3.765 28.353,11.527 a 4.45,4.45 0 0 1 1.307,3.15 c 0,2.441 -2.009,4.45 -4.45,4.45 z m 12.22,-12.22 a 4.42,4.42 0 0 1 -3.15,-1.31 C 204.608,48.544 192.16,43.895 179.737,43.973 V 34.95 h 0.323 c 15.21,0 29.5,5.92 40.26,16.68 a 4.45,4.45 0 0 1 1.307,3.15 c 0,2.441 -2.009,4.45 -4.45,4.45 z"
     style="display:inline;fill:#0d0d0d;fill-opacity:1"
     id="path6" /><path
     d="m 175.16,103.14 a 8.34,8.34 0 0 1 -3.557,-6.827 c 0,-4.57 3.76,-8.33 8.33,-8.33 l 0.013,54.047 h -4.786 z m 4.88,-33.89 v 8.89 c -3.66,0 -7.13,1.43 -9.72,4.02 a 4.45,4.45 0 0 1 -2.979,1.144 c -2.441,0 -4.45,-2.009 -4.45,-4.45 0,-1.102 0.41,-2.166 1.149,-2.984 a 22.5,22.5 0 0 1 16,-6.62 m 0.02,-16.928 v 8.894 c -7.895,-0.005 -15.792,2.969 -21.77,8.924 a 4.45,4.45 0 0 1 -3.15,1.306 c -2.442,0 -4.451,-2.009 -4.451,-4.451 0,-1.179 0.468,-2.311 1.301,-3.145 7.703,-7.691 17.887,-11.533 28.07,-11.528 m 0,-17.372 v 9.022 C 167.736,43.76 155.408,48.618 146.08,57.92 a 4.45,4.45 0 0 1 -3.044,1.204 c -2.441,0 -4.45,-2.009 -4.45,-4.45 0,-1.13 0.431,-2.219 1.204,-3.044 a 56.57,56.57 0 0 1 40.27,-16.68"
     style="display:inline;fill:#2b2b2b;fill-opacity:1"
     id="path7" /><defs
     id="defs8"><linearGradient
       id="a"
       x1="0"
       x2="1"
       y1="0"
       y2="0"
       gradientTransform="translate(-.21 127.76)scale(127.559)"
       gradientUnits="userSpaceOnUse"><stop
         offset="0"
         style="stop-color:#008cc5;stop-opacity:1"
         id="stop7" /><stop
         offset="1"
         style="stop-color:#0079af;stop-opacity:1"
         id="stop8" /></linearGradient></defs></svg>
