<?xml version="1.0" encoding="UTF-8" standalone="no"?>
<!-- Created with Inkscape (http://www.inkscape.org/) -->

<svg
   width="120"
   height="120"
   viewBox="0 0 120 120"
   version="1.1"
   id="svg1"
   inkscape:version="1.4.3 (0d15f75042, 2025-12-25)"
   sodipodi:docname="IceWhale.svg"
   xmlns:inkscape="http://www.inkscape.org/namespaces/inkscape"
   xmlns:sodipodi="http://sodipodi.sourceforge.net/DTD/sodipodi-0.dtd"
   xmlns="http://www.w3.org/2000/svg"
   xmlns:svg="http://www.w3.org/2000/svg">
  <sodipodi:namedview
     id="namedview1"
     pagecolor="#505050"
     bordercolor="#ffffff"
     borderopacity="1"
     inkscape:showpageshadow="0"
     inkscape:pageopacity="0"
     inkscape:pagecheckerboard="1"
     inkscape:deskcolor="#505050"
     inkscape:document-units="px"
     inkscape:zoom="3.4353604"
     inkscape:cx="-65.349766"
     inkscape:cy="12.516882"
     inkscape:window-width="2560"
     inkscape:window-height="1368"
     inkscape:window-x="0"
     inkscape:window-y="0"
     inkscape:window-maximized="1"
     inkscape:current-layer="layer1" />
  <defs
     id="defs1" />
  <g
     inkscape:label="Layer 1"
     inkscape:groupmode="layer"
     id="layer1">
    <g
       id="g1"
       transform="matrix(0.4630462,0,0,0.4630462,45.649021,28.206701)"
       style="fill:#00315c;fill-opacity:1">
      <path
         class="cls-1"
         d="M 130.51018,85.08 H 4.590177 c -23,0 -42.25,-18.26 -42.52,-41.26 a 41.44,41.44 0 0 1 5.95,-22 l 9.78,9.78 A 39.76,39.76 0 0 0 32.90018,32.66 L 5.850177,5.62 a 24.18,24.18 0 0 0 -5.18,-4 25.17,25.17 0 0 0 -30.39,4 25.18,25.18 0 0 0 0,-35.57 l -27,-27.05 a 39.74,39.74 0 0 0 1.06,55.1 l 9.7,9.7 a 109,109 0 0 0 -4.11,150.05 1,1 0 0 0 1.45,0 l 11.51,-11.51 a 5,5 0 0 1 7,7 l -31.34,31.34 a 44.33,44.33 0 0 0 52.56,1.91 43.53,43.53 0 0 0 6.29,-5.23 c 0.73,-0.72 1.41,-1.46 2.08,-2.22 a 44.08,44.08 0 0 0 10.84,-27.8 c 0,-0.42 0,-0.84 0,-1.25 v 0 -12.76 a 5,5 0 0 1 6.49,-4.73 c 1.13,0.35 2.28,0.65 3.44,0.92 a 49.66,49.66 0 0 0 54.860003,-25.36 5.93,5.93 0 0 1 5.23,-3.22 h 7 a 59.68,59.68 0 0 1 -56.17,39.72 58.68,58.68 0 0 1 -10.920003,-1 v 6.5 c 0,1.19 0,2.37 -0.12,3.56 a 68.15,68.15 0 0 0 11.000003,0.88 69.6,69.6 0 0 0 65.31,-45.73 5.89,5.89 0 0 1 5.51,-3.93 h 6.09 a 79.56,79.56 0 0 1 -76.92,59.57 78.07,78.07 0 0 1 -12.590003,-1 52.22,52.22 0 0 1 -3.38,9.5 88.58,88.58 0 0 0 16.000003,1.43 89.52,89.52 0 0 0 86,-65.18 5.86,5.86 0 0 1 5.64,-4.32 h 5.6 a 99.35,99.35 0 0 1 -118.540003,77.13 53.31,53.31 0 0 1 -5.45,6.36 c -0.68,0.69 -1.38,1.34 -2.09,2 a 109.22,109.22 0 0 0 137.640003,-95.12 9.42,9.42 0 0 0 -9.44,-10.23 z m -84.46,29.79 a 5,5 0 1 1 5,-5 5,5 0 0 1 -5,5 z"
         id="path22"
         style="fill:#00315c;fill-opacity:1" />
      <path
         style="font-variation-settings:normal;vector-effect:none;fill:#00315c;fill-opacity:1;stroke-width:1.11266;stroke-linecap:butt;stroke-linejoin:miter;stroke-miterlimit:4;stroke-dasharray:none;stroke-dashoffset:0;stroke-opacity:1;-inkscape-stroke:none;stop-color:#000000"
         d="m 43.42957,70.121 c 0.46072,-0.76495 4.02086,-6.00354 7.91143,-11.64131 l 7.07376,-10.2505 9.61708,-3.65308 c 9.22237,-3.503156 9.93637,-4.030018 17.39671,-12.83713 4.2788,-5.051223 8.06169,-9.180506 8.40642,-9.176183 0.34473,0.0043 0.62678,4.9923 0.62678,11.084393 v 11.07653 l -7.51043,7.58053 c -4.13074,4.16929 -7.51043,7.88134 -7.51043,8.249 0,0.36766 3.2215,-0.50087 7.15888,-1.93007 l 7.15888,-2.59853 2.5712,6.63093 2.5712,6.63093 h 17.53 c 9.64151,0 17.53001,-0.2703 17.53001,-0.60066 0,-0.33036 -0.99797,-2.55682 -2.2177,-4.94769 -1.88621,-3.69729 -3.14411,-4.63907 -8.41569,-6.30079 -5.13092,-1.61738 -6.87921,-2.88174 -10.15468,-7.34382 -2.17617,-2.96454 -3.70673,-5.64001 -3.40125,-5.9455 0.30549,-0.30548 2.13508,1.59566 4.06576,4.22476 2.85849,3.89256 4.7945,5.20597 10.42612,7.0732 6.63299,2.19924 7.06618,2.57462 10.59331,9.17941 l 3.67751,6.8864 H 90.56317 c -38.08201,0 -47.79859,-0.28672 -47.1336,-1.39082 z"
         id="path8402" />
    </g>
  </g>
</svg>
