<?xml version="1.0" encoding="UTF-8" standalone="no"?>
<svg
   xml:space="preserve"
   viewBox="0 0 512 512"
   version="1.1"
   id="svg2"
   sodipodi:docname="nextcloud-light.svg"
   inkscape:version="1.4.3 (0d15f75042, 2025-12-25)"
   xmlns:inkscape="http://www.inkscape.org/namespaces/inkscape"
   xmlns:sodipodi="http://sodipodi.sourceforge.net/DTD/sodipodi-0.dtd"
   xmlns="http://www.w3.org/2000/svg"
   xmlns:svg="http://www.w3.org/2000/svg"><defs
     id="defs2" /><sodipodi:namedview
     id="namedview2"
     pagecolor="#505050"
     bordercolor="#ffffff"
     borderopacity="1"
     inkscape:showpageshadow="0"
     inkscape:pageopacity="0"
     inkscape:pagecheckerboard="1"
     inkscape:deskcolor="#505050"
     inkscape:zoom="2.265625"
     inkscape:cx="255.77931"
     inkscape:cy="256"
     inkscape:window-width="2560"
     inkscape:window-height="1368"
     inkscape:window-x="0"
     inkscape:window-y="0"
     inkscape:window-maximized="1"
     inkscape:current-layer="svg2" /><path
     d="M512 80v352c0 44.2-35.8 80-80 80H80c-44.2 0-80-35.8-80-80V80C0 35.8 35.8 0 80 0h352c44.2 0 80 35.8 80 80"
     style="fill-rule:evenodd;clip-rule:evenodd;fill:#0082c9"
     id="path1" /><path
     d="M256 167.2c-40.3 0-74.5 27.2-85.3 64.2-9.3-19.4-29-33-51.8-33-31.6-.1-57.6 25.9-57.6 57.6s26 57.6 57.6 57.6c22.8 0 42.5-13.6 51.8-33 10.8 36.9 45 64.2 85.3 64.2s74.5-27.2 85.3-64.2c9.3 19.4 29 33 51.8 33 31.6 0 57.6-26 57.6-57.6s-25.8-57.7-57.5-57.7c-22.8 0-42.5 13.6-51.8 33-10.9-36.9-45.1-64.1-85.4-64.1m0 34.2c30.3 0 54.5 24.2 54.5 54.5s-24.2 54.5-54.5 54.5-54.5-24.2-54.5-54.5 24.2-54.5 54.5-54.5m-137 31.2c13.1 0 23.3 10.2 23.3 23.3s-10.2 23.3-23.3 23.3S95.5 269 95.5 256s10.3-23.4 23.5-23.4m274.1 0c13.1 0 23.3 10.2 23.3 23.3s-10.2 23.3-23.3 23.3-23.3-10.2-23.3-23.2 10.2-23.4 23.3-23.4"
     style="fill:#212121;fill-opacity:1"
     id="path2" /></svg>
