<?xml version="1.0" encoding="UTF-8" standalone="no"?>
<svg
   id="mdi-printer-3d"
   viewBox="0 0 24 24"
   version="1.1"
   sodipodi:docname="printer-3d.svg"
   inkscape:version="1.4.3 (0d15f75042, 2025-12-25)"
   xmlns:inkscape="http://www.inkscape.org/namespaces/inkscape"
   xmlns:sodipodi="http://sodipodi.sourceforge.net/DTD/sodipodi-0.dtd"
   xmlns="http://www.w3.org/2000/svg"
   xmlns:svg="http://www.w3.org/2000/svg">
  <defs
     id="defs1">
    <filter
       style="color-interpolation-filters:sRGB;"
       inkscape:label="Drop Shadow"
       id="filter18"
       x="-0.060000002"
       y="-0.057600002"
       width="1.1616667"
       height="1.1552">
      <feFlood
         result="flood"
         in="SourceGraphic"
         flood-opacity="0.498039"
         flood-color="rgb(0,0,0)"
         id="feFlood17" />
      <feGaussianBlur
         result="blur"
         in="SourceGraphic"
         stdDeviation="0.300000"
         id="feGaussianBlur17" />
      <feOffset
         result="offset"
         in="blur"
         dx="0.500000"
         dy="0.500000"
         id="feOffset17" />
      <feComposite
         result="comp1"
         operator="in"
         in="flood"
         in2="offset"
         id="feComposite17" />
      <feComposite
         result="comp2"
         operator="over"
         in="SourceGraphic"
         in2="comp1"
         id="feComposite18" />
    </filter>
    <filter
       style="color-interpolation-filters:sRGB;"
       inkscape:label="Drop Shadow"
       id="filter20"
       x="-0.036000001"
       y="-0.080000003"
       width="1.097"
       height="1.2155556">
      <feFlood
         result="flood"
         in="SourceGraphic"
         flood-opacity="0.498039"
         flood-color="rgb(0,0,0)"
         id="feFlood18" />
      <feGaussianBlur
         result="blur"
         in="SourceGraphic"
         stdDeviation="0.300000"
         id="feGaussianBlur18" />
      <feOffset
         result="offset"
         in="blur"
         dx="0.500000"
         dy="0.500000"
         id="feOffset18" />
      <feComposite
         result="comp1"
         operator="in"
         in="flood"
         in2="offset"
         id="feComposite19" />
      <feComposite
         result="comp2"
         operator="over"
         in="SourceGraphic"
         in2="comp1"
         id="feComposite20" />
    </filter>
  </defs>
  <sodipodi:namedview
     id="namedview1"
     pagecolor="#505050"
     bordercolor="#ffffff"
     borderopacity="1"
     inkscape:showpageshadow="0"
     inkscape:pageopacity="0"
     inkscape:pagecheckerboard="1"
     inkscape:deskcolor="#505050"
     inkscape:zoom="48.583333"
     inkscape:cx="11.989708"
     inkscape:cy="12.020583"
     inkscape:window-width="2560"
     inkscape:window-height="1368"
     inkscape:window-x="0"
     inkscape:window-y="0"
     inkscape:window-maximized="1"
     inkscape:current-layer="mdi-printer-3d" />
  <path
     d="m 19,6 c 0.552285,0 1,-0.4477153 1,-1 0,-0.5522847 -0.447715,-1 -1,-1 -0.552285,0 -1,0.4477153 -1,1 0,0.5522847 0.447715,1 1,1 m 0,-4 c 1.656854,0 3,1.3431458 3,3 v 6 H 18 V 7 H 6 v 4 H 2 V 5 C 2,3.3431458 3.3431458,2 5,2 h 14"
     id="path1"
     sodipodi:nodetypes="csssccsccccccssc"
     style="display:inline;fill:#4cae4f;fill-opacity:1" />
  <path
     d="m 18,18.25 c 0,0.38 -0.21,0.71 -0.53,0.88 l -4.9,2.69 C 12.4,21.94 12.21,22 12,22 11.79,22 11.59,21.94 11.43,21.82 L 6.53,19.13 C 6.21,18.96 6,18.63 6,18.25 V 13 c 0,-0.38 0.21,-0.71 0.53,-0.88 l 4.9,-2.44 C 11.59,9.56 11.79,9.5 12,9.5 c 0.21,0 0.4,0.06 0.57,0.18 l 4.9,2.44 C 17.79,12.29 18,12.62 18,13 v 5.25 M 12,11.65 9.04,13 12,14.6 14.96,13 12,11.65 m -4,6.01 3,1.63 V 16.33 L 8,14.71 v 2.95 m 8,0 v -2.95 l -3,1.62 v 2.96 z"
     id="path2"
     sodipodi:nodetypes="cccsccssccsccscccccccccccccccc"
     style="display:inline;fill:#0091eb;fill-opacity:1" />
</svg>
