<?xml version="1.0" encoding="UTF-8" standalone="no"?>
<svg
   id="mdi-web"
   viewBox="0 0 24 24"
   version="1.1"
   sodipodi:docname="web.svg"
   inkscape:version="1.4.3 (0d15f75042, 2025-12-25)"
   xmlns:inkscape="http://www.inkscape.org/namespaces/inkscape"
   xmlns:sodipodi="http://sodipodi.sourceforge.net/DTD/sodipodi-0.dtd"
   xmlns="http://www.w3.org/2000/svg"
   xmlns:svg="http://www.w3.org/2000/svg">
  <defs
     id="defs1">
    <filter
       style="color-interpolation-filters:sRGB;"
       inkscape:label="Drop Shadow"
       id="filter3"
       x="-0.036000001"
       y="-0.036000001"
       width="1.097"
       height="1.097">
      <feFlood
         result="flood"
         in="SourceGraphic"
         flood-opacity="0.498039"
         flood-color="rgb(0,0,0)"
         id="feFlood2" />
      <feGaussianBlur
         result="blur"
         in="SourceGraphic"
         stdDeviation="0.300000"
         id="feGaussianBlur2" />
      <feOffset
         result="offset"
         in="blur"
         dx="0.500000"
         dy="0.500000"
         id="feOffset2" />
      <feComposite
         result="comp1"
         operator="in"
         in="flood"
         in2="offset"
         id="feComposite2" />
      <feComposite
         result="comp2"
         operator="over"
         in="SourceGraphic"
         in2="comp1"
         id="feComposite3" />
    </filter>
  </defs>
  <sodipodi:namedview
     id="namedview1"
     pagecolor="#505050"
     bordercolor="#ffffff"
     borderopacity="1"
     inkscape:showpageshadow="0"
     inkscape:pageopacity="0"
     inkscape:pagecheckerboard="1"
     inkscape:deskcolor="#505050"
     inkscape:zoom="45.254834"
     inkscape:cx="11.059592"
     inkscape:cy="12.241786"
     inkscape:window-width="2560"
     inkscape:window-height="1368"
     inkscape:window-x="0"
     inkscape:window-y="0"
     inkscape:window-maximized="1"
     inkscape:current-layer="mdi-web" />
  <path
     d="m 16.11,13.75 c 0.08,-0.66 0.14,-1.32 0.14,-2 0,-0.68 -0.06,-1.34 -0.14,-2 h 3.38 c 0.16,0.64 0.26,1.31 0.26,2 0,0.69 -0.1,1.36 -0.26,2 m -5.15,5.56 C 14.94,18.2 15.4,17 15.72,15.75 h 2.95 c -0.96,1.65 -2.49,2.93 -4.33,3.56 M 14.09,13.75 H 9.41 c -0.1,-0.66 -0.16,-1.32 -0.16,-2 0,-0.68 0.06,-1.35 0.16,-2 h 4.68 c 0.09,0.65 0.16,1.32 0.16,2 0,0.68 -0.07,1.34 -0.16,2 m -2.34,5.96 c -0.83,-1.2 -1.5,-2.53 -1.91,-3.96 h 3.82 c -0.41,1.43 -1.08,2.76 -1.91,3.96 M 7.75,7.75 H 4.83 C 5.78,6.09 7.32,4.81 9.15,4.19 8.55,5.3 8.1,6.5 7.75,7.75 m -2.92,8 H 7.75 C 8.1,17 8.55,18.2 9.15,19.31 7.32,18.68 5.78,17.4 4.83,15.75 m -0.82,-2 c -0.16,-0.64 -0.26,-1.31 -0.26,-2 0,-0.69 0.1,-1.36 0.26,-2 h 3.38 c -0.08,0.66 -0.14,1.32 -0.14,2 0,0.68 0.06,1.34 0.14,2 m 4.36,-9.97 c 0.83,1.2 1.5,2.54 1.91,3.97 H 9.84 c 0.41,-1.43 1.08,-2.77 1.91,-3.97 m 6.92,3.97 H 15.72 C 15.4,6.5 14.94,5.3 14.34,4.19 c 1.84,0.63 3.37,1.9 4.33,3.56 m -6.92,-6 c -5.53,0 -10,4.5 -10,10 a 10,10 0 0 0 10,10 10,10 0 0 0 10,-10 10,10 0 0 0 -10,-10 z"
     id="path1"
     style="fill:#02a6f2;fill-opacity:1;filter:url(#filter3)" />
</svg>
