<?xml version="1.0" encoding="UTF-8" standalone="no"?>
<svg
   xml:space="preserve"
   viewBox="0 0 512 512"
   version="1.1"
   id="svg3"
   sodipodi:docname="zimaos.svg"
   inkscape:version="1.4.3 (0d15f75042, 2025-12-25)"
   xmlns:inkscape="http://www.inkscape.org/namespaces/inkscape"
   xmlns:sodipodi="http://sodipodi.sourceforge.net/DTD/sodipodi-0.dtd"
   xmlns="http://www.w3.org/2000/svg"
   xmlns:svg="http://www.w3.org/2000/svg"><defs
     id="defs3" /><sodipodi:namedview
     id="namedview3"
     pagecolor="#505050"
     bordercolor="#ffffff"
     borderopacity="1"
     inkscape:showpageshadow="0"
     inkscape:pageopacity="0"
     inkscape:pagecheckerboard="1"
     inkscape:deskcolor="#505050"
     inkscape:zoom="2.2773438"
     inkscape:cx="256.4391"
     inkscape:cy="255.99999"
     inkscape:window-width="2560"
     inkscape:window-height="1368"
     inkscape:window-x="0"
     inkscape:window-y="0"
     inkscape:window-maximized="1"
     inkscape:current-layer="svg3" /><path
     d="M419.1 512H92.9C41.6 512 0 470.4 0 419.1V92.9C0 41.6 41.6 0 92.9 0h326.2C470.4 0 512 41.6 512 92.9v326.2c0 51.3-41.6 92.9-92.9 92.9"
     style="fill-rule:evenodd;clip-rule:evenodd;fill:#c2c2c2;fill-opacity:1"
     id="path1" /><path
     d="M88.3 207.3v33.9h155.6v-34h-95l75.8-76.5c4.1-4.1 9.7-6.5 15.5-6.5h3.7v-34H88.3v34h95.2l-75.6 76.4c-4.2 4.3-9.8 6.6-15.8 6.6h-3.8z"
     style="fill-rule:evenodd;clip-rule:evenodd;fill:#171717"
     id="path2" /><path
     d="M372.1 277.2h5.6c-1.8 4.2-1.8 8.9 0 13.1L438.2 431h-40.7l-42.9-99.9-42.9 99.9H271l60.4-140.6c1.8-4.2 1.8-8.9 0-13.1h40.7zm-140.9 0H208v4.4c0 6-2.7 11.7-7.2 15.5L166 325.9l-34.8-28.7c-4.6-3.8-7.2-9.5-7.2-15.5v-4.4H88.3V431H124v-92.6l13.5 11.1 28.6 23.6 28.5-23.6 13.5-11.2V431h35.7V277.2zm137.5-142.9v63c0 5.3 4.4 9.6 9.8 9.6H427v34.4H275.7V207h48.6c5.4 0 9.8-4.3 9.8-9.6v-63c0-5.3-4.4-9.6-9.8-9.6h-48.6V90.3H427v34.3h-48.6c-5.4 0-9.7 4.4-9.7 9.7"
     style="fill-rule:evenodd;clip-rule:evenodd;fill:#595959;fill-opacity:1"
     id="path3" /></svg>
