<?xml version="1.0" encoding="UTF-8"?>
<svg version="1.1" viewBox="0 0 32 32" xmlns="http://www.w3.org/2000/svg"><path d="m18.565 30.012-3.7805-8.9184c-.40424-.76389-.18516-1.634.39699-2.566l1.034-1.0912c.49942-.6353.72852-1.2576.83782-1.8741l-.6525-3.9077c-.14965-.80852.52489-1.0628 1.1041-.81163l1.3635.34176c.49577.02369.68047-.19024.5799-.65049-.55365-.90015-1.2166-1.6179-1.9937-2.1451-.53627-.39353-.87395-.30023-1.2096-.20203l-11.994 3.8382c-1.1538.54651-1.7768 1.7819-.69074 2.3424l1.0701.83134c.94523.6481-.66382 2.7662-1.726 1.2944l-1.6024-2.4809c-.2596-.55803-.53475-1.1799-.62279-1.8943-.059297-.48121-.069375-1.1468.27101-1.8807.95435-2.6755 2.1597-4.773 3.3724-7.2937.20288-.48671.44084-.89972.81038-1.0351.31257-.19088.54761-.45919 1.1603-.35025.81232.052109 1.836.31535 2.9646.68336l1.7062.64218 3.6016 1.9204c.39709.17214.78158.35226 1.3775.39768l1.0067-.014578c.36845.045332.72603.1398 1.021.5168l1.1684 1.4604c.4388.33555.87362.59029 1.2937.53755l.94371-.14739c1.0445.054997 1.5209.47204 1.7484 1.0476l.13391 1.8386c.02474.428-.0092.843.33637 1.3421 2.157 3.5995 4.2277 7.1313 6.4031 10.49.37102.80843.80502 1.7496 1.176 2.5581.37861.7998.28621 2.4378-1.5993 2.7485l-1.3074-.11806-1.3703-.01318-4.4179.86952c-.26648.04142-.52714.09062-.44702.58755l.15417.61515c-.05073.31808-.0019.69584-.49597.74831-.73052.05918-1.721.33832-2.3839.0923z" fill="none" stroke="currentColor" stroke-linecap="round" stroke-width=".7"/><g transform="matrix(1.1195 0 0 1.1195 -1.9123 3.1256)"><path d="m13.2 10.613h9.2283l2.6133-2.6133h-12.087c-3.325 0-4.2233.39667-6.0317 2.1117-1.7617 1.7383-4.9233 4.8883-4.9233 4.8883h3.9433c.89833-.875 2.5667-2.485 3.325-3.2083 1.0733-1.015 1.5983-1.1783 3.9317-1.1783zm12.588-2.6133-7 7h4.2117l7-7zm-3.7917 3.045h-8.47c-2.59 0-3.0333.14-4.1417 1.2483-1.0383 1.0383-2.7183 2.7067-2.7183 2.7067h3.675l.875-.875c.57167-.57167.875-.64167 2.0767-.64167h6.265z" fill="currentColor"/></g></svg>
