<?xml version="1.0" encoding="UTF-8"?>
<svg version="1.1" viewBox="0 0 6.35 6.35" xmlns="http://www.w3.org/2000/svg"><g transform="matrix(.15031 0 0 .15031 1.505 .70974)"><path d="m11.113-3.175c-10.796 0-19.579 8.782-19.579 19.576s8.7838 19.576 19.579 19.576c10.793 0 19.573-8.782 19.573-19.576 7.9e-5-10.794-8.78-19.576-19.573-19.576zm-.0033 10.686c2.7187 0 5.1511 1.2223 6.7825 3.1452.20398.23941.39346.48785.57186.74807.96857 1.4242 1.536 3.1448 1.536 4.9971 0 .6138-.65416 1.1797-1.7555 1.6358-1.1152.46205-2.6882.81429-4.5117.98745-.8296.07846-1.7111.11969-2.6232.11969-.9136 0-1.7936-.04113-2.6232-.11969-.07846-.8285-.11969-1.7109-.11969-2.6232s.041212-1.7943.11969-2.6232c.099936-1.0345.25588-1.9874.45549-2.8227.5026-2.095 1.286-3.4444 2.1677-3.4444z" fill="currentColor"/><path d="m11.109-1.3796c-3.1466.00352-5.8152 5.0392-6.7791 12.036-.030978.22519-.063079.45169-.089768.68157-.13154 1.1015-.22134 2.2489-.26598 3.4278-.021367.5395-.029923 1.0836-.029923 1.6358 0 .55165.00856 1.0969.029923 1.6358.04464 1.1789.13444 2.3259.26598 3.4278 1.4764.19064 3.055.32086 4.7012.38234.71163.02653 1.4359.04322 2.1711.04322.73283 0 1.4547-.01669 2.1644-.04322 1.6482-.06156 3.2272-.1918 4.7045-.38234.16252-.02121.32069-.04362.48209-.06649 6.1483-.8639 10.426-2.7764 10.426-4.9971.000159-9.8189-7.9609-17.779-17.777-17.781zm0 8.8904c2.7187 0 5.1511 1.2223 6.7825 3.1452.20398.23941.39346.48785.57186.74807.96857 1.4242 1.536 3.1448 1.536 4.9971 0 .6138-.65416 1.1797-1.7555 1.6358-1.1152.46205-2.6882.81429-4.5117.98745-.8296.07848-1.7111.11969-2.6232.11969-.9136 0-1.7936-.04113-2.6232-.11969-.078475-.8285-.11969-1.7109-.11969-2.6232s.041213-1.7943.11969-2.6232c.09993-1.0345.25588-1.9874.45549-2.8227.5026-2.095 1.286-3.4444 2.1677-3.4444z" fill="#676767"/></g></svg>
