<?xml version="1.0" encoding="UTF-8"?><svg version="1.1" viewBox="0 0 24 24" xmlns="http://www.w3.org/2000/svg"><path d="m2.9985.99946h5.9997c1.1045 0 1.9985.89394 1.9985 1.9985v18.004c0 1.1045-.89394 1.9985-1.9985 1.9985h-5.9997c-1.1045.004298-1.9985-.88964-1.9985-1.9942v-18.007c0-1.1045.89394-1.9985 1.9985-1.9985m18.007 0h-6.004c-1.1045 0-1.9985.89394-1.9985 1.9985v5.9997c0 1.1045.89394 1.9985 1.9985 1.9985h5.9997c1.1045 0 1.9985-.89394 1.9985-1.9985v-5.9997c.0043-1.1045-.88964-1.9985-1.9942-1.9985m0 6.7304-1.1002 1.0917v-3.3265q0-.20629.02579-.41259c.02579-.14613.06017-.26216.10744-.35242l-4.2505 4.272-.7865-.76071 4.3107-4.3107c-.08166.047275-.1934.081658-.33952.098846-.14613.0086-.29655.012893-.45986.012893h-3.2104l1.0271-1.0401h4.6717v4.7276zm-6.004 5.2734h5.9997c1.1045 0 1.9985.89394 1.9985 1.9985v5.9997c0 1.1045-.89394 1.9985-1.9985 1.9985h-5.9997c-1.1045 0-1.9985-.89394-1.9985-1.9985v-5.9997c0-1.1045.89394-1.9985 1.9985-1.9985" fill="currentColor"/></svg>
