<?xml version="1.0" encoding="UTF-8"?>
<svg fill="currentColor" version="1.1" viewBox="0 0 500 500" xmlns="http://www.w3.org/2000/svg"><path d="m485.34 262.1c.87852-.58567 1.6594-1.1714 2.2451-1.9522 2.9284-3.026 4.0997-7.6138 2.7332-11.323-1.269-3.6117-4.5878-6.1496-8.8828-7.4186-1.5618-7.2234-2.9284-12.299-4.0021-13.666-.78091-1.0737-2.7332-1.6594-9.7613-.97613-6.2472.58568-15.423 1.9523-26.16 3.8069.0976-.0976.0976-.19522.19522-.29283.68329-1.3666.87852-3.026.97613-4.295.58568-4.5878.97613-9.6637.58568-14.544 7.9066-3.9045 14.447-9.6637 16.009-17.375.97613-4.5878-.39045-9.6637-3.6117-13.666-1.5618-1.8546-3.2212-3.5141-5.0759-4.6854 3.026-3.5141 5.2711-7.809 6.7353-12.787 2.2451-8.3947 1.6594-16.985.78091-23.622 0-.29284-.0976-.7809-.0976-1.0737.97613-.19522 1.8546-.58568 2.5379-1.1714.97613-.97613 1.1714-2.3427 1.269-3.7093.29283-3.3188-.0976-6.9305-1.269-10.054-.58568-1.6594-1.3666-3.3188-2.6356-4.6854-1.3666-1.5618-3.3188-2.3427-5.2711-2.2451-4.0022-10.152-10.347-19.815-20.401-26.063-6.8329-4.0997-16.009-6.052-24.208-4.0021-16.009-22.744-38.752-39.826-64.717-48.221-30.358-9.8589-64.327-12.494-96.539-8.4923l-8.4923-2.5379c-6.5401-1.9523-13.763-4.0997-21.182-3.7093-5.8568.29284-10.152 2.9284-11.518 6.9305-.29284 1.0737-1.5618 5.9544-1.9523 9.3708-8.9804 3.1236-17.668 6.9305-25.672 11.323-12.104 6.5401-22.744 14.349-31.919 23.232-7.1257-5.7592-15.325-9.6637-24.013-11.616-3.2212-.7809-7.6138-1.1714-11.323 1.1714-2.9284 1.9523-4.8806 5.1735-6.6377 8.4923-2.7332 5.0759-4.6854 9.7613-6.1496 14.056-.58568 1.5618-1.1714 4.295.09761 6.4424.7809 1.1714 1.8546 1.8546 2.7332 2.2451 7.2234 3.7093 14.642 6.7353 22.744 9.5661-1.0737 1.9523-2.0499 4.0021-3.026 6.052-15.911 35.433-9.8589 69.793-2.1475 102.01l.7809 3.2212c2.7332 11.128 5.5639 22.744 4.5878 34.165-2.0499 25.087-18.546 41.876-35.922 59.641-4.0997 4.1974-8.3947 8.5899-12.397 12.983-1.269-.7809-2.7332-2.1475-4.0997-4.0997l-10.835-14.544c-.7809-1.1714-1.9523-2.6356-3.7093-3.2212-3.026-.97612-6.2472.87852-8.9804 5.4663l-3.7093 6.052c-.87852 1.5618-1.9523 3.3188-1.9523 5.5639 0 3.026 2.0499 5.2711 4.295 7.4186 5.1735 4.6854 10.835 8.9804 16.692 12.885-2.5379 3.7093-4.6854 7.5162-6.5401 11.421-8.6875 18.742-9.5661 40.509-2.2451 59.934.7809 2.0499 1.6594 4.0997 2.6355 6.052-3.2212 2.6356-6.6377 4.6854-10.835 5.7592-6.4424 1.6594-13.763.39045-18.742-3.1236-.87852-.68329-1.757-1.269-2.6355-2.0499-1.0737-.87852-2.1475-1.757-3.3188-2.6356-2.8308-1.8546-6.052-2.7332-8.7852-2.1475-2.1475.39045-4.0997 1.6594-5.2711 3.5141-1.1714 1.757-1.6594 3.9045-1.1714 5.9544 3.026 13.373 25.282 23.915 41.778 23.915h.39045c8.1019-.0976 17.473-2.6356 24.306-7.5162 12.885 12.787 30.943 22.646 52.223 28.113 21.377 5.4663 51.735 11.323 84.338 11.323 35.433 0 73.6-6.8329 105.81-28.503 7.5162-4.9783 13.959-10.445 19.913-16.301 5.8568.0976 9.8589.39045 11.811.97613 3.3188.7809 4.9783 1.9523 5.5639 4.0997.39045 1.5618.39045 3.7093.19522 5.6616-.68329 4.5878-.7809 9.1756-.39045 13.861.19523 2.9284.7809 6.5401 3.2212 8.6875 1.1714.97613 2.7332 1.5618 4.1974 1.5618 1.5618 0 3.1236-.58568 4.5878-1.3666 2.5379-1.757 4.0998-4.6854 5.1735-6.9305 5.6615-12.006 7.0281-36.8-1.9523-44.414-2.8308-2.5379-7.5162-4.1974-12.69-5.1735 1.5618-2.0499 2.9284-4.0997 4.295-6.2472 54.858-15.228 129.83-38.752 131-39.143 1.1714-.29284 2.0499-1.5618 2.7332-3.5141 4.0021-12.299-1.5618-62.863-7.321-97.808m2.6356-10.054c0-.68329-.19523-1.4642-.39045-2.0499.29283.58567.39045 1.3666.39045 2.0499m-3.1236 6.9305c-.0976 0-.0976-.0976 0 0m-10.737-29.284c-28.015 40.705-70.672 100.44-76.431 102.69-4.9782 1.6594-57.396-20.011-102.79-40.021.58568-.68329 1.0738-1.269 1.3666-2.0499.87852-1.757.97613-4.0021.19523-6.2472-.68329-2.0499-1.9523-3.7093-3.5141-4.4902-2.2451-1.0737-4.8806-.58568-7.2234.19523-.97613.29283-1.8546.68329-2.8308.97612-2.9284.97613-5.8568 1.8546-8.7852 2.3427-3.2212-1.3666-6.4424-2.9284-9.4684-4.1974-.0976-1.269-.0976-2.2451 0-2.7332 3.2212-2.8308 42.95-13.763 104.54-27.429 62.863-14.056 97.222-19.62 104.93-19.035m-106.98 96.149c-23.525 29.772-56.615 75.162-64.229 85.509-.68329-.78091-1.6594-2.1475-3.026-5.0759-9.1756-18.937-23.818-72.331-31.041-104.64h-.19523c6.5401 0 12.69-1.3666 19.035-4.295 1.5618-.68329 3.1236-1.6594 4.6854-2.8308 22.744 9.9565 52.516 22.744 74.771 31.334m-99.565-42.364q-1.1714-.14641-2.3427-.58567c-.0976-.19523-.19523-.29284-.19523-.48807.78091.29284 1.6594.78091 2.5379 1.0737m156.86-65.791c2.1475-.39045 4.4902-.87851 6.7353-1.5618.0976 1.9523.0976 3.9045.19523 5.7592 0 1.0737.0976 2.5379.0976 3.8069 0 2.0499-.0976 4.1974-.19523 6.2472v.68329h-.0976c-.58568.0976-1.0737.29284-1.6594.39046-.19522 0-.58567.0976-.7809.0976-.0976 0-.29284.0976-.39045.0976-.7809.0976-1.3666.29284-2.1475.39045h-1.1714c-.19523-.0976-.29284-.0976-.29284-.0976-.0976-.19522-.29284-.7809-.39045-2.6356-.19523-4.295-.19523-8.7852.0976-13.178m9.8589 2.1475c0-1.5618 0-3.026-.0976-4.5878 1.9523-.68329 4.0021-1.3666 5.9544-2.1475.19522 4.1974-.19523 8.7852-.58568 12.787-.0976 1.0737-.19523 2.3427-.68329 3.2212-.68329 1.3666-1.757 2.1475-2.7332 2.7332-.58568.0976-1.0737.19523-1.757.29284 0-2.6356 0-7.4186-.0976-10.347.0976-.58568 0-1.269 0-1.9523m19.327-37.483c2.6356 3.3188 3.7093 7.6138 2.9284 11.323-3.026 14.74-27.624 21.182-39.045 21.865-5.0759.29284-12.006-.7809-16.106-7.809-1.9522-3.3188-2.7332-6.7353-2.2451-9.8589.87851-5.8568 6.052-11.421 15.423-16.399 2.3427 3.1236 6.052 5.0759 9.1756 6.1496 3.026 1.0737 5.9544 1.6594 8.5899 1.6594q3.0748 0 5.8568-.87852c5.0759-1.9523 7.7114-6.9305 8.1995-11.616 2.7332 1.1714 5.2711 2.9284 7.2234 5.5639m-38.752-93.611c5.5639 0 11.323 1.757 15.911 4.783 16.789 10.152 22.646 31.139 24.598 46.854.87851 6.2472 1.3666 14.642-.68329 22.451-1.269 4.6854-3.5141 8.6875-6.2472 11.811-.7809-.29284-1.3666-.68329-2.1475-.97613-.29284-4.783-2.7332-8.8828-6.5401-11.421-1.5618-.97613-3.1236-1.757-4.8806-2.1475-1.9523-16.887-6.052-32.896-12.299-47.44-3.5141-8.3947-7.7114-16.106-12.592-23.427 1.6594-.39045 3.2212-.48806 4.8806-.48806m-206.35-57.494c1.0737-3.2212 5.2711-4.6854 8.8828-4.8806 6.8329-.39045 13.568 1.6594 20.011 3.6117l2.3427.7809c-11.421 1.757-22.451 4.4902-32.993 7.9066.58568-2.5379 1.269-5.7592 1.757-7.4186m-159.99 291.76c-1.757-1.6594-3.3188-3.3188-3.3188-5.1735 0-1.1714.7809-2.3427 1.6594-3.9045l3.7093-6.052c.97613-1.5618 3.2212-4.8806 5.5639-4.0997.7809.29284 1.5618 1.1714 2.2451 2.1475l10.835 14.544c.7809.97612 2.2451 3.1236 4.4902 4.5878-3.026 3.5141-5.9544 7.0281-8.5899 10.737-5.8568-3.9045-11.518-8.1019-16.594-12.787m264.73 122.41c-61.106 40.997-143.88 28.113-187.81 16.789-20.596-5.2711-37.971-14.642-50.563-27.039 2.8308-2.5379 4.9783-5.4663 6.1496-8.8828.19523-.78091-.19523-1.6594-.97613-1.8546-.48806-.0976-1.0737 0-1.4642.29284l.19523.19523c-.19523.29283-.29284.48806-.39045.68329-1.269 3.8069-4.0997 6.9305-7.809 9.4684l.09761.0976c-1.1714.7809-2.5379 1.5618-3.9045 2.2451-.09761.0976-.29284.0976-.39045.19523l-1.1714.58568c-.7809.29284-1.4642.68329-2.2451.97613h-.09761c-4.6854 1.757-9.6637 2.7332-14.447 2.7332h-.39045c-15.325 0-36.214-9.9565-38.85-21.67-.19523-1.269.097613-2.7332.7809-3.8069.68329-1.0737 1.9523-1.9522 3.3188-2.1475.29284 0 .48806-.0976.7809-.0976 1.8546-.0976 4.0021.48806 5.9544 1.8546 1.0737.68329 2.0499 1.5618 3.026 2.3427.87852.78091 1.8546 1.5618 2.8308 2.2451 3.9045 2.7332 8.9804 4.295 14.154 4.3926 2.3427 0 4.6854-.19523 6.9305-.7809 5.5639-1.4642 9.9565-4.3926 13.666-7.7114-.09761-.0976-.09761-.19523-.19523-.29284 2.2451-2.0499 4.295-4.1974 6.052-6.1496.58568-.58568.58568-1.5618-.09761-2.0499-.58568-.58568-1.5618-.58568-2.0499.0976q-2.6355 2.9284-5.2711 5.2711c-.7809-1.757-1.5618-3.5141-2.1475-5.1735-6.9305-18.644-6.052-39.728 2.2451-57.689 6.9305-14.74 18.937-27.039 30.553-38.948 16.887-17.375 34.555-35.336 36.605-61.398.97613-11.909-1.9522-23.72-4.6854-35.141l-.7809-3.1236c-7.5162-31.724-13.568-65.596 2.0499-100.15.97613-2.1475 2.0499-4.1974 3.1236-6.2472 3.9045 1.3666 8.0043 2.6355 12.299 4.0021.0976.0976.29284.0976.39045.0976.68329 0 1.1714-.29284 1.5618-1.1714.19523-.7809-.19522-1.6594-.97612-1.8546-14.251-4.4902-26.063-8.6875-37.288-14.447-.78091-.39045-1.269-.7809-1.6594-1.1714-.58568-.7809-.39045-2.1475.0976-3.8069 1.3666-4.1974 3.3188-8.6875 5.9544-13.666 1.5618-2.8308 3.2212-5.7592 5.6615-7.2234 2.7332-1.8546 6.052-1.5618 8.9804-.87852 10.054 2.0499 19.523 7.1257 27.332 14.74.58568.68329 1.5618.58568 2.0499 0 .68329-.58568.58568-1.5618 0-2.0499-.7809-.68329-1.5618-1.3666-2.2451-2.0499 8.7852-8.5899 19.035-16.106 30.943-22.549v.09761c45.878-24.891 109.81-29.772 162.92-12.69 34.457 11.03 62.667 37.581 77.505 72.624 5.9544 14.251 9.9565 29.577 11.909 46.171-3.5141-.29283-7.0281.29284-10.445 1.8546-3.2212 1.5618-5.8568 3.8069-7.5162 6.6377-1.8546 3.1236-2.2451 6.9305-1.1714 10.152.0976.19523.0976.29284.19522.58568-10.054 5.4663-15.813 11.616-16.887 18.449-.58567 3.8069.29284 7.809 2.7332 11.811 3.5141 6.052 9.5661 9.3708 16.985 9.3708h1.8546c1.1714-.0976 2.5379-.19523 3.9045-.39045-.29284 4.4902-.39046 8.7852-.19523 13.275 0 1.0737.0976 2.2451.58568 3.2212-22.646 4.4902-48.611 10.054-70.281 15.032-26.16 6.052-87.266 20.596-89.511 25.184-.29284.7809-.39046 2.3427-.19523 4.8806-.0976.29283 0 .68329.0976.87851 0 .29284.0976.68329.0976.87852-2.8308-1.757-4.8806-4.4902-4.783-7.7114 0-.87852-.68329-1.5618-1.3666-1.5618-.87851-.0976-1.5618.58568-1.5618 1.3666-.0976 7.1257 7.0281 12.104 13.763 12.69 5.4663.39045 10.64-1.269 15.618-2.9284.97613-.19522 1.8546-.58568 2.8308-.87851 2.1475-.68329 3.8069-.97613 5.0759-.29284.7809.39045 1.5618 1.3666 1.9522 2.7332.58568 1.5618.58568 3.026 0 4.0021-1.0737 2.1475-4.4902 4.5878-7.0281 5.7592-9.078 4.1974-18.058 5.0759-28.308 2.8308-10.152-2.2451-16.009-8.3947-18.058-18.644-.19523-.87852-.97613-1.269-1.757-1.1714-.87852.19523-1.269.97613-1.1714 1.757 2.1475 11.421 8.9804 18.449 20.303 20.889 2.8308.68329 5.5639.97613 8.1995 1.1714 6.7353 30.65 20.206 79.164 29.186 100.74 4.0021 9.7613 6.2472 11.909 7.7114 12.494.19523.0976.39045.19522.68329.19522.29284.0976.68329.0976 1.0737.0976 6.2472 0 25.77-4.783 50.075-11.421-10.933 16.009-23.622 30.358-40.9 41.778m52.321-29.577c7.2234 6.2472 6.8329 29.186 1.1714 40.997-.87851 1.8546-2.1475 4.4902-4.1974 5.8568-1.3666.97613-3.7093 1.3666-5.1735.0976-1.757-1.3666-2.0499-4.4902-2.2451-6.6377-.29284-4.295-.19523-8.8828.39045-13.275.19523-1.757.19523-4.4902-.29284-6.7353-1.0737-4.1974-4.8806-5.6616-7.6138-6.2472-1.8546-.39045-4.9783-.7809-9.5661-.87851 5.4663-5.6616 10.445-11.616 15.032-17.863 5.0759.7809 9.8589 2.4403 12.494 4.6854m-59.641-3.6117c19.718-27.234 45.78-62.082 64.034-85.314 13.373 5.0759 23.622 8.3947 27.624 8.3947.39045 0 .87852-.0976 1.1714-.19522 2.5379-.97613 9.5661-9.3708 18.449-20.987 18.937 11.518 45.683 29.284 70.672 46.952-20.206 6.5401-161.65 49.88-181.95 51.149m184.39-54.175c-.0976.39046-.19523.68329-.29284.97613-5.0759-3.6117-24.794-17.473-45.097-30.748-10.64-7.0281-19.23-12.397-25.867-16.497 20.401-26.746 49.294-68.427 57.104-79.945 2.1475 6.9305 6.4424 29.186 10.054 56.518 4.6854 34.945 6.1496 61.008 4.0997 69.696m-157.25-180.29c5.0759 1.1714 12.104.97613 15.423-3.7093 1.5618-2.1475 2.0499-4.8806 2.2451-7.6138.7809-8.1995-2.7332-16.692-11.811-17.863-2.9284-.39045-6.052.0976-8.6875 1.8546-4.6854 3.026-6.9305 9.078-6.9305 14.544 0 2.7332.58568 5.5639 2.0499 7.809 1.6594 2.6356 4.5878 4.1974 7.7114 4.9783m4.1974-21.475c1.5618-.7809 3.1236-.97612 4.5878-.58567 1.269.39045 2.3427 1.1714 3.026 2.5379.58567 1.0737.68329 2.3427.39045 3.7093-.19523 1.5618-.87852 3.026-2.1475 3.9045-1.0738.7809-2.6356 1.0737-3.9045.7809s-2.5379-1.1714-3.2212-2.2451c-1.6594-2.4403-1.4642-6.5401 1.269-8.1019m-195.42-65.498c-.29284.58568-.7809.7809-1.269.7809-.29284 0-.68329-.09761-.87851-.29284-10.835-7.809-19.523-11.616-23.232-10.347-1.0737.29284-1.6594 1.0737-2.0499 2.3427-.39045 1.6594.68329 4.5878 1.8546 5.5639.68329.58568.68329 1.3666.19522 2.0499-.58568.68329-1.3666.68329-2.0499.19523-1.9523-1.6594-3.5141-5.6615-2.7332-8.5899.58568-2.1475 1.9523-3.8069 3.9045-4.4902 6.2472-2.0499 17.57 4.6854 25.965 10.737.68329.39045.7809 1.3666.29284 2.0499m120.55 123.09c13.861 10.542 32.115 15.716 50.173 15.716 19.523 0 38.948-6.052 52.125-18.058 16.106-14.349 23.329-37.581 19.035-62.375-4.4902-25.672-20.206-47.733-40.119-55.932-26.746-11.03-65.889-2.0499-85.314 19.718-.68329.7809-1.269 1.6594-1.9522 2.3427-12.787 16.497-18.254 40.705-13.959 63.253 3.026 15.13 10.054 27.722 20.011 35.336m-3.5141-96.734c.58568-.7809 1.1714-1.5618 1.8546-2.2451 13.373-14.837 36.117-23.525 57.396-23.525 8.7852 0 17.277 1.5618 24.696 4.5878 19.035 7.9066 34.067 28.991 38.264 53.785 4.0021 23.72-2.7332 46.073-18.058 59.739-24.501 21.768-71.55 22.744-98.784 2.1475-9.3708-7.1257-16.009-19.035-18.742-33.579-4.0997-21.768.97613-45.097 13.373-60.91" stroke="currentColor" stroke-width="6"/></svg>
