<?xml version="1.0" encoding="UTF-8"?>
<svg version="1.1" viewBox="0 0 6.35 6.35" xmlns="http://www.w3.org/2000/svg" fill="currentColor"><path d="m5.6648.87229c-.060604 0-.11665.027692-.15369.075542-.5044.65187-1.0323 1.3123-1.4124 1.7666-.1195.14287-.22305.26337-.30738.35843-.085004.095897-.15105.16621-.19589.20839l-.016671.015629-.021881-.00677c-.052365-.016005-.12917-.04461-.22871-.085964-.1184-.049236-.27014-.11664-.45065-.20006-.59265-.27395-1.4922-.72088-2.3475-1.1659-.028044-.014616-.058316-.021881-.089608-.021881-.072725 0-.13833.040271-.17192.10472-.049354.094867-.012592.21214.082314.26153.007407.00384.76051.3953 1.5228.77053.27058.13317.51045.24922.71322.34437l.047409.021881-.034384.039594c-.38414.44067-.89617 1.0522-1.5218 1.8177-.067694.082826-.055253.20578.027612.27351.031926.026183.070334.040904.11149.043242.00364.0002021.00734.0005164.01094.0005164.058584 0 .11353-.02606.15056-.071374.57772-.70697 1.1785-1.4221 1.6072-1.913l.018756-.021881.02657.011462c.29534.12806.47749.18994.57307.19537.00503.0002695.010071.0005165.014588.0005165.031649 0 .051203-.00646.073978-.014067.030896-.010457.10348-.035315.42824-.39803l.023443-.026049.028654.020318c.42902.30215 1.0037.73563 1.5369 1.1597.034699.027608.076621.042199.12087.042199.059575 0 .11453-.026394.1516-.072937.032239-.0406.046984-.091254.041157-.14275-.005908-.051454-.031295-.097961-.071896-.13024-.0052323-.0041589-.5335-.42367-1.0852-.83304-.15678-.11634-.30205-.22177-.43189-.31363l-.034905-.025007.027612-.032822c.3477-.41353.81558-1.0001 1.3905-1.7432.03173-.040957.045609-.091854.039074-.14327-.00658-.051414-.032942-.097514-.073979-.1292-.034302-.026539-.075007-.040636-.11826-.040636zm-.13389-.16202c-.6014 0-2.4325.30505-2.7935.36625-2.4317.41187-2.4894.51034-2.5762.65904-.062426.10691-.12102.20759.13598 1.5119.11653.59126.29655 1.386.45325 1.8432.094906.27692.1831.45057.35322.51889.041908.016834.087818.026764.14014.029696.00784.0004266.016298.0005164.025527.0005164.65666 0 4.5848-1.0012 4.6237-1.0112.072089-.018973.20344-.078436.27351-.26361.090905-.24047.10038-.85802.027612-1.8354-.10703-1.4383-.21176-1.5946-.24642-1.6463-.10358-.15781-.28728-.16803-.34749-.1714-.020835-.001193-.04378-.001563-.069289-.001563zm.13389.16202c.043254 0 .08396.014097.11826.040636.041037.031688.067404.077788.073979.1292.00653.051412-.00734.10231-.039074.14327-.031129.040234-.061713.07999-.092213.1193.0008983.00552.00168.016715.0026.022402.026436.16289.054547.38388.080751.6408.03679.36199.069622.78359.086482 1.168 7.8e-6.0001684-7.9e-6.0003481 0 .0005164.01699.38458.018469.73213-.0073.94662.03973.031312.062501.049173.063559.050013.040598.032281.065993.078792.071895.13024.00583.051492-.00891.10215-.041157.14275-.018538.02327-.041388.041245-.067206.053661-.00645.00311-.013016.00597-.019797.00834-.02034.0071-.042262.010939-.064601.01094-.044246 0-.086168-.014591-.12087-.042199-.036271-.028848-.06812-.049777-.10472-.078667-.037246.00943-.15866.03442-.20422.045846-.68069.17325-3.0413.75728-3.9037.88045-.00139.0002021-.00539.00137-.00677.00156-.03732.045505-.074829.090997-.11201.1365-.037036.045314-.091979.071374-.15056.071374-.00361 0-.0073-.0003145-.010941-.0005165-.041155-.00234-.079563-.017059-.11149-.043241-.082865-.067734-.095306-.19069-.027612-.27351.013963-.017086.027828-.034124.041678-.051056-.00277-.00672-.00657-.02732-.00938-.034384-.10124-.2541-.21429-.69623-.32873-1.2009-.1405-.61391-.26677-1.2545-.31728-1.6489-.070808-.036554-.11188-.057992-.11357-.05887-.094907-.049394-.13167-.16666-.082314-.26153.03359-.064446.099198-.10472.17192-.10472.031292 0 .061564.00727.089608.021881.010202.00531.020007.010841.030217.016151 6.782e-5-2.14e-5.00044912 2.13e-5.00051649 0 .65146-.20476 3.9528-.76777 4.8717-.80804.028257-.036362.05049-.06205.078668-.098465.037034-.047848.093086-.07554.15369-.075542z" stroke-width="0"/></svg>
