<svg version="1.1" viewBox="0 0 512 512" xmlns="http://www.w3.org/2000/svg" fill="currentColor"><path d="m378.4 151.9-297.1 298.7.6.6c121.2-64.4 236.2-139.2 344.2-223.9-10.4-28.2-26.6-54.1-47.7-75.4" opacity=".5"/><path d="m320.3 0c-38.7-.1-76.702 10.7-109.6 31-20.5-5.4-41.499-8.0004-62.699-7.9004-34.7.3-69 8-100.5 22.5-3.4 1.6-4.8008 5.5004-3.3008 8.9004.9 1.9 2.6016 3.2992 4.6016 3.6992 34.2 7.1 64.6 26.5 85.6 54.5-25.7 49.1-31.201 106.4-15.301 159.5 5.8-13 12.901-25.4 21.201-37 19.3-26.5 39.699-40.299 69.799-60.699 14.972-10.116 33.855-21.414 71.74-38.863-10.854.35079-19.392-2.715-23.141-9.3359-7.7-13.6 7.7004-37.101 34.4-52.301 26.7-15.3 54.601-16.6 62.301-3 5.839 10.313-1.6052 26.319-17.188 40.082 4.3412-1.8102 8.8334-3.6704 13.486-5.582 22.7-7.4 44.5-17.4 64.9-29.9 14.8-8.8 26.101-17.1 29.701-30.1.3-.9.49922-1.7992.69922-2.6992-36.3-27.8-80.899-42.901-126.7-42.801zm126.7 43c-.2.8-.39961 1.7-.59961 2.5-3.6 13-14.801 21.3-29.701 30.1-20.4 12.5-42.198 22.5-64.898 29.9-4.7202 1.9392-9.2777 3.8252-13.678 5.6602-4.9465 4.3575-10.708 8.4889-17.123 12.141-13.668 7.7809-27.65 11.945-39.076 12.332-37.911 17.451-56.82 28.751-71.725 38.867-30.1 20.4-50.499 34.199-69.799 60.699-8.3 11.6-15.401 23.9-21.201 36.9 9.9 32.8 27.602 63.1 52.102 87.9l297.1-298.6c-6.7-6.7-13.9-12.7-21.4-18.4zm-20.9 184.3c-107.9 84.6-223.1 159.5-344.1 223.9 38.9 38.7 91.5 60.601 146.5 60.801 116.8-.3 211.2-95.2 210.9-212 0-25.1-4.8008-49.599-13.301-72.699z"/></svg>
