<?xml version="1.0" encoding="UTF-8"?>
<svg version="1.1" viewBox="0 0 24 24" xmlns="http://www.w3.org/2000/svg"><g transform="matrix(.14337 0 0 .14337 -.90323 -.90323)"><circle cx="27.5" cy="150" r="2.25"/><circle cx="22.5" cy="150" r="2.25"/><circle cx="22.5" cy="155" r="2.25"/><circle cx="27.5" cy="155" r="2.25"/><circle cx="32.5" cy="150" r="2.25"/><circle cx="32.5" cy="155" r="2.25"/><circle cx="37.5" cy="150" r="2.25"/><circle cx="37.5" cy="155" r="2.25"/><circle cx="27.5" cy="140" r="2.25"/><circle cx="22.5" cy="140" r="2.25"/><circle cx="22.5" cy="145" r="2.25"/><circle cx="27.5" cy="145" r="2.25"/><circle cx="32.5" cy="140" r="2.25"/><circle cx="32.5" cy="145" r="2.25"/><circle cx="37.5" cy="140" r="2.25"/><circle cx="37.5" cy="145" r="2.25"/><circle cx="27.5" cy="130" r="2.25"/><circle cx="22.5" cy="130" r="2.25"/><circle cx="22.5" cy="135" r="2.25"/><circle cx="27.5" cy="135" r="2.25"/><circle cx="32.5" cy="130" r="2.25"/><circle cx="32.5" cy="135" r="2.25"/><circle cx="37.5" cy="130" r="2.25"/><circle cx="37.5" cy="135" r="2.25"/><circle cx="27.5" cy="120" r="2.25"/><circle cx="22.5" cy="120" r="2.25"/><circle cx="22.5" cy="125" r="2.25"/><circle cx="27.5" cy="125" r="2.25"/><circle cx="32.5" cy="120" r="2.25"/><circle cx="32.5" cy="125" r="2.25"/><circle cx="37.5" cy="120" r="2.25"/><circle cx="37.5" cy="125" r="2.25"/><circle cx="27.5" cy="110" r="2.25"/><circle cx="22.5" cy="110" r="2.25"/><circle cx="22.5" cy="115" r="2.25"/><circle cx="27.5" cy="115" r="2.25"/><circle cx="32.5" cy="110" r="2.25"/><circle cx="32.5" cy="115" r="2.25"/><circle cx="37.5" cy="110" r="2.25"/><circle cx="37.5" cy="115" r="2.25"/><circle cx="27.5" cy="100" r="2.25"/><circle cx="22.5" cy="100" r="2.25"/><circle cx="22.5" cy="105" r="2.25"/><circle cx="27.5" cy="105" r="2.25"/><circle cx="32.5" cy="100" r="2.25"/><circle cx="32.5" cy="105" r="2.25"/><circle cx="37.5" cy="100" r="2.25"/><circle cx="37.5" cy="105" r="2.25"/><circle cx="27.5" cy="90" r="2.25"/><circle cx="22.5" cy="90" r="2.25"/><circle cx="22.5" cy="95" r="2.25"/><circle cx="27.5" cy="95" r="2.25"/><circle cx="32.5" cy="90" r="2.25"/><circle cx="32.5" cy="95" r="2.25"/><circle cx="37.5" cy="90" r="2.25"/><circle cx="37.5" cy="95" r="2.25"/><circle cx="27.5" cy="80" r="2.25"/><circle cx="22.5" cy="80" r="2.25"/><circle cx="22.5" cy="85" r="2.25"/><circle cx="27.5" cy="85" r="2.25"/><circle cx="32.5" cy="80" r="2.25"/><circle cx="32.5" cy="85" r="2.25"/><circle cx="37.5" cy="80" r="2.25"/><circle cx="37.5" cy="85" r="2.25"/><circle cx="27.5" cy="70" r="2.25"/><circle cx="22.5" cy="70" r="2.25"/><circle cx="22.5" cy="75" r="2.25"/><circle cx="27.5" cy="75" r="2.25"/><circle cx="32.5" cy="70" r="2.25"/><circle cx="32.5" cy="75" r="2.25"/><circle cx="37.5" cy="70" r="2.25"/><circle cx="37.5" cy="75" r="2.25"/><circle cx="27.5" cy="60" r="2.25"/><circle cx="22.5" cy="60" r="2.25"/><circle cx="22.5" cy="65" r="2.25"/><circle cx="27.5" cy="65" r="2.25"/><circle cx="32.5" cy="60" r="2.25"/><circle cx="32.5" cy="65" r="2.25"/><circle cx="37.5" cy="60" r="2.25"/><circle cx="37.5" cy="65" r="2.25"/><circle cx="27.5" cy="50" r="2.25"/><circle cx="22.5" cy="50" r="2.25"/><circle cx="22.5" cy="55" r="2.25"/><circle cx="27.5" cy="55" r="2.25"/><circle cx="32.5" cy="50" r="2.25"/><circle cx="32.5" cy="55" r="2.25"/><circle cx="37.5" cy="50" r="2.25"/><circle cx="37.5" cy="55" r="2.25"/><circle cx="27.5" cy="40" r="2.25"/><circle cx="22.5" cy="40" r="2.25"/><circle cx="22.5" cy="45" r="2.25"/><circle cx="27.5" cy="45" r="2.25"/><circle cx="32.5" cy="40" r="2.25"/><circle cx="32.5" cy="45" r="2.25"/><circle cx="37.5" cy="40" r="2.25"/><circle cx="37.5" cy="45" r="2.25"/><circle cx="27.5" cy="30" r="2.25"/><circle cx="22.5" cy="30" r="2.25"/><circle cx="22.5" cy="35" r="2.25"/><circle cx="27.5" cy="35" r="2.25"/><circle cx="32.5" cy="30" r="2.25"/><circle cx="32.5" cy="35" r="2.25"/><circle cx="37.5" cy="30" r="2.25"/><circle cx="37.5" cy="35" r="2.25"/><circle cx="27.5" cy="25" r="2.25"/><circle cx="22.5" cy="25" r="2.25"/><circle cx="32.5" cy="25" r="2.25"/><circle cx="37.5" cy="25" r="2.25"/><circle cx="47.5" cy="50" r="2.25"/><circle cx="42.5" cy="50" r="2.25"/><circle cx="42.5" cy="55" r="2.25"/><circle cx="47.5" cy="55" r="2.25"/><circle cx="52.5" cy="50" r="2.25"/><circle cx="52.5" cy="55" r="2.25"/><circle cx="57.5" cy="50" r="2.25"/><circle cx="57.5" cy="55" r="2.25"/><circle cx="47.5" cy="40" r="2.25"/><circle cx="42.5" cy="40" r="2.25"/><circle cx="42.5" cy="45" r="2.25"/><circle cx="47.5" cy="45" r="2.25"/><circle cx="52.5" cy="40" r="2.25"/><circle cx="52.5" cy="45" r="2.25"/><circle cx="57.5" cy="40" r="2.25"/><circle cx="57.5" cy="45" r="2.25"/><circle cx="47.5" cy="30" r="2.25"/><circle cx="42.5" cy="30" r="2.25"/><circle cx="42.5" cy="35" r="2.25"/><circle cx="47.5" cy="35" r="2.25"/><circle cx="52.5" cy="30" r="2.25"/><circle cx="52.5" cy="35" r="2.25"/><circle cx="57.5" cy="30" r="2.25"/><circle cx="57.5" cy="35" r="2.25"/><circle cx="47.5" cy="25" r="2.25"/><circle cx="42.5" cy="25" r="2.25"/><circle cx="52.5" cy="25" r="2.25"/><circle cx="57.5" cy="25" r="2.25"/><circle cx="67.5" cy="50" r="2.25"/><circle cx="62.5" cy="50" r="2.25"/><circle cx="62.5" cy="55" r="2.25"/><circle cx="67.5" cy="55" r="2.25"/><circle cx="72.5" cy="50" r="2.25"/><circle cx="72.5" cy="55" r="2.25"/><circle cx="77.5" cy="50" r="2.25"/><circle cx="77.5" cy="55" r="2.25"/><circle cx="67.5" cy="40" r="2.25"/><circle cx="62.5" cy="40" r="2.25"/><circle cx="62.5" cy="45" r="2.25"/><circle cx="67.5" cy="45" r="2.25"/><circle cx="72.5" cy="40" r="2.25"/><circle cx="72.5" cy="45" r="2.25"/><circle cx="77.5" cy="40" r="2.25"/><circle cx="77.5" cy="45" r="2.25"/><circle cx="67.5" cy="30" r="2.25"/><circle cx="62.5" cy="30" r="2.25"/><circle cx="62.5" cy="35" r="2.25"/><circle cx="67.5" cy="35" r="2.25"/><circle cx="72.5" cy="30" r="2.25"/><circle cx="72.5" cy="35" r="2.25"/><circle cx="77.5" cy="30" r="2.25"/><circle cx="77.5" cy="35" r="2.25"/><circle cx="67.5" cy="25" r="2.25"/><circle cx="62.5" cy="25" r="2.25"/><circle cx="72.5" cy="25" r="2.25"/><circle cx="77.5" cy="25" r="2.25"/><circle cx="87.5" cy="50" r="2.25"/><circle cx="82.5" cy="50" r="2.25"/><circle cx="82.5" cy="55" r="2.25"/><circle cx="87.5" cy="55" r="2.25"/><circle cx="92.5" cy="50" r="2.25"/><circle cx="92.5" cy="55" r="2.25"/><circle cx="97.5" cy="50" r="2.25"/><circle cx="97.5" cy="55" r="2.25"/><circle cx="87.5" cy="40" r="2.25"/><circle cx="82.5" cy="40" r="2.25"/><circle cx="82.5" cy="45" r="2.25"/><circle cx="87.5" cy="45" r="2.25"/><circle cx="92.5" cy="40" r="2.25"/><circle cx="92.5" cy="45" r="2.25"/><circle cx="97.5" cy="40" r="2.25"/><circle cx="97.5" cy="45" r="2.25"/><circle cx="87.5" cy="30" r="2.25"/><circle cx="82.5" cy="30" r="2.25"/><circle cx="82.5" cy="35" r="2.25"/><circle cx="87.5" cy="35" r="2.25"/><circle cx="92.5" cy="30" r="2.25"/><circle cx="92.5" cy="35" r="2.25"/><circle cx="97.5" cy="30" r="2.25"/><circle cx="97.5" cy="35" r="2.25"/><circle cx="87.5" cy="25" r="2.25"/><circle cx="82.5" cy="25" r="2.25"/><circle cx="92.5" cy="25" r="2.25"/><circle cx="97.5" cy="25" r="2.25"/><circle cx="107.5" cy="50" r="2.25"/><circle cx="102.5" cy="50" r="2.25"/><circle cx="102.5" cy="55" r="2.25"/><circle cx="107.5" cy="55" r="2.25"/><circle cx="112.5" cy="50" r="2.25"/><circle cx="112.5" cy="55" r="2.25"/><circle cx="117.5" cy="50" r="2.25"/><circle cx="117.5" cy="55" r="2.25"/><circle cx="107.5" cy="40" r="2.25"/><circle cx="102.5" cy="40" r="2.25"/><circle cx="102.5" cy="45" r="2.25"/><circle cx="107.5" cy="45" r="2.25"/><circle cx="112.5" cy="40" r="2.25"/><circle cx="112.5" cy="45" r="2.25"/><circle cx="117.5" cy="40" r="2.25"/><circle cx="117.5" cy="45" r="2.25"/><circle cx="107.5" cy="30" r="2.25"/><circle cx="102.5" cy="30" r="2.25"/><circle cx="102.5" cy="35" r="2.25"/><circle cx="107.5" cy="35" r="2.25"/><circle cx="112.5" cy="30" r="2.25"/><circle cx="112.5" cy="35" r="2.25"/><circle cx="117.5" cy="30" r="2.25"/><circle cx="117.5" cy="35" r="2.25"/><circle cx="107.5" cy="25" r="2.25"/><circle cx="102.5" cy="25" r="2.25"/><circle cx="112.5" cy="25" r="2.25"/><circle cx="117.5" cy="25" r="2.25"/><circle cx="127.5" cy="50" r="2.25"/><circle cx="122.5" cy="50" r="2.25"/><circle cx="122.5" cy="55" r="2.25"/><circle cx="127.5" cy="55" r="2.25"/><circle cx="132.5" cy="50" r="2.25"/><circle cx="132.5" cy="55" r="2.25"/><circle cx="137.5" cy="50" r="2.25"/><circle cx="137.5" cy="55" r="2.25"/><circle cx="127.5" cy="40" r="2.25"/><circle cx="122.5" cy="40" r="2.25"/><circle cx="122.5" cy="45" r="2.25"/><circle cx="127.5" cy="45" r="2.25"/><circle cx="132.5" cy="40" r="2.25"/><circle cx="132.5" cy="45" r="2.25"/><circle cx="137.5" cy="40" r="2.25"/><circle cx="137.5" cy="45" r="2.25"/><circle cx="127.5" cy="30" r="2.25"/><circle cx="122.5" cy="30" r="2.25"/><circle cx="122.5" cy="35" r="2.25"/><circle cx="127.5" cy="35" r="2.25"/><circle cx="132.5" cy="30" r="2.25"/><circle cx="132.5" cy="35" r="2.25"/><circle cx="137.5" cy="30" r="2.25"/><circle cx="137.5" cy="35" r="2.25"/><circle cx="127.5" cy="25" r="2.25"/><circle cx="122.5" cy="25" r="2.25"/><circle cx="132.5" cy="25" r="2.25"/><circle cx="137.5" cy="25" r="2.25"/><circle cx="147.5" cy="50" r="2.25"/><circle cx="142.5" cy="50" r="2.25"/><circle cx="142.5" cy="55" r="2.25"/><circle cx="147.5" cy="55" r="2.25"/><circle cx="152.5" cy="50" r="2.25"/><circle cx="152.5" cy="55" r="2.25"/><circle cx="157.5" cy="50" r="2.25"/><circle cx="157.5" cy="55" r="2.25"/><circle cx="147.5" cy="40" r="2.25"/><circle cx="142.5" cy="40" r="2.25"/><circle cx="142.5" cy="45" r="2.25"/><circle cx="147.5" cy="45" r="2.25"/><circle cx="152.5" cy="40" r="2.25"/><circle cx="152.5" cy="45" r="2.25"/><circle cx="157.5" cy="40" r="2.25"/><circle cx="157.5" cy="45" r="2.25"/><circle cx="147.5" cy="30" r="2.25"/><circle cx="142.5" cy="30" r="2.25"/><circle cx="142.5" cy="35" r="2.25"/><circle cx="147.5" cy="35" r="2.25"/><circle cx="152.5" cy="30" r="2.25"/><circle cx="152.5" cy="35" r="2.25"/><circle cx="157.5" cy="30" r="2.25"/><circle cx="157.5" cy="35" r="2.25"/><circle cx="147.5" cy="25" r="2.25"/><circle cx="142.5" cy="25" r="2.25"/><circle cx="152.5" cy="25" r="2.25"/><circle cx="157.5" cy="25" r="2.25"/><circle cx="47.5" cy="150" r="2.25"/><circle cx="42.5" cy="150" r="2.25"/><circle cx="42.5" cy="155" r="2.25"/><circle cx="47.5" cy="155" r="2.25"/><circle cx="52.5" cy="150" r="2.25"/><circle cx="52.5" cy="155" r="2.25"/><circle cx="57.5" cy="150" r="2.25"/><circle cx="57.5" cy="155" r="2.25"/><circle cx="47.5" cy="140" r="2.25"/><circle cx="42.5" cy="140" r="2.25"/><circle cx="42.5" cy="145" r="2.25"/><circle cx="47.5" cy="145" r="2.25"/><circle cx="52.5" cy="140" r="2.25"/><circle cx="52.5" cy="145" r="2.25"/><circle cx="57.5" cy="140" r="2.25"/><circle cx="57.5" cy="145" r="2.25"/><circle cx="47.5" cy="130" r="2.25"/><circle cx="42.5" cy="130" r="2.25"/><circle cx="42.5" cy="135" r="2.25"/><circle cx="47.5" cy="135" r="2.25"/><circle cx="52.5" cy="130" r="2.25"/><circle cx="52.5" cy="135" r="2.25"/><circle cx="57.5" cy="130" r="2.25"/><circle cx="57.5" cy="135" r="2.25"/><circle cx="47.5" cy="125" r="2.25"/><circle cx="42.5" cy="125" r="2.25"/><circle cx="52.5" cy="125" r="2.25"/><circle cx="57.5" cy="125" r="2.25"/><circle cx="67.5" cy="150" r="2.25"/><circle cx="62.5" cy="150" r="2.25"/><circle cx="62.5" cy="155" r="2.25"/><circle cx="67.5" cy="155" r="2.25"/><circle cx="72.5" cy="150" r="2.25"/><circle cx="72.5" cy="155" r="2.25"/><circle cx="77.5" cy="150" r="2.25"/><circle cx="77.5" cy="155" r="2.25"/><circle cx="67.5" cy="140" r="2.25"/><circle cx="62.5" cy="140" r="2.25"/><circle cx="62.5" cy="145" r="2.25"/><circle cx="67.5" cy="145" r="2.25"/><circle cx="72.5" cy="140" r="2.25"/><circle cx="72.5" cy="145" r="2.25"/><circle cx="77.5" cy="140" r="2.25"/><circle cx="77.5" cy="145" r="2.25"/><circle cx="67.5" cy="130" r="2.25"/><circle cx="62.5" cy="130" r="2.25"/><circle cx="62.5" cy="135" r="2.25"/><circle cx="67.5" cy="135" r="2.25"/><circle cx="72.5" cy="130" r="2.25"/><circle cx="72.5" cy="135" r="2.25"/><circle cx="77.5" cy="130" r="2.25"/><circle cx="77.5" cy="135" r="2.25"/><circle cx="67.5" cy="125" r="2.25"/><circle cx="62.5" cy="125" r="2.25"/><circle cx="72.5" cy="125" r="2.25"/><circle cx="77.5" cy="125" r="2.25"/><circle cx="87.5" cy="150" r="2.25"/><circle cx="82.5" cy="150" r="2.25"/><circle cx="82.5" cy="155" r="2.25"/><circle cx="87.5" cy="155" r="2.25"/><circle cx="92.5" cy="150" r="2.25"/><circle cx="92.5" cy="155" r="2.25"/><circle cx="97.5" cy="150" r="2.25"/><circle cx="97.5" cy="155" r="2.25"/><circle cx="87.5" cy="140" r="2.25"/><circle cx="82.5" cy="140" r="2.25"/><circle cx="82.5" cy="145" r="2.25"/><circle cx="87.5" cy="145" r="2.25"/><circle cx="92.5" cy="140" r="2.25"/><circle cx="92.5" cy="145" r="2.25"/><circle cx="97.5" cy="140" r="2.25"/><circle cx="97.5" cy="145" r="2.25"/><circle cx="87.5" cy="130" r="2.25"/><circle cx="82.5" cy="130" r="2.25"/><circle cx="82.5" cy="135" r="2.25"/><circle cx="87.5" cy="135" r="2.25"/><circle cx="92.5" cy="130" r="2.25"/><circle cx="92.5" cy="135" r="2.25"/><circle cx="97.5" cy="130" r="2.25"/><circle cx="97.5" cy="135" r="2.25"/><circle cx="87.5" cy="125" r="2.25"/><circle cx="82.5" cy="125" r="2.25"/><circle cx="92.5" cy="125" r="2.25"/><circle cx="97.5" cy="125" r="2.25"/><circle cx="107.5" cy="150" r="2.25"/><circle cx="102.5" cy="150" r="2.25"/><circle cx="102.5" cy="155" r="2.25"/><circle cx="107.5" cy="155" r="2.25"/><circle cx="112.5" cy="150" r="2.25"/><circle cx="112.5" cy="155" r="2.25"/><circle cx="117.5" cy="150" r="2.25"/><circle cx="117.5" cy="155" r="2.25"/><circle cx="107.5" cy="140" r="2.25"/><circle cx="102.5" cy="140" r="2.25"/><circle cx="102.5" cy="145" r="2.25"/><circle cx="107.5" cy="145" r="2.25"/><circle cx="112.5" cy="140" r="2.25"/><circle cx="112.5" cy="145" r="2.25"/><circle cx="117.5" cy="140" r="2.25"/><circle cx="117.5" cy="145" r="2.25"/><circle cx="107.5" cy="130" r="2.25"/><circle cx="102.5" cy="130" r="2.25"/><circle cx="102.5" cy="135" r="2.25"/><circle cx="107.5" cy="135" r="2.25"/><circle cx="112.5" cy="130" r="2.25"/><circle cx="112.5" cy="135" r="2.25"/><circle cx="117.5" cy="130" r="2.25"/><circle cx="117.5" cy="135" r="2.25"/><circle cx="107.5" cy="125" r="2.25"/><circle cx="102.5" cy="125" r="2.25"/><circle cx="112.5" cy="125" r="2.25"/><circle cx="117.5" cy="125" r="2.25"/><circle cx="127.5" cy="150" r="2.25"/><circle cx="122.5" cy="150" r="2.25"/><circle cx="122.5" cy="155" r="2.25"/><circle cx="127.5" cy="155" r="2.25"/><circle cx="132.5" cy="150" r="2.25"/><circle cx="132.5" cy="155" r="2.25"/><circle cx="137.5" cy="150" r="2.25"/><circle cx="137.5" cy="155" r="2.25"/><circle cx="127.5" cy="140" r="2.25"/><circle cx="122.5" cy="140" r="2.25"/><circle cx="122.5" cy="145" r="2.25"/><circle cx="127.5" cy="145" r="2.25"/><circle cx="132.5" cy="140" r="2.25"/><circle cx="132.5" cy="145" r="2.25"/><circle cx="137.5" cy="140" r="2.25"/><circle cx="137.5" cy="145" r="2.25"/><circle cx="127.5" cy="130" r="2.25"/><circle cx="122.5" cy="130" r="2.25"/><circle cx="122.5" cy="135" r="2.25"/><circle cx="127.5" cy="135" r="2.25"/><circle cx="132.5" cy="130" r="2.25"/><circle cx="132.5" cy="135" r="2.25"/><circle cx="137.5" cy="130" r="2.25"/><circle cx="137.5" cy="135" r="2.25"/><circle cx="127.5" cy="125" r="2.25"/><circle cx="122.5" cy="125" r="2.25"/><circle cx="132.5" cy="125" r="2.25"/><circle cx="137.5" cy="125" r="2.25"/><circle cx="147.5" cy="150" r="2.25"/><circle cx="142.5" cy="150" r="2.25"/><circle cx="142.5" cy="155" r="2.25"/><circle cx="147.5" cy="155" r="2.25"/><circle cx="152.5" cy="150" r="2.25"/><circle cx="152.5" cy="155" r="2.25"/><circle cx="157.5" cy="150" r="2.25"/><circle cx="157.5" cy="155" r="2.25"/><circle cx="147.5" cy="140" r="2.25"/><circle cx="142.5" cy="140" r="2.25"/><circle cx="142.5" cy="145" r="2.25"/><circle cx="147.5" cy="145" r="2.25"/><circle cx="152.5" cy="140" r="2.25"/><circle cx="152.5" cy="145" r="2.25"/><circle cx="157.5" cy="140" r="2.25"/><circle cx="157.5" cy="145" r="2.25"/><circle cx="147.5" cy="130" r="2.25"/><circle cx="142.5" cy="130" r="2.25"/><circle cx="142.5" cy="135" r="2.25"/><circle cx="147.5" cy="135" r="2.25"/><circle cx="152.5" cy="130" r="2.25"/><circle cx="152.5" cy="135" r="2.25"/><circle cx="157.5" cy="130" r="2.25"/><circle cx="157.5" cy="135" r="2.25"/><circle cx="147.5" cy="125" r="2.25"/><circle cx="142.5" cy="125" r="2.25"/><circle cx="152.5" cy="125" r="2.25"/><circle cx="157.5" cy="125" r="2.25"/><circle cx="147.5" cy="120" r="2.25"/><circle cx="142.5" cy="120" r="2.25"/><circle cx="152.5" cy="120" r="2.25"/><circle cx="157.5" cy="120" r="2.25"/><circle cx="147.5" cy="110" r="2.25"/><circle cx="142.5" cy="110" r="2.25"/><circle cx="142.5" cy="115" r="2.25"/><circle cx="147.5" cy="115" r="2.25"/><circle cx="152.5" cy="110" r="2.25"/><circle cx="152.5" cy="115" r="2.25"/><circle cx="157.5" cy="110" r="2.25"/><circle cx="157.5" cy="115" r="2.25"/><circle cx="147.5" cy="100" r="2.25"/><circle cx="142.5" cy="100" r="2.25"/><circle cx="142.5" cy="105" r="2.25"/><circle cx="147.5" cy="105" r="2.25"/><circle cx="152.5" cy="100" r="2.25"/><circle cx="152.5" cy="105" r="2.25"/><circle cx="157.5" cy="100" r="2.25"/><circle cx="157.5" cy="105" r="2.25"/><circle cx="147.5" cy="90" r="2.25"/><circle cx="142.5" cy="90" r="2.25"/><circle cx="142.5" cy="95" r="2.25"/><circle cx="147.5" cy="95" r="2.25"/><circle cx="152.5" cy="90" r="2.25"/><circle cx="152.5" cy="95" r="2.25"/><circle cx="157.5" cy="90" r="2.25"/><circle cx="157.5" cy="95" r="2.25"/><circle cx="147.5" cy="80" r="2.25"/><circle cx="142.5" cy="80" r="2.25"/><circle cx="142.5" cy="85" r="2.25"/><circle cx="147.5" cy="85" r="2.25"/><circle cx="152.5" cy="80" r="2.25"/><circle cx="152.5" cy="85" r="2.25"/><circle cx="157.5" cy="80" r="2.25"/><circle cx="157.5" cy="85" r="2.25"/><circle cx="147.5" cy="70" r="2.25"/><circle cx="142.5" cy="70" r="2.25"/><circle cx="142.5" cy="75" r="2.25"/><circle cx="147.5" cy="75" r="2.25"/><circle cx="152.5" cy="70" r="2.25"/><circle cx="152.5" cy="75" r="2.25"/><circle cx="157.5" cy="70" r="2.25"/><circle cx="157.5" cy="75" r="2.25"/><circle cx="147.5" cy="60" r="2.25"/><circle cx="142.5" cy="60" r="2.25"/><circle cx="142.5" cy="65" r="2.25"/><circle cx="147.5" cy="65" r="2.25"/><circle cx="152.5" cy="60" r="2.25"/><circle cx="152.5" cy="65" r="2.25"/><circle cx="157.5" cy="60" r="2.25"/><circle cx="157.5" cy="65" r="2.25"/><path d="m110 62.319a27.681 27.681 0 00-27.681 27.681 27.681 27.681 0 0027.681 27.681 27.681 27.681 0 0027.681-27.681 27.681 27.681 0 00-.70776-6.1114h-26.973v12.223h14.194a15.458 15.458 0 01-14.194 9.3468 15.458 15.458 0 01-15.458-15.458 15.458 15.458 0 0115.458-15.458 15.458 15.458 0 0110.434 4.0752l8.6502-8.6502a27.681 27.681 0 00-19.083-7.6477z" stroke-width="1.438"/></g></svg>
