<?xml version="1.0" encoding="UTF-8" standalone="no"?>
<svg
   role="img"
   viewBox="0 0 24 10"
   version="1.1"
   id="svg1"
   sodipodi:docname="intel.svg"
   width="24"
   height="10"
   inkscape:version="1.4.3 (0d15f75042, 2025-12-25)"
   xmlns:inkscape="http://www.inkscape.org/namespaces/inkscape"
   xmlns:sodipodi="http://sodipodi.sourceforge.net/DTD/sodipodi-0.dtd"
   xmlns="http://www.w3.org/2000/svg"
   xmlns:svg="http://www.w3.org/2000/svg"
   xmlns:rdf="http://www.w3.org/1999/02/22-rdf-syntax-ns#"
   xmlns:cc="http://creativecommons.org/ns#"
   xmlns:dc="http://purl.org/dc/elements/1.1/">
  <defs
     id="defs1" />
  <title
     id="title1">Intel</title>
  <path
     fill="currentColor" d="m 20.42,0.3445 v 9.18 h 1.651 v -9.18 z M 0,0.4745 v 1.737 h 1.737 v -1.738 z m 9.78,0.352 v 6.053 c 0,0.513 0.044,0.945 0.13,1.292 0.087,0.34 0.235,0.618 0.44,0.828 0.203,0.21 0.475,0.359 0.803,0.451 0.334,0.093 0.754,0.136 1.255,0.136 h 0.216 v -1.533 c -0.24,0 -0.445,-0.012 -0.593,-0.037 a 0.672,0.672 0 0 1 -0.39,-0.173 0.693,0.693 0 0 1 -0.173,-0.377 4.002,4.002 0 0 1 -0.037,-0.606 v -2.182 h 1.193 v -1.416 h -1.193 v -2.436 z m -3.505,2.312 c -0.396,0 -0.76,0.08 -1.082,0.241 -0.327,0.161 -0.6,0.384 -0.822,0.668 L 4.284,4.1645 V 3.2625 H 2.658 v 6.256 h 1.639 v -3.214 c 0.018,-0.588 0.16,-1.02 0.433,-1.299 0.29,-0.297 0.642,-0.445 1.044,-0.445 0.476,0 0.841,0.149 1.082,0.433 0.235,0.284 0.359,0.686 0.359,1.2 v 3.324 H 8.878 V 5.9695 C 8.884,5.0795 8.649,4.3745 8.192,3.8795 7.734,3.3845 7.092,3.1375 6.275,3.1375 Z m 10.065,0.006 a 3.252,3.252 0 0 0 -2.306,0.946 c -0.29,0.29 -0.525,0.637 -0.692,1.033 a 3.145,3.145 0 0 0 -0.254,1.273 c 0,0.452 0.08,0.878 0.241,1.274 0.161,0.395 0.39,0.742 0.674,1.032 0.284,0.29 0.637,0.526 1.045,0.693 0.408,0.173 0.86,0.26 1.342,0.26 1.397,0 2.262,-0.637 2.782,-1.23 l -1.187,-0.904 c -0.248,0.297 -0.841,0.699 -1.583,0.699 -0.464,0 -0.847,-0.105 -1.138,-0.321 a 1.588,1.588 0 0 1 -0.593,-0.872 l -0.019,-0.056 h 4.915 v -0.587 c 0,-0.451 -0.08,-0.872 -0.235,-1.267 A 3.393,3.393 0 0 0 18.671,4.0845 3.013,3.013 0 0 0 17.651,3.3925 3.345,3.345 0 0 0 16.34,3.1445 Z M 0.043,3.2625 v 6.256 h 1.651 v -6.256 z m 16.278,1.286 c 1.132,0 1.664,0.797 1.664,1.255 l -3.32,0.006 c 0,-0.458 0.525,-1.255 1.656,-1.261 z m 7.073,3.814 a 0.606,0.606 0 0 0 -0.606,0.606 0.606,0.606 0 0 0 0.606,0.606 A 0.606,0.606 0 0 0 24,8.9685 0.606,0.606 0 0 0 23.394,8.3625 Z m -0.008,0.105 a 0.5,0.5 0 0 1 0.002,0 0.5,0.5 0 0 1 0.5,0.501 0.5,0.5 0 0 1 -0.5,0.5 0.5,0.5 0 0 1 -0.5,-0.5 0.5,0.5 0 0 1 0.498,-0.5 z m -0.233,0.155 v 0.699 h 0.13 v -0.285 h 0.093 l 0.173,0.285 h 0.136 l -0.18,-0.297 a 0.191,0.191 0 0 0 0.118,-0.056 c 0.03,-0.03 0.05,-0.074 0.05,-0.136 0,-0.068 -0.02,-0.117 -0.063,-0.154 -0.037,-0.038 -0.105,-0.056 -0.185,-0.056 z m 0.13,0.099 h 0.154 c 0.019,0 0.037,0.006 0.056,0.012 a 0.064,0.064 0 0 1 0.037,0.031 c 0.013,0.013 0.012,0.031 0.012,0.056 a 0.124,0.124 0 0 1 -0.012,0.055 0.164,0.164 0 0 1 -0.037,0.031 c -0.019,0.006 -0.037,0.013 -0.056,0.013 h -0.154 z"
     id="path1" />
  <metadata
     id="metadata1">
    <rdf:RDF>
      <cc:Work
         rdf:about="">
        <dc:title>Intel</dc:title>
      </cc:Work>
    </rdf:RDF>
  </metadata>
</svg>
