<?xml version="1.0" encoding="UTF-8"?>
<svg version="1.1" viewBox="0 0 24 24" xmlns="http://www.w3.org/2000/svg" fill="currentColor"><path d="m12 1.25a10.75 10.75 0 00-10.75 10.75 10.75 10.75 0 0010.75 10.75 10.75 10.75 0 0010.75-10.75 10.75 10.75 0 00-10.75-10.75zm0 1.0754a9.675 9.675 0 019.6746 9.6746 9.675 9.675 0 01-9.6746 9.6746 9.675 9.675 0 01-9.6746-9.6746 9.675 9.675 0 019.6746-9.6746zm-7.4417 4.6064-.00182.00182h-.00182c-.020565.020565-.27424 1.4372-.25926 1.4478.00546.0039.1006.057937.21179.1205l.20266.1132h1.9755c2.3848 1e-7 2.3689-.00257 2.7897.46557.29257.32549.32899.47465.33046 1.3328.00262 1.5297-.32935 1.833-2.001 1.833h-.8928v-3.3429h-2.4447l-.00913 4.1883-.00913 4.1901h2.4629v-3.5255l1.771.01825.59337 1.7545.59337 1.7527h2.5433l-.12415-.35054c-.0684-.19285-.37383-1.0665-.67735-1.9408l-.55138-1.5902.19353-.13328c.47838-.32951.84748-.89281.964-1.4752.10801-.53984.06086-2.6024-.06756-2.9869-.2408-.72121-.83763-1.3158-1.5884-1.5811l-.28664-.10042-5.4298-.036515-.13693-.08581c-.065634-.041082-.12702-.069476-.14789-.069378zm9.2748.00365c-.000768.0001204-.003.00162-.0037.00182h-.0018v.00182c-.01944.019443-.26041 1.3169-.26108 1.4058v.00546c.01374.025156.09421.084986.18805.13876l.18805.10772 3.0563.036515.17527.091288c.5533.28483.60418 1.6609.08034 2.1745-.36298.35586-.6284.41262-1.9262.41262h-.92566l-.20448-.1077c-.09761-.0521-.17818-.08954-.19718-.09129h-.0054v.0018c0 .01015-.05687.3358-.12598.72482-.0691.38902-.12171.7113-.11685.71569.0048.0044.09613.05906.20083.1205l.18988.11137h1.1575c1.5439.000841 1.7435.04494 2.1233.46739.25217.28044.29395.44511.29395 1.1502 0 1.2962-.01898 1.3084-2.0795 1.3237l-1.4679.01096-.16249-.09494c-.08074-.04732-.15582-.07902-.1771-.07668h-.0036v.0018c-.01758.01758-.26094 1.3203-.26291 1.4077l.0018.0018v.0018c.01485.02598.10142.08977.20448.14788l.20631.11685 2.3388-.01096c2.8109-.0134 2.8607-.02224 3.416-.58241.46883-.473.5555-.80715.55868-2.1672.0032-1.3727-.18412-1.9457-.78325-2.4027l-.12415-.09494.16066-.16614c.51386-.52946.61893-.87925.61893-2.0722 0-1.2414-.07745-1.487-.65727-2.0795-.521-.53223-.69763-.56324-3.2737-.56402h-2.0613l-.16066-.094939c-.07741-.045366-.1503-.075935-.17527-.074856z"/></svg>
