<?xml version="1.0" encoding="UTF-8"?><svg id="Layer_1" xmlns="http://www.w3.org/2000/svg" viewBox="0 0 670.74 741.68"><defs><style>.cls-1{fill:aqua;}.cls-2{fill:#ff0094;}.cls-3{fill:lime;}</style></defs><path class="cls-2" d="M503.75,529.41c-10.92-6.33-21.84-12.65-32.76-18.98-32.46,18.74-64.93,37.49-97.39,56.23,10.12,5.91,20.23,11.82,30.35,17.73-14.55,8.4-29.1,16.8-43.65,25.2-10.1-5.92-20.2-11.84-30.29-17.76-32,18.47-64,36.95-96,55.42,11.94,7.06,23.89,14.12,35.83,21.17l-44.12,25.47c-26.6-15.78-53.21-31.56-79.81-47.34,108.01-62.36,216.02-124.72,324.02-187.08,25.82,14.91,51.64,29.82,77.47,44.73-14.55,8.4-29.1,16.8-43.65,25.2Z"/><path class="cls-2" d="M173.89,645.09c97.77-56.45,195.55-112.9,293.32-169.35,17.33,10.02,34.66,20.04,51.99,30.06-5.07,2.93-7.61,4.39-12.69,7.32-10.93-6.32-21.85-12.65-32.78-18.97-42.75,24.68-85.49,49.36-128.24,74.04,10.11,5.91,20.22,11.83,30.33,17.74-5.07,2.93-7.61,4.39-12.69,7.32-10.1-5.92-20.21-11.83-30.31-17.75l-126.85,73.24c11.94,7.06,23.87,14.13,35.81,21.19-5.26,3.04-7.89,4.56-13.15,7.59-18.25-10.81-36.5-21.62-54.75-32.43Z"/><path class="cls-2" d="M617.25,595.18c-9.52-5.52-19.04-11.03-28.57-16.55-94.14,54.35-188.28,108.7-282.41,163.05-14.68-8.71-29.36-17.42-44.04-26.12,93.96-54.25,187.93-108.5,281.89-162.75-9.52-5.52-19.05-11.04-28.57-16.55,14.56-8.4,29.11-16.81,43.67-25.21,33.96,19.61,67.92,39.21,101.88,58.82-14.62,8.44-29.24,16.88-43.86,25.32Z"/><path class="cls-2" d="M290.29,714.04c94.01-54.28,188.03-108.56,282.04-162.84l-28.59-16.54c5.08-2.93,7.62-4.4,12.71-7.34,25.46,14.72,50.93,29.44,76.39,44.16-5.1,2.94-7.65,4.42-12.75,7.36-9.53-5.51-19.06-11.03-28.58-16.54-94.09,54.32-188.18,108.64-282.27,162.97-7.58-4.49-11.38-6.74-18.96-11.23Z"/><path class="cls-2" d="M411.55,425.78c-71.7,46.1-143.4,92.19-215.1,138.29-.94-.34-1.41-.51-2.35-.85,66.26-49.4,132.51-98.81,198.75-148.24-17.93-10.35-35.87-20.71-53.8-31.06-81.4,46.99-162.79,93.99-244.19,140.98-5.62,3.24-8.43,4.86-14.04,8.11-1.59.92-2.38,1.38-3.97,2.29-2.44,1.41-3.66,2.11-6.09,3.52,13.77,8.13,27.54,16.26,41.32,24.4,46.72-29.99,93.44-59.97,140.16-89.96,10.3-6.83,20.61-13.66,30.91-20.49.94.34,1.42.5,2.36.84-9.55,7.27-19.09,14.55-28.64,21.82-59.19,43.88-118.38,87.74-177.58,131.61,17.69,10.49,35.39,20.99,53.08,31.48,107.95-62.32,215.89-124.65,323.84-186.97-14.88-8.59-29.76-17.18-44.65-25.78Z"/><path class="cls-2" d="M61.21,544.33l-44.42,25.64c14.68,8.71,29.36,17.42,44.04,26.12,14.06-9.02,28.12-18.04,42.17-27.07-13.93-8.23-27.87-16.47-41.8-24.7Z"/><path class="cls-1" d="M49.89,503.12c-30.91,19.55-37.49-15.12-38.26-38.48v-50.83c7.02-3.98,10.54-5.98,17.56-9.96v59.03c.64,9.75,3.29,36.67,20.35,25.97,15.61-9.79,20.77-31.47,20.35-48.95v-70.04c.14-12.59-1.5-45.43-23.03-32.48v-14.64c19.51-13.22,23.26-36.78,23.03-58.72v-59.82c-.64-9.73-3.3-36.83-20.35-25.76-15.65,10.16-20.24,31.6-20.35,49.15v48.32c-7.02,4.02-10.54,6.03-17.56,10.05v-39.61c-.4-31.74,9.25-65.34,38.26-82.07,31.11-17.94,37.1,13.49,37.92,38.33v54.74c.18,12.18-.46,26.85-9.32,36.3-3.11,3.38-4.67,5.06-7.78,8.44v26.4c3.01-.04,4.51-.07,7.52-.11,10.53.72,10.08,15.89,9.58,23.62v69.58c.1,31.84-8.69,64.71-37.92,81.53Z"/><path class="cls-1" d="M210.75,343.91c.06,41.06-13.79,85.91-51.64,107.19-15.94,8.96-31.87,17.91-47.81,26.87V119.49c15.94-9.2,31.87-18.39,47.81-27.59,39.13-24.4,50.57,15.91,51.64,47.85v204.16ZM159.11,140.13c-2.79,1.61-4.19,2.41-6.98,4.01v262.14c2.79-1.57,4.19-2.36,6.98-3.94,9.2-5.28,10.84-17.36,10.47-26.95v-220.75c0-14.37-3.14-18.73-10.47-14.51Z"/><path class="cls-1" d="M122.94,454.35V129.85c12.06-6.95,24.12-13.9,36.17-20.85,31.79-18.41,39.09,10.73,40.01,37.42v204.06c.08,32.52-9.98,66.67-40.01,83.51-12.06,6.79-24.12,13.57-36.17,20.36ZM140.5,429.94l18.61-10.49c16.84-10.04,22.57-32.22,22.1-50.63v-220.86c-.85-12-4.11-36.49-22.1-24.94-7.44,4.29-11.17,6.43-18.61,10.71v296.2Z"/><path class="cls-1" d="M322.06,151.83c.04,41.31-13.3,89.63-51.64,111.44-2.79,1.58-4.19,2.38-6.98,3.96v125.23c-13.61,7.65-27.22,15.3-40.83,22.95V55.26c15.93-9.19,31.87-18.39,47.8-27.58,39.64-24.99,50.63,21.84,51.64,51.82v72.33ZM270.42,76.13c-2.79,1.61-4.19,2.41-6.98,4.01v138.64c2.79-1.59,4.19-2.38,6.98-3.97,9.01-5.32,10.89-17.54,10.47-27.11v-96.96c0-14.44-3.14-18.82-10.47-14.61Z"/><path class="cls-1" d="M234.24,391.71V65.7c12.06-6.95,24.12-13.9,36.17-20.85,32.19-18.57,39.1,16.4,40.01,41.31v72.29c.06,32.76-9.5,70.27-40.01,87.62-7.44,4.23-11.17,6.34-18.61,10.57v125.17c-7.03,3.95-10.54,5.93-17.56,9.88ZM251.81,242.57c7.44-4.23,11.17-6.35,18.61-10.58,17-9.98,22.51-32.57,22.1-50.92v-97.01c-.85-11.95-4.06-36.7-22.1-25.11-7.44,4.29-11.17,6.43-18.61,10.71v172.91Z"/><path class="cls-1" d="M99.44,250.71c.1,20.11-2.93,41.49-17.1,56.84v2.56c17.09.09,17.35,23.29,17.1,35.3v69.62c.06,39.97-12.9,84.14-49.55,105.12C11.19,542.31.99,502.04,0,471.21v-67.8c13.61-7.73,27.21-15.45,40.82-23.18v76.08c0,14.81,3.24,18.96,8.72,15.51,8-5.04,9.1-16.09,8.72-25.36v-70.01c-.21-6.97.78-31.52-13.61-20.88-3.77,2.14-5.65,3.21-9.42,5.36v-48.5c3.77-2.15,5.65-3.23,9.42-5.38,13.3-7.4,13.89-22.64,13.61-36.38v-59.79c0-14.31-3.04-19.17-8.72-15.42-7.71,5.09-9.04,16.17-8.72,25.44v65.36C27.22,294.06,13.61,301.84,0,309.62v-56.58c-.06-40.25,14.06-84.16,49.89-105.77,38.2-23.03,48.6,18.77,49.55,48.68v54.77Z"/><path class="cls-3" d="M446.75,424.35c-13.56-7.62-27.13-15.25-40.69-22.87v-158.91c-6.68-3.8-10.02-5.7-16.69-9.49v159.02c-13.56-7.62-27.13-15.25-40.69-22.87V0c13.56,7.83,27.13,15.66,40.69,23.49v160.08c6.68,3.81,10.02,5.72,16.69,9.53V33.13c13.56,7.83,27.13,15.66,40.69,23.49v367.72Z"/><path class="cls-3" d="M417.65,390.46v-158.84c-13.29-7.57-26.59-15.14-39.88-22.71v159.1c-7-3.94-10.5-5.91-17.51-9.85V24.26c7,4.04,10.5,6.06,17.51,10.09v160.16l39.88,22.73V57.35c7,4.04,10.5,6.06,17.51,10.09v332.86c-7-3.94-10.5-5.91-17.51-9.85Z"/><path class="cls-3" d="M559.78,416.26c-.98,30.1-11.25,74.12-50.43,51.14-36.79-21.58-50.49-67.43-50.43-108.14V63.65l40.69,23.49v303.49c-.33,9.24.93,21.86,9.74,26.98,6.47,3.76,9.39-.99,9.39-16.18V98.19c13.68,7.9,27.36,15.8,41.04,23.7v294.37Z"/><path class="cls-3" d="M509.35,449.93c-29.98-16.81-38.92-51.96-38.84-84.12V87.84c7,4.04,10.5,6.06,17.51,10.09v286.16c.12,18.25,4.61,40.65,21.33,50.99,17.92,11.08,20.3-16.62,20.98-27.1V122.33c7.14,4.12,10.71,6.18,17.85,10.3v277.08c-.83,25.27-6.7,58.4-38.84,40.23Z"/><path class="cls-3" d="M669.68,297.23c-.53,15.83-.54,51.2-24.69,49.95v1.56c19.38,20.74,26.04,51.02,25.74,78.68v43.72c-1.03,30.92-11.75,74.96-51.47,50.69-15.88-8.93-31.77-17.85-47.65-26.78V128.71c15.77,9.1,31.53,18.21,47.3,27.31,37.64,21.74,50.83,66.87,50.78,107.9v33.31ZM618.91,205.57c-2.64-1.52-3.96-2.28-6.61-3.8v103.3c2.5,1.43,3.76,2.14,6.26,3.57,7.65,4.37,10.43.22,10.43-18.03v-58.39c.34-9.38-1.2-21.34-10.09-26.66ZM618.56,357.67c-2.5-1.42-3.76-2.14-6.26-3.56v114.26c2.78,1.57,4.17,2.35,6.96,3.92,7.3,4.12,10.43-.37,10.43-15.49v-69.34c.42-10.32-1.5-23.9-11.13-29.79Z"/><path class="cls-3" d="M583.2,484.16V152.82c11.9,6.86,23.81,13.73,35.71,20.59,29.96,17.2,39.27,51.31,39.18,83.86v33.33c-.44,10.45.7,39.02-16.91,38.01-3.11-.15-4.67-.23-7.78-.38v26.69c3.25,3.38,4.88,5.06,8.13,8.44,14.26,15.06,17.63,37.56,17.6,57.5v43.74c-.9,25.79-7.68,58.05-39.88,39.86-12.02-6.76-24.04-13.53-36.06-20.29ZM600.7,479.22c7.42,4.18,11.13,6.27,18.55,10.45,18.32,11.51,21.23-14.73,22.03-26.32v-69.31c.43-19-5.11-43.23-22.72-53.76-7.14-4.07-10.71-6.1-17.85-10.17v149.11ZM600.7,315.85c7.14,4.07,10.71,6.11,17.85,10.18,19.58,12.55,21.45-17.36,22.03-28.78v-58.36c.42-18.29-5.14-40.41-21.68-50.7-7.28-4.19-10.92-6.29-18.2-10.48v138.15Z"/></svg>