<?xml version="1.0" encoding="UTF-8"?>
<svg version="1.1" viewBox="0 0 450 450" xmlns="http://www.w3.org/2000/svg"><defs><clipPath id="clip-ASUS_TUF_Gaming_Logo"><rect width="450" height="450"/></clipPath></defs><g transform="matrix(1.2765 0 0 1.2765 -62.205 -62.203)" clip-path="url(#clip-ASUS_TUF_Gaming_Logo)" data-name="ASUS TUF Gaming Logo"><path transform="translate(50.273,399.5)" d="m28.642-55.926h-28.33v10.526h7.506v45.4h13.317v-45.4h7.506zm36 0h-13.321v45.4h-5.811v-45.4h-13.317v47.814l8.878 8.112h14.929l8.636-8.112zm33.6 0h-25.834v55.926h13.317v-24.336h10.17v-10.53h-10.17v-10.534h12.51zm56.154 8.112-9.04-8.112h-14.856l-8.878 8.112v39.7l9.278 8.114h14.689l8.8-8.112v-21.06h-16.626v10.53h3.309v8.112h-6.134v-34.87h6.134v10.452h13.317zm31.745-8.112h-19.29l-8.158 55.926h12.994l1.13-10.3h7.748l1.135 10.3h13.07zm-6.538 35.1h-5.811l2.008-23.244h1.291zm64.166-35.1h-15.664l-4.358 27.066h-1.211l-4.681-27.066h-15.655v55.926h12.187v-35.49h.565l5.566 35.49h4.923l5.569-35.49h.565v35.49h12.187zm22.6 0h-13.319v55.926h13.317zm41.682 0h-12.51v26.91h-.161l-8.555-26.91h-11.141v55.926h12.51v-27.222h.161l8.637 27.222h11.057zm41.093 8.112-9.04-8.112h-14.852l-8.878 8.112v39.7l9.282 8.114h14.689l8.8-8.112v-21.06h-16.629v10.53h3.309v8.112h-6.134v-34.87h6.134v10.452h13.317z" fill="#d7a900" data-name="Path 1670"/><path transform="translate(-8381.7 1754.5)" d="m8614-1622.1 64-36.938v162.03l-64 36.972zm-80 125.09v-162.03l64 36.939v162.06zm160-101.21 64-36.939v54.809l-64 36.972zm-240 17.87v-123.69l64 36.939v123.72zm240-86.747 64-36.94v54.806l-64 36.974z" fill="#e6e6e6" data-name="Path 1671"/></g></svg>
