<?xml version="1.0" encoding="UTF-8"?>
<svg version="1.1" viewBox="0 0 24 24" xmlns="http://www.w3.org/2000/svg"><path transform="matrix(1.0531 0 0 1.0531 -1.2868 -1.2868)" d="m15 12.5v4l3 2 .75-1.25-2.25-1.5v-3.25h-1.5" fill="#4cae4f"/><path d="m22.5 11.878v-.43106c0-6.0791-4.9738-11.053-11.053-11.053-6.1122 0-11.053 4.9738-11.053 11.053 0 6.0791 4.9738 11.053 11.053 11.053.14369 0 .26527 0 .40896-.03316 1.1716.71843 2.5422 1.1384 4.0122 1.1384 4.2664 0 7.737-3.4706 7.737-7.737 0-1.459-.42001-2.8295-1.1053-3.9901m-2.4758-2.52c-.06632-.044211-.12158-.077369-.1879-.12158h.16579c.01105.033159.01105.077369.02211.12158m-.92844-2.3321h-3.2606c-.35369-1.3816-.86212-2.7079-1.5253-3.9348 2.0337.69633 3.7248 2.1 4.7859 3.9348m-7.6486-4.388c.91738 1.3263 1.6579 2.8074 2.1111 4.388h-4.2222c.45317-1.5806 1.1937-3.0616 2.1111-4.388m-2.5864 6.5985h3.0395c-1.3816.82896-2.4979 2.0779-3.139 3.5811-.044211-.45317-.07737-.90633-.07737-1.3706 0-.75159.066317-1.4921.17685-2.2106m-.28737-6.1454c-.66317 1.2269-1.1605 2.5532-1.5474 3.9348h-3.2274c1.05-1.8348 2.7522-3.2495 4.7748-3.9348m-5.6812 10.567c-.17685-.70738-.28737-1.4479-.28737-2.2106s.11053-1.5032.28737-2.2106h3.7359c-.088423.72949-.15474 1.459-.15474 2.2106s.066317 1.4811.15474 2.2106h-3.7359m.90633 2.2106h3.2274c.38685 1.3816.88423 2.7079 1.5474 3.9348-2.0227-.69633-3.7248-2.1111-4.7748-3.9348m12.07 5.5264c-3.0506 0-5.5264-2.4758-5.5264-5.5264 0-3.0506 2.4758-5.5264 5.5264-5.5264 3.0506 0 5.5264 2.4758 5.5264 5.5264 0 3.0506-2.4758 5.5264-5.5264 5.5264z" fill="#0091eb" stroke="#4cae4f" stroke-linecap="round" stroke-linejoin="round" stroke-width=".7"/></svg>
