<?xml version="1.0" encoding="UTF-8" standalone="no"?>
<svg
   xml:space="preserve"
   viewBox="0 0 512 240"
   version="1.1"
   id="svg3"
   sodipodi:docname="cloudflare.svg"
   width="512"
   height="240"
   inkscape:version="1.4.3 (0d15f75042, 2025-12-25)"
   xmlns:inkscape="http://www.inkscape.org/namespaces/inkscape"
   xmlns:sodipodi="http://sodipodi.sourceforge.net/DTD/sodipodi-0.dtd"
   xmlns="http://www.w3.org/2000/svg"
   xmlns:svg="http://www.w3.org/2000/svg"><defs
     id="defs3" /><sodipodi:namedview
     id="namedview3"
     pagecolor="#505050"
     bordercolor="#ffffff"
     borderopacity="1"
     inkscape:showpageshadow="0"
     inkscape:pageopacity="0"
     inkscape:pagecheckerboard="1"
     inkscape:deskcolor="#505050"
     inkscape:zoom="2.265625"
     inkscape:cx="255.77931"
     inkscape:cy="256"
     inkscape:window-width="2560"
     inkscape:window-height="1368"
     inkscape:window-x="0"
     inkscape:window-y="0"
     inkscape:window-maximized="1"
     inkscape:current-layer="svg3" /><g
     id="g3"
     transform="translate(0,-136)"><path
       d="m 404.7,239 -10.6,-4.2 c -49.9,112.3 -248.5,44 -260.5,77.5 -2,22.6 108.5,4.3 187.4,8.1 24.1,1.2 36.2,19.3 25.9,49 l 20.1,0.1 c 23.2,-72.4 97.4,-35.5 100.5,-59.4 -5,-15.8 -85.1,-0.1 -62.8,-71.1"
       style="fill:#ffffff"
       id="path1" /><path
       d="m 352.7,356.9 c 3.2,-10.6 2.1,-21.2 -3.2,-27.6 -5.3,-6.4 -12.7,-10.6 -22.3,-11.7 l -184.8,-2.1 c -1.1,0 -2.1,-1.1 -3.2,-1.1 -1.1,-1.1 -1.1,-2.1 0,-3.2 1.1,-2.1 2.1,-3.2 4.2,-3.2 l 185.9,-2.1 c 22.3,-1.1 45.7,-19.1 54.2,-40.4 l 10.6,-27.6 c 0,-1.1 1.1,-2.1 0,-3.2 -11.7,-54.2 -60.5,-94.5 -117.9,-94.5 -53.1,0 -98.8,34 -114.7,81.8 -10.6,-7.4 -23.4,-11.7 -38.2,-10.6 -25.5,2.1 -45.7,23.4 -48.9,48.9 -1.1,6.4 0,12.7 1.1,19.1 -41.5,1 -75.5,35 -75.5,77.5 0,4.2 0,7.4 1.1,11.7 0,2.1 2.1,3.2 3.2,3.2 h 341 c 2.1,0 4.3,-1.1 4.3,-3.2 z"
       style="fill:#f4811f"
       id="path2" /><path
       d="m 411.1,237.9 h -5.3 c -1.1,0 -2.1,1.1 -3.2,2.1 l -7.4,25.5 c -3.2,10.6 -2.1,21.2 3.2,27.6 5.3,6.4 12.7,10.6 22.3,11.7 L 460,307 c 1.1,0 2.1,1.1 3.2,1.1 1.1,1.1 1.1,2.1 0,3.2 -1.1,2.1 -2.1,3.2 -4.2,3.2 l -40.4,2.1 c -22.3,1.1 -45.7,19.1 -54.2,40.4 l -2.1,9.6 c -1.1,1.1 0,3.2 2.1,3.2 h 140.2 c 2.1,0 3.2,-1.1 3.2,-3.2 2.1,-8.5 4.2,-18.1 4.2,-27.6 0,-55.4 -45.7,-101.1 -100.9,-101.1"
       style="fill:#faad3f"
       id="path3" /></g></svg>
