<?xml version="1.0" encoding="UTF-8"?>
<svg version="1.1" viewBox="0 0 24 22" xmlns="http://www.w3.org/2000/svg"><g transform="translate(.0080044 -.9928)" stroke-width="1.1906"><path d="m13.183 17.946v-2.3812h5.9531v2.3812h-5.9531m-4.0719-4.7625-4.7744-4.7625h3.3695l3.9291 3.9291c.46434.46434.46434 1.2263 0 1.6907l-3.9052 3.9052h-3.3695z" fill="#0091eb"/><path d="m21.517 20.327v-14.287h-19.05v14.287h19.05m0-19.05c1.3151 0 2.3812 1.0661 2.3812 2.3812v16.669c0 1.3151-1.0661 2.3812-2.3812 2.3812h-19.05c-1.3151 0-2.3812-1.0661-2.3812-2.3812v-16.669c0-1.3216 1.0716-2.3812 2.3812-2.3812h19.05" fill="#4cae4f"/></g></svg>
