<?xml version="1.0" encoding="UTF-8"?>
<svg version="1.1" viewBox="0 0 56 56" xmlns="http://www.w3.org/2000/svg"><g transform="matrix(1.3806 0 0 1.3806 -10.545 -10.827)"><path d="m8.6552 44.058c.36035-.65288 1.2066-2.1583 1.8805-3.3453.67392-1.187 2.9883-5.2014 5.1431-8.9209 2.1548-3.7194 5.3104-9.1259 7.0126-12.014s3.5722-6.045 4.1556-7.0144c.58344-.96942 1.107-1.7626 1.1633-1.7626.0564 0 1.0991 1.6673 2.3171 3.705 1.218 2.0378 3.4777 5.8741 5.0215 8.5252 1.5438 2.6511 4.0509 6.9767 5.5715 9.6125s3.6988 6.4522 4.8405 8.4808c1.1417 2.0286 2.0759 3.7408 2.0759 3.8047v.1163h-26.043l.0037-.10791c.002-.05935.803-1.5 1.7799-3.2014l1.7762-3.0935 11.237-.07526-.53399-.97146c-.2937-.5343-2.1081-3.7266-4.0321-7.0939-1.924-3.3674-3.6124-6.274-3.7521-6.4591l-.25395-.33666-1.3648 2.2884c-.75066 1.2586-3.1461 5.3639-5.3232 9.1229-2.1771 3.759-4.3693 7.5306-4.8716 8.3813l-.9132 1.5468h-7.545z" fill="#0091EB"/></g></svg>
