<?xml version="1.0" encoding="UTF-8" standalone="no"?>
<svg
   id="mdi-printer"
   viewBox="0 0 24 22"
   version="1.1"
   sodipodi:docname="cups-service.svg"
   inkscape:version="1.4.3 (0d15f75042, 2025-12-25)"
   width="24"
   height="22"
   xmlns:inkscape="http://www.inkscape.org/namespaces/inkscape"
   xmlns:sodipodi="http://sodipodi.sourceforge.net/DTD/sodipodi-0.dtd"
   xmlns="http://www.w3.org/2000/svg"
   xmlns:svg="http://www.w3.org/2000/svg">
  <defs
     id="defs1" />
  <sodipodi:namedview
     id="namedview1"
     pagecolor="#505050"
     bordercolor="#ffffff"
     borderopacity="1"
     inkscape:showpageshadow="0"
     inkscape:pageopacity="0"
     inkscape:pagecheckerboard="1"
     inkscape:deskcolor="#505050"
     inkscape:zoom="16"
     inkscape:cx="7.28125"
     inkscape:cy="14.125"
     inkscape:window-width="2560"
     inkscape:window-height="1368"
     inkscape:window-x="0"
     inkscape:window-y="0"
     inkscape:window-maximized="1"
     inkscape:current-layer="mdi-printer" />
  <g
     id="g6"
     transform="matrix(1.1890625,0,0,1.1890625,-2.26875,-3.26875)">
    <path
       id="path6"
       style="display:inline;fill:#0091eb;fill-opacity:1"
       d="M 5,8 C 3.3431458,8 2,9.3431458 2,11 v 6 h 4 2 v -3 h 8 v 3 h 2 4 V 11 C 22,9.3431458 20.656854,8 19,8 Z m 14,2 c 0.552285,0 1,0.447715 1,1 0,0.552285 -0.447715,1 -1,1 -0.552285,0 -1,-0.447715 -1,-1 0,-0.552285 0.447715,-1 1,-1 z"
       sodipodi:nodetypes="ssccccccccssssssss"
       inkscape:label="printer" />
    <path
       d="M 18,3 H 6 v 4 h 12"
       id="path2"
       sodipodi:nodetypes="cccc"
       inkscape:label="paper"
       style="display:inline;fill:#4cae4f;fill-opacity:1" />
    <path
       id="path5"
       style="display:inline;fill:#4cae4f;fill-opacity:1"
       d="m 6,17 v 4 h 12 v -4 h -2 v 2 H 8 v -2 z"
       inkscape:label="tray"
       sodipodi:insensitive="true" />
  </g>
</svg>
