<?xml version="1.0" encoding="UTF-8"?>
<svg version="1.1" viewBox="0 0 24 24" xmlns="http://www.w3.org/2000/svg"><defs><filter id="filter15" x="-.11115" y="-.089265" width="1.2223" height="1.1785" color-interpolation-filters="sRGB"><feFlood flood-color="rgb(0,0,0)" flood-opacity=".49804" in="SourceGraphic" result="flood"/><feGaussianBlur in="SourceGraphic" result="blur" stdDeviation="0.500000"/><feOffset dx="0.000000" dy="0.000000" in="blur" result="offset"/><feComposite in="flood" in2="offset" operator="in" result="comp1"/><feComposite in="SourceGraphic" in2="comp1" result="comp2"/></filter></defs><path d="m3.3154.058621h17.369a1.0856 1.0856 0 011.0856 1.0856v4.3423a1.0856 1.0856 0 01-1.0856 1.0856h-17.369a1.0856 1.0856 0 01-1.0856-1.0856v-4.3423a1.0856 1.0856 0 011.0856-1.0856m0 8.6846h17.369a1.0856 1.0856 0 011.0856 1.0856v4.3423a1.0856 1.0856 0 01-1.0856 1.0856h-17.369a1.0856 1.0856 0 01-1.0856-1.0856v-4.3423a1.0856 1.0856 0 011.0856-1.0856m0 8.6846h17.369a1.0856 1.0856 0 011.0856 1.0856v4.3423a1.0856 1.0856 0 01-1.0856 1.0856h-17.369a1.0856 1.0856 0 01-1.0856-1.0856v-4.3423a1.0856 1.0856 0 011.0856-1.0856m5.4279-13.027h1.0856v-2.1712h-1.0856v2.1712m0 8.6846h1.0856v-2.1712h-1.0856v2.1712m0 8.6846h1.0856v-2.1712h-1.0856v2.1712m-4.3423-19.54v2.1712h2.1712v-2.1712h-2.1712m0 8.6846v2.1712h2.1712v-2.1712h-2.1712m0 8.6846v2.1712h2.1712v-2.1712z" fill="#d9d9d9" stroke-width="1.0856"/><path d="m16.658 16.864c-.22313.0028.042.1155.33338.16013.08138-.063.15225-.126.21788-.189-.18376.04465-.36751.04725-.55127.02887m1.1944-.29663c.13388-.18375.22838-.38326.26251-.59064-.02887.147-.11026.27563-.18638.40951-.41738.26251-.03936-.15488 0-.31501-.44626.5644-.06037.33864-.07613.49614m.44101-1.1498c.02626-.40164-.07875-.27301-.1155-.12076.042.02097.07613.28351.1155.12076m-2.4807-5.4812c.11813.020978.25726.036757.23626.065624.13125-.028867.16013-.055126-.23626-.065624m.23626.065624-.084.01838.07875-.0079zm3.7066 5.5678c.01314.35964-.105.53552-.21263.84528l-.19163.09713c-.15751.30713.01573.19425-.09713.43839-.24676.21788-.74552.68515-.90565.72715-.11813-.0028.07875-.13913.105-.19163-.32813.22576-.26513.33864-.76652.47776l-.01573-.03151c-1.2417.58539-2.9663-.57227-2.9427-2.1526-.01314.09976-.03676.07613-.06563.1155-.063-.81377.37539-1.6275 1.1157-1.9609.72452-.35964 1.575-.21263 2.0948.27301-.28613-.37276-.85315-.76915-1.5252-.7324-.6589.01049-1.2758.42788-1.4805.88465-.33864.21263-.37801.81902-.52502.92928-.19688 1.4543.37276 2.0843 1.3362 2.822.15225.10238.042.11813.06301.19688-.32026-.14963-.61427-.37538-.85578-.65364.12863.18638.26513.37014.44364.51189-.30188-.10238-.70614-.7324-.82427-.75865.51976.9319 2.1132 1.6354 2.948 1.2863-.38589.01314-.87677.0079-1.3099-.15225-.18113-.0945-.43051-.28876-.38588-.32289 1.1367.42526 2.3127.32289 3.2971-.46726.24938-.19426.52502-.52764.60377-.53026-.11813.1785.02103.08663-.07087.24413.24938-.40164-.10763-.16276.25726-.69565l.13651.18638c-.04987-.33338.41476-.74027.36751-1.2679.10763-.16276.11813.17325.0053.54602.15751-.41214.042-.47777.08138-.81902.04465.11551.09975.23626.13125.35701-.10238-.39901.105-.67202.1575-.90303-.04987-.02362-.1575.17588-.18375-.29401.0028-.20475.05775-.10762.07875-.1575-.03938-.02362-.1444-.18113-.21003-.48039.04726-.07088.12338.18375.18638.19426-.03935-.23888-.11025-.42264-.11288-.60377-.18376-.38589-.06563.0525-.21526-.16538-.19688-.61427.16275-.14176.18638-.42001.29664.43051.46726 1.0999.54602 1.3782-.0604-.33864-.15491-.66414-.27304-.98178.08925.03676-.147-.69564.11813-.21001-.28088-1.0343-1.2049-2.0029-2.0528-2.4571.105.0945.23626.21526.189.23363-.42264-.25201-.34913-.27038-.40951-.37801-.34389-.13913-.36751.01049-.59327 0-.64839-.35438-.77178-.31763-1.3703-.53289l.02626.126c-.43051-.14175-.50139.05513-.9634 0-.02887-.02102.14963-.07875.29401-.09975-.41476.05513-.39638-.08138-.80327.01573.09975-.070874.20476-.1155.31238-.17588-.33863.020978-.80852.19688-.66415.036757-.55126.24676-1.533.59327-2.0843 1.1078l-.01838-.11551c-.25201.30188-1.0999.90303-1.1682 1.2968l-.06825.01573c-.13126.22313-.21526.47514-.32026.70352-.17063.29138-.25201.11288-.22838.15751-.33863.68515-.50402 1.26-.65102 1.7326.10238.15488.0028.92928.042 1.5488-.17063 3.0608 2.1499 6.0351 4.6831 6.7202.37014.13388.92402.12863 1.3939.14176-.55389-.1575-.62476-.084-1.1655-.27301-.38851-.18376-.47514-.39376-.75077-.63264l.11025.19425c-.54076-.19163-.315-.23626-.75602-.37539l.1155-.15225c-.17588-.01313-.46464-.29663-.54339-.45151l-.19163.0079c-.23101-.28351-.35438-.48827-.34389-.6484l-.063.11026c-.07087-.12075-.8479-1.0658-.44364-.84528-.07613-.06825-.17588-.11025-.28351-.30713l.08138-.0945c-.19425-.24938-.35701-.56965-.34389-.67727.10238.13913.17588.16538.24676.18901-.49089-1.218-.51714-.06825-.8899-1.239l.07875-.0053c-.06038-.09187-.09713-.189-.14438-.28612l.03411-.34126c-.35438-.40948-.09975-1.7351-.04725-2.4649.03411-.29664.29401-.61164.49089-1.1052l-.12076-.02098c.23101-.40164 1.3125-1.6092 1.8139-1.5462.2415-.30451-.04725 0-.0945-.07875.53289-.55126.7009-.39114 1.0605-.48826.38851-.23101-.33339.08925-.14963-.08662.67202-.17063.47514-.38852 1.3519-.47777.09188.0525-.21526.08138-.29139.14963.55914-.27301 1.7693-.21001 2.5542.15226.9109.42526 1.9373 1.6853 1.9767 2.8718l.04726.01314c-.02362.46989.07087 1.0159-.09451 1.5173zm-5.5284 1.6013-.03151.15488c.147.1995.26251.41476.44889.56964-.13388-.26251-.23364-.37013-.41739-.72452m.34388-.01573c-.07875-.08663-.12338-.18901-.17588-.29139.04988.18113.14963.33601.24414.49351zm6.1243-1.3309-.03151.08138c-.06038.42526-.18901.8479-.38851 1.239.21788-.41214.35963-.86365.42001-1.3204m-4.838-5.9957c.14963-.055126.37014-.031513.53027-.065629-.20738.018378-.41476.028867-.61952.055131zm-5.2869 2.8115c.03411.32026-.2415.44626.06038.23363.16276-.36489-.063-.09975-.06038-.23363m-.35701 1.4884c.07087-.21526.08138-.34389.11025-.46726-.19426.24676-.08925.29926-.11025.46726" fill="#a80030" filter="url(#filter15)" stroke-width=".026251"/></svg>
