<?xml version="1.0" encoding="UTF-8" standalone="no"?>
<svg
   id="mdi-server"
   viewBox="0 0 24 24"
   version="1.1"
   sodipodi:docname="debian-server-dark.svg"
   xml:space="preserve"
   inkscape:version="1.4.3 (0d15f75042, 2025-12-25)"
   xmlns:inkscape="http://www.inkscape.org/namespaces/inkscape"
   xmlns:sodipodi="http://sodipodi.sourceforge.net/DTD/sodipodi-0.dtd"
   xmlns="http://www.w3.org/2000/svg"
   xmlns:svg="http://www.w3.org/2000/svg"><defs
     id="defs1" /><sodipodi:namedview
     id="namedview1"
     pagecolor="#505050"
     bordercolor="#ffffff"
     borderopacity="1"
     inkscape:showpageshadow="0"
     inkscape:pageopacity="0"
     inkscape:pagecheckerboard="1"
     inkscape:deskcolor="#505050"
     inkscape:zoom="22.627417"
     inkscape:cx="11.623068"
     inkscape:cy="17.854446"
     inkscape:window-width="2560"
     inkscape:window-height="1368"
     inkscape:window-x="0"
     inkscape:window-y="0"
     inkscape:window-maximized="1"
     inkscape:current-layer="mdi-server" /><path
     d="M 3.3153609,0.05862094 H 20.684639 a 1.0855799,1.0855799 0 0 1 1.08558,1.08557996 v 4.3423197 a 1.0855799,1.0855799 0 0 1 -1.08558,1.0855799 H 3.3153609 A 1.0855799,1.0855799 0 0 1 2.2297809,5.4865206 V 1.1442009 a 1.0855799,1.0855799 0 0 1 1.08558,-1.08557996 m 0,8.68463946 H 20.684639 a 1.0855799,1.0855799 0 0 1 1.08558,1.08558 v 4.3423186 a 1.0855799,1.0855799 0 0 1 -1.08558,1.085581 H 3.3153609 a 1.0855799,1.0855799 0 0 1 -1.08558,-1.085581 V 9.8288404 a 1.0855799,1.0855799 0 0 1 1.0855801,-1.08558 m 0,8.6846396 h 17.369278 a 1.0855799,1.0855799 0 0 1 1.08558,1.085579 v 4.34232 a 1.0855799,1.0855799 0 0 1 -1.08558,1.08558 H 3.3153609 a 1.0855799,1.0855799 0 0 1 -1.08558,-1.08558 v -4.34232 A 1.0855799,1.0855799 0 0 1 3.315361,17.4279 M 8.7432606,4.4009407 h 1.08558 V 2.2297808 h -1.08558 v 2.1711599 m 0,8.6846393 h 1.08558 v -2.17116 h -1.08558 v 2.17116 m 0,8.68464 h 1.08558 v -2.171161 h -1.08558 V 21.77022 M 4.4009408,2.2297808 V 4.4009407 H 6.5721007 V 2.2297808 H 4.4009408 m 0,8.6846392 v 2.17116 H 6.5721007 V 10.91442 H 4.4009408 m 0,8.684639 v 2.171161 h 2.1711599 v -2.171161 z"
     id="path1"
     style="fill:#b2b2b2;fill-opacity:1;stroke-width:1.08558" /><path
     d="m 16.658079,16.864132 c -0.223132,0.0028 0.042,0.1155 0.333383,0.160128 0.08138,-0.063 0.152254,-0.126004 0.217883,-0.189005 -0.183758,0.04465 -0.367509,0.04725 -0.551266,0.02887 m 1.19441,-0.296634 c 0.133879,-0.183753 0.22838,-0.383261 0.26251,-0.59064 -0.02887,0.147003 -0.110256,0.27563 -0.186384,0.40951 -0.417385,0.26251 -0.03936,-0.154881 0,-0.31501 -0.446262,0.564395 -0.06037,0.338638 -0.07613,0.49614 m 0.441013,-1.149782 c 0.02626,-0.40164 -0.07875,-0.273009 -0.1155,-0.120756 0.042,0.02097 0.07613,0.283512 0.1155,0.120756 M 15.812804,9.9365408 c 0.118128,0.020978 0.257257,0.036757 0.236256,0.065624 0.131252,-0.028867 0.160129,-0.055126 -0.236256,-0.065624 m 0.236256,0.065624 -0.084,0.01838 0.07875,-0.0079 z m 3.706612,5.567794 c 0.01314,0.359638 -0.105003,0.535515 -0.212633,0.845275 l -0.191628,0.09713 c -0.157508,0.307133 0.01573,0.194254 -0.09713,0.43839 -0.246758,0.217879 -0.745524,0.685146 -0.905654,0.727148 -0.118128,-0.0028 0.07875,-0.139133 0.105003,-0.191633 -0.328134,0.225759 -0.265132,0.338637 -0.766521,0.477765 l -0.01573,-0.03151 c -1.241666,0.585388 -2.966346,-0.57227 -2.942718,-2.152567 -0.01314,0.09976 -0.03676,0.07613 -0.06563,0.1155 -0.063,-0.81377 0.37539,-1.627547 1.115661,-1.96093 0.724521,-0.359638 1.575043,-0.212634 2.094811,0.273008 -0.286132,-0.372763 -0.853151,-0.769148 -1.525171,-0.732396 -0.658896,0.01049 -1.275786,0.427884 -1.480544,0.88465 -0.338638,0.212633 -0.378011,0.819025 -0.525016,0.929277 -0.196883,1.454293 0.372762,2.084313 1.336166,2.821962 0.152253,0.102376 0.042,0.118128 0.06301,0.196877 -0.32026,-0.149626 -0.614269,-0.375384 -0.855779,-0.653641 0.128631,0.186378 0.265133,0.370135 0.44364,0.51189 -0.301884,-0.10238 -0.706145,-0.732395 -0.824274,-0.75865 0.519763,0.931905 2.11319,1.635424 2.947962,1.286289 -0.385887,0.01314 -0.876773,0.0079 -1.309917,-0.152253 -0.181129,-0.0945 -0.430509,-0.288761 -0.385882,-0.322886 1.136658,0.425262 2.312694,0.322886 3.297098,-0.467263 0.249385,-0.194255 0.525015,-0.527639 0.60377,-0.530265 -0.118128,0.178503 0.02103,0.08663 -0.07087,0.244132 0.24938,-0.40164 -0.10763,-0.162757 0.257256,-0.695649 l 0.136507,0.186384 c -0.04987,-0.333383 0.41476,-0.740271 0.367509,-1.267914 0.10763,-0.162757 0.118127,0.173254 0.0053,0.546016 0.157507,-0.412137 0.042,-0.477766 0.08138,-0.819025 0.04465,0.115506 0.09975,0.236256 0.131254,0.35701 -0.102376,-0.399012 0.105004,-0.67202 0.157504,-0.903027 -0.04987,-0.02362 -0.157504,0.175882 -0.183753,-0.294009 0.0028,-0.204753 0.05775,-0.107625 0.07875,-0.157503 -0.03938,-0.02362 -0.144399,-0.181129 -0.210029,-0.480387 0.04726,-0.07088 0.123383,0.183752 0.186384,0.194255 -0.03935,-0.238881 -0.11025,-0.422638 -0.112876,-0.603768 -0.183757,-0.385887 -0.06563,0.0525 -0.215255,-0.165378 -0.196883,-0.614268 0.162751,-0.141756 0.186379,-0.420013 0.296635,0.430511 0.467263,1.099909 0.546016,1.378167 -0.0604,-0.338637 -0.154907,-0.664145 -0.273035,-0.981782 0.08925,0.03676 -0.147004,-0.695643 0.118128,-0.210006 -0.280884,-1.034281 -1.204913,-2.002933 -2.05281,-2.457072 0.105003,0.0945 0.236256,0.215256 0.189005,0.23363 -0.422639,-0.252008 -0.349134,-0.270382 -0.409514,-0.378012 -0.343886,-0.139129 -0.36751,0.01049 -0.593267,0 -0.648393,-0.354384 -0.771776,-0.317632 -1.370292,-0.5328922 l 0.02626,0.1260042 c -0.430512,-0.1417512 -0.501389,0.05513 -0.963404,0 -0.02887,-0.02102 0.149634,-0.07875 0.294011,-0.09975 -0.414762,0.05513 -0.396384,-0.08138 -0.803272,0.01573 0.09975,-0.070874 0.204758,-0.1155019 0.312384,-0.1758771 -0.338634,0.020978 -0.808524,0.1968771 -0.664147,0.036757 -0.551265,0.2467581 -1.533046,0.5932661 -2.084312,1.1077841 l -0.01838,-0.115506 c -0.252007,0.301885 -1.099909,0.903028 -1.16816,1.296792 l -0.06825,0.01573 c -0.131258,0.223131 -0.21526,0.475139 -0.320259,0.703519 -0.170632,0.291382 -0.252008,0.112879 -0.228385,0.157507 -0.338632,0.685146 -0.504015,1.260035 -0.65102,1.732552 0.102381,0.15488 0.0028,0.929277 0.042,1.548795 -0.170627,3.060845 2.149942,6.035057 4.683145,6.720202 0.370136,0.133881 0.924024,0.128631 1.393914,0.141756 -0.553893,-0.157502 -0.624765,-0.084 -1.165534,-0.273008 -0.388513,-0.183758 -0.475138,-0.393764 -0.750773,-0.632641 l 0.110251,0.194253 C 14.043543,22.30325 14.269302,22.258625 13.828288,22.119493 l 0.115501,-0.152254 c -0.175881,-0.01313 -0.464637,-0.296631 -0.54339,-0.451511 l -0.191633,0.0079 C 12.977759,21.240119 12.854382,21.035361 12.86488,20.875233 l -0.063,0.110256 c -0.07087,-0.120754 -0.847896,-1.065783 -0.443635,-0.845279 -0.07613,-0.06825 -0.175881,-0.110253 -0.283511,-0.307134 l 0.08138,-0.0945 c -0.194254,-0.249382 -0.357011,-0.569646 -0.343886,-0.677271 0.102377,0.139129 0.175881,0.165379 0.246759,0.189006 -0.490891,-1.218037 -0.51714,-0.06825 -0.889903,-1.239037 l 0.07875,-0.0053 c -0.06038,-0.09187 -0.09713,-0.188996 -0.144383,-0.286124 l 0.03411,-0.341264 c -0.354385,-0.409485 -0.09975,-1.735149 -0.04725,-2.464923 0.03411,-0.296635 0.294009,-0.611645 0.490891,-1.105158 l -0.120755,-0.02098 c 0.231007,-0.401639 1.312539,-1.609174 1.813932,-1.546172 0.241505,-0.304507 -0.04725,0 -0.0945,-0.07875 0.532892,-0.551265 0.700897,-0.391136 1.060535,-0.488264 0.38851,-0.231007 -0.333389,0.08925 -0.149632,-0.08662 0.672021,-0.170632 0.47514,-0.388515 1.351919,-0.477766 0.09188,0.0525 -0.21526,0.08138 -0.291387,0.149626 0.559142,-0.273008 1.769304,-0.210006 2.554203,0.152259 0.910904,0.425262 1.937309,1.685301 1.976684,2.871835 l 0.04726,0.01314 c -0.02362,0.46989 0.07087,1.015907 -0.09451,1.517296 z m -5.528416,1.601299 -0.03151,0.15488 c 0.147003,0.199504 0.262506,0.414764 0.44889,0.569639 C 14.510755,17.633271 14.411,17.525642 14.227249,17.171258 m 0.343882,-0.01573 c -0.07875,-0.08663 -0.123377,-0.189012 -0.175881,-0.291388 0.04988,0.18113 0.149631,0.336011 0.244138,0.493513 z m 6.124315,-1.330912 -0.03151,0.08138 c -0.06038,0.425262 -0.189006,0.847901 -0.38851,1.239038 0.217878,-0.412136 0.359633,-0.863653 0.420014,-1.320414 M 15.857428,9.8289181 c 0.14963,-0.055126 0.370135,-0.031513 0.530269,-0.065629 -0.207385,0.018378 -0.414763,0.028867 -0.619522,0.055131 z m -5.286912,2.8114599 c 0.03411,0.320259 -0.241505,0.446263 0.06038,0.233634 0.162756,-0.364887 -0.063,-0.09975 -0.06038,-0.233634 m -0.357006,1.48842 c 0.07087,-0.215256 0.08138,-0.343887 0.110252,-0.467264 -0.194255,0.246759 -0.08925,0.299259 -0.110252,0.467264"
     style="fill:#a80030;stroke-width:0.0262508"
     id="path1-7" /></svg>
