<?xml version="1.0" encoding="UTF-8" standalone="no"?>
<svg
   id="mdi-server"
   viewBox="0 0 24 24"
   version="1.1"
   sodipodi:docname="debian-server-light.svg"
   xml:space="preserve"
   inkscape:version="1.4.3 (0d15f75042, 2025-12-25)"
   xmlns:inkscape="http://www.inkscape.org/namespaces/inkscape"
   xmlns:sodipodi="http://sodipodi.sourceforge.net/DTD/sodipodi-0.dtd"
   xmlns="http://www.w3.org/2000/svg"
   xmlns:svg="http://www.w3.org/2000/svg"><defs
     id="defs1" /><sodipodi:namedview
     id="namedview1"
     pagecolor="#505050"
     bordercolor="#ffffff"
     borderopacity="1"
     inkscape:showpageshadow="0"
     inkscape:pageopacity="0"
     inkscape:pagecheckerboard="1"
     inkscape:deskcolor="#505050"
     inkscape:zoom="16"
     inkscape:cx="7.3125"
     inkscape:cy="12.125"
     inkscape:window-width="2560"
     inkscape:window-height="1368"
     inkscape:window-x="0"
     inkscape:window-y="0"
     inkscape:window-maximized="1"
     inkscape:current-layer="mdi-server" /><path
     d="M 3.3153609,0.05862094 H 20.684639 a 1.0855799,1.0855799 0 0 1 1.08558,1.08557996 v 4.3423197 a 1.0855799,1.0855799 0 0 1 -1.08558,1.0855799 H 3.3153609 A 1.0855799,1.0855799 0 0 1 2.2297809,5.4865206 V 1.1442009 a 1.0855799,1.0855799 0 0 1 1.08558,-1.08557996 m 0,8.68463946 H 20.684639 a 1.0855799,1.0855799 0 0 1 1.08558,1.08558 v 4.3423186 a 1.0855799,1.0855799 0 0 1 -1.08558,1.085581 H 3.3153609 a 1.0855799,1.0855799 0 0 1 -1.08558,-1.085581 V 9.8288404 a 1.0855799,1.0855799 0 0 1 1.0855801,-1.08558 m 0,8.6846396 h 17.369278 a 1.0855799,1.0855799 0 0 1 1.08558,1.085579 v 4.34232 a 1.0855799,1.0855799 0 0 1 -1.08558,1.08558 H 3.3153609 a 1.0855799,1.0855799 0 0 1 -1.08558,-1.08558 v -4.34232 A 1.0855799,1.0855799 0 0 1 3.315361,17.4279 M 8.7432606,4.4009407 h 1.08558 V 2.2297808 h -1.08558 v 2.1711599 m 0,8.6846393 h 1.08558 v -2.17116 h -1.08558 v 2.17116 m 0,8.68464 h 1.08558 v -2.171161 h -1.08558 V 21.77022 M 4.4009408,2.2297808 V 4.4009407 H 6.5721007 V 2.2297808 H 4.4009408 m 0,8.6846392 v 2.17116 H 6.5721007 V 10.91442 H 4.4009408 m 0,8.684639 v 2.171161 h 2.1711599 v -2.171161 z"
     id="path1"
     style="fill:#1a1a1a;fill-opacity:0.8;stroke-width:1.08558" /><path
     d="m 13.761018,12.632458 c -0.372012,0.0046 0.07003,0.192565 0.555827,0.266971 0.135679,-0.105036 0.253842,-0.210078 0.36326,-0.315115 -0.306366,0.07444 -0.612721,0.07878 -0.919087,0.04813 m 1.991357,-0.494557 c 0.223207,-0.306359 0.380762,-0.638985 0.437665,-0.984734 -0.04814,0.245088 -0.183823,0.45954 -0.310745,0.682748 -0.695878,0.437665 -0.06562,-0.258222 0,-0.525194 -0.744022,0.940977 -0.100656,0.564587 -0.12692,0.82718 m 0.73527,-1.916951 c 0.04379,-0.6696264 -0.131299,-0.4551694 -0.192566,-0.201328 0.07003,0.03497 0.12692,0.472679 0.192566,0.201328 M 12.35175,1.0825695 c 0.196947,0.034975 0.428907,0.061282 0.393893,0.1094112 0.218828,-0.048128 0.266972,-0.091908 -0.393893,-0.1094112 m 0.393893,0.1094112 -0.140051,0.030641 0.131301,-0.013154 z m 6.179776,9.2827933 c 0.0219,0.599599 -0.175065,0.892827 -0.354508,1.409269 l -0.319489,0.161934 c -0.262601,0.512062 0.02622,0.323866 -0.161934,0.730898 -0.411402,0.363254 -1.242961,1.142295 -1.509933,1.212322 -0.196947,-0.0046 0.131298,-0.231967 0.175064,-0.319496 -0.547076,0.376392 -0.442037,0.564586 -1.277968,0.796544 l -0.02622,-0.05254 c -2.070143,0.975977 -4.945582,-0.954105 -4.906189,-3.588824 -0.0219,0.166314 -0.06128,0.12692 -0.109416,0.192566 -0.105036,-1.3567424 0.625861,-2.7134964 1.860063,-3.2693231 1.207943,-0.5995991 2.62596,-0.3545088 3.492532,0.4551677 -0.477048,-0.621481 -1.422398,-1.2823471 -2.542811,-1.2210724 -1.098531,0.017488 -2.127029,0.7133814 -2.468407,1.4749144 -0.564587,0.354509 -0.630232,1.365503 -0.8753231,1.5493194 -0.328249,2.424641 0.6214811,3.475029 2.2276971,4.70486 0.25384,0.170685 0.07003,0.196947 0.105048,0.32824 -0.533947,-0.249462 -1.024127,-0.625852 -1.42678,-1.089771 0.214457,0.310735 0.442037,0.6171 0.73965,0.853439 -0.503311,-0.170692 -1.177307,-1.221072 -1.374255,-1.264844 0.866565,1.553699 3.523175,2.726628 4.914932,2.14454 -0.643363,0.0219 -1.461783,0.01315 -2.183933,-0.253842 -0.301985,-0.157554 -0.717758,-0.48143 -0.643355,-0.538325 1.895071,0.70901 3.855793,0.538325 5.497021,-0.779035 0.415782,-0.323867 0.875322,-0.879695 1.006624,-0.884074 -0.196946,0.297606 0.03506,0.144431 -0.118164,0.407024 0.415775,-0.669625 -0.179444,-0.271352 0.428905,-1.159807 l 0.227589,0.310745 c -0.08315,-0.555826 0.6915,-1.234201 0.612723,-2.113904 0.179443,-0.271353 0.196945,0.288854 0.0088,0.910335 0.262601,-0.687128 0.07003,-0.796547 0.135679,-1.365504 0.07444,0.192575 0.166307,0.393893 0.21883,0.595219 -0.170684,-0.665245 0.175066,-1.1204124 0.262595,-1.5055544 -0.08315,-0.03938 -0.262595,0.293235 -0.306359,-0.490181 0.0046,-0.34137 0.09628,-0.179436 0.131293,-0.262593 -0.06565,-0.03938 -0.240746,-0.301984 -0.350166,-0.8009164 0.07879,-0.11817 0.205707,0.3063573 0.310745,0.3238677 C 20.26039,7.6781025 20.142187,7.3717375 20.137809,7.0697521 19.831443,6.4263887 20.028391,7.1572881 19.778929,6.7940281 19.45068,5.7699024 20.050273,6.557689 20.089665,6.0937698 20.584225,6.8115309 20.8687,7.9275724 21,8.3914916 20.899296,7.8269055 20.741735,7.2842091 20.544787,6.7546357 20.693591,6.8159185 20.299698,5.5948378 20.741735,6.4045067 20.273436,4.6801224 18.732867,3.0651564 17.319228,2.308003 17.494291,2.4655574 17.713121,2.6668837 17.634343,2.6975169 16.929706,2.277362 17.052255,2.2467285 16.951588,2.0672843 c -0.573336,-0.2319595 -0.612723,0.017488 -0.989113,0 -1.08102,-0.5908401 -1.286727,-0.5295654 -2.284592,-0.8884536 l 0.04379,0.2100775 c -0.717762,-0.2363314 -0.83593,0.091908 -1.606216,0 -0.04813,-0.035052 0.249474,-0.1312924 0.490184,-0.1663056 -0.691504,0.091908 -0.660864,-0.1356798 -1.33924,0.026231 0.166314,-0.1181628 0.34138,-0.1925672 0.520816,-0.2932264 -0.56458,0.034975 -1.347995,0.3282393 -1.107285,0.061283 C 9.7608469,1.4282927 8.1239907,2.0060021 7.2049035,2.8638225 L 7.1742624,2.6712476 C 6.7541074,3.1745593 5.34046,4.176803 5.2266698,4.8332972 l -0.11379,0.026231 C 4.8940432,5.2315391 4.7539915,5.651694 4.5789347,6.0324566 4.2944519,6.5182579 4.1587796,6.220652 4.1981645,6.2950575 3.6335861,7.4373528 3.3578545,8.3958246 3.112764,9.1836196 c 0.1706928,0.258221 0.00464,1.5493194 0.070026,2.5821974 -0.2844752,5.103133 3.5844484,10.061829 7.80788,11.204124 0.617102,0.22321 1.540561,0.214457 2.323976,0.23634 -0.923467,-0.262592 -1.041627,-0.140052 -1.943213,-0.455168 -0.647742,-0.306366 -0.792166,-0.656495 -1.251713,-1.054758 l 0.183815,0.323865 C 9.4019579,21.700725 9.7783499,21.626326 9.0430779,21.39436 l 0.192567,-0.253842 c -0.293234,-0.0219 -0.7746558,-0.494552 -0.9059562,-0.752773 l -0.3194958,0.01315 C 7.6250508,19.92822 7.4193528,19.586841 7.4368554,19.31987 L 7.3318158,19.503693 C 7.213655,19.302368 5.9181769,17.726787 6.5921737,18.094418 6.4652527,17.980629 6.2989395,17.910601 6.1194953,17.582355 l 0.13568,-0.157553 C 5.9313077,17.009025 5.6599557,16.475071 5.6818378,16.295635 5.8525229,16.527595 5.9750719,16.57136 6.0932416,16.610752 5.2748135,14.580003 5.2310494,16.496956 4.6095682,14.544991 l 0.1313005,-0.0088 C 4.6402016,14.383024 4.5789347,14.221091 4.50015,14.059156 L 4.557022,13.490191 C 3.9661817,12.807484 4.3907161,10.597298 4.4782447,9.3805966 4.5351164,8.8860366 4.9684255,8.3608426 5.2966724,7.538043 L 5.0953464,7.5030682 C 5.4804883,6.8334433 7.2836498,4.8202044 8.1195879,4.9252431 c 0.402645,-0.5076834 -0.078778,0 -0.1575619,-0.1313004 C 8.8504799,3.8748564 9.1305829,4.1418289 9.7301819,3.9798949 10.377918,3.5947528 9.1743469,4.128698 9.4807119,3.8354715 10.601126,3.5509887 10.27288,3.1877288 11.734672,3.0389258 c 0.153181,0.087529 -0.358889,0.1356721 -0.48581,0.2494621 0.932219,-0.4551679 2.949837,-0.3501291 4.258444,0.2538496 1.518688,0.7090096 3.229941,2.8097847 3.295588,4.7880101 l 0.07879,0.0219 c -0.03938,0.783415 0.118164,1.6937494 -0.157563,2.5296804 z m -9.2171421,2.669734 -0.05254,0.258221 c 0.245089,0.332619 0.4376581,0.691507 0.7484031,0.949719 -0.22321,-0.437657 -0.389524,-0.6171 -0.6958801,-1.20794 m 0.5733301,-0.02622 c -0.131292,-0.144433 -0.205698,-0.315126 -0.2932341,-0.485811 0.08316,0.301986 0.2494701,0.560207 0.4070341,0.8228 z m 10.210643,-2.218937 -0.05254,0.135672 c -0.100668,0.70901 -0.315118,1.413647 -0.647736,2.065763 0.363253,-0.687127 0.599591,-1.439909 0.700259,-2.201435 M 12.426148,0.9031378 c 0.249469,-0.091908 0.617101,-0.05254 0.884081,-0.1094184 -0.345758,0.030641 -0.691506,0.048128 -1.032886,0.091916 z M 3.6116498,5.5904893 C 3.6685215,6.1244341 3.2090052,6.3345117 3.712317,5.9800108 3.983669,5.3716604 3.6072783,5.8136976 3.6116498,5.5904893 M 3.0164379,8.0720268 C 3.1345998,7.7131463 3.1521101,7.4986893 3.2002537,7.2929914 2.8763863,7.7043951 3.0514507,7.7919236 3.0164379,8.0720268"
     style="fill:#a80030;stroke-width:0.0437662"
     id="path1-7" /></svg>
