<?xml version="1.0" encoding="UTF-8"?>
<svg version="1.1" viewBox="0 0 24 24" xmlns="http://www.w3.org/2000/svg"><defs><filter id="filter4" x="-.11115" y="-.089269" width="1.2223" height="1.1785" color-interpolation-filters="sRGB"><feFlood flood-color="rgb(0,0,0)" flood-opacity=".49804" in="SourceGraphic" result="flood"/><feGaussianBlur in="SourceGraphic" result="blur" stdDeviation="0.500000"/><feOffset dx="0.000000" dy="0.000000" in="blur" result="offset"/><feComposite in="offset" in2="flood" operator="in" result="comp1"/><feComposite in="SourceGraphic" in2="comp1" result="comp2"/></filter></defs><path d="m3.3154.058621h17.369a1.0856 1.0856 0 011.0856 1.0856v4.3423a1.0856 1.0856 0 01-1.0856 1.0856h-17.369a1.0856 1.0856 0 01-1.0856-1.0856v-4.3423a1.0856 1.0856 0 011.0856-1.0856m0 8.6846h17.369a1.0856 1.0856 0 011.0856 1.0856v4.3423a1.0856 1.0856 0 01-1.0856 1.0856h-17.369a1.0856 1.0856 0 01-1.0856-1.0856v-4.3423a1.0856 1.0856 0 011.0856-1.0856m0 8.6846h17.369a1.0856 1.0856 0 011.0856 1.0856v4.3423a1.0856 1.0856 0 01-1.0856 1.0856h-17.369a1.0856 1.0856 0 01-1.0856-1.0856v-4.3423a1.0856 1.0856 0 011.0856-1.0856m5.4279-13.027h1.0856v-2.1712h-1.0856v2.1712m0 8.6846h1.0856v-2.1712h-1.0856v2.1712m0 8.6846h1.0856v-2.1712h-1.0856v2.1712m-4.3423-19.54v2.1712h2.1712v-2.1712h-2.1712m0 8.6846v2.1712h2.1712v-2.1712h-2.1712m0 8.6846v2.1712h2.1712v-2.1712z" stroke-width="1.0856"/><path d="m16.658 16.864c-.22312.0028.042.1155.33337.16012.08138-.063.15225-.126.21788-.189-.18375.04465-.3675.04725-.55125.02887m1.1944-.29662c.13388-.18375.22837-.38325.2625-.59062-.02887.147-.11025.27562-.18638.4095-.41737.2625-.03936-.15488 0-.315-.44625.56438-.06037.33863-.07612.49612m.441-1.1497c.02626-.40163-.07875-.273-.1155-.12075.042.02097.07612.2835.1155.12075m-2.4806-5.481c.11812.020977.25725.036756.23625.065622.13125-.028866.16012-.055124-.23625-.065622m.23625.065622-.084.01838.07875-.0079zm3.7065 5.5676c.01314.35963-.105.5355-.21263.84525l-.19162.09712c-.1575.30712.01573.19425-.09712.43838-.24675.21787-.7455.68512-.90562.72712-.11812-.0028.07875-.13913.105-.19163-.32812.22575-.26512.33863-.7665.47775l-.01573-.03151c-1.2416.58537-2.9662-.57225-2.9426-2.1525-.01314.09975-.03675.07612-.06563.1155-.063-.81374.37538-1.6275 1.1156-1.9609.7245-.35963 1.575-.21263 2.0947.273-.28612-.37275-.85312-.76912-1.5251-.73237-.65887.01049-1.2757.42787-1.4805.88462-.33863.21263-.378.819-.525.92925-.19688 1.4542.37275 2.0842 1.3361 2.8219.15225.10237.042.11812.063.19687-.32025-.14962-.61425-.37537-.85575-.65362.12863.18637.26512.37012.44363.51187-.30188-.10238-.70612-.73237-.82425-.75863.51975.93188 2.1131 1.6354 2.9479 1.2862-.38588.01313-.87674.0079-1.3099-.15225-.18112-.0945-.4305-.28875-.38587-.32288 1.1366.42525 2.3126.32288 3.297-.46725.24938-.19425.525-.52762.60375-.53025-.11812.1785.02103.08663-.07087.24412.24937-.40163-.10763-.16275.25725-.69563l.1365.18638c-.04987-.33337.41475-.74025.3675-1.2679.10762-.16275.11812.17325.0053.546.1575-.41212.042-.47775.08138-.819.04465.1155.09975.23625.13125.357-.10237-.399.105-.672.1575-.903-.04987-.02362-.1575.17588-.18375-.294.0028-.20475.05775-.10762.07875-.1575-.03937-.02362-.14439-.18112-.21002-.48037.04726-.07088.12338.18375.18638.19425-.03937-.23887-.11027-.42262-.1129-.60375-.18375-.38588-.06563.0525-.21525-.16537-.19688-.61425.16275-.14175.18637-.42.29663.4305.46725 1.0999.546 1.3781-.0604-.33863-.1549-.66412-.27303-.98175.08925.03676-.147-.69562.11812-.21-.28088-1.0342-1.2049-2.0029-2.0527-2.457.105.0945.23625.21525.189.23362-.42263-.252-.34912-.27037-.4095-.378-.34388-.13912-.3675.01049-.59325 0-.64837-.35437-.77175-.31762-1.3702-.53287l.02626.126c-.4305-.14175-.50137.05512-.96337 0-.02887-.02102.14963-.07875.294-.09975-.41475.05512-.39637-.081378-.80325.01573.09975-.070871.20475-.1155.31237-.17587-.33862.020977-.80849.19687-.66412.036756-.55125.24676-1.533.59326-2.0842 1.1078l-.018378-.1155c-.252.30188-1.0999.903-1.1681 1.2967l-.06825.01573c-.13125.22312-.21525.47512-.32025.7035-.17063.29137-.252.11288-.22838.1575-.33862.68512-.504 1.26-.651 1.7325.10238.15488.0028.92925.042 1.5487-.17062 3.0607 2.1499 6.0349 4.683 6.72.37012.13388.924.12863 1.3939.14175-.55388-.1575-.62474-.084-1.1655-.273-.3885-.18375-.47512-.39375-.75075-.63262l.11025.19425c-.54075-.19162-.31499-.23625-.75599-.37537l.1155-.15225c-.17588-.01314-.46462-.29662-.54337-.4515l-.19163.0079c-.231-.2835-.35437-.48825-.34388-.64838l-.063.11025c-.07087-.12076-.84787-1.0658-.44362-.84526-.07612-.06825-.17588-.11025-.2835-.30712l.08138-.0945c-.19425-.24937-.357-.56962-.34388-.67725.10237.13912.17588.16537.24675.189-.49087-1.218-.51712-.06825-.88987-1.239l.07875-.0053c-.06038-.09186-.09712-.18899-.14438-.28611l.03411-.34125c-.35437-.40947-.09975-1.7351-.04725-2.4648.03411-.29663.294-.61163.49088-1.1051l-.12075-.02098c.231-.40163 1.3125-1.6091 1.8139-1.5461.2415-.3045-.04725 0-.0945-.07875.53288-.55125.70087-.39112 1.0605-.48825.3885-.231-.33338.08925-.14963-.08662.672-.17063.47512-.3885 1.3519-.47775.09187.0525-.21525.08137-.29138.14962.55912-.273 1.7692-.21 2.5541.15225.91088.42525 1.9372 1.6852 1.9766 2.8717l.04726.01314c-.02362.46988.07087 1.0159-.0945 1.5172zm-5.5282 1.6012-.03151.15488c.147.1995.2625.41475.44888.56962-.13388-.2625-.23363-.37012-.41738-.7245m.34387-.01573c-.07875-.08663-.12337-.18901-.17588-.29138.04988.18112.14963.336.24413.4935zm6.1241-1.3309-.03151.08137c-.06038.42525-.189.84787-.3885 1.239.21787-.41212.35962-.86362.42-1.3204m-4.8379-5.9955c.14963-.055124.37012-.031512.53025-.065627-.20738.018378-.41475.028866-.6195.055129zm-5.2867 2.8114c.03411.32025-.2415.44625.06038.23363.16275-.36488-.063-.09975-.06038-.23363m-.357 1.4884c.07087-.21525.08137-.34388.11025-.46725-.19425.24675-.08925.29925-.11025.46725" fill="#a80030" filter="url(#filter4)" stroke-width=".02625"/></svg>
