<?xml version="1.0" encoding="UTF-8" standalone="no"?>
<svg
   id="mdi-server"
   viewBox="0 0 24 24"
   version="1.1"
   sodipodi:docname="debian-server-light.svg"
   xml:space="preserve"
   inkscape:version="1.4.3 (0d15f75042, 2025-12-25)"
   xmlns:inkscape="http://www.inkscape.org/namespaces/inkscape"
   xmlns:sodipodi="http://sodipodi.sourceforge.net/DTD/sodipodi-0.dtd"
   xmlns="http://www.w3.org/2000/svg"
   xmlns:svg="http://www.w3.org/2000/svg"><defs
     id="defs1"><filter
       style="color-interpolation-filters:sRGB;"
       inkscape:label="Drop Shadow"
       id="filter17"
       x="-0.066691368"
       y="-0.053561251"
       width="1.1333827"
       height="1.1071225"><feFlood
         result="flood"
         in="SourceGraphic"
         flood-opacity="0.498039"
         flood-color="rgb(77,77,77)"
         id="feFlood16" /><feGaussianBlur
         result="blur"
         in="SourceGraphic"
         stdDeviation="0.300000"
         id="feGaussianBlur16" /><feOffset
         result="offset"
         in="blur"
         dx="0.000000"
         dy="0.000000"
         id="feOffset16" /><feComposite
         result="comp1"
         operator="in"
         in="offset"
         in2="flood"
         id="feComposite16" /><feComposite
         result="comp2"
         operator="over"
         in="SourceGraphic"
         in2="comp1"
         id="feComposite17" /></filter></defs><sodipodi:namedview
     id="namedview1"
     pagecolor="#505050"
     bordercolor="#ffffff"
     borderopacity="1"
     inkscape:showpageshadow="0"
     inkscape:pageopacity="0"
     inkscape:pagecheckerboard="1"
     inkscape:deskcolor="#505050"
     inkscape:zoom="32"
     inkscape:cx="8.734375"
     inkscape:cy="12.28125"
     inkscape:window-width="2560"
     inkscape:window-height="1368"
     inkscape:window-x="0"
     inkscape:window-y="0"
     inkscape:window-maximized="1"
     inkscape:current-layer="mdi-server" /><path
     d="M 3.3153609,0.05862094 H 20.684639 a 1.0855799,1.0855799 0 0 1 1.08558,1.08557996 v 4.3423197 a 1.0855799,1.0855799 0 0 1 -1.08558,1.0855799 H 3.3153609 A 1.0855799,1.0855799 0 0 1 2.2297809,5.4865206 V 1.1442009 a 1.0855799,1.0855799 0 0 1 1.08558,-1.08557996 m 0,8.68463946 H 20.684639 a 1.0855799,1.0855799 0 0 1 1.08558,1.08558 v 4.3423186 a 1.0855799,1.0855799 0 0 1 -1.08558,1.085581 H 3.3153609 a 1.0855799,1.0855799 0 0 1 -1.08558,-1.085581 V 9.8288404 a 1.0855799,1.0855799 0 0 1 1.0855801,-1.08558 m 0,8.6846396 h 17.369278 a 1.0855799,1.0855799 0 0 1 1.08558,1.085579 v 4.34232 a 1.0855799,1.0855799 0 0 1 -1.08558,1.08558 H 3.3153609 a 1.0855799,1.0855799 0 0 1 -1.08558,-1.08558 v -4.34232 A 1.0855799,1.0855799 0 0 1 3.315361,17.4279 M 8.7432606,4.4009407 h 1.08558 V 2.2297808 h -1.08558 v 2.1711599 m 0,8.6846393 h 1.08558 v -2.17116 h -1.08558 v 2.17116 m 0,8.68464 h 1.08558 v -2.171161 h -1.08558 V 21.77022 M 4.4009408,2.2297808 V 4.4009407 H 6.5721007 V 2.2297808 H 4.4009408 m 0,8.6846392 v 2.17116 H 6.5721007 V 10.91442 H 4.4009408 m 0,8.684639 v 2.171161 h 2.1711599 v -2.171161 z"
     id="path1"
     style="fill:#1a1a1a;fill-opacity:1;stroke-width:1.08558"
     inkscape:label="server" /><path
     d="m 16.658219,16.863612 c -0.223124,0.0028 0.042,0.115497 0.333373,0.160124 0.08138,-0.063 0.152249,-0.126001 0.217876,-0.188999 -0.183752,0.04465 -0.367497,0.04725 -0.551249,0.02887 m 1.194372,-0.296625 c 0.133875,-0.183747 0.228373,-0.383249 0.262502,-0.590621 -0.02887,0.146998 -0.110253,0.275622 -0.186378,0.409497 -0.417372,0.262502 -0.03936,-0.154876 0,-0.315 -0.446248,0.564377 -0.06037,0.338627 -0.07612,0.496124 m 0.440995,-1.149744 c 0.02626,-0.401627 -0.07875,-0.273 -0.115497,-0.120752 0.042,0.02097 0.07612,0.283502 0.115497,0.120752 M 15.812972,9.9362458 c 0.118124,0.020977 0.257249,0.036756 0.236248,0.065622 0.131248,-0.028866 0.160124,-0.055124 -0.236248,-0.065622 m 0.236248,0.065622 -0.084,0.01838 0.07875,-0.0079 z m 3.706493,5.567613 c 0.01314,0.359627 -0.105001,0.535498 -0.212626,0.845249 l -0.191623,0.09712 c -0.157502,0.307123 0.01573,0.194247 -0.09712,0.438376 -0.24675,0.217872 -0.745501,0.685123 -0.905625,0.727124 -0.118124,-0.0028 0.07875,-0.139129 0.105,-0.191627 -0.328124,0.225752 -0.265124,0.338626 -0.766497,0.47775 l -0.01573,-0.03151 c -1.241626,0.585369 -2.96625,-0.572251 -2.942623,-2.152497 -0.01314,0.09975 -0.03675,0.07612 -0.06563,0.115497 -0.063,-0.813744 0.375378,-1.627495 1.115625,-1.960868 0.724497,-0.359626 1.574992,-0.212626 2.094743,0.273 -0.286123,-0.372751 -0.853123,-0.769124 -1.525122,-0.732372 -0.658874,0.01049 -1.275744,0.42787 -1.480495,0.884621 -0.338627,0.212626 -0.377999,0.818998 -0.525,0.929247 -0.196876,1.454246 0.372751,2.084245 1.336124,2.82187 0.152247,0.102373 0.042,0.118125 0.063,0.196871 -0.32025,-0.149621 -0.614249,-0.375372 -0.855751,-0.65362 0.128627,0.186372 0.265124,0.370123 0.443626,0.511874 -0.301875,-0.102378 -0.706123,-0.732372 -0.824248,-0.758626 0.519747,0.931875 2.113122,1.635372 2.947867,1.286248 -0.385875,0.01313 -0.876745,0.0079 -1.309874,-0.152249 -0.181124,-0.0945 -0.430496,-0.288751 -0.38587,-0.322875 1.136621,0.425248 2.312619,0.322875 3.296991,-0.467248 0.249377,-0.194248 0.524999,-0.527622 0.603751,-0.530248 -0.118124,0.178497 0.02103,0.08663 -0.07087,0.244124 0.249373,-0.401626 -0.107626,-0.162751 0.257248,-0.695627 l 0.136503,0.186378 c -0.04987,-0.333372 0.414746,-0.740246 0.367498,-1.267872 0.107625,-0.162752 0.118123,0.173248 0.0053,0.545998 0.157502,-0.412124 0.042,-0.477751 0.08138,-0.818999 0.04465,0.115503 0.09975,0.236249 0.131249,0.357 -0.102372,-0.399 0.105001,-0.671999 0.157499,-0.902999 -0.04987,-0.02362 -0.157499,0.175876 -0.183747,-0.293999 0.0028,-0.204746 0.05775,-0.107622 0.07875,-0.157498 -0.03937,-0.02362 -0.144394,-0.181123 -0.210022,-0.480372 0.04726,-0.07088 0.123379,0.183747 0.186378,0.194249 -0.03937,-0.238873 -0.110269,-0.422624 -0.112895,-0.603748 -0.183751,-0.385875 -0.06563,0.0525 -0.215248,-0.165373 -0.196877,-0.614248 0.162746,-0.141751 0.186372,-0.42 0.296627,0.430498 0.467248,1.099874 0.545999,1.378123 -0.0604,-0.338626 -0.154901,-0.664124 -0.273026,-0.98175 0.08925,0.03676 -0.146999,-0.695621 0.118125,-0.209999 -0.280876,-1.034248 -1.204875,-2.002869 -2.052744,-2.456992 0.104999,0.0945 0.236248,0.215248 0.188999,0.233621 -0.422626,-0.251999 -0.349124,-0.270372 -0.409501,-0.377999 -0.343875,-0.139124 -0.367498,0.01049 -0.593248,0 -0.648372,-0.354373 -0.771751,-0.317622 -1.370248,-0.5328748 l 0.02626,0.1259998 c -0.430498,-0.1417463 -0.501372,0.05512 -0.963373,0 -0.02887,-0.02102 0.149629,-0.07875 0.294002,-0.09975 -0.414749,0.05512 -0.396372,-0.081378 -0.803246,0.01573 0.09975,-0.070871 0.204752,-0.1154976 0.312373,-0.1758707 -0.338618,0.020977 -0.808493,0.1968697 -0.664121,0.036756 C 14.259006,10.143603 13.277256,10.4901 12.726008,11.004602 L 12.70763,10.8891 c -0.252,0.301875 -1.099874,0.902998 -1.168123,1.296749 l -0.06825,0.01573 c -0.131253,0.223124 -0.215253,0.475123 -0.320248,0.703496 -0.170627,0.291373 -0.252,0.112876 -0.228378,0.157502 -0.338621,0.685124 -0.503999,1.259994 -0.650999,1.732496 0.102378,0.154875 0.0028,0.929247 0.042,1.548744 -0.170622,3.060747 2.149873,6.034862 4.682993,6.719985 0.370124,0.133877 0.923995,0.128627 1.393869,0.141752 -0.553875,-0.157497 -0.624744,-0.084 -1.165496,-0.273 -0.388501,-0.183751 -0.475123,-0.393751 -0.750749,-0.63262 l 0.110248,0.194247 C 14.043751,22.302558 14.269503,22.257935 13.828503,22.118807 L 13.944,21.966558 c -0.175875,-0.01314 -0.464621,-0.296621 -0.543372,-0.451496 l -0.191627,0.0079 c -0.230999,-0.2835 -0.354372,-0.488252 -0.343875,-0.648375 l -0.063,0.110253 c -0.07087,-0.120763 -0.847868,-1.065762 -0.44362,-0.845265 -0.07612,-0.06825 -0.175875,-0.110249 -0.283502,-0.307124 l 0.08138,-0.0945 c -0.194249,-0.249371 -0.357,-0.569624 -0.343875,-0.677246 0.102373,0.139124 0.175875,0.165374 0.24675,0.189 -0.490874,-1.217998 -0.517123,-0.06825 -0.889874,-1.238998 l 0.07875,-0.0053 c -0.06038,-0.09186 -0.09712,-0.188988 -0.144377,-0.286113 l 0.03411,-0.341252 c -0.354373,-0.409473 -0.09975,-1.735093 -0.04725,-2.464844 0.03411,-0.296626 0.294,-0.611626 0.490875,-1.105123 l -0.120751,-0.02098 c 0.231,-0.401626 1.312496,-1.609122 1.813873,-1.546122 0.241498,-0.304497 -0.04725,0 -0.0945,-0.07875 0.532875,-0.551247 0.700874,-0.391123 1.0605,-0.488248 0.388498,-0.230999 -0.333377,0.08925 -0.149626,-0.08662 0.671999,-0.170626 0.475125,-0.388501 1.351875,-0.47775 0.09187,0.0525 -0.215254,0.08137 -0.291378,0.149622 0.559124,-0.273 1.769247,-0.21 2.55412,0.152253 0.910876,0.425248 1.937247,1.685247 1.976621,2.871742 l 0.04726,0.01314 c -0.02362,0.469875 0.07087,1.015874 -0.0945,1.517246 z m -5.528238,1.601248 -0.03151,0.154875 c 0.146999,0.199497 0.262498,0.41475 0.448876,0.56962 -0.133879,-0.262497 -0.23363,-0.370123 -0.417376,-0.724495 m 0.343871,-0.01573 c -0.07875,-0.08663 -0.123373,-0.189006 -0.175875,-0.291379 0.04988,0.181124 0.149626,0.336 0.24413,0.493497 z m 6.124117,-1.33087 -0.03151,0.08137 c -0.06038,0.425249 -0.189,0.847874 -0.388497,1.238999 0.217871,-0.412123 0.359621,-0.863625 0.42,-1.320372 M 15.857594,9.8286267 c 0.149626,-0.055124 0.370124,-0.031512 0.530252,-0.065627 -0.207378,0.018378 -0.41475,0.028866 -0.619502,0.055129 z m -5.28674,2.8113693 c 0.03411,0.320248 -0.241497,0.446248 0.06038,0.233626 0.162751,-0.364875 -0.063,-0.09975 -0.06038,-0.233626 m -0.356995,1.488371 c 0.07087,-0.215249 0.08137,-0.343875 0.110249,-0.467248 -0.194249,0.246751 -0.08925,0.299248 -0.110249,0.467248"
     style="fill:#a80030;stroke-width:0.02625;filter:url(#filter17)"
     id="path1-7"
     inkscape:label="debian" /></svg>
