<?xml version="1.0" encoding="UTF-8"?>
<svg version="1.1" viewBox="0 0 24 18" xmlns="http://www.w3.org/2000/svg"><g transform="matrix(1.0781 0 0 1.0781 -.93668 -3.9367)"><path d="m22 8h-6c-.5 0-1 .5-1 1v10c0 .5.5 1 1 1h6c.5 0 1-.5 1-1v-10c0-.5-.5-1-1-1m-1 10h-4v-8h4z" fill="#0091eb"/><path d="m13 12h-4v1.78c-.61.55-1 1.33-1 2.22s.39 1.67 1 2.22v1.78h4v-1.78c.61-.55 1-1.34 1-2.22s-.39-1.67-1-2.22v-1.78m-2 5.5c-.83 0-1.5-.67-1.5-1.5s.67-1.5 1.5-1.5 1.5.67 1.5 1.5-.67 1.5-1.5 1.5" fill="#0091eb"/><path d="m3 6h18v-2h-18c-1.1 0-2 .9-2 2v12c0 1.1.9 2 2 2h4v-2h-4v-12" fill="#4cae4f"/></g></svg>
