<?xml version="1.0" encoding="UTF-8" standalone="no"?>
<svg
   height="20"
   viewBox="0 -960 960 800"
   width="24"
   fill="#000000"
   version="1.1"
   id="svg1"
   sodipodi:docname="devices-other.svg"
   inkscape:version="1.4.3 (0d15f75042, 2025-12-25)"
   xmlns:inkscape="http://www.inkscape.org/namespaces/inkscape"
   xmlns:sodipodi="http://sodipodi.sourceforge.net/DTD/sodipodi-0.dtd"
   xmlns="http://www.w3.org/2000/svg"
   xmlns:svg="http://www.w3.org/2000/svg">
  <defs
     id="defs1" />
  <sodipodi:namedview
     id="namedview1"
     pagecolor="#505050"
     bordercolor="#ffffff"
     borderopacity="1"
     inkscape:showpageshadow="0"
     inkscape:pageopacity="0"
     inkscape:pagecheckerboard="1"
     inkscape:deskcolor="#505050"
     inkscape:zoom="24.166667"
     inkscape:cx="14.751724"
     inkscape:cy="12.455172"
     inkscape:window-width="2560"
     inkscape:window-height="1368"
     inkscape:window-x="0"
     inkscape:window-y="0"
     inkscape:window-maximized="1"
     inkscape:current-layer="svg1" />
  <g
     id="g5"
     transform="matrix(1.1901874,0,0,1.1901874,-91.289952,11.289952)">
    <path
       d="m 160,-160 c -22,0 -40.83333,-7.83333 -56.5,-23.5 C 87.833333,-199.16667 80,-218 80,-240 v -480 c 0,-22 7.833333,-40.83333 23.5,-56.5 15.66667,-15.66667 34.5,-23.5 56.5,-23.5 h 640 c 22,0 40.83333,7.83333 56.5,23.5 15.66667,15.66667 23.5,34.5 23.5,56.5 H 160 v 480 h 80 v 80 z"
       id="path2"
       sodipodi:nodetypes="sssssssscccccs"
       style="fill:#4cae4f;fill-opacity:1" />
    <path
       d="m 340,-160 -20,-70 c -12.66667,-11.33333 -22.5,-24.66667 -29.5,-40 -7,-15.33333 -10.5,-32 -10.5,-50 0,-18 3.5,-34.66667 10.5,-50 7,-15.33333 16.83333,-28.66667 29.5,-40 l 20,-70 h 120 l 20,70 c 12.66667,11.33333 22.5,24.66667 29.5,40 7,15.33333 10.5,32 10.5,50 0,18 -3.5,34.66667 -10.5,50 -7,15.33333 -16.83333,28.66667 -29.5,40 l -20,70 z m 60,-100 c 17.33333,0 31.66667,-5.83333 43,-17.5 11.33333,-11.66667 17,-25.83333 17,-42.5 0,-16.66667 -6,-30.83333 -18,-42.5 -12,-11.66667 -26,-17.5 -42,-17.5 -16,0 -30,5.66667 -42,17 -12,11.33333 -18,25.66667 -18,43 0,17.33333 5.66667,31.66667 17,43 11.33333,11.33333 25.66667,17 43,17 z"
       id="path3"
       sodipodi:nodetypes="ccsssccccssscccsssssssss"
       style="fill:#0091eb;fill-opacity:1" />
    <g
       id="g4"
       style="fill:#0091eb;fill-opacity:1">
      <path
         d="m 720,-460 c 8.66667,0 15.83333,-3 21.5,-9 5.66667,-6 8.5,-13 8.5,-21 0,-8.66667 -2.83333,-15.83333 -8.5,-21.5 -5.66667,-5.66667 -12.83333,-8.5 -21.5,-8.5 -8,0 -15,2.83333 -21,8.5 -6,5.66667 -9,12.83333 -9,21.5 0,8 3,15 9,21 6,6 13,9 21,9 z"
         id="path1"
         sodipodi:nodetypes="sssssssss"
         style="fill:#4cae4f;fill-opacity:1" />
      <path
         d="M 800,-240 V -560 H 640 v 320 z m -180,80 c -16.66667,0 -30.83333,-5.83333 -42.5,-17.5 C 565.83333,-189.16667 560,-203.33333 560,-220 v -360 c 0,-16.66667 5.83333,-30.83333 17.5,-42.5 11.66667,-11.66667 25.83333,-17.5 42.5,-17.5 h 200 c 16.66667,0 30.83333,5.83333 42.5,17.5 11.66667,11.66667 17.5,25.83333 17.5,42.5 v 360 c 0,16.66667 -5.83333,30.83333 -17.5,42.5 -11.66667,11.66667 -25.83333,17.5 -42.5,17.5 z"
         id="path4"
         sodipodi:nodetypes="cccccsssssssssssss"
         style="fill:#0091eb;fill-opacity:1" />
    </g>
  </g>
</svg>
