<?xml version="1.0" encoding="UTF-8"?>
<svg version="1.1" viewBox="0 0 6.35 6.35" xmlns="http://www.w3.org/2000/svg"><g transform="matrix(.15543 0 0 .15543 1.4483 .62578)" stroke-width=".048029"><path d="m11.111-3.175c-10.796 0-19.577 8.7819-19.577 19.576 0 10.794 8.7814 19.576 19.577 19.576 10.793 0 19.575-8.7819 19.575-19.576 7.9e-5-10.794-8.7823-19.576-19.575-19.576z" fill="#3c6eb4" fill-opacity=".98764"/><path d="m11.111-1.3783c-3.148 0-5.8182 5.0352-6.7825 12.034-.030978.22519-.060527.45244-.087216.68232-.13154 1.1015-.22074 2.2469-.26538 3.4258-.021367.5395-.031852 1.085-.031852 1.6372 0 .55165.010485 1.0977.031852 1.6366.04464 1.1789.13384 2.3244.26538 3.4263 1.4764.19064 3.0545.32082 4.7007.3823.71163.02653 1.4338.0425 2.169.0425.73283 0 1.457-.01597 2.1667-.0425 1.6482-.06156 3.2254-.19175 4.7027-.3823.16252-.02121.32297-.04401.48437-.06688 6.1483-.8639 10.425-2.7752 10.425-4.9959.000159-9.82-7.961-17.78-17.779-17.78z" fill="#de4284"/><path d="m18.464 11.405c-.1784-.26022-.3696-.50931-.57358-.74872-1.6314-1.9229-4.0614-3.1449-6.7801-3.1449-.88169 0-1.6664 1.3494-2.169 3.4444-.19961.8353-.35458 1.7886-.45451 2.8231-.078478.82895-.12105 1.7105-.12105 2.6228 0 .91235.042575 1.7938.12105 2.6223.82958.07856 1.7099.12105 2.6235.12105.91211 0 1.7927-.04257 2.6223-.12105 1.8235-.17316 3.3975-.52369 4.5127-.98574 1.1013-.4561 1.7534-1.0228 1.7534-1.6366 0-1.8523-.56603-3.5724-1.5346-4.9966z" fill="#fff"/></g></svg>
