<?xml version="1.0" encoding="UTF-8"?>
<svg version="1.1" viewBox="0 0 16 24" xmlns="http://www.w3.org/2000/svg"><g transform="matrix(1.1333 0 0 1.1333 -5.5996 -2.1663)"><path d="m14 2h-7c-1.1046 0-2 .89543-2 2v14c0 1.1046.89543 2 2 2h1v-2h-1v-14h6v4h4v10h-1v2h1c1.1046 0 2-.89543 2-2v-11" fill="#0091eb"/><path d="m14 13v-2l-2 1-2-1v2l-2 1 2 1v2l2-1 2 1v-2l2-1m-2-1v-2l-2 1-2-1v2l-2 1 2 1v2l2-1 2 1v-2l2-1m-6 9 2-1 2 1v-5h-4m4-5v-2l-2 1-2-1v2l-2 1 2 1v2l2-1 2 1v-2l2-1z" fill="#4cae4f" style="mix-blend-mode:normal"/></g></svg>
