<?xml version="1.0" encoding="UTF-8"?>
<svg version="1.1" viewBox="0 0 24 24" xmlns="http://www.w3.org/2000/svg"><g transform="matrix(1.1589 0 0 1.1589 -1.9063 -2.8334)" stroke-width="1.0001"><path d="m11 17v2h2v-2zm-9 3v2h7v-2zm13 0v2h7v-2z" fill="#4cae4f"/><path d="m13.021 18.867h1.0207c.56369 0 1.0207.46266 1.0207 1.0334v2.0667c0 .57071-.45696 1.0334-1.0207 1.0334h-4.0826c-.56369 0-1.0207-.46266-1.0207-1.0334v-2.0667c0-.57071.45696-1.0334 1.0207-1.0334h1.0207z" fill="#0091eb" style="paint-order:stroke fill markers"/><path d="m3 15v-10c0-1.1046.89543-2 2-2h6l2 2h6c1.1046 0 2 .89543 2 2v8c0 1.1046-.89543 2-2 2h-14c-1.1046 0-2-.89543-2-2z" fill="#0091eb" stroke="#4cae4f" stroke-linecap="round" stroke-linejoin="round" stroke-width=".43146" style="paint-order:normal"/></g></svg>
