<?xml version="1.0" encoding="UTF-8"?>
<svg version="1.1" viewBox="0 0 24 24" xmlns="http://www.w3.org/2000/svg"><g transform="matrix(1.1589 0 0 1.1589 -1.9063 -2.8334)" stroke-width="1.0001"><path d="m11 17v2h2v-2zm-9 3v2h7v-2zm13 0v2h7v-2z" fill="#4cae4f"/><path d="m13.021 18.867h1.0207c.56369 0 1.0207.46266 1.0207 1.0334v2.0667c0 .57071-.45696 1.0334-1.0207 1.0334h-4.0826c-.56369 0-1.0207-.46266-1.0207-1.0334v-2.0667c0-.57071.45696-1.0334 1.0207-1.0334h1.0207z" fill="#0091eb" stroke-width="0" style="paint-order:stroke fill markers"/><path d="m3 15v-10c0-1.1046.89543-2 2-2h6l2 2h6c1.1046 0 2 .89543 2 2v8c0 1.1046-.89543 2-2 2h-14c-1.1046 0-2-.89543-2-2z" fill="#0091eb" stroke="#4cae4f" stroke-linecap="round" stroke-linejoin="round" stroke-width=".86289" style="paint-order:normal"/></g><path d="m9.25 13.5q-1.1375 0-1.9438-.7875t-.80625-1.925q0-.975.5875-1.7375t1.5375-.975q.3125-1.15 1.25-1.8625t2.125-.7125q1.4625 0 2.4812 1.0188t1.0188 2.4812q.8625.1 1.4312.74375t.56875 1.5062q0 .9375-.65625 1.5938t-1.5938.65625z" fill="#4cae4f" stroke-width=".0125"/></svg>
