<?xml version="1.0" encoding="UTF-8"?>
<svg version="1.1" viewBox="0 0 24 24" xmlns="http://www.w3.org/2000/svg"><g transform="matrix(1.1589 0 0 1.1589 -1.9063 -2.8334)" stroke-width="1.0001"><path d="m11 17v2h2v-2zm-9 3v2h7v-2zm13 0v2h7v-2z" fill="#4cae4f"/><path d="m13.021 18.867h1.0207c.56369 0 1.0207.46266 1.0207 1.0334v2.0667c0 .57071-.45696 1.0334-1.0207 1.0334h-4.0826c-.56369 0-1.0207-.46266-1.0207-1.0334v-2.0667c0-.57071.45696-1.0334 1.0207-1.0334h1.0207z" fill="#0091eb" style="paint-order:stroke fill markers"/><path d="m3 15v-10c0-1.1046.89543-2 2-2h6l2 2h6c1.1046 0 2 .89543 2 2v8c0 1.1046-.89543 2-2 2h-14c-1.1046 0-2-.89543-2-2z" fill="#0091eb" stroke="#4cae4f" stroke-linecap="round" stroke-linejoin="round" stroke-width=".43146" style="paint-order:normal"/></g><path d="m9.25 13.5q-1.14 0-1.945-.785-.805-.79-.805-1.925 0-.975.585-1.74.59-.765 1.54-.975.315-1.15 1.25-1.86.94-.715 2.125-.715 1.465 0 2.48 1.02 1.02 1.015 1.02 2.48.865.1 1.43.75.57.64.57 1.5 0 .94-.655 1.595-.655.655-1.595.655m-6-1h6q.525 0 .885-.365.365-.36.365-.885 0-.525-.365-.885-.36-.365-.885-.365h-.75v-1q0-1.035-.73-1.77-.73-.73-1.77-.73-1.035 0-1.77.73-.73.735-.73 1.77h-.25q-.725 0-1.235.515-.515.51-.515 1.235 0 .725.515 1.25.51.5 1.235.5" fill="#4cae4f" stroke-width=".5"/></svg>
