<?xml version="1.0" encoding="UTF-8" standalone="no"?>
<svg
   id="mdi-folder-network"
   viewBox="0 0 24 24"
   version="1.1"
   sodipodi:docname="folder-network.svg"
   inkscape:version="1.4.3 (0d15f75042, 2025-12-25)"
   xmlns:inkscape="http://www.inkscape.org/namespaces/inkscape"
   xmlns:sodipodi="http://sodipodi.sourceforge.net/DTD/sodipodi-0.dtd"
   xmlns="http://www.w3.org/2000/svg"
   xmlns:svg="http://www.w3.org/2000/svg">
  <defs
     id="defs1">
    <filter
       style="color-interpolation-filters:sRGB;"
       inkscape:label="Drop Shadow"
       id="filter6"
       x="-0.036000001"
       y="-0.036000001"
       width="1.097"
       height="1.097">
      <feFlood
         result="flood"
         in="SourceGraphic"
         flood-opacity="0.498039"
         flood-color="rgb(0,0,0)"
         id="feFlood5" />
      <feGaussianBlur
         result="blur"
         in="SourceGraphic"
         stdDeviation="0.300000"
         id="feGaussianBlur5" />
      <feOffset
         result="offset"
         in="blur"
         dx="0.500000"
         dy="0.500000"
         id="feOffset5" />
      <feComposite
         result="comp1"
         operator="in"
         in="flood"
         in2="offset"
         id="feComposite5" />
      <feComposite
         result="comp2"
         operator="over"
         in="SourceGraphic"
         in2="comp1"
         id="feComposite6" />
    </filter>
  </defs>
  <sodipodi:namedview
     id="namedview1"
     pagecolor="#505050"
     bordercolor="#ffffff"
     borderopacity="1"
     inkscape:showpageshadow="0"
     inkscape:pageopacity="0"
     inkscape:pagecheckerboard="1"
     inkscape:deskcolor="#505050"
     inkscape:zoom="45.254834"
     inkscape:cx="10.927009"
     inkscape:cy="12.462757"
     inkscape:window-width="2560"
     inkscape:window-height="1368"
     inkscape:window-x="0"
     inkscape:window-y="0"
     inkscape:window-maximized="1"
     inkscape:current-layer="mdi-folder-network" />
  <g
     id="g5"
     style="filter:url(#filter6)">
    <path
       id="path1"
       style="display:inline;fill:#0091eb;fill-opacity:1"
       d="m 11,17 v 2 h 2 v -2 z m -9,3 v 2 h 7 v -2 z m 13,0 v 2 h 7 v -2 z"
       inkscape:label="wire" />
    <path
       d="m 13,19 h 1 c 0.552285,0 1,0.447715 1,1 v 2 c 0,0.552285 -0.447715,1 -1,1 H 10 C 9.4477153,23 9,22.552285 9,22 v -2 c 0,-0.552285 0.4477153,-1 1,-1 h 1 z"
       id="path2"
       sodipodi:nodetypes="csccssccscc"
       style="display:inline;fill:#4cae4f;fill-opacity:1"
       inkscape:label="bottom" />
    <path
       d="M 3,15 V 5 C 3,3.8954305 3.8954305,3 5,3 h 6 l 2,2 h 6 c 1.104569,0 2,0.8954305 2,2 v 8 c 0,1.104569 -0.895431,2 -2,2 H 13 11 5 C 3.8954305,17 3,16.104569 3,15 Z"
       id="path3"
       style="display:inline;fill:#4cae4f;fill-opacity:1"
       sodipodi:nodetypes="sssccssssccss"
       inkscape:label="top" />
  </g>
</svg>
