<?xml version="1.0" encoding="UTF-8"?>
<svg version="1.1" viewBox="0 0 24 20" xmlns="http://www.w3.org/2000/svg"><g transform="matrix(1.2895 0 0 1.2895 -3.1513 -5.4736)"><path d="m7 5h14v2h-14v-2m0 8v-2h14v2h-14m0 6v-2h14v2h-14" fill="#0091eb"/><path d="m4 4.5c.82843 0 1.5.67157 1.5 1.5s-.67157 1.5-1.5 1.5-1.5-.67157-1.5-1.5.67157-1.5 1.5-1.5m0 6c.82843 0 1.5.67157 1.5 1.5s-.67157 1.5-1.5 1.5-1.5-.67157-1.5-1.5.67157-1.5 1.5-1.5m0 6c.82843 0 1.5.67157 1.5 1.5s-.67157 1.5-1.5 1.5-1.5-.67157-1.5-1.5.67157-1.5 1.5-1.5z" fill="#4cae4f"/></g></svg>
