<?xml version="1.0" encoding="UTF-8" standalone="no"?>
<svg
   id="mdi-router-wireless"
   viewBox="0 0 24 24"
   version="1.1"
   sodipodi:docname="hardware.svg"
   inkscape:version="1.4.3 (0d15f75042, 2025-12-25)"
   xmlns:inkscape="http://www.inkscape.org/namespaces/inkscape"
   xmlns:sodipodi="http://sodipodi.sourceforge.net/DTD/sodipodi-0.dtd"
   xmlns="http://www.w3.org/2000/svg"
   xmlns:svg="http://www.w3.org/2000/svg">
  <defs
     id="defs1">
    <filter
       style="color-interpolation-filters:sRGB;"
       inkscape:label="Drop Shadow"
       id="filter4"
       x="-0.056666669"
       y="-0.085000003"
       width="1.1411111"
       height="1.2116667">
      <feFlood
         result="flood"
         in="SourceGraphic"
         flood-opacity="0.498039"
         flood-color="rgb(0,0,0)"
         id="feFlood3" />
      <feGaussianBlur
         result="blur"
         in="SourceGraphic"
         stdDeviation="0.300000"
         id="feGaussianBlur3" />
      <feOffset
         result="offset"
         in="blur"
         dx="0.500000"
         dy="0.500000"
         id="feOffset3" />
      <feComposite
         result="comp1"
         operator="in"
         in="flood"
         in2="offset"
         id="feComposite3" />
      <feComposite
         result="comp2"
         operator="over"
         in="SourceGraphic"
         in2="comp1"
         id="feComposite4" />
    </filter>
    <filter
       style="color-interpolation-filters:sRGB;"
       inkscape:label="Drop Shadow"
       id="filter6"
       x="-0.072000003"
       y="-0.16000001"
       width="1.194"
       height="1.4311111">
      <feFlood
         result="flood"
         in="SourceGraphic"
         flood-opacity="0.498039"
         flood-color="rgb(0,0,0)"
         id="feFlood4" />
      <feGaussianBlur
         result="blur"
         in="SourceGraphic"
         stdDeviation="0.300000"
         id="feGaussianBlur4" />
      <feOffset
         result="offset"
         in="blur"
         dx="0.500000"
         dy="0.500000"
         id="feOffset4" />
      <feComposite
         result="comp1"
         operator="in"
         in="flood"
         in2="offset"
         id="feComposite5" />
      <feComposite
         result="comp2"
         operator="over"
         in="SourceGraphic"
         in2="comp1"
         id="feComposite6" />
    </filter>
  </defs>
  <sodipodi:namedview
     id="namedview1"
     pagecolor="#505050"
     bordercolor="#ffffff"
     borderopacity="1"
     inkscape:showpageshadow="0"
     inkscape:pageopacity="0"
     inkscape:pagecheckerboard="1"
     inkscape:deskcolor="#505050"
     inkscape:zoom="34.176828"
     inkscape:cx="11.499019"
     inkscape:cy="15.829439"
     inkscape:window-width="2560"
     inkscape:window-height="1368"
     inkscape:window-x="0"
     inkscape:window-y="0"
     inkscape:window-maximized="1"
     inkscape:current-layer="mdi-router-wireless" />
  <g
     id="g6"
     transform="matrix(1.0769239,0,0,1.0769239,-1.192318,-1.3538566)">
    <path
       d="M 20.2,5.9 21,5.1 C 19.6,3.7 17.8,3 16,3 14.2,3 12.4,3.7 11,5.1 l 0.8,0.8 C 13,4.8 14.5,4.2 16,4.2 c 1.5,0 3,0.6 4.2,1.7 M 19.3,6.7 C 18.4,5.8 17.2,5.3 16,5.3 c -1.2,0 -2.4,0.5 -3.3,1.4 l 0.8,0.8 c 0.7,-0.7 1.6,-1 2.5,-1 0.9,0 1.8,0.3 2.5,1 l 0.8,-0.8"
       id="path2"
       sodipodi:nodetypes="ccsccsccsccscc"
       inkscape:label="wireless-indicator"
       style="display:inline;fill:#4cae4f;fill-opacity:1;filter:url(#filter6)" />
    <path
       d="M 19,13 H 17 V 9 h -2 v 4 H 5 c -1.1045695,0 -2,0.895431 -2,2 v 4 c 0,1.104569 0.8954305,2 2,2 h 14 c 1.104569,0 2,-0.895431 2,-2 v -4 c 0,-1.104569 -0.895431,-2 -2,-2 M 8,18 H 6 v -2 h 2 v 2 m 3.5,0 h -2 v -2 h 2 v 2 m 3.5,0 h -2 v -2 h 2 z"
       id="path3"
       style="display:inline;fill:#0091eb;fill-opacity:1;stroke:#4cae4f;stroke-width:0.6;stroke-linecap:round;stroke-linejoin:round;stroke-dasharray:none;stroke-opacity:1;paint-order:markers fill stroke;filter:url(#filter4)"
       sodipodi:nodetypes="cccccssssssscccccccccccccccc"
       inkscape:label="router" />
  </g>
</svg>
