<?xml version="1.0" encoding="UTF-8"?>
<svg version="1.1" viewBox="0 0 120 120" xmlns="http://www.w3.org/2000/svg"><g transform="matrix(.46305 0 0 .46305 45.649 28.207)" fill="#00315c"><path class="cls-1" d="m130.51 85.08h-125.92c-23 0-42.25-18.26-42.52-41.26a41.44 41.44 0 015.95-22l9.78 9.78a39.76 39.76 0 0055.1 1.06l-27.05-27.04a24.18 24.18 0 00-5.18-4 25.17 25.17 0 00-30.39 4 25.18 25.18 0 000-35.57l-27-27.05a39.74 39.74 0 001.06 55.1l9.7 9.7a109 109 0 00-4.11 150.05 1 1 0 001.45 0l11.51-11.51a5 5 0 017 7l-31.34 31.34a44.33 44.33 0 0052.56 1.91 43.53 43.53 0 006.29-5.23c.73-.72 1.41-1.46 2.08-2.22a44.08 44.08 0 0010.84-27.8v-1.25-12.76a5 5 0 016.49-4.73c1.13.35 2.28.65 3.44.92a49.66 49.66 0 0054.86-25.36 5.93 5.93 0 015.23-3.22h7a59.68 59.68 0 01-56.17 39.72 58.68 58.68 0 01-10.92-1v6.5c0 1.19 0 2.37-.12 3.56a68.15 68.15 0 0011 .88 69.6 69.6 0 0065.31-45.73 5.89 5.89 0 015.51-3.93h6.09a79.56 79.56 0 01-76.92 59.57 78.07 78.07 0 01-12.59-1 52.22 52.22 0 01-3.38 9.5 88.58 88.58 0 0016 1.43 89.52 89.52 0 0086-65.18 5.86 5.86 0 015.64-4.32h5.6a99.35 99.35 0 01-118.54 77.13 53.31 53.31 0 01-5.45 6.36c-.68.69-1.38 1.34-2.09 2a109.22 109.22 0 00137.64-95.12 9.42 9.42 0 00-9.44-10.23zm-84.46 29.79a5 5 0 115-5 5 5 0 01-5 5z"/><path d="m43.43 70.121c.46072-.76495 4.0209-6.0035 7.9114-11.641l7.0738-10.25 9.6171-3.6531c9.2224-3.5032 9.9364-4.03 17.397-12.837 4.2788-5.0512 8.0617-9.1805 8.4064-9.1762.34473.0043.62678 4.9923.62678 11.084v11.077l-7.5104 7.5805c-4.1307 4.1693-7.5104 7.8813-7.5104 8.249s3.2215-.50087 7.1589-1.9301l7.1589-2.5985 5.1424 13.262h17.53c9.6415 0 17.53-.2703 17.53-.60066s-.99797-2.5568-2.2177-4.9477c-1.8862-3.6973-3.1441-4.6391-8.4157-6.3008-5.1309-1.6174-6.8792-2.8817-10.155-7.3438-2.1762-2.9645-3.7067-5.64-3.4012-5.9455.30549-.30548 2.1351 1.5957 4.0658 4.2248 2.8585 3.8926 4.7945 5.206 10.426 7.0732 6.633 2.1992 7.0662 2.5746 10.593 9.1794l3.6775 6.8864h-47.971c-38.082 0-47.799-.28672-47.134-1.3908z" stop-color="#000000" stroke-width="1.1127" style="-inkscape-stroke:none;font-variation-settings:normal"/></g></svg>
