<?xml version="1.0" encoding="UTF-8"?>
<svg version="1.1" viewBox="0 0 24 24" xmlns="http://www.w3.org/2000/svg"><g transform="matrix(1.0299 0 0 1.0299 -.35929 -.25929)"><path d="m10.893 16.428v2.2148h2.2148v-2.2148zm-9.9629 3.3223v2.2129h7.75v-2.2129zm14.391 0v2.2129h7.75v-2.2129z" fill="#4cae4f"/><path d="m6.4648.92969c-1.2228 6e-8-2.2148.99205-2.2148 2.2148v11.07c1e-7 1.2228.99205 2.2129 2.2148 2.2129h11.07c1.2228 0 2.2148-.9901 2.2148-2.2129v-11.07c0-1.2228-.99205-2.2148-2.2148-2.2148zm0 2.2148h2.2148v11.07h-2.2148zm4.4277 0h4.4277c1.2228 1e-7 2.2148.9901 2.2148 2.2129v2.2148c0 1.2228-.99205 2.2129-2.2148 2.2129h-2.2129v4.4297h-2.2148zm2.2148 2.2129v2.2148h2.2129v-2.2148z" fill="#0091eb" stroke="#4cae4f" stroke-linecap="round" stroke-linejoin="round" stroke-width=".38837" style="paint-order:normal"/><path d="m9.7852 18.643c-.6114 0-1.1055.49602-1.1055 1.1074v2.2129c-2e-7.6114.49407 1.1074 1.1055 1.1074h4.4297c.6114 0 1.1055-.49602 1.1055-1.1074v-2.2129c1e-6-.6114-.49407-1.1074-1.1055-1.1074h-3.3223z" fill="#0091eb" fill-opacity=".98824"/></g></svg>
