<?xml version="1.0" encoding="UTF-8"?>
<svg version="1.1" viewBox="0 0 24 24" xmlns="http://www.w3.org/2000/svg"><path d="m10.886 8.6553v2.2297h-10.034v2.2297h4.4595v2.2297h2.2297v-2.2297h8.9191v2.2297h2.2297v-2.2297h4.4595v-2.2297h-10.034v-2.2297" fill="#4cae4f" stroke="#4cae4f" stroke-linecap="round" stroke-linejoin="round" stroke-width=".38264"/><path d="m9.7711.8516c-1.2375 0-2.2308.99151-2.2308 2.229v3.3443c0 1.2375.99332 2.2308 2.2308 2.2308h4.4597c1.2375 0 2.229-.99332 2.229-2.2308v-3.3443c0-1.2375-.99151-2.229-2.229-2.229zm0 2.229h4.4597v3.3443h-4.4597zm-5.5751 12.263c-1.2375 0-2.229.99151-2.229 2.229v3.3462c0 1.2375.99151 2.229 2.229 2.229h4.4597c1.2375 0 2.229-.99151 2.229-2.229v-3.3462c0-1.2375-.99151-2.229-2.229-2.229h-3.3443zm11.148 0c-1.2375 0-2.229.99151-2.229 2.229v3.3462c0 1.2375.99151 2.229 2.229 2.229h4.4597c1.2375 0 2.2308-.99151 2.2308-2.229v-3.3462c0-1.2375-.99332-2.229-2.2308-2.229h-3.3443zm-11.148 2.2308h4.4597v3.3443h-4.4597zm11.15 0h4.4579v3.3443h-4.4579z" fill="#0091eb" stroke="#4cae4f" stroke-linecap="round" stroke-linejoin="round" stroke-width=".7"/></svg>
