<?xml version="1.0" encoding="UTF-8"?>
<svg version="1.1" viewBox="0 0 24 24" xmlns="http://www.w3.org/2000/svg"><path d="m10.835 8.5035v2.3309h-10.489v2.3309h4.6619v2.3309h2.3309v-2.3309h9.3238v2.3309h2.3309v-2.3309h4.6619v-2.3309h-10.489v-2.3309" fill="#4cae4f" stroke="#4cae4f" stroke-linecap="round" stroke-linejoin="round" stroke-width=".4"/><path d="m9.6699.3457c-1.2937 0-2.332 1.0365-2.332 2.3301v3.4961c0 1.2937 1.0384 2.332 2.332 2.332h4.6621c1.2937 0 2.3301-1.0384 2.3301-2.332v-3.4961c0-1.2937-1.0365-2.3301-2.3301-2.3301zm0 2.3301h4.6621v3.4961h-4.6621zm-5.8281 12.82c-1.2937 0-2.3301 1.0365-2.3301 2.3301v3.498c0 1.2937 1.0365 2.3301 2.3301 2.3301h4.6621c1.2937 0 2.3301-1.0365 2.3301-2.3301v-3.498c0-1.2937-1.0365-2.3301-2.3301-2.3301h-3.4961zm11.654 0c-1.2937 0-2.3301 1.0365-2.3301 2.3301v3.498c0 1.2937 1.0365 2.3301 2.3301 2.3301h4.6621c1.2937 0 2.332-1.0365 2.332-2.3301v-3.498c0-1.2937-1.0384-2.3301-2.332-2.3301h-3.4961zm-11.654 2.332h4.6621v3.4961h-4.6621zm11.656 0h4.6602v3.4961h-4.6602z" fill="#0091eb" stroke="#4cae4f" stroke-linecap="round" stroke-linejoin="round" stroke-width=".4"/></svg>
