<?xml version="1.0" encoding="UTF-8"?>
<svg version="1.1" viewBox="0 0 124 40" xmlns="http://www.w3.org/2000/svg"><g transform="translate(0)"><rect transform="translate(0)" width="124" height="40" fill="#0d0d0d"/><path transform="translate(0)" d="m0 40v-40h124v40zm25.861-14.9h-9.931v-16.659h-4.43v20.664h14.361zm15.128-9.558a7.986 7.986 0 00-6.289-2.611 8.148 8.148 0 00-8.424 8.224c0 4.8 3.631 8.224 8.908 8.224a10.475 10.475 0 007.393-3.039l-2.763-2.122a6.638 6.638 0 01-4.56 1.682 4.86 4.86 0 01-3.526-1.287l11.172-4.633a8.622 8.622 0 00-1.906-4.439zm19.495 3.71a6.126 6.126 0 00-6.463-6.316 6.613 6.613 0 00-5.185 2.547v-2.291h-4.371v15.908h4.371v-9.053a3.411 3.411 0 013.6-3.363 3.5 3.5 0 013.677 3.363v9.053h4.371v-9.85zm10.307-6.316a8.23 8.23 0 108.521 8.224 8.316 8.316 0 00-8.521-8.229zm20.739.264-3.949 10.834-3.952-10.834h-4.987l6.545 15.9h4.786l6.545-15.9zm12.892-.269a8.23 8.23 0 108.521 8.224 8.316 8.316 0 00-8.521-8.224zm0 12.7a4.333 4.333 0 01-4.27-4.478 4.186 4.186 0 014.208-4.479 4.333 4.333 0 014.27 4.479 4.217 4.217 0 01-4.209 4.476zm-33.63 0a4.333 4.333 0 01-4.27-4.478 4.187 4.187 0 014.212-4.479 4.333 4.333 0 014.266 4.477 4.217 4.217 0 01-4.209 4.478zm-39.366-7.64a4.064 4.064 0 013.36-1.584 3.658 3.658 0 013.387 2.224l-7.635 3.169a5.12 5.12 0 01.883-3.808z" fill="#e1251b"/></g></svg>
