<?xml version="1.0" encoding="UTF-8"?>
<svg version="1.1" viewBox="0 0 120 120" xmlns="http://www.w3.org/2000/svg"><defs><filter id="filter39" x="-.039568" y="-.034383" width="1.0792" height="1.0687" color-interpolation-filters="sRGB"><feFlood flood-color="rgb(0,0,0)" flood-opacity=".49804" in="SourceGraphic" result="flood"/><feGaussianBlur in="SourceGraphic" result="blur" stdDeviation="0.500000"/><feOffset dx="0.000000" dy="0.000000" in="blur" result="offset"/><feComposite in="flood" in2="offset" operator="in" result="comp1"/><feComposite in="SourceGraphic" in2="comp1" result="comp2"/></filter></defs><g transform="matrix(.95617 0 0 .95617 5.1288 .85056)" stroke-linecap="round" stroke-linejoin="round"><path d="m26.25 3.75h67.5a11.25 11.25 0 0111.25 11.25v90a11.25 11.25 0 01-11.25 11.25h-67.5a11.25 11.25 0 01-11.25-11.25v-90a11.25 11.25 0 0111.25-11.25m33.75 11.25a33.75 33.75 0 00-33.75 33.75c0 18.619 15.131 33.75 34.312 33.75l-4.95-12.544c-1.5188-2.7-.61875-6.1312 2.0812-7.7062l4.8375-2.8125c2.7-1.5188 6.1312-.61875 7.7062 2.0812l10.8 13.612c7.7625-6.1875 12.712-15.694 12.712-26.381a33.75 33.75 0 00-33.75-33.75m0 28.125a5.625 5.625 0 015.625 5.625 5.625 5.625 0 01-5.625 5.625 5.625 5.625 0 01-5.625-5.625 5.625 5.625 0 015.625-5.625m-28.125 50.625a5.625 5.625 0 00-5.625 5.625 5.625 5.625 0 005.625 5.625 5.625 5.625 0 005.625-5.625 5.625 5.625 0 00-5.625-5.625m28.631-26.606 14.006 35.494 14.569-8.4375-23.738-29.869z" fill="#0091eb" stroke="#4cae4f" stroke-width="2.0917"/><path d="m51.212 91.521a4.5167 4.5167 0 011.9327 6.0882l-10.389 20.052a4.5167 4.5167 0 01-6.0882 1.9327l-24.063-12.466c-2.2258-1.1531-3.0755-3.8824-1.9327-6.0882l10.389-20.052a4.5167 4.5167 0 016.0882-1.9327l18.047 9.3498 2.0777-4.0105a6.7751 6.7751 0 00-2.8991-9.1323 6.7751 6.7751 0 00-9.1323 2.8991l-4.0105-2.0777a11.292 11.292 0 0115.22-4.8318 11.292 11.292 0 014.8318 15.22l-2.0777 4.0105 2.0052 1.0389m-21.381 11.814a4.5167 4.5167 0 006.0882-1.9327 4.5167 4.5167 0 00-1.9327-6.0882 4.5167 4.5167 0 00-6.0882 1.9327 4.5167 4.5167 0 001.9327 6.0882z" fill="#4cae4f" filter="url(#filter39)" stroke="#0091eb" stroke-width="1.0458" style="paint-order:normal"/></g></svg>
