<?xml version="1.0" encoding="UTF-8"?>
<svg version="1.1" viewBox="0 0 120 120" xmlns="http://www.w3.org/2000/svg"><defs><filter id="filter39" x="-.045553" y="-.039579" width="1.0911" height="1.0791" color-interpolation-filters="sRGB"><feFlood flood-color="rgb(0,0,0)" flood-opacity=".49804" in="SourceGraphic" result="flood"/><feGaussianBlur in="SourceGraphic" result="blur" stdDeviation="0.500000"/><feOffset dx="0.000000" dy="0.000000" in="blur" result="offset"/><feComposite in="flood" in2="offset" operator="in" result="comp1"/><feComposite in="SourceGraphic" in2="comp1" result="comp2"/></filter></defs><path d="m30.228 4.4362h64.541a10.757 10.757 0 0110.757 10.757v86.055a10.757 10.757 0 01-10.757 10.757h-64.541a10.757 10.757 0 01-10.757-10.757v-86.055a10.757 10.757 0 0110.757-10.757m32.271 10.757a32.271 32.271 0 00-32.271 32.271c0 17.803 14.468 32.271 32.808 32.271l-4.733-11.994c-1.4522-2.5817-.59163-5.8625 1.99-7.3684l4.6255-2.6892c2.5817-1.4522 5.8625-.59163 7.3684 1.99l10.327 13.015c7.4223-5.9163 12.155-15.006 12.155-25.225a32.271 32.271 0 00-32.271-32.271m0 26.892a5.3785 5.3785 0 015.3785 5.3785 5.3785 5.3785 0 01-5.3785 5.3785 5.3785 5.3785 0 01-5.3785-5.3785 5.3785 5.3785 0 015.3785-5.3785m-26.892 48.406a5.3785 5.3785 0 00-5.3785 5.3785 5.3785 5.3785 0 005.3785 5.3785 5.3785 5.3785 0 005.3785-5.3785 5.3785 5.3785 0 00-5.3785-5.3785m27.376-25.44 13.392 33.938 13.93-8.0677-22.698-28.56z" fill="#0091eb" stroke="#4cae4f" stroke-linecap="round" stroke-linejoin="round" stroke-width="3"/><path transform="matrix(.95617 0 0 .95617 5.1288 .85056)" d="m51.212 91.521a4.5167 4.5167 0 011.9327 6.0882l-10.389 20.052a4.5167 4.5167 0 01-6.0882 1.9327l-24.063-12.466c-2.2258-1.1531-3.0755-3.8824-1.9327-6.0882l10.389-20.052a4.5167 4.5167 0 016.0882-1.9327l18.047 9.3498 2.0777-4.0105a6.7751 6.7751 0 00-2.8991-9.1323 6.7751 6.7751 0 00-9.1323 2.8991l-4.0105-2.0777a11.292 11.292 0 0115.22-4.8318 11.292 11.292 0 014.8318 15.22l-2.0777 4.0105 2.0052 1.0389m-21.381 11.814a4.5167 4.5167 0 006.0882-1.9327 4.5167 4.5167 0 00-1.9327-6.0882 4.5167 4.5167 0 00-6.0882 1.9327 4.5167 4.5167 0 001.9327 6.0882z" fill="#4cae4f" filter="url(#filter39)" stroke="#0091eb" stroke-linecap="round" stroke-linejoin="round" stroke-width="1.5688" style="paint-order:normal"/></svg>
