<?xml version="1.0" encoding="UTF-8" standalone="no"?>
<!-- Created with Inkscape (http://www.inkscape.org/) -->

<svg
   width="120"
   height="120"
   viewBox="0 0 120 120"
   version="1.1"
   id="svg1"
   xml:space="preserve"
   inkscape:version="1.4.3 (0d15f75042, 2025-12-25)"
   sodipodi:docname="lock-harddisk.svg"
   xmlns:inkscape="http://www.inkscape.org/namespaces/inkscape"
   xmlns:sodipodi="http://sodipodi.sourceforge.net/DTD/sodipodi-0.dtd"
   xmlns="http://www.w3.org/2000/svg"
   xmlns:svg="http://www.w3.org/2000/svg"><sodipodi:namedview
     id="namedview1"
     pagecolor="#505050"
     bordercolor="#ffffff"
     borderopacity="1"
     inkscape:showpageshadow="0"
     inkscape:pageopacity="0"
     inkscape:pagecheckerboard="1"
     inkscape:deskcolor="#505050"
     inkscape:document-units="px"
     inkscape:zoom="4.8583333"
     inkscape:cx="53.207548"
     inkscape:cy="49.399657"
     inkscape:window-width="2560"
     inkscape:window-height="1368"
     inkscape:window-x="0"
     inkscape:window-y="0"
     inkscape:window-maximized="1"
     inkscape:current-layer="layer1" /><defs
     id="defs1"><linearGradient
       id="swatch16"
       inkscape:swatch="solid"><stop
         style="stop-color:#000000;stop-opacity:1;"
         offset="0"
         id="stop16" /></linearGradient><filter
       style="color-interpolation-filters:sRGB;"
       inkscape:label="Drop Shadow"
       id="filter16"
       x="-0.067162998"
       y="-0.06830469"
       width="1.1458481"
       height="1.1266043"><feFlood
         result="flood"
         in="SourceGraphic"
         flood-opacity="1.000000"
         flood-color="rgb(0,0,0)"
         id="feFlood15" /><feGaussianBlur
         result="blur"
         in="SourceGraphic"
         stdDeviation="1.000000"
         id="feGaussianBlur15" /><feOffset
         result="offset"
         in="blur"
         dx="0.500000"
         dy="-0.500000"
         id="feOffset15" /><feComposite
         result="comp1"
         operator="in"
         in="flood"
         in2="offset"
         id="feComposite15" /><feComposite
         result="comp2"
         operator="over"
         in="SourceGraphic"
         in2="comp1"
         id="feComposite16" /></filter><filter
       style="color-interpolation-filters:sRGB;"
       inkscape:label="Drop Shadow"
       id="filter2"
       x="-0.018666666"
       y="-0.014933334"
       width="1.054"
       height="1.0432"><feFlood
         result="flood"
         in="SourceGraphic"
         flood-opacity="0.498039"
         flood-color="rgb(0,0,0)"
         id="feFlood1" /><feGaussianBlur
         result="blur"
         in="SourceGraphic"
         stdDeviation="0.700000"
         id="feGaussianBlur1" /><feOffset
         result="offset"
         in="blur"
         dx="1.500000"
         dy="1.500000"
         id="feOffset1" /><feComposite
         result="comp1"
         operator="in"
         in="flood"
         in2="offset"
         id="feComposite1" /><feComposite
         result="comp2"
         operator="over"
         in="SourceGraphic"
         in2="comp1"
         id="feComposite2" /></filter></defs><g
     inkscape:label="Layer 1"
     inkscape:groupmode="layer"
     id="layer1"
     transform="matrix(0.95616928,0,0,0.95616928,5.1287957,0.85056479)"><path
       d="m 26.25,3.7500047 h 67.5 A 11.249999,11.249999 0 0 1 105,15.000005 V 105.00001 A 11.249999,11.249999 0 0 1 93.75,116.25 H 26.25 A 11.249999,11.249999 0 0 1 15,105.00001 V 15.000005 A 11.249999,11.249999 0 0 1 26.25,3.7500047 M 60,15.000005 A 33.749999,33.749999 0 0 0 26.25,48.750004 c 0,18.618751 15.13125,33.750002 34.3125,33.750002 l -4.95,-12.543751 c -1.51875,-2.7 -0.61875,-6.13125 2.08125,-7.70625 l 4.8375,-2.8125 c 2.7,-1.518751 6.13125,-0.61875 7.70625,2.08125 l 10.8,13.6125 C 88.8,68.943755 93.75,59.437505 93.75,48.750004 A 33.749999,33.749999 0 0 0 60,15.000005 m 0,28.124999 a 5.6250001,5.6250001 0 0 1 5.625,5.625 5.6250001,5.6250001 0 0 1 -5.625,5.625 5.6250001,5.6250001 0 0 1 -5.625,-5.625 5.6250001,5.6250001 0 0 1 5.625,-5.625 M 31.875,93.750005 a 5.6250001,5.6250001 0 0 0 -5.625,5.625005 5.6250001,5.6250001 0 0 0 5.625,5.625 5.6250001,5.6250001 0 0 0 5.625,-5.625 5.6250001,5.6250001 0 0 0 -5.625,-5.625005 M 60.50625,67.143755 74.5125,102.63751 89.08125,94.200004 65.34375,64.331255 Z"
       id="path1"
       style="fill:#0091eb;stroke-width:1.04583992;stroke:none;stroke-opacity:1;stroke-dasharray:none;fill-opacity:1;filter:url(#filter2)" /><path
       d="m 51.317459,90.8934 a 4.5167078,4.5167078 0 0 1 1.932732,6.088172 L 42.861573,117.03384 a 4.5167078,4.5167078 0 0 1 -6.088178,1.93273 L 12.710687,106.50021 c -2.2258,-1.15314 -3.0754753,-3.88241 -1.932725,-6.08817 L 21.166577,80.359781 a 4.5167078,4.5167078 0 0 1 6.088174,-1.932723 l 18.04703,9.349754 2.077722,-4.010451 a 6.7750618,6.7750618 0 0 0 -2.899091,-9.13226 6.7750618,6.7750618 0 0 0 -9.132262,2.899091 l -4.010451,-2.077724 a 11.291771,11.291771 0 0 1 15.220436,-4.831818 11.291771,11.291771 0 0 1 4.831819,15.220434 l -2.077725,4.010451 2.00523,1.038865 m -21.381107,11.81386 a 4.5167078,4.5167078 0 0 0 6.088169,-1.93273 4.5167078,4.5167078 0 0 0 -1.932725,-6.088178 4.5167078,4.5167078 0 0 0 -6.088174,1.932727 4.5167078,4.5167078 0 0 0 1.93273,6.088181 z"
       id="path1-6"
       style="fill:#4cae4f;fill-opacity:1;stroke:#0091eb;stroke-opacity:1;paint-order:fill markers stroke;stroke-width:1.04583992;stroke-dasharray:none;filter:url(#filter16)" /></g></svg>
