<?xml version="1.0" encoding="UTF-8"?>
<svg version="1.1" viewBox="0 0 24 17" xmlns="http://www.w3.org/2000/svg"><g transform="matrix(1.1753 0 0 1.1753 -2.1033 -5.6033)" stroke-linecap="round" stroke-linejoin="round"><path d="m8 8v8h3v-8h-3m4 0v8h3v-8h-3m4 0v8h3v-8h-3m-7 1h1v1h-1v-1m4 0h1v1h-1v-1m4 0h1v1h-1z" fill="#4cae4f" stroke="#0091eb" stroke-width=".17017"/><path d="m4 5c-1.11 0-2 .89-2 2v10c0 1.11.89 2 2 2h16c1.11 0 2-.89 2-2v-10c0-1.11-.89-2-2-2h-16m.5 2c.55228 0 1 .44772 1 1s-.44772 1-1 1-1-.44772-1-1 .44772-1 1-1m2.5 0h13v10h-13v-10" fill="#0091eb" stroke="#4cae4f" stroke-width=".34035" style="paint-order:normal"/></g></svg>
