<?xml version="1.0" encoding="UTF-8" standalone="no"?>
<svg
   id="mdi-cog-sync"
   viewBox="0 0 24 24"
   version="1.1"
   sodipodi:docname="nebula-sync-dark.svg"
   xml:space="preserve"
   inkscape:version="1.4.3 (0d15f75042, 2025-12-25)"
   xmlns:inkscape="http://www.inkscape.org/namespaces/inkscape"
   xmlns:sodipodi="http://sodipodi.sourceforge.net/DTD/sodipodi-0.dtd"
   xmlns="http://www.w3.org/2000/svg"
   xmlns:svg="http://www.w3.org/2000/svg"><defs
     id="defs1"><filter
       style="color-interpolation-filters:sRGB;"
       inkscape:label="Drop Shadow"
       id="filter4"
       x="-0.036560647"
       y="-0.032727274"
       width="1.0985106"
       height="1.0881818"><feFlood
         result="flood"
         in="SourceGraphic"
         flood-opacity="0.498039"
         flood-color="rgb(0,0,0)"
         id="feFlood3" /><feGaussianBlur
         result="blur"
         in="SourceGraphic"
         stdDeviation="0.300000"
         id="feGaussianBlur3" /><feOffset
         result="offset"
         in="blur"
         dx="0.500000"
         dy="0.500000"
         id="feOffset3" /><feComposite
         result="comp1"
         operator="in"
         in="flood"
         in2="offset"
         id="feComposite3" /><feComposite
         result="comp2"
         operator="over"
         in="SourceGraphic"
         in2="comp1"
         id="feComposite4" /></filter></defs><sodipodi:namedview
     id="namedview1"
     pagecolor="#505050"
     bordercolor="#ffffff"
     borderopacity="1"
     inkscape:showpageshadow="0"
     inkscape:pageopacity="0"
     inkscape:pagecheckerboard="1"
     inkscape:deskcolor="#505050"
     inkscape:zoom="34.176828"
     inkscape:cx="10.02141"
     inkscape:cy="11.937913"
     inkscape:window-width="2560"
     inkscape:window-height="1368"
     inkscape:window-x="0"
     inkscape:window-y="0"
     inkscape:window-maximized="1"
     inkscape:current-layer="mdi-cog-sync" /><g
     id="g3"
     inkscape:label="Cog-Sync"><circle
       style="display:inline;fill:#0091eb;fill-opacity:1;stroke:#4cae4f;stroke-width:0.6;stroke-linecap:round;stroke-linejoin:round;paint-order:markers fill stroke"
       id="path3"
       cx="12"
       cy="10.826049"
       r="3.4818914"
       inkscape:label="center" /><path
       d="M 17.892577,13.5 V 12 l -2.2,2.2 2.2,2.2 V 15 c 1.4,0 2.5,1.1 2.5,2.5 0,0.4 -0.1,0.8 -0.3,1.1 l 1.1,1.1 c 1.2,-1.8 0.7,-4.3 -1.1,-5.5 -0.6,-0.5 -1.4,-0.7 -2.2,-0.7 m 0,6.5 c -1.4,0 -2.5,-1.1 -2.5,-2.5 0,-0.4 0.1,-0.8 0.3,-1.1 l -1.1,-1.1 c -1.2,1.8 -0.7,4.3 1.1,5.5 0.7,0.4 1.4,0.7 2.2,0.7 V 23 l 2.2,-2.2 -2.2,-2.3 z"
       id="path1"
       sodipodi:nodetypes="cccccscccccscccccccc"
       inkscape:label="sync"
       style="display:inline;fill:#0091eb;fill-opacity:1" /><path
       d="m 11.392577,17.5 c 0,-1.1 0.3,-2.1 0.7,-3 h -0.2 c -1.8999999,0 -3.4999999,-1.6 -3.4999999,-3.5 0,-1.9 1.6,-3.5 3.4999999,-3.5 1.9,0 3.5,1.6 3.5,3.5 0,0.2 0,0.4 -0.1,0.5 0.8,-0.3 1.6,-0.5 2.6,-0.5 0.5,0 1,0.1 1.5,0.2 V 11 c 0,-0.3 0,-0.7 -0.1,-1 l 2.1,-1.6 c 0.2,-0.2 0.2,-0.4 0.1,-0.6 l -2,-3.5 c -0.1,-0.3 -0.3,-0.3 -0.6,-0.3 l -2.5,1 c -0.5,-0.4 -1.1,-0.7 -1.7,-1 l -0.4,-2.7 c 0.1,-0.1 -0.2,-0.3 -0.4,-0.3 H 9.8925771 c -0.2,0 -0.5,0.2 -0.5,0.4 l -0.4,2.7 c -0.6,0.2 -1.1,0.6 -1.7,0.9 l -2.4,-1 c -0.3,0 -0.5,0 -0.7,0.3 l -2,3.5 c -0.1,0.2 0,0.4 0.2,0.6 l 2.1,1.6 c 0,0.3 -0.1,0.7 -0.1,1 0,0.3 0,0.7 0.1,1 l -2.1,1.7 c -0.2,0.2 -0.2,0.4 -0.1,0.6 l 2,3.5 c 0.1,0.2 0.3,0.2 0.6,0.2 l 2.5,-1 c 0.5,0.4 1.1,0.7 1.7,1 l 0.4,2.7 c 0,0.2 0.2,0.4 0.5,0.4 h 2.4999999 c -0.7,-1.1 -1.1,-2.3 -1.1,-3.6"
       id="path2"
       sodipodi:nodetypes="ccsssscscsccccccccssccccccccsccccccccscc"
       inkscape:label="cog"
       style="display:inline;fill:#4cae4f;fill-opacity:1" /></g></svg>
