<svg version="1.1" viewBox="0 0 24 24" xmlns="http://www.w3.org/2000/svg"><path d="m18.411 13.632v-1.6319l-2.3935 2.3935 2.3935 2.3935v-1.5231c1.5231 0 2.7199 1.1967 2.7199 2.7199 0 .43518-.1088.87036-.32638 1.1967l1.1967 1.1967c1.3055-1.9583.76156-4.6782-1.1967-5.9837-.65277-.54397-1.5231-.76156-2.3935-.76156m0 7.0717c-1.5231 0-2.7199-1.1967-2.7199-2.7199 0-.43518.10879-.87036.32638-1.1967l-1.1967-1.1967c-1.3055 1.9583-.76156 4.6782 1.1967 5.9837.76156.43518 1.5231.76156 2.3935.76156v1.6319l2.3935-2.3935-2.3935-2.5023z" fill="#4cae4f"/><path d="m11.339 17.984c0-1.1967.32638-2.2847.76156-3.2638h-.21759c-2.0671 0-3.8078-1.7407-3.8078-3.8078s1.7407-3.8078 3.8078-3.8078 3.8078 1.7407 3.8078 3.8078c0 .21759 0 .43518-.1088.54397.87036-.32638 1.7407-.54397 2.8287-.54397.54397 0 1.0879.10879 1.6319.21759v-.21759c0-.32638 0-.76156-.10879-1.0879l2.2847-1.7407c.21759-.21759.21759-.43518.1088-.65277l-2.1759-3.8078c-.1088-.32638-.32638-.32638-.65277-.32638l-2.7199 1.0879c-.54397-.43518-1.1967-.76156-1.8495-1.0879l-.43518-2.9375c.10879-.10879-.21759-.32638-.43518-.32638h-4.3518c-.21759 0-.54397.21759-.54397.43518l-.43518 2.9375c-.65277.21759-1.1967.65277-1.8495.97915l-2.6111-1.0879c-.32638 0-.54397 0-.76156.32638l-2.1759 3.8078c-.10879.21759 0 .43518.21759.65277l2.2847 1.7407c0 .32638-.10879.76156-.10879 1.0879s0 .76156.10879 1.0879l-2.2847 1.8495c-.21759.21759-.21759.43518-.10879.65277l2.1759 3.8078c.10879.21759.32638.21759.65277.21759l2.7199-1.0879c.54397.43518 1.1967.76156 1.8495 1.0879l.43518 2.9375c0 .21759.21759.43518.54397.43518h2.7199c-.76156-1.1967-1.1967-2.5023-1.1967-3.9166" fill="#0091eb"/></svg>
