<?xml version="1.0" encoding="UTF-8" standalone="no"?>
<svg
   id="mdi-cog-sync"
   viewBox="0 0 24 24"
   version="1.1"
   sodipodi:docname="nebula-sync-light.svg"
   xml:space="preserve"
   inkscape:version="1.4.3 (0d15f75042, 2025-12-25)"
   xmlns:inkscape="http://www.inkscape.org/namespaces/inkscape"
   xmlns:sodipodi="http://sodipodi.sourceforge.net/DTD/sodipodi-0.dtd"
   xmlns="http://www.w3.org/2000/svg"
   xmlns:svg="http://www.w3.org/2000/svg"><defs
     id="defs1"><filter
       style="color-interpolation-filters:sRGB;"
       inkscape:label="Drop Shadow"
       id="filter4"
       x="-0.036560647"
       y="-0.032727274"
       width="1.0985106"
       height="1.0881818"><feFlood
         result="flood"
         in="SourceGraphic"
         flood-opacity="0.498039"
         flood-color="rgb(0,0,0)"
         id="feFlood3" /><feGaussianBlur
         result="blur"
         in="SourceGraphic"
         stdDeviation="0.300000"
         id="feGaussianBlur3" /><feOffset
         result="offset"
         in="blur"
         dx="0.500000"
         dy="0.500000"
         id="feOffset3" /><feComposite
         result="comp1"
         operator="in"
         in="flood"
         in2="offset"
         id="feComposite3" /><feComposite
         result="comp2"
         operator="over"
         in="SourceGraphic"
         in2="comp1"
         id="feComposite4" /></filter></defs><sodipodi:namedview
     id="namedview1"
     pagecolor="#505050"
     bordercolor="#ffffff"
     borderopacity="1"
     inkscape:showpageshadow="0"
     inkscape:pageopacity="0"
     inkscape:pagecheckerboard="1"
     inkscape:deskcolor="#505050"
     inkscape:zoom="34.176828"
     inkscape:cx="10.02141"
     inkscape:cy="11.937913"
     inkscape:window-width="2560"
     inkscape:window-height="1368"
     inkscape:window-x="0"
     inkscape:window-y="0"
     inkscape:window-maximized="1"
     inkscape:current-layer="mdi-cog-sync" /><g
     id="g3"
     inkscape:label="Cog-Sync"><circle
       style="display:inline;fill:#0091eb;fill-opacity:1;stroke:#4cae4f;stroke-width:0.6;stroke-linecap:round;stroke-linejoin:round;paint-order:markers fill stroke"
       id="path3"
       cx="12"
       cy="10.826049"
       r="3.4818914"
       inkscape:label="center" /><path
       d="M 17.892577,13.5 V 12 l -2.2,2.2 2.2,2.2 V 15 c 1.4,0 2.5,1.1 2.5,2.5 0,0.4 -0.1,0.8 -0.3,1.1 l 1.1,1.1 c 1.2,-1.8 0.7,-4.3 -1.1,-5.5 -0.6,-0.5 -1.4,-0.7 -2.2,-0.7 m 0,6.5 c -1.4,0 -2.5,-1.1 -2.5,-2.5 0,-0.4 0.1,-0.8 0.3,-1.1 l -1.1,-1.1 c -1.2,1.8 -0.7,4.3 1.1,5.5 0.7,0.4 1.4,0.7 2.2,0.7 V 23 l 2.2,-2.2 -2.2,-2.3 z"
       id="path1"
       sodipodi:nodetypes="cccccscccccscccccccc"
       inkscape:label="sync"
       style="display:inline;fill:#0091eb;fill-opacity:1" /><path
       d="m 11.392577,17.5 c 0,-1.1 0.3,-2.1 0.7,-3 h -0.2 c -1.8999999,0 -3.4999999,-1.6 -3.4999999,-3.5 0,-1.9 1.6,-3.5 3.4999999,-3.5 1.9,0 3.5,1.6 3.5,3.5 0,0.2 0,0.4 -0.1,0.5 0.8,-0.3 1.6,-0.5 2.6,-0.5 0.5,0 1,0.1 1.5,0.2 V 11 c 0,-0.3 0,-0.7 -0.1,-1 l 2.1,-1.6 c 0.2,-0.2 0.2,-0.4 0.1,-0.6 l -2,-3.5 c -0.1,-0.3 -0.3,-0.3 -0.6,-0.3 l -2.5,1 c -0.5,-0.4 -1.1,-0.7 -1.7,-1 l -0.4,-2.7 c 0.1,-0.1 -0.2,-0.3 -0.4,-0.3 H 9.8925771 c -0.2,0 -0.5,0.2 -0.5,0.4 l -0.4,2.7 c -0.6,0.2 -1.1,0.6 -1.7,0.9 l -2.4,-1 c -0.3,0 -0.5,0 -0.7,0.3 l -2,3.5 c -0.1,0.2 0,0.4 0.2,0.6 l 2.1,1.6 c 0,0.3 -0.1,0.7 -0.1,1 0,0.3 0,0.7 0.1,1 l -2.1,1.7 c -0.2,0.2 -0.2,0.4 -0.1,0.6 l 2,3.5 c 0.1,0.2 0.3,0.2 0.6,0.2 l 2.5,-1 c 0.5,0.4 1.1,0.7 1.7,1 l 0.4,2.7 c 0,0.2 0.2,0.4 0.5,0.4 h 2.4999999 c -0.7,-1.1 -1.1,-2.3 -1.1,-3.6"
       id="path2"
       sodipodi:nodetypes="ccsssscscsccccccccssccccccccsccccccccscc"
       inkscape:label="cog"
       style="display:inline;fill:#4cae4f;fill-opacity:1" /></g><path
     d="M 9.0904765,4.8000448 C 9.18093,6.6212211 10.327902,7.4816442 11.466516,7.603258 11.52922,6.9602221 9.8251026,5.4750048 9.8251026,5.4750048 c -0.003,-0.00421 0.00331,-0.00947 0.00723,-0.00535 0,0 1.7664484,1.523982 2.0609844,2.1453559 1.049683,-0.057008 1.974713,-0.7399484 1.900223,-1.8667821 0,0 -1.565785,-0.232968 -1.900223,1.7550486 C 11.802496,5.8462648 10.857326,4.8 9.0904999,4.8 Z m 2.9096225,2.9195075 v 7.6e-4 a 1.3985645,1.3985664 0 0 0 -0.984696,0.409309 L 9.3169834,9.826902 a 1.3997048,1.3997066 0 0 0 -0.3268376,0.515343 1.257948,1.2579498 0 0 0 -0.090072,0.476956 1.3989446,1.3989465 0 0 0 0.4093082,0.992678 l 1.69652,1.697284 a 1.402365,1.402367 0 0 0 0.85548,0.402847 l 7.58e-4,3.8e-4 c 0.03535,0.0038 0.07107,0.0056 0.106418,0.0066 l -0.03799,-0.0031 c 0.0228,0.001 0.04445,0.0033 0.06727,0.0033 l -0.02925,-3.8e-4 0.03154,0.0023 -0.0017,-0.002 a 1.3985645,1.3985664 0 0 0 0.991917,-0.409311 l 1.698442,-1.696912 a 1.3997048,1.3997066 0 0 0 0.382325,-0.717525 l 0.0045,-0.02394 a 1.3993247,1.3993267 0 0 0 0.02165,-0.205606 l 10e-4,-0.02319 c 0,-0.0066 10e-4,-0.01899 0.0017,-0.0228 h -7.31e-4 A 1.3997048,1.3997066 0 0 0 14.690038,9.829137 l -1.69728,-1.6980378 a 1.4038852,1.4038872 0 0 0 -0.59439,-0.3523018 l -0.0266,-0.00761 a 1.3035534,1.3035553 0 0 0 -0.359523,-0.050543 z m 1.202842,1.2758115 c 0.0088,0.6643189 -0.50546,1.1697792 -0.50546,1.8264972 0.06233,0.846361 0.658618,1.218804 1.241226,1.195622 -0.01329,10e-4 -0.02584,0.0025 -0.03951,0.0033 -0.701943,0.0513 -1.219565,-0.50394 -1.900986,-0.50394 -0.8475,0.06233 -1.219943,0.659758 -1.195999,1.24275 l -0.003,-0.03951 c -0.05057,-0.701907 0.504659,-1.219908 0.504659,-1.900951 -0.06574,-0.881706 -0.709542,-1.2480672 -1.3149544,-1.1903014 0.03801,-0.00424 0.07715,-0.00796 0.1178144,-0.01023 0.701942,-0.050541 1.219563,0.5046994 1.900981,0.5046994 0.791256,-0.05891 1.168261,-0.583748 1.195244,-1.1279741 z M 9.0904765,4.8000448 C 9.18093,6.6212211 10.327902,7.4816442 11.466516,7.603258 11.52922,6.9602221 9.8251026,5.4750048 9.8251026,5.4750048 c -0.003,-0.00421 0.00331,-0.00947 0.00723,-0.00535 0,0 1.7664484,1.523982 2.0609844,2.1453559 1.049683,-0.057008 1.974713,-0.7399484 1.900223,-1.8667821 0,0 -1.565785,-0.232968 -1.900223,1.7550486 C 11.802496,5.8462648 10.857326,4.8 9.0904999,4.8 Z m 2.9096225,2.9195075 v 7.6e-4 a 1.3985645,1.3985664 0 0 0 -0.984696,0.409309 L 9.3169834,9.826902 a 1.3997048,1.3997066 0 0 0 -0.3268376,0.515343 1.257948,1.2579498 0 0 0 -0.090072,0.476956 1.3989446,1.3989465 0 0 0 0.4093082,0.992678 l 1.69652,1.697284 a 1.402365,1.402367 0 0 0 0.85548,0.402847 l 7.58e-4,3.8e-4 c 0.03535,0.0038 0.07107,0.0056 0.106418,0.0066 l -0.03799,-0.0031 c 0.0228,0.001 0.04445,0.0033 0.06727,0.0033 l -0.02925,-3.8e-4 0.03154,0.0023 -0.0017,-0.002 a 1.3985645,1.3985664 0 0 0 0.991917,-0.409311 l 1.698442,-1.696912 a 1.3997048,1.3997066 0 0 0 0.382325,-0.717525 l 0.0045,-0.02394 a 1.3993247,1.3993267 0 0 0 0.02165,-0.205606 l 10e-4,-0.02319 c 0,-0.0066 10e-4,-0.01899 0.0017,-0.0228 h -7.31e-4 A 1.3997048,1.3997066 0 0 0 14.690038,9.829137 l -1.69728,-1.6980378 a 1.4038852,1.4038872 0 0 0 -0.59439,-0.3523018 l -0.0266,-0.00761 a 1.3035534,1.3035553 0 0 0 -0.359523,-0.050543 z m 1.202842,1.2758115 c 0.0088,0.6643189 -0.50546,1.1697792 -0.50546,1.8264972 0.06233,0.846361 0.658618,1.218804 1.241226,1.195622 -0.01329,10e-4 -0.02584,0.0025 -0.03951,0.0033 -0.701943,0.0513 -1.219565,-0.50394 -1.900986,-0.50394 -0.8475,0.06233 -1.219943,0.659758 -1.195999,1.24275 l -0.003,-0.03951 c -0.05057,-0.701907 0.504659,-1.219908 0.504659,-1.900951 -0.06574,-0.881706 -0.709542,-1.2480672 -1.3149544,-1.1903014 0.03801,-0.00424 0.07715,-0.00796 0.1178144,-0.01023 0.701942,-0.050541 1.219563,0.5046994 1.900981,0.5046994 0.791256,-0.05891 1.168261,-0.583748 1.195244,-1.1279741 z"
     id="path1-7"
     style="display:inline;stroke-width:0.380044;fill:#1a1a1a;fill-opacity:1"
     inkscape:label="pihole" /></svg>
