<?xml version="1.0" encoding="UTF-8"?>
<svg version="1.1" viewBox="0 0 24 24" xmlns="http://www.w3.org/2000/svg"><g transform="matrix(1.0416 0 0 1.0416 -.49976 -.49976)" stroke-linecap="round" stroke-linejoin="round"><path d="m17.893 13.5v-1.5l-2.2 2.2 2.2 2.2v-1.4c1.4 0 2.5 1.1 2.5 2.5 0 .4-.1.8-.3 1.1l1.1 1.1c1.2-1.8.7-4.3-1.1-5.5-.6-.5-1.4-.7-2.2-.7m0 6.5c-1.4 0-2.5-1.1-2.5-2.5 0-.4.1-.8.3-1.1l-1.1-1.1c-1.2 1.8-.7 4.3 1.1 5.5.7.4 1.4.7 2.2.7v1.5l2.2-2.2-2.2-2.3z" fill="#4cae4f" stroke="#0091eb" stroke-width=".28801"/><path d="m11.393 17.5c0-1.1.3-2.1.7-3h-.2c-1.9 0-3.5-1.6-3.5-3.5s1.6-3.5 3.5-3.5c1.9 0 3.5 1.6 3.5 3.5 0 .2 0 .4-.1.5.8-.3 1.6-.5 2.6-.5.5 0 1 .1 1.5.2v-.2c0-.3 0-.7-.1-1l2.1-1.6c.2-.2.2-.4.1-.6l-2-3.5c-.1-.3-.3-.3-.6-.3l-2.5 1c-.5-.4-1.1-.7-1.7-1l-.4-2.7c.1-.1-.2-.3-.4-.3h-4c-.2 0-.5.2-.5.4l-.4 2.7c-.6.2-1.1.6-1.7.9l-2.4-1c-.3 0-.5 0-.7.3l-2 3.5c-.1.2 0 .4.2.6l2.1 1.6c0 .3-.1.7-.1 1s0 .7.1 1l-2.1 1.7c-.2.2-.2.4-.1.6l2 3.5c.1.2.3.2.6.2l2.5-1c.5.4 1.1.7 1.7 1l.4 2.7c0 .2.2.4.5.4h2.5c-.7-1.1-1.1-2.3-1.1-3.6" fill="#0091eb" stroke="#4cae4f" stroke-width=".38401"/></g></svg>
