<?xml version="1.0" encoding="UTF-8"?>
<svg preserveAspectRatio="xMidYMid" version="1.1" viewBox="0 0 72 31" xmlns="http://www.w3.org/2000/svg"><path d="m15.803 12.731v11.011h-2.997v-10.913q0-2.5898-1.0099-3.8766-1.0099-1.2868-3.0296-1.2868-2.4269 0-3.8277 1.5474-1.4008 1.5474-1.4008 4.2186v10.31h-3.0133v-18.243h3.0133v2.8341q1.075-1.6451 2.5247-2.4595 1.4659-.8144 3.3716-.8144 3.1436 0 4.7561 1.9546 1.6125 1.9383 1.6125 5.7171zm8.9422-12.412v5.1796h6.1732v2.3292h-6.1732v9.9032q0 2.2315.60266 2.8667.61895.63524 2.4921.63524h3.0784v2.5084h-3.0784q-3.4694 0-4.7887-1.2868-1.3193-1.303-1.3193-4.7235v-9.9032h-2.1989v-2.3292h2.1989v-5.1796zm17.184 7.2808q-2.4106 0-3.8114 1.8894-1.4008 1.8731-1.4008 5.147 0 3.2739 1.3845 5.1633 1.4008 1.8731 3.8277 1.8731 2.3943 0 3.7951-1.8894 1.4008-1.8894 1.4008-5.147 0-3.2413-1.4008-5.1307-1.4008-1.9057-3.7951-1.9057zm0-2.5409q3.9091 0 6.1406 2.5409 2.2315 2.5409 2.2315 7.0365 0 4.4792-2.2315 7.0365-2.2315 2.5409-6.1406 2.5409-3.9254 0-6.1569-2.5409-2.2152-2.5572-2.2152-7.0365 0-4.4955 2.2152-7.0365 2.2315-2.5409 6.1569-2.5409zm16.239 15.946v9.6751h-3.0133v-25.181h3.0133v2.769q.94471-1.6288 2.3781-2.4106 1.4496-.79812 3.4531-.79812 3.3228 0 5.3914 2.6387 2.0849 2.6387 2.0849 6.9387 0 4.3001-2.0849 6.9387-2.0686 2.6387-5.3914 2.6387-2.0034 0-3.4531-.78183-1.4334-.79812-2.3781-2.4269zm10.196-6.3686q0-3.3065-1.3682-5.1796-1.3519-1.8894-3.73-1.8894t-3.7463 1.8894q-1.3519 1.8731-1.3519 5.1796 0 3.3065 1.3519 5.1959 1.3682 1.8731 3.7463 1.8731t3.73-1.8731q1.3682-1.8894 1.3682-5.1959z" fill="#ff7502"/></svg>
