<?xml version="1.0" encoding="UTF-8"?>
<svg version="1.1" viewBox="0 0 512 512" xmlns="http://www.w3.org/2000/svg"><path d="m502.41 311.72c-12.24 53.561-42.203 102.42-84.503 137.48-42.301 35.055-95.764 55.519-150.7 57.478h-.88126c-12.24 0-22.325-9.6939-22.815-21.934-.48959-12.533 9.3022-23.109 21.934-23.598 44.944-1.6646 88.714-18.409 123.28-47.098 34.663-28.69 59.142-68.64 69.13-112.51 2.7417-12.24 14.981-19.975 27.319-17.234 12.338 2.9375 20.073 15.177 17.234 27.417m-35.936-79.411c4.4063 4.1126 9.9876 6.1688 15.569 6.1688 6.0709 0 12.142-2.448 16.646-7.2459l.19584-.19583c8.6168-9.2043 8.0293-23.5-1.175-32.117s-23.696-8.0293-32.313 1.175c-8.6168 9.2043-8.1272 23.696 1.0771 32.215m-203.47 183.3h.78334c21.836-.78334 42.888-5.8751 62.667-15.177 19.779-9.3022 37.111-22.325 51.505-38.775 14.492-16.352 25.165-35.153 32.019-55.911 6.7563-20.759 9.2043-42.301 7.2459-64.038-1.9584-21.738-8.2251-42.496-18.702-61.688-10.379-19.192-24.382-35.74-41.517-49.253-17.136-13.513-36.523-23.207-57.674-28.788-19.975-5.2876-40.538-6.5605-61.199-3.9167-2.6438-.29375-5.3855-.29375-7.9314.39167-24.088 3.9167-109.86 26.242-139.44 143.16-3.0355 12.24 4.3084 24.577 16.548 27.711 1.8604.48959 3.7209.68542 5.5813.68542 10.183 0 19.486-6.8542 22.129-17.234 23.011-91.162 84.503-106.93 103.7-109.57.97917 0 1.8604.29375 2.8396.19583 15.471-2.2521 30.942-1.3708 45.923 2.6438 15.079 4.0146 28.984 10.967 41.223 20.563 12.24 9.6939 22.227 21.542 29.669 35.153 7.4418 13.708 11.946 28.592 13.317 44.063 1.4688 15.569-.29376 30.942-5.1896 45.728s-12.533 28.298-22.913 39.95c-10.281 11.652-22.619 20.954-36.719 27.613-14.1 6.6584-29.18 10.281-44.748 10.869-12.533.39167-22.423 10.967-22.032 23.598.5875 12.338 10.673 22.032 22.913 22.032m-61.492 50.134c-.78334 5.2876-3.4271 9.7918-7.0501 13.121-4.0146 7.6376-11.652 12.338-19.975 12.338-2.7417 0-5.5813-.48959-8.323-1.5667-36.523-14.296-69.62-37.405-95.666-66.682-26.144-29.277-45.238-64.822-55.226-102.81-9.9876-37.894-10.967-78.236-2.7417-116.62 8.2251-38.384 25.654-74.711 50.33-105.26 24.675-30.452 56.694-55.03 92.532-71.088 35.838-15.961 75.495-23.5 114.66-21.542 39.167 1.9584 77.943 13.219 112.02 32.705 34.075 19.486 63.451 47.099 85.091 79.803 6.9522 10.477 4.0146 24.675-6.4626 31.53-10.477 6.9522-24.675 4.0146-31.53-6.4626-17.723-26.83-41.713-49.449-69.62-65.311-27.907-15.961-59.534-25.165-91.651-26.732-32.019-1.6646-64.528 4.5042-93.805 17.625-29.277 13.121-55.519 33.194-75.691 58.163-20.171 24.969-34.467 54.736-41.223 86.07-6.7563 31.334-5.973 64.332 2.2521 95.47 8.2251 31.04 23.794 60.122 45.14 84.111 15.765 17.625 34.565 32.509 55.324 43.769l30.942-205.43c1.2729-8.1272 6.8542-14.296 13.904-17.234 1.0771-1.2729 1.8604-2.7417 3.0354-4.0146 25.654-27.613 69.032-29.277 96.645-3.623 13.415 12.436 21.15 29.277 21.836 47.588.68543 18.213-5.7772 35.642-18.213 49.057-12.436 13.415-29.277 21.15-47.588 21.836-.88127 0-1.7625.0979-2.6438.0979-11.946 0-23.402-3.2313-33.586-9.1064zm39.559-225.02c-4.1126 4.4063-6.2667 10.281-6.0709 16.352.19583 6.0709 2.8396 11.75 7.2459 15.863 4.5042 4.1126 10.086 6.2667 16.352 6.0709 6.0709-.19584 11.652-2.8396 15.863-7.2459 4.1126-4.5042 6.2668-10.281 6.0709-16.352s-2.8396-11.75-7.2459-15.863c-9.2043-8.6168-23.696-8.0293-32.215 1.175m-119.07 107.71c2.1542 0 4.4063-.29376 6.5605-.97918l.19583-.0979c12.044-3.623 18.8-16.254 15.177-28.396-3.623-12.044-16.548-18.8-28.494-15.275-12.044 3.623-18.898 16.352-15.275 28.396 3.0355 9.9876 12.044 16.352 21.836 16.352" stroke-width=".97918"/></svg>
