<?xml version="1.0" encoding="UTF-8" standalone="no"?>
<svg
   xml:space="preserve"
   viewBox="0 0 512 512"
   version="1.1"
   id="svg1"
   sodipodi:docname="portracker-dark.svg"
   inkscape:version="1.4.3 (0d15f75042, 2025-12-25)"
   xmlns:inkscape="http://www.inkscape.org/namespaces/inkscape"
   xmlns:sodipodi="http://sodipodi.sourceforge.net/DTD/sodipodi-0.dtd"
   xmlns="http://www.w3.org/2000/svg"
   xmlns:svg="http://www.w3.org/2000/svg"><defs
     id="defs1"><filter
       style="color-interpolation-filters:sRGB;"
       inkscape:label="Drop Shadow"
       id="filter20"
       x="-0.070784011"
       y="-0.070311059"
       width="1.1445174"
       height="1.1435517"><feFlood
         result="flood"
         in="SourceGraphic"
         flood-opacity="0.498039"
         flood-color="rgb(0,0,0)"
         id="feFlood19" /><feGaussianBlur
         result="blur"
         in="SourceGraphic"
         stdDeviation="15.000000"
         id="feGaussianBlur19" /><feOffset
         result="offset"
         in="blur"
         dx="1.500000"
         dy="1.500000"
         id="feOffset19" /><feComposite
         result="comp1"
         operator="in"
         in="flood"
         in2="offset"
         id="feComposite19" /><feComposite
         result="comp2"
         operator="over"
         in="SourceGraphic"
         in2="comp1"
         id="feComposite20" /></filter></defs><sodipodi:namedview
     id="namedview1"
     pagecolor="#505050"
     bordercolor="#ffffff"
     borderopacity="1"
     inkscape:showpageshadow="0"
     inkscape:pageopacity="0"
     inkscape:pagecheckerboard="1"
     inkscape:deskcolor="#505050"
     inkscape:zoom="1.6103252"
     inkscape:cx="103.39526"
     inkscape:cy="284.4146"
     inkscape:window-width="2560"
     inkscape:window-height="1368"
     inkscape:window-x="0"
     inkscape:window-y="0"
     inkscape:window-maximized="1"
     inkscape:current-layer="svg1" /><path
     d="m 507.7,312.8 c -12.5,54.7 -43.1,104.6 -86.3,140.4 -43.2,35.8 -97.8,56.7 -153.9,58.7 h -0.9 c -12.5,0 -22.8,-9.9 -23.3,-22.4 -0.5,-12.8 9.5,-23.6 22.4,-24.1 45.9,-1.7 90.6,-18.8 125.9,-48.1 35.4,-29.3 60.4,-70.1 70.6,-114.9 2.8,-12.5 15.3,-20.4 27.9,-17.6 12.6,3 20.5,15.5 17.6,28 M 471,231.7 c 4.5,4.2 10.2,6.3 15.9,6.3 6.2,0 12.4,-2.5 17,-7.4 l 0.2,-0.2 c 8.8,-9.4 8.2,-24 -1.2,-32.8 -9.4,-8.8 -24.2,-8.2 -33,1.2 -8.8,9.4 -8.3,24.2 1.1,32.9 M 263.2,418.9 h 0.8 c 22.3,-0.8 43.8,-6 64,-15.5 20.2,-9.5 37.9,-22.8 52.6,-39.6 14.8,-16.7 25.7,-35.9 32.7,-57.1 6.9,-21.2 9.4,-43.2 7.4,-65.4 -2,-22.2 -8.4,-43.4 -19.1,-63 C 391,158.7 376.7,141.8 359.2,128 341.7,114.2 321.9,104.3 300.3,98.6 c -20.4,-5.4 -41.4,-6.7 -62.5,-4 -2.7,-0.3 -5.5,-0.3 -8.1,0.4 -24.6,4 -112.2,26.8 -142.4,146.2 -3.1,12.5 4.4,25.1 16.9,28.3 1.9,0.5 3.8,0.7 5.7,0.7 10.4,0 19.9,-7 22.6,-17.6 23.5,-93.1 86.3,-109.2 105.9,-111.9 1,0 1.9,0.3 2.9,0.2 15.8,-2.3 31.6,-1.4 46.9,2.7 15.4,4.1 29.6,11.2 42.1,21 12.5,9.9 22.7,22 30.3,35.9 7.6,14 12.2,29.2 13.6,45 1.5,15.9 -0.3,31.6 -5.3,46.7 -5,15.1 -12.8,28.9 -23.4,40.8 -10.5,11.9 -23.1,21.4 -37.5,28.2 -14.4,6.8 -29.8,10.5 -45.7,11.1 -12.8,0.4 -22.9,11.2 -22.5,24.1 0.6,12.6 10.9,22.5 23.4,22.5 m -62.8,51.2 c -0.8,5.4 -3.5,10 -7.2,13.4 -4.1,7.8 -11.9,12.6 -20.4,12.6 -2.8,0 -5.7,-0.5 -8.5,-1.6 C 127,479.9 93.2,456.3 66.6,426.4 39.9,396.5 20.4,360.2 10.2,321.4 0,282.7 -1,241.5 7.4,202.3 15.8,163.1 33.6,126 58.8,94.8 84,63.7 116.7,38.6 153.3,22.2 c 36.6,-16.3 77.1,-24 117.1,-22 40,2 79.6,13.5 114.4,33.4 34.8,19.9 64.8,48.1 86.9,81.5 7.1,10.7 4.1,25.2 -6.6,32.2 -10.7,7.1 -25.2,4.1 -32.2,-6.6 C 414.8,113.3 390.3,90.2 361.8,74 333.3,57.7 301,48.3 268.2,46.7 235.5,45 202.3,51.3 172.4,64.7 142.5,78.1 115.7,98.6 95.1,124.1 74.5,149.6 59.9,180 53,212 c -6.9,32 -6.1,65.7 2.3,97.5 8.4,31.7 24.3,61.4 46.1,85.9 16.1,18 35.3,33.2 56.5,44.7 l 31.6,-209.8 c 1.3,-8.3 7,-14.6 14.2,-17.6 1.1,-1.3 1.9,-2.8 3.1,-4.1 26.2,-28.2 70.5,-29.9 98.7,-3.7 13.7,12.7 21.6,29.9 22.3,48.6 0.7,18.6 -5.9,36.4 -18.6,50.1 -12.7,13.7 -29.9,21.6 -48.6,22.3 -0.9,0 -1.8,0.1 -2.7,0.1 -12.2,0 -23.9,-3.3 -34.3,-9.3 z m 40.4,-229.8 c -4.2,4.5 -6.4,10.5 -6.2,16.7 0.2,6.2 2.9,12 7.4,16.2 4.6,4.2 10.3,6.4 16.7,6.2 6.2,-0.2 11.9,-2.9 16.2,-7.4 4.2,-4.6 6.4,-10.5 6.2,-16.7 -0.2,-6.2 -2.9,-12 -7.4,-16.2 -9.4,-8.8 -24.2,-8.2 -32.9,1.2 m -121.6,110 c 2.2,0 4.5,-0.3 6.7,-1 l 0.2,-0.1 c 12.3,-3.7 19.2,-16.6 15.5,-29 -3.7,-12.3 -16.9,-19.2 -29.1,-15.6 -12.3,3.7 -19.3,16.7 -15.6,29 3.1,10.2 12.3,16.7 22.3,16.7"
     style="fill:#ffffff"
     id="path1"
     transform="matrix(0.89799067,0,0,0.89799067,25.398708,25.535417)" /></svg>
