<?xml version="1.0" encoding="UTF-8" standalone="no"?>
<svg
   xml:space="preserve"
   viewBox="0 0 512 512"
   version="1.1"
   id="svg2"
   sodipodi:docname="portainer-pink-light.svg"
   inkscape:version="1.4.3 (0d15f75042, 2025-12-25)"
   xmlns:inkscape="http://www.inkscape.org/namespaces/inkscape"
   xmlns:sodipodi="http://sodipodi.sourceforge.net/DTD/sodipodi-0.dtd"
   xmlns="http://www.w3.org/2000/svg"
   xmlns:svg="http://www.w3.org/2000/svg"><defs
     id="defs2" /><sodipodi:namedview
     id="namedview2"
     pagecolor="#505050"
     bordercolor="#ffffff"
     borderopacity="1"
     inkscape:showpageshadow="0"
     inkscape:pageopacity="0"
     inkscape:pagecheckerboard="1"
     inkscape:deskcolor="#505050"
     inkscape:zoom="2.265625"
     inkscape:cx="255.77931"
     inkscape:cy="256"
     inkscape:window-width="2560"
     inkscape:window-height="1368"
     inkscape:window-x="0"
     inkscape:window-y="0"
     inkscape:window-maximized="1"
     inkscape:current-layer="svg2" /><path
     d="M462.2 512H49.8C22.3 512 0 489.7 0 462.2V49.8C0 22.3 22.3 0 49.8 0h412.4C489.7 0 512 22.3 512 49.8v412.4c0 27.5-22.3 49.8-49.8 49.8"
     style="fill:#c080ff"
     id="path1" /><path
     d="M127.1 88.4H250c84.8 0 134.9 26.5 134.9 113v3c0 86.7-49.9 113-134.8 113h-26.8v105.3h-96.2zm117.3 155.1c26.3 0 40.1-9.8 40.1-38.9v-3.4c0-29-13.8-38.9-40.1-38.9h-21.1v81.2zm61.3 101.4h78.8v78.6h-78.8z"
     style="fill:#212121;fill-opacity:1"
     id="path2" /></svg>
