<?xml version="1.0" encoding="UTF-8"?>
<svg version="1.1" viewBox="0 0 24 24" xmlns="http://www.w3.org/2000/svg"><g transform="matrix(.97405 0 0 .97405 .28299 .3804)" stroke-linecap="round" stroke-linejoin="round" stroke-width=".41065"><path d="m20.333 4.9113c.65517 0 1.1863-.53112 1.1863-1.1863s-.53112-1.1863-1.1863-1.1863c-.65518 0-1.1863.53112-1.1863 1.1863s.53112 1.1863 1.1863 1.1863m0-4.7452c1.9655 0 3.5589 1.5934 3.5589 3.5589v7.1178h-4.7452v-4.7452h-14.236v4.7452h-4.7452v-7.1178c0-1.9655 1.5934-3.5589 3.5589-3.5589h16.608" fill="#0091eb" stroke="#4cae4f"/><path d="m19.147 19.443c0 .45079-.24912.84227-.62874 1.0439l-5.8129 3.1911c-.20167.14236-.42707.21353-.67619.21353-.24912 0-.48638-.07118-.67619-.21353l-5.8129-3.1911c-.37962-.20167-.62874-.59315-.62874-1.0439v-6.2281c0-.45079.24912-.84227.62874-1.0439l5.8129-2.8946c.18981-.14236.42707-.21353.67619-.21353.24912 0 .47452.071178.67619.21353l5.8129 2.8946c.37962.20167.62874.59315.62874 1.0439v6.2281m-7.1178-7.8296-3.5114 1.6015 3.5114 1.8981 3.5114-1.8981-3.5114-1.6015m-4.7452 7.1296 3.5589 1.9337v-3.5114l-3.5589-1.9218v3.4996m9.4904 0v-3.4996l-3.5589 1.9218v3.5114z" fill="#4cae4f" stroke="#0091eb"/></g></svg>
