<?xml version="1.0" encoding="UTF-8"?>
<svg version="1.1" viewBox="0 0 120 120" xmlns="http://www.w3.org/2000/svg"><defs><filter id="filter2" x="-.0318" y="-.037412" width="1.0786" height="1.0925" color-interpolation-filters="sRGB"><feFlood flood-color="rgb(0,0,0)" flood-opacity=".49804" in="SourceGraphic" result="flood"/><feGaussianBlur in="SourceGraphic" result="blur" stdDeviation="0.700000"/><feOffset dx="1.500000" dy="1.500000" in="blur" result="offset"/><feComposite in="flood" in2="offset" operator="in" result="comp1"/><feComposite in="SourceGraphic" in2="comp1" result="comp2"/></filter><filter id="filter7" x="-.090833" y="-.15571" width="1.2442" height="1.4186" color-interpolation-filters="sRGB"><feFlood flood-color="rgb(0,0,0)" flood-opacity=".49804" in="SourceGraphic" result="flood"/><feGaussianBlur in="SourceGraphic" result="blur" stdDeviation="0.700000"/><feOffset dx="1.500000" dy="1.500000" in="blur" result="offset"/><feComposite in="flood" in2="offset" operator="out" result="comp1"/><feComposite in="comp1" in2="SourceGraphic" operator="atop" result="comp2"/></filter><filter id="filter9" x="-.090833" y="-.15571" width="1.2442" height="1.4186" color-interpolation-filters="sRGB"><feFlood flood-color="rgb(0,0,0)" flood-opacity=".49804" in="SourceGraphic" result="flood"/><feGaussianBlur in="SourceGraphic" result="blur" stdDeviation="0.700000"/><feOffset dx="1.500000" dy="1.500000" in="blur" result="offset"/><feComposite in="flood" in2="offset" operator="out" result="comp1"/><feComposite in="comp1" in2="SourceGraphic" operator="atop" result="comp2"/></filter><filter id="filter11" x="-.28" y="-.28" width="1.81" height="1.81" color-interpolation-filters="sRGB"><feFlood flood-color="rgb(0,0,0)" flood-opacity=".49804" in="SourceGraphic" result="flood"/><feGaussianBlur in="SourceGraphic" result="blur" stdDeviation="0.700000"/><feOffset dx="1.500000" dy="1.500000" in="blur" result="offset"/><feComposite in="flood" in2="offset" operator="out" result="comp1"/><feComposite in="comp1" in2="SourceGraphic" operator="atop" result="comp2"/></filter><filter id="filter13" x="-.28" y="-.28" width="1.81" height="1.81" color-interpolation-filters="sRGB"><feFlood flood-color="rgb(0,0,0)" flood-opacity=".49804" in="SourceGraphic" result="flood"/><feGaussianBlur in="SourceGraphic" result="blur" stdDeviation="0.700000"/><feOffset dx="1.500000" dy="1.500000" in="blur" result="offset"/><feComposite in="flood" in2="offset" operator="out" result="comp1"/><feComposite in="comp1" in2="SourceGraphic" operator="atop" result="comp2"/></filter><filter id="filter29" x="-.057439" y="-.14359" width="1.1149" height="1.2872" color-interpolation-filters="sRGB"><feFlood flood-color="rgb(0,0,0)" flood-opacity=".49804" in="SourceGraphic" result="flood"/><feGaussianBlur in="SourceGraphic" result="blur" stdDeviation="0.500000"/><feOffset dx="-0.000000" dy="-0.000000" in="blur" result="offset"/><feComposite in="flood" in2="offset" operator="out" result="comp1"/><feComposite in="comp1" in2="SourceGraphic" operator="atop" result="comp2"/></filter><filter id="filter31" x="-.018203" y="-.15819" width="1.0364" height="1.3164" color-interpolation-filters="sRGB"><feFlood flood-color="rgb(0,0,0)" flood-opacity=".49804" in="SourceGraphic" result="flood"/><feGaussianBlur in="SourceGraphic" result="blur" stdDeviation="0.500000"/><feOffset dx="-0.000000" dy="-0.000000" in="blur" result="offset"/><feComposite in="flood" in2="offset" operator="out" result="comp1"/><feComposite in="comp1" in2="SourceGraphic" operator="atop" result="comp2"/></filter><filter id="filter33" color-interpolation-filters="sRGB"><feFlood flood-color="rgb(0,0,0)" flood-opacity=".49804" in="SourceGraphic" result="flood"/><feGaussianBlur in="SourceGraphic" result="blur" stdDeviation="0.500000"/><feOffset dx="-0.000000" dy="-0.000000" in="blur" result="offset"/><feComposite in="flood" in2="offset" operator="out" result="comp1"/><feComposite in="comp1" in2="SourceGraphic" operator="atop" result="comp2"/></filter><filter id="filter35" color-interpolation-filters="sRGB"><feFlood flood-color="rgb(0,0,0)" flood-opacity=".49804" in="SourceGraphic" result="flood"/><feGaussianBlur in="SourceGraphic" result="blur" stdDeviation="0.500000"/><feOffset dx="-0.000000" dy="-0.000000" in="blur" result="offset"/><feComposite in="flood" in2="offset" operator="out" result="comp1"/><feComposite in="comp1" in2="SourceGraphic" operator="atop" result="comp2"/></filter></defs><rect x="1.9554" y="1.9554" width="116.09" height="116.09" rx="23.218" fill="#0091eb" stroke="#4cae4f" stroke-width="2"/><path d="m30 17.5h18a12 12 0 0024 0h18v13l-10 12v25l30 20v15h-100v-15l30-20v-25l-10-12z" fill="#4cae4f" filter="url(#filter2)" stroke="#4cae4f" stroke-linejoin="round" stroke-width="3"/><circle cx="39" cy="25" r="6" fill="#2e6a30" filter="url(#filter35)"/><circle cx="39" cy="25" r="3" fill="#0091eb" filter="url(#filter11)"/><circle cx="81" cy="25" r="6" fill="#2e6a30" filter="url(#filter33)"/><g fill="#0091eb"><circle cx="81" cy="25" r="3" filter="url(#filter13)"/><path d="m48 38 12 8 12-8v6l-12 8-12-8z" filter="url(#filter7)" stroke="#0091eb" stroke-linejoin="round"/><path d="m48 50 12 8 12-8v6l-12 8-12-8z" filter="url(#filter9)" stroke="#0091eb" stroke-linejoin="round"/></g><path d="m47.835 80.116-.01467-2.4494 4.9941-5.9695t0 0 0 0h2.4347t0 0 0 0l-4.3854 5.1408zm-1.3274 2.0827t0 0 0 0v-10.502t0 0 0 0h2.156t0 0 0 0v10.502t0 0 0 0zm6.5415 0t0 0 0 0l-3.3661-5.4121 1.496-1.4007 4.3268 6.8128t0 0 0 0zm6.0821 0t0 0 0 0v-8.0155l-1.958 1.4227t0 0 0 0l-.90202-1.386t0 0 0 0l3.5274-2.5447t0 0 0 0h1.298t0 0 0 0v10.524t0 0 0 0zm10.006.14667q-2.3907 0-3.8794-1.496-1.4887-1.496-1.4887-3.8794v0q0-2.4201 1.54-3.9161 1.54-1.5034 3.8794-1.5034.89469 0 1.5694.19067.68202.18334 1.232.50601.55001.31534.93869.68202.39601.36668.39601.36668t0 0l-1.3934 1.5327t0 0-.24934-.26401q-.24934-.27134-.60135-.48401-.34467-.22-.79202-.35934-.44001-.14667-1.056-.14667-1.3714 0-2.3027.94602-.93135.93869-.93135 2.4494v0q0 1.474.89469 2.4127t2.3101.93869q.64535 0 1.1367-.14667.49134-.14667.85069-.38868.35934-.24934.59401-.53534t.23467-.28601 0 0l1.474 1.3567t0 0-.38868.44734q-.38134.44734-.94602.80669-.56468.35201-1.3127.56468-.74068.20534-1.7087.20534z" fill="#2e6a30" filter="url(#filter29)" stroke="#2e6a30" stroke-linecap="round" stroke-linejoin="round" stroke-width=".7" style="paint-order:stroke markers fill;white-space:pre" aria-label="K1C"/><rect x="12.468" y="89.03" width="95.064" height="10.939" rx="2.2634" fill="#2e6b30" filter="url(#filter31)" stroke="#2e6a30" stroke-width="1.0609"/></svg>
