<?xml version="1.0" encoding="UTF-8"?>
<svg version="1.1" viewBox="0 0 24 18" xmlns="http://www.w3.org/2000/svg"><g transform="matrix(1.1652 0 0 1.1652 -1.9823 -5.5149)"><g fill="#4cae4f"><path d="m20 8h2v2h-2v-2m0 6h2v2h-2z" stroke="#0091eb" stroke-linecap="round" stroke-linejoin="round" stroke-width=".34329"/><path d="m16 18.962v1.1241h-2v-1.1241h-3v1.1241h-4v-1.1241"/></g><path d="m19 15h-10v-5h10v1h3v2h-3v2m-6-3v2h2v-2h-2" fill="#4cae4f" stroke="#0091eb" stroke-linecap="round" stroke-linejoin="round" stroke-width=".34329"/><path d="m4 5c-1.1046 0-2 .89543-2 2v10c0 1.1046.89543 2 2 2h16c1.1046 0 2-.89543 2-2h-3v-1h-11v-3h-3v-4h14v-2h3c0-1.1046-.89543-2-2-2zm1 1h1v2h-1zm2 0h1v2h-1zm2 0h1v2h-1zm2 0h1v2h-1zm2 0h1v2h-1zm2 0h1v2h-1z" fill="#0091eb" stroke="#4cae4f" stroke-width=".34329"/></g></svg>
