<?xml version="1.0" encoding="UTF-8"?>
<svg version="1.1" viewBox="0 0 24 22" xmlns="http://www.w3.org/2000/svg"><g transform="matrix(.97356 0 0 .97356 .31306 -.68655)"><path d="m15.241 4.451-3.7765 3.7765 3.7765 3.7765 1.5106-1.5106-2.2659-2.2659 2.2659-2.2659m-7.9845 1.7264-1.5106 1.5106 2.2659 2.2659-2.2659 2.2659 1.5106 1.5106 3.7765-3.7765" fill="#4cae4f" stroke-width="1.079"/><path d="m2.2934 1.2149c-1.1918 0-2.1582.96443-2.1582 2.1562v12.949c0 1.1977.97131 2.1582 2.1582 2.1582h7.5527v2.1582h-2.1582v2.1562h8.6328v-2.1562h-2.1582v-2.1582h7.5527c1.1918 0 2.1582-.96638 2.1582-2.1582v-12.949c0-1.1918-.96638-2.1562-2.1582-2.1562zm0 2.1562h19.422v12.949h-19.422z" fill="#0091eb" stroke="#4cae4f" stroke-linecap="round" stroke-linejoin="round" stroke-width=".41086"/></g></svg>
