<?xml version="1.0" encoding="UTF-8"?>
<svg version="1.1" viewBox="0 0 24 21" xmlns="http://www.w3.org/2000/svg"><g transform="matrix(.97108 0 0 .97108 .31932 -1.1767)"><path d="m12.595 15.424h2.2667v2.2667h-2.2667v-2.2667m0-9.0667h2.2667v6.8h-2.2667v-6.8" fill="#4cae4f"/><path d="m13.729 1.8245c-5.6667 0-10.2 4.5333-10.2 10.2h-3.4l4.5333 4.5333 4.5333-4.5333h-3.4c0-4.42 3.5133-7.9333 7.9333-7.9333s7.9333 3.5133 7.9333 7.9333-3.5133 7.9333-7.9333 7.9333c-2.1533 0-4.1933-.90667-5.5533-2.38l-1.5867 1.5867c1.8133 1.9267 4.3067 3.06 7.14 3.06 5.6667 0 10.2-4.5333 10.2-10.2s-4.5333-10.2-10.2-10.2" fill="#0091eb" stroke="#4cae4f" stroke-linecap="round" stroke-linejoin="round" stroke-width=".72085"/></g></svg>
