<?xml version="1.0" encoding="UTF-8"?>
<svg version="1.1" viewBox="0 0 24 24" xmlns="http://www.w3.org/2000/svg"><g transform="matrix(.95899 0 0 .95899 .30038 .30038)"><path d="m17.875 12 4.8068 2.1364v3.2045c0 2.9696-2.0509 5.7361-4.8068 6.4091-2.7559-.67296-4.8068-3.4395-4.8068-6.4091v-3.2045l4.8068-2.1364m0 2.0723-2.6705 1.1964v2.8414c0 1.645 1.143 3.1832 2.6705 3.5677z" fill="#4cae4f" stroke-width="1.0682"/><path d="m2.3864.25h17.091c.58994 4.14e-6 1.0682.47824 1.0682 1.0682v4.2727c-1e-6.58994-.47824 1.0682-1.0682 1.0682h-17.091c-.58994 0-1.0682-.47824-1.0682-1.0682v-4.2727c0-.58994.47824-1.0682 1.0682-1.0682m0 8.5455h17.091c.58994 4.1e-6 1.0682.47824 1.0682 1.0682v.71569l-2.6704-1.1857-6.9432 3.0764v2.7345h-8.5455c-.58994 0-1.0682-.47824-1.0682-1.0682v-4.2727c8e-7-.58994.47824-1.0682 1.0682-1.0682m0 8.5455h8.5455c.06405 2.4034 1.0682 4.7 2.6277 6.4091h-11.173c-.58994 0-1.0682-.47824-1.0682-1.0682v-4.2727c-4.1e-6-.58994.47824-1.0682 1.0682-1.0682m5.3409-12.818h1.0682v-2.1364h-1.0682v2.1364m0 8.5454h1.0682v-2.1364h-1.0682v2.1364m0 8.5455h1.0682v-2.1364h-1.0682v2.1364m-4.2727-19.227v2.1364h2.1364v-2.1364h-2.1364m0 8.5455v2.1364h2.1364v-2.1364h-2.1364m0 8.5454v2.1364h2.1364v-2.1364h-2.1364" fill="#0091eb" stroke="#4cae4f" stroke-linecap="round" stroke-linejoin="round" stroke-width=".41711"/></g></svg>
