<?xml version="1.0" encoding="UTF-8"?>
<svg width="17" height="24" fill="#ffffff" version="1.1" viewBox="0 -960 680 960" xmlns="http://www.w3.org/2000/svg"><g transform="matrix(1.0176 0 0 1.0176 -148.45 8.4411)" stroke="#4cae4f" stroke-linecap="round" stroke-linejoin="round" stroke-width="20"><path d="m489.05-747.61c8.158-8.158 12.237-18.266 12.237-30.325s-4.079-22.168-12.237-30.325c-8.158-8.158-18.266-12.237-30.325-12.237s-22.167 4.079-30.325 12.237-12.237 18.266-12.237 30.325 4.079 22.168 12.237 30.325c8.158 8.158 18.266 12.237 30.325 12.237s22.167-4.079 30.325-12.237z" fill="#4cae4f"/><path d="m245.91-11.817c-23.409 0-43.449-8.335-60.119-25.005s-25.005-36.71-25.005-60.119v-766.12c0-23.409 8.335-43.449 25.005-60.119s36.71-25.005 60.119-25.005h425.62c23.409 0 43.449 8.335 60.119 25.005s25.005 36.71 25.005 60.119v131.94c12.769 4.9656 23.055 12.769 30.858 23.409 7.8033 10.641 11.705 22.7 11.705 36.178v85.124c0 13.478-3.9017 25.537-11.705 36.178s-18.089 18.444-30.858 23.409v429.88c0 23.409-8.335 43.449-25.005 60.119s-36.71 25.005-60.119 25.005zm0-85.124h425.62v-766.12h-425.62zm0 0v-766.12z" fill="#0091eb" stroke="none"/><rect x="355.66" y="-152.63" width="198.38" height="4.9135" ry="2.4568" fill="#4cae4f" stroke-linecap="round" stroke-linejoin="round" stroke-width="19.654"/></g><g fill="#4cae4f" stroke-linecap="round" stroke-linejoin="round" stroke-width="27.064"><rect x="631.74" y="-707.94" width="13.587" height="73.178" ry="6.7936"/><rect x="631.74" y="-628.04" width="13.587" height="73.178" ry="6.7936"/></g></svg>
