<?xml version="1.0" encoding="UTF-8"?>
<svg width="17" height="24" fill="#ffffff" version="1.1" viewBox="0 -960 680 960" xmlns="http://www.w3.org/2000/svg"><g transform="matrix(1.0176 0 0 1.0176 -148.45 8.4411)" stroke="#4cae4f" stroke-linecap="round" stroke-linejoin="round" stroke-width="20"><path d="m481.58-755.08c6.1488-6.1488 9.2232-13.767 9.2232-22.856s-3.0744-16.708-9.2232-22.856c-6.1488-6.1488-13.767-9.2232-22.856-9.2232s-16.708 3.0744-22.856 9.2232-9.2232 13.767-9.2232 22.856 3.0744 16.708 9.2232 22.856c6.1488 6.1488 13.767 9.2232 22.856 9.2232s16.708-3.0744 22.856-9.2232z" fill="#4cae4f" stroke-width="15.074"/><path d="m245.91-11.817c-23.409 0-43.449-8.335-60.119-25.005s-25.005-36.71-25.005-60.119v-766.12c0-23.409 8.335-43.449 25.005-60.119s36.71-25.005 60.119-25.005h425.62c23.409 0 43.449 8.335 60.119 25.005s25.005 36.71 25.005 60.119v131.94c12.769 4.9656 23.055 12.769 30.858 23.409 7.8033 10.641 11.705 22.7 11.705 36.178v85.124c0 13.478-3.9017 25.537-11.705 36.178s-18.089 18.444-30.858 23.409v429.88c0 23.409-8.335 43.449-25.005 60.119s-36.71 25.005-60.119 25.005zm0-85.124h425.62v-766.12h-425.62zm0 0v-766.12z" fill="#0091eb" stroke="none"/><rect x="367" y="-156.67" width="178.82" height="4.4291" ry="2.2146" fill="#4cae4f" stroke-linecap="round" stroke-linejoin="round" stroke-width="17.717"/></g><g fill="#4cae4f" stroke-linecap="round" stroke-linejoin="round" stroke-width="27.064"><rect x="631.74" y="-707.94" width="13.587" height="73.178" ry="6.7936"/><rect x="631.74" y="-628.04" width="13.587" height="73.178" ry="6.7936"/></g><g transform="matrix(1.3661 0 0 1.3661 194.44 -600.07)"><g fill="#4cae4f"><circle cx="27.5" cy="150" r="2.25"/><circle cx="22.5" cy="150" r="2.25"/><circle cx="22.5" cy="155" r="2.25"/><circle cx="27.5" cy="155" r="2.25"/><circle cx="32.5" cy="150" r="2.25"/><circle cx="32.5" cy="155" r="2.25"/><circle cx="37.5" cy="150" r="2.25"/><circle cx="37.5" cy="155" r="2.25"/><circle cx="27.5" cy="140" r="2.25"/><circle cx="22.5" cy="140" r="2.25"/><circle cx="22.5" cy="145" r="2.25"/><circle cx="27.5" cy="145" r="2.25"/><circle cx="32.5" cy="140" r="2.25"/><circle cx="32.5" cy="145" r="2.25"/><circle cx="37.5" cy="140" r="2.25"/><circle cx="37.5" cy="145" r="2.25"/><circle cx="27.5" cy="130" r="2.25"/><circle cx="22.5" cy="130" r="2.25"/><circle cx="22.5" cy="135" r="2.25"/><circle cx="27.5" cy="135" r="2.25"/><circle cx="32.5" cy="130" r="2.25"/><circle cx="32.5" cy="135" r="2.25"/><circle cx="37.5" cy="130" r="2.25"/><circle cx="37.5" cy="135" r="2.25"/><circle cx="27.5" cy="120" r="2.25"/><circle cx="22.5" cy="120" r="2.25"/><circle cx="22.5" cy="125" r="2.25"/><circle cx="27.5" cy="125" r="2.25"/><circle cx="32.5" cy="120" r="2.25"/><circle cx="32.5" cy="125" r="2.25"/><circle cx="37.5" cy="120" r="2.25"/><circle cx="37.5" cy="125" r="2.25"/><circle cx="27.5" cy="110" r="2.25"/><circle cx="22.5" cy="110" r="2.25"/><circle cx="22.5" cy="115" r="2.25"/><circle cx="27.5" cy="115" r="2.25"/><circle cx="32.5" cy="110" r="2.25"/><circle cx="32.5" cy="115" r="2.25"/><circle cx="37.5" cy="110" r="2.25"/><circle cx="37.5" cy="115" r="2.25"/><circle cx="27.5" cy="100" r="2.25"/><circle cx="22.5" cy="100" r="2.25"/><circle cx="22.5" cy="105" r="2.25"/><circle cx="27.5" cy="105" r="2.25"/><circle cx="32.5" cy="100" r="2.25"/><circle cx="32.5" cy="105" r="2.25"/><circle cx="37.5" cy="100" r="2.25"/><circle cx="37.5" cy="105" r="2.25"/><circle cx="27.5" cy="90" r="2.25"/><circle cx="22.5" cy="90" r="2.25"/><circle cx="22.5" cy="95" r="2.25"/><circle cx="27.5" cy="95" r="2.25"/><circle cx="32.5" cy="90" r="2.25"/><circle cx="32.5" cy="95" r="2.25"/><circle cx="37.5" cy="90" r="2.25"/><circle cx="37.5" cy="95" r="2.25"/><circle cx="27.5" cy="80" r="2.25"/><circle cx="22.5" cy="80" r="2.25"/><circle cx="22.5" cy="85" r="2.25"/><circle cx="27.5" cy="85" r="2.25"/><circle cx="32.5" cy="80" r="2.25"/><circle cx="32.5" cy="85" r="2.25"/><circle cx="37.5" cy="80" r="2.25"/><circle cx="37.5" cy="85" r="2.25"/><circle cx="27.5" cy="70" r="2.25"/><circle cx="22.5" cy="70" r="2.25"/><circle cx="22.5" cy="75" r="2.25"/><circle cx="27.5" cy="75" r="2.25"/><circle cx="32.5" cy="70" r="2.25"/><circle cx="32.5" cy="75" r="2.25"/><circle cx="37.5" cy="70" r="2.25"/><circle cx="37.5" cy="75" r="2.25"/><circle cx="27.5" cy="60" r="2.25"/><circle cx="22.5" cy="60" r="2.25"/><circle cx="22.5" cy="65" r="2.25"/><circle cx="27.5" cy="65" r="2.25"/><circle cx="32.5" cy="60" r="2.25"/><circle cx="32.5" cy="65" r="2.25"/><circle cx="37.5" cy="60" r="2.25"/><circle cx="37.5" cy="65" r="2.25"/><circle cx="27.5" cy="50" r="2.25"/><circle cx="22.5" cy="50" r="2.25"/><circle cx="22.5" cy="55" r="2.25"/><circle cx="27.5" cy="55" r="2.25"/><circle cx="32.5" cy="50" r="2.25"/><circle cx="32.5" cy="55" r="2.25"/><circle cx="37.5" cy="50" r="2.25"/><circle cx="37.5" cy="55" r="2.25"/><circle cx="27.5" cy="40" r="2.25"/><circle cx="22.5" cy="40" r="2.25"/><circle cx="22.5" cy="45" r="2.25"/><circle cx="27.5" cy="45" r="2.25"/><circle cx="32.5" cy="40" r="2.25"/><circle cx="32.5" cy="45" r="2.25"/><circle cx="37.5" cy="40" r="2.25"/><circle cx="37.5" cy="45" r="2.25"/><circle cx="27.5" cy="30" r="2.25"/><circle cx="22.5" cy="30" r="2.25"/><circle cx="22.5" cy="35" r="2.25"/><circle cx="27.5" cy="35" r="2.25"/><circle cx="32.5" cy="30" r="2.25"/><circle cx="32.5" cy="35" r="2.25"/><circle cx="37.5" cy="30" r="2.25"/><circle cx="37.5" cy="35" r="2.25"/><circle cx="27.5" cy="25" r="2.25"/><circle cx="22.5" cy="25" r="2.25"/><circle cx="32.5" cy="25" r="2.25"/><circle cx="37.5" cy="25" r="2.25"/><circle cx="47.5" cy="50" r="2.25"/><circle cx="42.5" cy="50" r="2.25"/><circle cx="42.5" cy="55" r="2.25"/><circle cx="47.5" cy="55" r="2.25"/><circle cx="52.5" cy="50" r="2.25"/><circle cx="52.5" cy="55" r="2.25"/><circle cx="57.5" cy="50" r="2.25"/><circle cx="57.5" cy="55" r="2.25"/><circle cx="47.5" cy="40" r="2.25"/><circle cx="42.5" cy="40" r="2.25"/><circle cx="42.5" cy="45" r="2.25"/><circle cx="47.5" cy="45" r="2.25"/><circle cx="52.5" cy="40" r="2.25"/><circle cx="52.5" cy="45" r="2.25"/><circle cx="57.5" cy="40" r="2.25"/><circle cx="57.5" cy="45" r="2.25"/><circle cx="47.5" cy="30" r="2.25"/><circle cx="42.5" cy="30" r="2.25"/><circle cx="42.5" cy="35" r="2.25"/><circle cx="47.5" cy="35" r="2.25"/><circle cx="52.5" cy="30" r="2.25"/><circle cx="52.5" cy="35" r="2.25"/><circle cx="57.5" cy="30" r="2.25"/><circle cx="57.5" cy="35" r="2.25"/><circle cx="47.5" cy="25" r="2.25"/><circle cx="42.5" cy="25" r="2.25"/><circle cx="52.5" cy="25" r="2.25"/><circle cx="57.5" cy="25" r="2.25"/><circle cx="67.5" cy="50" r="2.25"/><circle cx="62.5" cy="50" r="2.25"/><circle cx="62.5" cy="55" r="2.25"/><circle cx="67.5" cy="55" r="2.25"/><circle cx="72.5" cy="50" r="2.25"/><circle cx="72.5" cy="55" r="2.25"/><circle cx="77.5" cy="50" r="2.25"/><circle cx="77.5" cy="55" r="2.25"/><circle cx="67.5" cy="40" r="2.25"/><circle cx="62.5" cy="40" r="2.25"/><circle cx="62.5" cy="45" r="2.25"/><circle cx="67.5" cy="45" r="2.25"/><circle cx="72.5" cy="40" r="2.25"/><circle cx="72.5" cy="45" r="2.25"/><circle cx="77.5" cy="40" r="2.25"/><circle cx="77.5" cy="45" r="2.25"/><circle cx="67.5" cy="30" r="2.25"/><circle cx="62.5" cy="30" r="2.25"/><circle cx="62.5" cy="35" r="2.25"/><circle cx="67.5" cy="35" r="2.25"/><circle cx="72.5" cy="30" r="2.25"/><circle cx="72.5" cy="35" r="2.25"/><circle cx="77.5" cy="30" r="2.25"/><circle cx="77.5" cy="35" r="2.25"/><circle cx="67.5" cy="25" r="2.25"/><circle cx="62.5" cy="25" r="2.25"/><circle cx="72.5" cy="25" r="2.25"/><circle cx="77.5" cy="25" r="2.25"/><circle cx="87.5" cy="50" r="2.25"/><circle cx="82.5" cy="50" r="2.25"/><circle cx="82.5" cy="55" r="2.25"/><circle cx="87.5" cy="55" r="2.25"/><circle cx="92.5" cy="50" r="2.25"/><circle cx="92.5" cy="55" r="2.25"/><circle cx="97.5" cy="50" r="2.25"/><circle cx="97.5" cy="55" r="2.25"/><circle cx="87.5" cy="40" r="2.25"/><circle cx="82.5" cy="40" r="2.25"/><circle cx="82.5" cy="45" r="2.25"/><circle cx="87.5" cy="45" r="2.25"/><circle cx="92.5" cy="40" r="2.25"/><circle cx="92.5" cy="45" r="2.25"/><circle cx="97.5" cy="40" r="2.25"/><circle cx="97.5" cy="45" r="2.25"/><circle cx="87.5" cy="30" r="2.25"/><circle cx="82.5" cy="30" r="2.25"/><circle cx="82.5" cy="35" r="2.25"/><circle cx="87.5" cy="35" r="2.25"/><circle cx="92.5" cy="30" r="2.25"/><circle cx="92.5" cy="35" r="2.25"/><circle cx="97.5" cy="30" r="2.25"/><circle cx="97.5" cy="35" r="2.25"/><circle cx="87.5" cy="25" r="2.25"/><circle cx="82.5" cy="25" r="2.25"/><circle cx="92.5" cy="25" r="2.25"/><circle cx="97.5" cy="25" r="2.25"/><circle cx="107.5" cy="50" r="2.25"/><circle cx="102.5" cy="50" r="2.25"/><circle cx="102.5" cy="55" r="2.25"/><circle cx="107.5" cy="55" r="2.25"/><circle cx="112.5" cy="50" r="2.25"/><circle cx="112.5" cy="55" r="2.25"/><circle cx="117.5" cy="50" r="2.25"/><circle cx="117.5" cy="55" r="2.25"/><circle cx="107.5" cy="40" r="2.25"/><circle cx="102.5" cy="40" r="2.25"/><circle cx="102.5" cy="45" r="2.25"/><circle cx="107.5" cy="45" r="2.25"/><circle cx="112.5" cy="40" r="2.25"/><circle cx="112.5" cy="45" r="2.25"/><circle cx="117.5" cy="40" r="2.25"/><circle cx="117.5" cy="45" r="2.25"/><circle cx="107.5" cy="30" r="2.25"/><circle cx="102.5" cy="30" r="2.25"/><circle cx="102.5" cy="35" r="2.25"/><circle cx="107.5" cy="35" r="2.25"/><circle cx="112.5" cy="30" r="2.25"/><circle cx="112.5" cy="35" r="2.25"/><circle cx="117.5" cy="30" r="2.25"/><circle cx="117.5" cy="35" r="2.25"/><circle cx="107.5" cy="25" r="2.25"/><circle cx="102.5" cy="25" r="2.25"/><circle cx="112.5" cy="25" r="2.25"/><circle cx="117.5" cy="25" r="2.25"/><circle cx="127.5" cy="50" r="2.25"/><circle cx="122.5" cy="50" r="2.25"/><circle cx="122.5" cy="55" r="2.25"/><circle cx="127.5" cy="55" r="2.25"/><circle cx="132.5" cy="50" r="2.25"/><circle cx="132.5" cy="55" r="2.25"/><circle cx="137.5" cy="50" r="2.25"/><circle cx="137.5" cy="55" r="2.25"/><circle cx="127.5" cy="40" r="2.25"/><circle cx="122.5" cy="40" r="2.25"/><circle cx="122.5" cy="45" r="2.25"/><circle cx="127.5" cy="45" r="2.25"/><circle cx="132.5" cy="40" r="2.25"/><circle cx="132.5" cy="45" r="2.25"/><circle cx="137.5" cy="40" r="2.25"/><circle cx="137.5" cy="45" r="2.25"/><circle cx="127.5" cy="30" r="2.25"/><circle cx="122.5" cy="30" r="2.25"/><circle cx="122.5" cy="35" r="2.25"/><circle cx="127.5" cy="35" r="2.25"/><circle cx="132.5" cy="30" r="2.25"/><circle cx="132.5" cy="35" r="2.25"/><circle cx="137.5" cy="30" r="2.25"/><circle cx="137.5" cy="35" r="2.25"/><circle cx="127.5" cy="25" r="2.25"/><circle cx="122.5" cy="25" r="2.25"/><circle cx="132.5" cy="25" r="2.25"/><circle cx="137.5" cy="25" r="2.25"/><circle cx="147.5" cy="50" r="2.25"/><circle cx="142.5" cy="50" r="2.25"/><circle cx="142.5" cy="55" r="2.25"/><circle cx="147.5" cy="55" r="2.25"/><circle cx="152.5" cy="50" r="2.25"/><circle cx="152.5" cy="55" r="2.25"/><circle cx="157.5" cy="50" r="2.25"/><circle cx="157.5" cy="55" r="2.25"/><circle cx="147.5" cy="40" r="2.25"/><circle cx="142.5" cy="40" r="2.25"/><circle cx="142.5" cy="45" r="2.25"/><circle cx="147.5" cy="45" r="2.25"/><circle cx="152.5" cy="40" r="2.25"/><circle cx="152.5" cy="45" r="2.25"/><circle cx="157.5" cy="40" r="2.25"/><circle cx="157.5" cy="45" r="2.25"/><circle cx="147.5" cy="30" r="2.25"/><circle cx="142.5" cy="30" r="2.25"/><circle cx="142.5" cy="35" r="2.25"/><circle cx="147.5" cy="35" r="2.25"/><circle cx="152.5" cy="30" r="2.25"/><circle cx="152.5" cy="35" r="2.25"/><circle cx="157.5" cy="30" r="2.25"/><circle cx="157.5" cy="35" r="2.25"/><circle cx="147.5" cy="25" r="2.25"/><circle cx="142.5" cy="25" r="2.25"/><circle cx="152.5" cy="25" r="2.25"/><circle cx="157.5" cy="25" r="2.25"/><circle cx="47.5" cy="150" r="2.25"/><circle cx="42.5" cy="150" r="2.25"/><circle cx="42.5" cy="155" r="2.25"/><circle cx="47.5" cy="155" r="2.25"/><circle cx="52.5" cy="150" r="2.25"/><circle cx="52.5" cy="155" r="2.25"/><circle cx="57.5" cy="150" r="2.25"/><circle cx="57.5" cy="155" r="2.25"/><circle cx="47.5" cy="140" r="2.25"/><circle cx="42.5" cy="140" r="2.25"/><circle cx="42.5" cy="145" r="2.25"/><circle cx="47.5" cy="145" r="2.25"/><circle cx="52.5" cy="140" r="2.25"/><circle cx="52.5" cy="145" r="2.25"/><circle cx="57.5" cy="140" r="2.25"/><circle cx="57.5" cy="145" r="2.25"/><circle cx="47.5" cy="130" r="2.25"/><circle cx="42.5" cy="130" r="2.25"/><circle cx="42.5" cy="135" r="2.25"/><circle cx="47.5" cy="135" r="2.25"/><circle cx="52.5" cy="130" r="2.25"/><circle cx="52.5" cy="135" r="2.25"/><circle cx="57.5" cy="130" r="2.25"/><circle cx="57.5" cy="135" r="2.25"/><circle cx="47.5" cy="125" r="2.25"/><circle cx="42.5" cy="125" r="2.25"/><circle cx="52.5" cy="125" r="2.25"/><circle cx="57.5" cy="125" r="2.25"/><circle cx="67.5" cy="150" r="2.25"/><circle cx="62.5" cy="150" r="2.25"/><circle cx="62.5" cy="155" r="2.25"/><circle cx="67.5" cy="155" r="2.25"/><circle cx="72.5" cy="150" r="2.25"/><circle cx="72.5" cy="155" r="2.25"/><circle cx="77.5" cy="150" r="2.25"/><circle cx="77.5" cy="155" r="2.25"/><circle cx="67.5" cy="140" r="2.25"/><circle cx="62.5" cy="140" r="2.25"/><circle cx="62.5" cy="145" r="2.25"/><circle cx="67.5" cy="145" r="2.25"/><circle cx="72.5" cy="140" r="2.25"/><circle cx="72.5" cy="145" r="2.25"/><circle cx="77.5" cy="140" r="2.25"/><circle cx="77.5" cy="145" r="2.25"/><circle cx="67.5" cy="130" r="2.25"/><circle cx="62.5" cy="130" r="2.25"/><circle cx="62.5" cy="135" r="2.25"/><circle cx="67.5" cy="135" r="2.25"/><circle cx="72.5" cy="130" r="2.25"/><circle cx="72.5" cy="135" r="2.25"/><circle cx="77.5" cy="130" r="2.25"/><circle cx="77.5" cy="135" r="2.25"/><circle cx="67.5" cy="125" r="2.25"/><circle cx="62.5" cy="125" r="2.25"/><circle cx="72.5" cy="125" r="2.25"/><circle cx="77.5" cy="125" r="2.25"/><circle cx="87.5" cy="150" r="2.25"/><circle cx="82.5" cy="150" r="2.25"/><circle cx="82.5" cy="155" r="2.25"/><circle cx="87.5" cy="155" r="2.25"/><circle cx="92.5" cy="150" r="2.25"/><circle cx="92.5" cy="155" r="2.25"/><circle cx="97.5" cy="150" r="2.25"/><circle cx="97.5" cy="155" r="2.25"/><circle cx="87.5" cy="140" r="2.25"/><circle cx="82.5" cy="140" r="2.25"/><circle cx="82.5" cy="145" r="2.25"/><circle cx="87.5" cy="145" r="2.25"/><circle cx="92.5" cy="140" r="2.25"/><circle cx="92.5" cy="145" r="2.25"/><circle cx="97.5" cy="140" r="2.25"/><circle cx="97.5" cy="145" r="2.25"/><circle cx="87.5" cy="130" r="2.25"/><circle cx="82.5" cy="130" r="2.25"/><circle cx="82.5" cy="135" r="2.25"/><circle cx="87.5" cy="135" r="2.25"/><circle cx="92.5" cy="130" r="2.25"/><circle cx="92.5" cy="135" r="2.25"/><circle cx="97.5" cy="130" r="2.25"/><circle cx="97.5" cy="135" r="2.25"/><circle cx="87.5" cy="125" r="2.25"/><circle cx="82.5" cy="125" r="2.25"/><circle cx="92.5" cy="125" r="2.25"/><circle cx="97.5" cy="125" r="2.25"/><circle cx="107.5" cy="150" r="2.25"/><circle cx="102.5" cy="150" r="2.25"/><circle cx="102.5" cy="155" r="2.25"/><circle cx="107.5" cy="155" r="2.25"/><circle cx="112.5" cy="150" r="2.25"/><circle cx="112.5" cy="155" r="2.25"/><circle cx="117.5" cy="150" r="2.25"/><circle cx="117.5" cy="155" r="2.25"/><circle cx="107.5" cy="140" r="2.25"/><circle cx="102.5" cy="140" r="2.25"/><circle cx="102.5" cy="145" r="2.25"/><circle cx="107.5" cy="145" r="2.25"/><circle cx="112.5" cy="140" r="2.25"/><circle cx="112.5" cy="145" r="2.25"/><circle cx="117.5" cy="140" r="2.25"/><circle cx="117.5" cy="145" r="2.25"/><circle cx="107.5" cy="130" r="2.25"/><circle cx="102.5" cy="130" r="2.25"/><circle cx="102.5" cy="135" r="2.25"/><circle cx="107.5" cy="135" r="2.25"/><circle cx="112.5" cy="130" r="2.25"/><circle cx="112.5" cy="135" r="2.25"/><circle cx="117.5" cy="130" r="2.25"/><circle cx="117.5" cy="135" r="2.25"/><circle cx="107.5" cy="125" r="2.25"/><circle cx="102.5" cy="125" r="2.25"/><circle cx="112.5" cy="125" r="2.25"/><circle cx="117.5" cy="125" r="2.25"/><circle cx="127.5" cy="150" r="2.25"/><circle cx="122.5" cy="150" r="2.25"/><circle cx="122.5" cy="155" r="2.25"/><circle cx="127.5" cy="155" r="2.25"/><circle cx="132.5" cy="150" r="2.25"/><circle cx="132.5" cy="155" r="2.25"/><circle cx="137.5" cy="150" r="2.25"/><circle cx="137.5" cy="155" r="2.25"/><circle cx="127.5" cy="140" r="2.25"/><circle cx="122.5" cy="140" r="2.25"/><circle cx="122.5" cy="145" r="2.25"/><circle cx="127.5" cy="145" r="2.25"/><circle cx="132.5" cy="140" r="2.25"/><circle cx="132.5" cy="145" r="2.25"/><circle cx="137.5" cy="140" r="2.25"/><circle cx="137.5" cy="145" r="2.25"/><circle cx="127.5" cy="130" r="2.25"/><circle cx="122.5" cy="130" r="2.25"/><circle cx="122.5" cy="135" r="2.25"/><circle cx="127.5" cy="135" r="2.25"/><circle cx="132.5" cy="130" r="2.25"/><circle cx="132.5" cy="135" r="2.25"/><circle cx="137.5" cy="130" r="2.25"/><circle cx="137.5" cy="135" r="2.25"/><circle cx="127.5" cy="125" r="2.25"/><circle cx="122.5" cy="125" r="2.25"/><circle cx="132.5" cy="125" r="2.25"/><circle cx="137.5" cy="125" r="2.25"/><circle cx="147.5" cy="150" r="2.25"/><circle cx="142.5" cy="150" r="2.25"/><circle cx="142.5" cy="155" r="2.25"/><circle cx="147.5" cy="155" r="2.25"/><circle cx="152.5" cy="150" r="2.25"/><circle cx="152.5" cy="155" r="2.25"/><circle cx="157.5" cy="150" r="2.25"/><circle cx="157.5" cy="155" r="2.25"/><circle cx="147.5" cy="140" r="2.25"/><circle cx="142.5" cy="140" r="2.25"/><circle cx="142.5" cy="145" r="2.25"/><circle cx="147.5" cy="145" r="2.25"/><circle cx="152.5" cy="140" r="2.25"/><circle cx="152.5" cy="145" r="2.25"/><circle cx="157.5" cy="140" r="2.25"/><circle cx="157.5" cy="145" r="2.25"/><circle cx="147.5" cy="130" r="2.25"/><circle cx="142.5" cy="130" r="2.25"/><circle cx="142.5" cy="135" r="2.25"/><circle cx="147.5" cy="135" r="2.25"/><circle cx="152.5" cy="130" r="2.25"/><circle cx="152.5" cy="135" r="2.25"/><circle cx="157.5" cy="130" r="2.25"/><circle cx="157.5" cy="135" r="2.25"/><circle cx="147.5" cy="125" r="2.25"/><circle cx="142.5" cy="125" r="2.25"/><circle cx="152.5" cy="125" r="2.25"/><circle cx="157.5" cy="125" r="2.25"/><circle cx="147.5" cy="120" r="2.25"/><circle cx="142.5" cy="120" r="2.25"/><circle cx="152.5" cy="120" r="2.25"/><circle cx="157.5" cy="120" r="2.25"/><circle cx="147.5" cy="110" r="2.25"/><circle cx="142.5" cy="110" r="2.25"/><circle cx="142.5" cy="115" r="2.25"/><circle cx="147.5" cy="115" r="2.25"/><circle cx="152.5" cy="110" r="2.25"/><circle cx="152.5" cy="115" r="2.25"/><circle cx="157.5" cy="110" r="2.25"/><circle cx="157.5" cy="115" r="2.25"/><circle cx="147.5" cy="100" r="2.25"/><circle cx="142.5" cy="100" r="2.25"/><circle cx="142.5" cy="105" r="2.25"/><circle cx="147.5" cy="105" r="2.25"/><circle cx="152.5" cy="100" r="2.25"/><circle cx="152.5" cy="105" r="2.25"/><circle cx="157.5" cy="100" r="2.25"/><circle cx="157.5" cy="105" r="2.25"/><circle cx="147.5" cy="90" r="2.25"/><circle cx="142.5" cy="90" r="2.25"/><circle cx="142.5" cy="95" r="2.25"/><circle cx="147.5" cy="95" r="2.25"/><circle cx="152.5" cy="90" r="2.25"/><circle cx="152.5" cy="95" r="2.25"/><circle cx="157.5" cy="90" r="2.25"/><circle cx="157.5" cy="95" r="2.25"/><circle cx="147.5" cy="80" r="2.25"/><circle cx="142.5" cy="80" r="2.25"/><circle cx="142.5" cy="85" r="2.25"/><circle cx="147.5" cy="85" r="2.25"/><circle cx="152.5" cy="80" r="2.25"/><circle cx="152.5" cy="85" r="2.25"/><circle cx="157.5" cy="80" r="2.25"/><circle cx="157.5" cy="85" r="2.25"/><circle cx="147.5" cy="70" r="2.25"/><circle cx="142.5" cy="70" r="2.25"/><circle cx="142.5" cy="75" r="2.25"/><circle cx="147.5" cy="75" r="2.25"/><circle cx="152.5" cy="70" r="2.25"/><circle cx="152.5" cy="75" r="2.25"/><circle cx="157.5" cy="70" r="2.25"/><circle cx="157.5" cy="75" r="2.25"/><circle cx="147.5" cy="60" r="2.25"/><circle cx="142.5" cy="60" r="2.25"/><circle cx="142.5" cy="65" r="2.25"/><circle cx="147.5" cy="65" r="2.25"/><circle cx="152.5" cy="60" r="2.25"/><circle cx="152.5" cy="65" r="2.25"/><circle cx="157.5" cy="60" r="2.25"/><circle cx="157.5" cy="65" r="2.25"/></g><path d="m110 70.75a19.25 19.25 0 00-19.25 19.25 19.25 19.25 0 0019.25 19.25 19.25 19.25 0 0019.25-19.25 19.25 19.25 0 00-.49219-4.25h-18.758v8.5h9.8711a10.75 10.75 0 01-9.8711 6.5 10.75 10.75 0 01-10.75-10.75 10.75 10.75 0 0110.75-10.75 10.75 10.75 0 017.2559 2.834l6.0156-6.0156a19.25 19.25 0 00-13.271-5.3184z" fill="#4cae4f"/></g></svg>
