<?xml version="1.0" encoding="UTF-8"?>
<svg version="1.1" viewBox="0 0 24 9" xmlns="http://www.w3.org/2000/svg"><path d="m1.7731.40923c-.81815 0-1.3636.6818-1.3636 1.3636v2.3863c0 .6818.54544 1.3636 1.3636 1.3636h3.409v1.0227h-4.7726v2.0454h5.4544c.81815 0 1.3636-.6818 1.3636-1.3636v-2.3863c0-.6818-.54544-1.3636-1.3636-1.3636h-3.409v-1.0227h4.7726v-2.0454h-5.4544m8.1815 0c-.81815 0-1.3636.6818-1.3636 1.3636v2.3863c0 .6818.54544 1.3636 1.3636 1.3636h3.409v1.0227h-4.7726v2.0454h5.4544c.81816 0 1.3636-.6818 1.3636-1.3636v-2.3863c0-.6818-.54544-1.3636-1.3636-1.3636h-3.409v-1.0227h4.7726v-2.0454h-5.4544m6.818 0v8.1815h2.0454v-3.409h2.7272v3.409h2.0454v-8.1815h-2.0454v2.7272h-2.7272v-2.7272z" fill="#0091eb" stroke="#4cae4f" stroke-linecap="round" stroke-linejoin="round" stroke-width=".6" style="paint-order:normal"/></svg>
