<?xml version="1.0" encoding="UTF-8"?>
<svg version="1.1" viewBox="0 0 24 24" xmlns="http://www.w3.org/2000/svg"><path d="m4.1181 10.52h4.2909l-3.0403-3.0403c-1.1588 0-2.0995-.94078-2.0995-2.111a2.0995 2.0995 0 012.0995-2.0995c1.1702 0 2.111.94078 2.111 2.0995l3.0403 3.0403v-4.2909c-.81459-.82606-.81459-2.1569 0-2.9715.81459-.82606 2.1454-.82606 2.96 0 .81459.81459.81459 2.1454 0 2.9715v4.2909l3.0518-3.0403c0-1.1588.92932-2.0995 2.0995-2.0995 1.1588 0 2.0995.94078 2.0995 2.0995 0 1.1702-.94078 2.111-2.0995 2.111l-3.0404 3.0403h4.2909c.82606-.81459 2.1569-.81459 2.9715 0 .82606.81459.82606 2.1454 0 2.96-.81459.81459-2.1454.81459-2.9715 0h-4.2909l3.0404 3.0518c1.1588 0 2.0995.92932 2.0995 2.0995a2.0995 2.0995 0 01-2.0995 2.0995c-1.1702 0-2.0995-.94078-2.0995-2.0995l-3.0518-3.0404v4.2909c.81459.82606.81459 2.1569 0 2.9715-.81459.82606-2.1454.82606-2.96 0-.81459-.81459-.81459-2.1454 0-2.9715v-4.2909l-3.0403 3.0404c0 1.1588-.94078 2.0995-2.111 2.0995-1.1588 0-2.0995-.94078-2.0995-2.0995 0-1.1702.94078-2.0995 2.0995-2.0995l3.0403-3.0518h-4.2909c-.82606.81459-2.1569.81459-2.9715 0-.82606-.81459-.82606-2.1454 0-2.96.81459-.81459 2.1454-.81459 2.9715 0z" fill="#0091eb" stroke="#4cae4f" stroke-linecap="round" stroke-linejoin="round" stroke-width=".8"/></svg>
