<?xml version="1.0" encoding="UTF-8"?>
<svg version="1.1" viewBox="0 0 24 24" xmlns="http://www.w3.org/2000/svg"><g transform="matrix(1.1444 0 0 1.1444 -1.7321 -1.6344)"><path d="m2 19v2h7v-2zm13 0v2h7v-2z" fill="#4cae4f"/><path d="m13 18.066h-2v-2.1077h2v2.1077" fill="#4cae4f" stroke-width="1.0266"/><path d="m8 16c-.55228 0-1-.44772-1-1v-12c0-.55228.44772-1 1-1h8c.55228 0 1 .44772 1 1v12c0 .55228-.44772 1-1 1h-4zm5-10h1v-2h-1v2m-4-2v2h2v-2h-2m0 4v2h2v-2h-2m0 4v2h2v-2z" fill="#0091eb" stroke="#4cae4f" stroke-linecap="round" stroke-linejoin="round" stroke-width=".52431"/><path d="m13 18h1c.55228 0 1 .44772 1 1v2c0 .55228-.44772 1-1 1h-4c-.55228 0-1-.44772-1-1v-2c0-.55228.44772-1 1-1h3" fill="#0091eb"/></g></svg>
