<?xml version="1.0" encoding="UTF-8" standalone="no"?>
<svg
   xml:space="preserve"
   viewBox="0 0 512 512"
   version="1.1"
   id="svg2"
   sodipodi:docname="technitium-light.svg"
   inkscape:version="1.4.3 (0d15f75042, 2025-12-25)"
   xmlns:inkscape="http://www.inkscape.org/namespaces/inkscape"
   xmlns:sodipodi="http://sodipodi.sourceforge.net/DTD/sodipodi-0.dtd"
   xmlns="http://www.w3.org/2000/svg"
   xmlns:svg="http://www.w3.org/2000/svg"><defs
     id="defs2" /><sodipodi:namedview
     id="namedview2"
     pagecolor="#505050"
     bordercolor="#ffffff"
     borderopacity="1"
     inkscape:showpageshadow="0"
     inkscape:pageopacity="0"
     inkscape:pagecheckerboard="1"
     inkscape:deskcolor="#505050"
     inkscape:zoom="2.265625"
     inkscape:cx="255.77931"
     inkscape:cy="256"
     inkscape:window-width="2560"
     inkscape:window-height="1368"
     inkscape:window-x="0"
     inkscape:window-y="0"
     inkscape:window-maximized="1"
     inkscape:current-layer="svg2" /><path
     d="M512 512H0V0h512zM118.1 85.8v211.7H182V85.7h211.6V22.3H22.3v63.5zm96 96.3h212.1v211.6h63.4V22.2h-63.8v96H214.2c-.1 21.3-.1 42.1-.1 63.9m-191.8-64v371.6H86v-95.8h211.6v-64.1H85.7V118.1zm95.8 371.5h371.5v-63.7h-95.8V214.2h-64.1v212H118.1z"
     style="fill:#6698fe"
     id="path1" /><path
     d="M118.1 85.8H22.3V22.3h371.3v63.4H182v211.8h-63.9zm96 96.3v-63.9h211.6v-96h63.8v371.5h-63.4V182.1zm-191.8-64h63.3v211.7h211.9v64.1H85.9v95.8H22.2c.1-123.7.1-247.4.1-371.6m95.8 371.5v-63.4h211.6v-212h64.1v211.7h95.8v63.7z"
     style="fill:#212121;fill-opacity:1"
     id="path2" /></svg>
