<?xml version="1.0" encoding="UTF-8" standalone="no"?>
<!-- Created with Inkscape (http://www.inkscape.org/) -->

<svg
   width="180"
   height="180"
   viewBox="0 0 180 180"
   version="1.1"
   id="svg1"
   inkscape:version="1.4.3 (0d15f75042, 2025-12-25)"
   sodipodi:docname="ugreen-light.svg"
   xmlns:inkscape="http://www.inkscape.org/namespaces/inkscape"
   xmlns:sodipodi="http://sodipodi.sourceforge.net/DTD/sodipodi-0.dtd"
   xmlns="http://www.w3.org/2000/svg"
   xmlns:svg="http://www.w3.org/2000/svg">
  <sodipodi:namedview
     id="namedview1"
     pagecolor="#ffffff"
     bordercolor="#000000"
     borderopacity="0.25"
     inkscape:showpageshadow="2"
     inkscape:pageopacity="0.0"
     inkscape:pagecheckerboard="0"
     inkscape:deskcolor="#d1d1d1"
     inkscape:document-units="px"
     inkscape:zoom="4.5804806"
     inkscape:cx="102.50016"
     inkscape:cy="88.418669"
     inkscape:window-width="2560"
     inkscape:window-height="1368"
     inkscape:window-x="0"
     inkscape:window-y="0"
     inkscape:window-maximized="1"
     inkscape:current-layer="layer1" />
  <defs
     id="defs1">
    <linearGradient
       id="linear-gradient"
       x1="75"
       y1="10.18"
       x2="75"
       y2="137.53999"
       gradientUnits="userSpaceOnUse"
       gradientTransform="matrix(1.3622609,0,0,1.3882272,-12.178144,-15.859275)">
      <stop
         offset="0"
         stop-color="#02f2a6"
         id="stop1" />
      <stop
         offset="1"
         stop-color="#001509"
         id="stop2" />
    </linearGradient>
  </defs>
  <g
     inkscape:label="Layer 1"
     inkscape:groupmode="layer"
     id="layer1">
    <g
       id="Layer_3"
       data-name="Layer 3"
       transform="translate(16.259005,12.878216)">
      <g
         id="Layer_2"
         data-name="Layer 2">
        <path
           id="Layer_3-2"
           data-name="Layer 3-2"
           class="cls-1"
           d="M 0,0 H 150 V 150 H 0 Z"
           style="fill:none" />
      </g>
    </g>
    <path
       class="cls-2"
       d="m 37.149324,62.478385 c 11.061558,22.80858 21.264893,19.2686 33.075691,41.119295 V 39.114524 c 0,-21.586934 -17.654898,-39.078597 -39.43745,-39.078597 v 36.635317 c 0.354188,7.288193 0.721999,14.201561 6.361759,25.821031 z M 70.225015,171.0933 v -33.5951 c 0.21797,-16.67261 -9.712916,-36.94074 -22.749753,-46.852675 -5.367308,-4.65057 -10.898088,-9.46772 -16.687697,-20.11542 v 52.724875 c 0,27.05655 18.622107,50.08724 44.15088,56.72297 -2.84713,-1.94352 -4.6998,-5.19197 -4.6998,-8.87077 z M 149.1953,36.657362 V 0.022045 c -21.78255,0 -39.43745,17.491663 -39.43745,39.078597 V 103.5838 c 5.78961,-10.661585 11.32039,-15.478735 16.70132,-20.129295 13.03683,-9.88418 22.96772,-30.22171 22.74975,-46.811025 z M 105.04443,179.95019 c 25.52877,-6.62185 44.15087,-29.66642 44.15087,-56.72297 0,0 0,-52.724875 0,-52.724875 -5.78961,10.6477 -11.32039,15.46485 -16.68769,20.11541 -13.09133,9.939705 -22.9541,30.207835 -22.74976,46.852675 v 33.5951 c 0,3.6788 -1.8663,6.92726 -4.6998,8.87077 z"
       id="path2"
       style="fill:#1a1a1a;stroke-width:1.37518;fill-opacity:1" />
  </g>
</svg>
