<?xml version="1.0" encoding="UTF-8"?>
<svg version="1.1" viewBox="0 0 180 180" xmlns="http://www.w3.org/2000/svg"><g transform="translate(16.259 12.878)" data-name="Layer 3"><g data-name="Layer 2"><path class="cls-1" d="m0 0h150v150h-150z" fill="none" data-name="Layer 3-2"/></g></g><path class="cls-2" d="m37.149 62.478c11.062 22.809 21.265 19.269 33.076 41.119v-64.483c0-21.587-17.655-39.079-39.437-39.079v36.635c.35419 7.2882.722 14.202 6.3618 25.821zm33.076 108.61v-33.595c.21797-16.673-9.7129-36.941-22.75-46.853-5.3673-4.6506-10.898-9.4677-16.688-20.115v52.725c0 27.057 18.622 50.087 44.151 56.723-2.8471-1.9435-4.6998-5.192-4.6998-8.8708zm78.97-134.44v-36.635c-21.783 0-39.437 17.492-39.437 39.079v64.483c5.7896-10.662 11.32-15.479 16.701-20.129 13.037-9.8842 22.968-30.222 22.75-46.811zm-44.151 143.29c25.529-6.6218 44.151-29.666 44.151-56.723v-52.725c-5.7896 10.648-11.32 15.465-16.688 20.115-13.091 9.9397-22.954 30.208-22.75 46.853v33.595c0 3.6788-1.8663 6.9273-4.6998 8.8708z" stroke-width="1.3752"/></svg>
