<?xml version="1.0" encoding="UTF-8"?>
<svg version="1.1" viewBox="0 0 24 24" xmlns="http://www.w3.org/2000/svg"><g transform="matrix(1.1089 0 0 1.1089 -1.3072 -1.6953)"><path d="m11 17.93v1.0703h2v-1.0703zm-9 2.0703v2h7v-2zm13 0v2h7v-2z" fill="#4cae4f"/><path d="m12 2c-4.4183 0-8 3.5817-8 8 0 4.03 3 7.42 7 7.93h2c4-.5 7-3.9 7-7.93 0-4.4183-3.5817-8-8-8m0 2s.74 1.28 1.26 3h-2.52c.52-1.72 1.26-3 1.26-3m-2.23.43c-.27.5-.68 1.41-1.03 2.57h-1.93c.69-1.16 1.69-2.07 2.96-2.57m4.46.01c1.27.5 2.27 1.4 2.96 2.56h-1.93c-.35-1.16-.76-2.07-1.03-2.56m-8.14 4.56h2.23c-.04.33-.07.66-.07 1s.03.67.07 1h-2.23c-.06-.33-.09-.66-.09-1s.03-.67.09-1m4.23 0h3.36c.04.33.07.66.07 1s-.03.67-.07 1h-3.36c-.04-.33-.07-.66-.07-1s.03-.67.07-1m5.36 0h2.23c.06.33.09.66.09 1s-.03.67-.09 1h-2.23c.04-.33.07-.66.07-1s-.03-.67-.07-1m-8.87 4h1.93c.35 1.16.76 2.07 1.03 2.56-1.27-.5-2.27-1.4-2.96-2.56m3.93 0h2.52c-.52 1.72-1.26 3-1.26 3s-.74-1.28-1.26-3m4.52 0h1.93c-.69 1.16-1.69 2.07-2.96 2.57.27-.5.68-1.41 1.03-2.57z" fill="#02a6f2" stroke="#4cae4f" stroke-linecap="round" stroke-linejoin="round" stroke-width=".63126"/><path d="m11 19h-1c-.55228 0-1 .44772-1 1v2c0 .55228.44772 1 1 1h4c.55228 0 1-.44772 1-1v-2c0-.55228-.44772-1-1-1h-1" fill="#02a6f2"/></g></svg>
