<?xml version="1.0" encoding="UTF-8"?>
<svg version="1.1" viewBox="0 0 24 24" xmlns="http://www.w3.org/2000/svg"><path d="m12 .65065c-6.2762 0-11.349 5.1072-11.349 11.349a11.349 11.349 0 0011.349 11.349 11.349 11.349 0 0011.349-11.349 11.349 11.349 0 00-11.349-11.349zm0 2.3031c.942 1.3619 1.7026 2.8835 2.1679 4.5065h-4.3358c.46532-1.623 1.2259-3.1446 2.1679-4.5065zm-2.9504.4655c-.68096 1.2598-1.1921 2.6223-1.5894 4.041h-3.3139c1.0782-1.884 2.8263-3.3373 4.9033-4.041zm5.8897 0c2.0883.71501 3.8248 2.157 4.9144 4.041h-3.3472c-.36318-1.4187-.88622-2.7812-1.5672-4.041zm-11.724 6.3109h3.8371c-.090795.74906-.1596 1.4981-.1596 2.2699 0 .77176.068805 1.5208.1596 2.2699h-3.8371c-.18159-.72636-.29482-1.4868-.29482-2.2699s.11323-1.5435.29482-2.2699zm6.1291 0h5.3111c.10214.73771.18177 1.4981.18177 2.2699 0 .77176-.07962 1.5208-.18177 2.2699h-5.3111c-.11349-.74906-.18177-1.4981-.18177-2.2699 0-.77176.068273-1.5322.18177-2.2699zm7.6032 0h3.8371c.18159.72636.29482 1.4868.29482 2.2699s-.11323 1.5435-.29482 2.2699h-3.8371c.09079-.74906.1596-1.4981.1596-2.2699 0-.77176-.0688-1.5208-.1596-2.2699zm-12.801 6.8096h3.3139c.39723 1.4187.90839 2.7812 1.5894 4.041-2.0769-.71501-3.8251-2.1683-4.9033-4.041zm5.6858 0h4.3358c-.46532 1.623-1.2259 3.1335-2.1679 4.4954-.942-1.3619-1.7026-2.8724-2.1679-4.4954zm6.6744 0h3.3472c-1.0895 1.8726-2.8261 3.326-4.9144 4.041.68096-1.2598 1.204-2.6223 1.5672-4.041z" fill="#0091eb" stroke="#4cae4f" stroke-linecap="round" stroke-linejoin="round" stroke-width=".7" style="paint-order:normal"/></svg>
