<?xml version="1.0" encoding="UTF-8"?>
<svg version="1.1" viewBox="0 0 512 512" xmlns="http://www.w3.org/2000/svg"><rect x="2.1955" y="1.0978" width="507.61" height="509.8" rx="72.548" fill="#82201e" stroke="#000" stroke-linecap="round" stroke-linejoin="round" stroke-width=".4"/><path d="m194.51 171.07c46.063-28.16 104.99-10.976 127.03 31.399 4.1385 8.0071 4.6783 20.423 2.0693 28.79-9.1767 29.149-30.769 45.434-60.368 52.361 8.7268-7.4673 15.654-15.924 17.904-27.71 2.3392-11.246-.17993-22.942-7.0175-32.208-10.796-14.845-30.049-20.692-47.323-14.395-18.263 6.9275-28.25 23.571-26.45 44.084 1.7094 18.983 16.104 31.309 43.094 35.987-4.0485 2.1592-7.1074 3.6886-10.166 5.398-12.326 6.7476-23.122 16.104-31.579 27.44-2.699 3.6887-4.5883 3.9586-8.8168 1.4395-54.16-33.018-57.669-116.33 1.6194-152.58m-40.665 205.04c-8.7268 2.2492-17.184 5.488-26.091 8.367 4.3184-29.419 38.776-56.499 67.925-53.441-8.4569 11.606-13.315 25.461-14.215 39.766-9.6265 1.8893-18.713 3.0589-27.62 5.3081m185.51-287.09c8.6369.35987 17.274.17994 25.911.35987 2.1592.17992 4.3184.44983 6.3877.89967-1.8893 2.9689-4.1385 5.7579-6.4776 8.367-3.0589 2.8789-6.5676 5.6679-10.976 1.3495-1.0796-1.0796-3.5987-.8097-5.488-.8097-8.5469-.08995-17.184-.35988-25.731-.08995-7.4673.26991-14.845.98964-22.132 2.2492-1.3495.26991-3.4188 4.7683-2.789 6.4776 1.4395 3.9586 3.6887 8.367 6.8375 10.886 11.876 9.3566 24.561 17.814 36.437 27.08 11.606 9.0867 22.402 18.983 28.969 32.658 8.5469 17.814 8.8168 36.437 5.1281 55.24-6.2078 31.309-22.042 57.219-47.683 76.022-10.346 7.5572-23.122 11.876-34.907 17.364-10.436 4.7683-21.142 8.9068-31.579 13.675-18.803 8.5469-29.419 28.969-26.27 50.202 2.879 19.433 19.973 35.717 39.496 39.046 23.481 4.0485 47.683-11.246 53.441-35.087 6.4776-26.81-8.0971-50.832-35.447-58.029-1.1696-.35987-2.4291-.62977-4.9482-1.2596 7.2874-3.2388 13.585-5.578 19.433-8.8168 10.166-5.578 20.153-11.516 29.869-17.724 2.879-1.7994 4.4084-1.7994 6.9275.2699 18.803 16.194 29.959 36.437 33.108 61.178 5.2181 40.935-14.215 78.631-50.742 97.884-56.589 29.869-125.86-4.1385-138.37-66.846-10.706-53.71 27.26-102.47 72.874-111.92 19.613-4.0485 37.606-12.236 51.551-27.35 8.9967-9.7165 13.405-18.083 14.845-21.952 2.789-7.1074 4.2285-14.575 4.1385-22.222-.2699-6.5676-1.7994-13.045-4.5883-19.073-4.7683-10.886-23.032-28.16-27.53-31.758l-42.824-33.648c-1.5294-1.2596-3.2388-1.1696-6.9275-.89967-4.4084.2699-15.654.89967-20.513-.35988 3.9586-2.9689 14.575-7.2873 19.163-10.796-13.945-9.4466-29.869-6.0278-44.444-8.8168 3.3288-6.2977 20.063-15.924 29.599-17.004-.53981-5.3081-1.4395-10.616-2.609-15.834-.5398-2.1592-2.9689-4.2285-5.0382-5.398-5.0382-2.9689-10.436-5.398-16.194-8.367 5.2181-3.3288 11.246-5.2181 17.364-5.398 5.8479-.17994 11.696.35987 17.454 1.7094 10.346 2.3392 18.623.80971 26.81-6.2077-6.4777-2.6091-12.955-5.0382-19.253-7.8272-6.2077-2.789-12.236-5.9378-18.083-9.4466 16.284 2.2492 32.118 8.367 48.762 6.1178l.44984-2.2492-38.596-8.9967c23.122-2.1592 44.624-2.4291 64.956 7.4673 5.7579 2.789 11.696 5.1281 17.184 8.277 2.699 1.5294 4.4984 4.5883 6.6576 7.0175 1.7094 1.8893 3.1489 4.4084 5.3081 5.578 8.0971 4.3184 17.094 4.4984 26.27 4.3184l.17994-3.0589c9.1767 2.879 19.523 13.495 19.523 21.232-14.845 0-29.779-.08995-44.624.08995-1.6194 0-3.1488 1.1696-4.7683 1.7994 1.4395.8097 2.9689 2.3391 4.4984 2.4291m-19.163-22.042c-1.0796.62977-1.3495 2.0692-.71973 3.1489.0899.17994.2699.35987.44983.5398.89967 1.6194 3.0589 2.2492 4.6783 1.2595 1.4395-.71974 2.879-1.5294 4.5883-2.4291-1.4395-1.1696-2.5191-2.1592-3.6887-3.1489-2.0692-1.6194-3.6887-.62977-5.3081.62977" stroke-width=".89967"/></svg>
