<?xml version="1.0" encoding="UTF-8" standalone="no"?>
<svg
   xml:space="preserve"
   viewBox="0 0 512 512"
   version="1.1"
   id="svg1"
   sodipodi:docname="wireguard-rounded-square-light.svg"
   inkscape:version="1.4.3 (0d15f75042, 2025-12-25)"
   xmlns:inkscape="http://www.inkscape.org/namespaces/inkscape"
   xmlns:sodipodi="http://sodipodi.sourceforge.net/DTD/sodipodi-0.dtd"
   xmlns="http://www.w3.org/2000/svg"
   xmlns:svg="http://www.w3.org/2000/svg"><defs
     id="defs1" /><sodipodi:namedview
     id="namedview1"
     pagecolor="#505050"
     bordercolor="#ffffff"
     borderopacity="1"
     inkscape:showpageshadow="0"
     inkscape:pageopacity="0"
     inkscape:pagecheckerboard="1"
     inkscape:deskcolor="#505050"
     inkscape:zoom="1.6103252"
     inkscape:cx="247.46554"
     inkscape:cy="267.6478"
     inkscape:window-width="2560"
     inkscape:window-height="1368"
     inkscape:window-x="0"
     inkscape:window-y="0"
     inkscape:window-maximized="1"
     inkscape:current-layer="svg1" /><rect
     style="fill:#82201e;fill-opacity:1;stroke-width:1.1092"
     id="rect1"
     width="508.4375"
     height="509.31326"
     x="1.78125"
     y="1.3433685"
     rx="72.548347" /><ellipse
     cx="256"
     cy="256"
     rx="224.91833"
     ry="227.07755"
     style="fill:#212121;stroke-width:0.899673;fill-opacity:1"
     id="ellipse1" /><path
     d="m 485.92592,249.16249 c 0,0 10.61614,-223.47887 -234.99468,-223.47887 -217.271122,0 -224.018672,214.39215 -224.018672,214.39215 0,0 -31.9384032,246.24061 228.966872,246.24061 250.37909,0 230.04648,-237.1539 230.04648,-237.1539 M 182.19619,171.07085 c 46.06328,-28.15979 104.99189,-10.97602 127.03387,31.39858 4.1385,8.0071 4.67832,20.42259 2.06926,28.78955 -9.17666,29.14941 -30.76882,45.4335 -60.36808,52.36099 8.72682,-7.46729 15.65432,-15.92423 17.9035,-27.70994 2.33916,-11.24591 -0.17993,-22.94166 -7.01746,-32.2083 -10.79607,-14.84462 -30.04908,-20.69248 -47.32281,-14.39479 -18.26338,6.9275 -28.24974,23.57145 -26.4504,44.084 1.70938,18.98311 16.10416,31.30863 43.09435,35.98694 -4.04853,2.15921 -7.10741,3.68865 -10.1663,5.39803 -12.32553,6.74756 -23.12161,16.10417 -31.57854,27.44004 -2.69902,3.68867 -4.58833,3.95857 -8.8168,1.43948 -54.16034,-33.01802 -57.66907,-116.32777 1.61941,-152.58459 m -40.66524,205.03554 c -8.72681,2.2492 -17.18374,5.48801 -26.09053,8.36697 4.31844,-29.41932 38.77593,-56.49948 67.92535,-53.4406 -8.45692,11.60578 -13.31516,25.46076 -14.21485,39.76557 -9.62649,1.8893 -18.71319,3.05888 -27.61997,5.30806 M 327.04361,89.020628 c 8.63686,0.359869 17.27372,0.179935 25.91059,0.359869 2.15922,0.179924 4.31843,0.449831 6.38768,0.899671 -1.88932,2.96892 -4.1385,5.757917 -6.47765,8.366968 -3.05889,2.878944 -6.56762,5.667934 -10.97602,1.349502 -1.0796,-1.079605 -3.59869,-0.809699 -5.488,-0.809699 -8.54691,-0.08995 -17.18377,-0.359879 -25.73066,-0.08995 -7.46729,0.269906 -14.84461,0.989641 -22.13196,2.249181 -1.34951,0.26991 -3.41877,4.76827 -2.789,6.47765 1.43949,3.95857 3.68867,8.36696 6.83752,10.88605 11.87569,9.35659 24.56109,17.81353 36.43678,27.08017 11.60579,9.08669 22.40186,18.98311 28.96948,32.65814 8.5469,17.81353 8.8168,36.43676 5.12814,55.23995 -6.20775,31.30862 -22.042,57.21922 -47.68269,76.02238 -10.34624,7.55725 -23.1216,11.87569 -34.90732,17.36372 -10.43622,4.76826 -21.14233,8.90676 -31.57854,13.67502 -18.80317,8.5469 -29.41933,28.96949 -26.27046,50.20178 2.87895,19.43294 19.97275,35.71703 39.49565,39.04582 23.48148,4.04853 47.6827,-11.24592 53.44061,-35.08726 6.47764,-26.81026 -8.09708,-50.83154 -35.44713,-58.02893 -1.16959,-0.35987 -2.42912,-0.62977 -4.94821,-1.25955 7.28735,-3.23882 13.58507,-5.57796 19.43295,-8.81679 10.16631,-5.57797 20.15268,-11.51581 29.86915,-17.72357 2.87895,-1.79935 4.4084,-1.79935 6.92749,0.2699 18.80316,16.19412 29.95912,36.43677 33.10797,61.17778 5.21811,40.93514 -14.21484,78.63145 -50.74158,97.88447 -56.58945,29.86915 -125.86429,-4.1385 -138.36976,-66.84573 -10.7061,-53.7105 27.26011,-102.47281 72.87355,-111.91938 19.61288,-4.04853 37.60634,-12.23555 51.55128,-27.35007 8.99674,-9.71647 13.40514,-18.08343 14.84461,-21.95202 2.78898,-7.10741 4.22846,-14.57472 4.1385,-22.22193 -0.2699,-6.56763 -1.79935,-13.04527 -4.58834,-19.07308 -4.76827,-10.88605 -23.03163,-28.15978 -27.53001,-31.75847 l -42.82445,-33.64778 c -1.52943,-1.25955 -3.23882,-1.16957 -6.92747,-0.89967 -4.40841,0.2699 -15.65432,0.89967 -20.51256,-0.35988 3.95856,-2.96891 14.57472,-7.28734 19.16305,-10.79607 -13.94494,-9.44657 -29.86916,-6.02781 -44.44387,-8.8168 3.32878,-6.29772 20.06271,-15.924216 29.59925,-17.003821 -0.53981,-5.308076 -1.43947,-10.616151 -2.60905,-15.834254 -0.5398,-2.159216 -2.96893,-4.228464 -5.03817,-5.39804 -5.03818,-2.968922 -10.43621,-5.39804 -16.19413,-8.366963 5.21811,-3.328791 11.24593,-5.218105 17.36371,-5.398039 5.84788,-0.179935 11.69575,0.359868 17.45366,1.709378 10.34624,2.33915 18.62324,0.809707 26.81027,-6.207745 -6.47766,-2.609054 -12.95531,-5.038172 -19.25302,-7.827158 q -9.31161,-4.183482 -18.08343,-9.446571 c 16.28409,2.249183 32.11833,8.366962 48.7623,6.117779 l 0.44984,-2.249183 -38.59599,-8.996735 c 23.1216,-2.159215 44.62379,-2.429117 64.95641,7.46729 5.75791,2.788987 11.69575,5.128138 17.18377,8.276995 2.69901,1.529444 4.49835,4.588334 6.65757,7.017452 1.70939,1.889314 3.14886,4.408399 5.30807,5.577974 8.09707,4.318433 17.0938,4.498367 26.27047,4.318433 l 0.17994,-3.05889 c 9.17666,2.878955 19.52291,13.495102 19.52291,21.232296 -14.84461,0 -29.7792,-0.08995 -44.6238,0.08995 -1.61942,0 -3.14885,1.169578 -4.76828,1.799353 1.43948,0.809699 2.96893,2.339145 4.49838,2.429117 M 307.88056,66.978627 c -1.07961,0.629771 -1.3495,2.069249 -0.71973,3.148856 0.0899,0.179935 0.2699,0.35987 0.44983,0.539805 0.89967,1.619411 3.05889,2.249183 4.67831,1.259543 1.43947,-0.71974 2.87895,-1.529445 4.58833,-2.429119 -1.43948,-1.169575 -2.51909,-2.159217 -3.68866,-3.148857 -2.06925,-1.619412 -3.68867,-0.629771 -5.30808,0.629772"
     style="fill:#82201e;stroke-width:0.899673"
     id="path1" /></svg>
