<svg fill="currentColor" version="1.1" viewBox="0 -960 24 24" xmlns="http://www.w3.org/2000/svg"><path d="m17.797-939.92q-.35362 0-.6062-.2526-.25258-.25257-.25258-.60619v-3.3341q0-.35362.25258-.6062.25258-.25259.6062-.25259h.15155v-1.0103q0-.83353.59357-1.4271.59357-.59357 1.4271-.59357t1.4271.59357q.59357.59357.59357 1.4271v1.0103h.15155q.35362 0 .6062.25259.25258.25257.25258.60619v3.3341q0 .35362-.25258.6062-.25258.25259-.6062.25259zm1.1619-5.0517h2.0207v-1.0103q0-.42939-.29047-.71986-.29047-.29047-.71986-.29047-.42939 0-.71986.29047t-.29047.71986zm-8.4994 4.4581q-.59357-.59357-.59357-1.4271 0-.83352.59357-1.4271.59357-.59357 1.4271-.59357.83352 0 1.4271.59357.59357.59357.59357 1.4271 0 .83353-.59357 1.4271-.59357.59357-1.4271.59357-.83352 0-1.4271-.59357zm1.4271-6.4788q-1.0356 0-2.008.26521-.97245.26521-1.8565.79564-.55568.35361-1.1998.32835-.64409-.0253-1.0987-.4799-.42939-.4294-.41676-1.0482.01263-.61883.5178-.97245 1.3387-.93456 2.8794-1.4271 1.5408-.49254 3.1825-.49254 1.2882 0 2.5006.3031 1.2124.3031 2.349.88404-.6062.50517-.9977 1.1745-.3915.66935-.61883 1.4018-.75775-.35362-1.5786-.54306-.8209-.18943-1.6544-.18943zm-4.3444-5.3674q-2.0964.69461-3.8645 2.0586-.50517.40413-1.1493.3915-.64409-.0126-1.0987-.46728-.42939-.42939-.42939-1.0609 0-.63145.50517-1.0103 2.2227-1.7681 4.8749-2.7026 2.6521-.93457 5.5063-.93457 2.8542 0 5.5063.93457 2.6521.93456 4.8749 2.7026.50517.37888.50517 1.0103 0 .63146-.42939 1.0608-.45465.45465-1.0987.46728-.64409.0126-1.1493-.3915-1.7681-1.364-3.8645-2.0586-2.0964-.6946-4.3444-.6946-2.248 0-4.3444.69461z"/></svg>
