<?xml version="1.0" encoding="UTF-8"?>
<svg fill="currentColor" version="1.1" viewBox="0 -960 960 960" xmlns="http://www.w3.org/2000/svg"><path d="m480-45.625q-150.95-38.008-249.22-173.21-98.277-135.2-98.277-300.26v-264.97l347.5-130.31 347.5 130.31v264.97q0 68.414-17.918 133.03-17.918 64.613-51.582 123.25l-128.14-128.14q11.945-20.633 17.918-42.895 5.9726-22.262 5.9726-46.152 0-71.672-51.039-122.71-51.039-51.039-122.71-51.039t-122.71 51.039q-51.039 51.039-51.039 122.71 0 71.672 51.039 122.71 51.039 51.039 122.71 51.039 22.805 0 45.066-5.9727 22.262-5.9727 41.809-17.918l140.09 139q-45.609 53.211-102.62 91.219-57.012 38.008-124.34 54.297zm-61.355-373.02q-25.52-25.52-25.52-61.355 0-35.836 25.52-61.355 25.52-25.52 61.355-25.52t61.355 25.52q25.52 25.52 25.52 61.355 0 35.836-25.52 61.355t-61.355 25.52-61.355-25.52z" stroke-width="1.086"/></svg>
