<svg class="lucide lucide-shield-cog-corner-icon lucide-shield-cog-corner" fill="currentColor" version="1.1" viewBox="0 0 24 24" xmlns="http://www.w3.org/2000/svg">
  <path d="m12 1.0039c-.50319 2e-7-1.007.17115-1.4102.51562a1.0001 1.0001 0 00-.007813.0078126c-1.579 1.3793-3.982 2.4727-5.582 2.4727-1.0927 0-2 .90728-2 2v7c0 2.7285.89984 4.8968 2.3242 6.5059 1.4244 1.6091 3.3245 2.6674 5.3203 3.4277a1 1 0 001.2891-.57812 1 1 0 00-.57812-1.2891c-1.8102-.68963-3.4091-1.6149-4.5332-2.8848-1.1241-1.2699-1.8223-2.8761-1.8223-5.1816v-7c2.3962 0 4.9885-1.3021 6.8887-2.959.06897-.058923.15369-.058923.22266 0 1.9095 1.6664 4.4958 2.959 6.8887 2.959v4a1 1 0 001 1 1 1 0 001-1v-4c0-1.0927-.90728-2-2-2-1.6033 0-3.9925-1.0829-5.582-2.4727a1.0001 1.0001 0 00-.007813-.0078126c-.4032-.34447-.90696-.51562-1.4102-.51562zm4.1641 11.996a1 1 0 00-.38281.076172 1 1 0 00-.54102 1.3066l.050782.12305c-.29644.22447-.56068.48871-.78516.78516l-.12305-.050782a1 1 0 00-1.3066.54102 1 1 0 00.54102 1.3066l.11719.048828c-.025901.18268-.039063.36914-.039063.55859 0 .18946.013162.37591.039063.55859l-.11719.048828a1 1 0 00-.54102 1.3066 1 1 0 001.3066.54102l.12305-.050782c.22447.29644.48871.56068.78516.78516l-.050782.12305a1 1 0 00.54102 1.3066 1 1 0 001.3066-.54102l.048828-.11719c.18272.02591.36911.039062.55859.039062.18885 0 .37451-.013323.55664-.039062l.048828.11719a1 1 0 001.3066.54102 1 1 0 00.54102-1.3047l-.050782-.12305c.297-.22463.56226-.49028.78711-.78711l.12109.050782a1 1 0 001.3086-.54102 1 1 0 00-.54102-1.3066l-.11719-.048828c.02591-.18272.039062-.36911.039062-.55859 0-.18949-.013152-.37588-.039062-.55859l.11719-.048828a1 1 0 00.54102-1.3066 1 1 0 00-1.3086-.54102l-.12109.050782c-.22439-.29623-.48889-.56082-.78516-.78516l.050782-.12305a1 1 0 00-.54102-1.3066 1 1 0 00-.76562 0 1 1 0 00-.54102.54102l-.048828.11719c-.18268-.025901-.36914-.039063-.55859-.039063-.18945 0-.37591.013162-.55859.039063l-.048828-.11719a1 1 0 00-.92383-.61719zm1.5312 2.6953c.25198 0 .49211.044411.71289.12695a1 1 0 00.050781.023437 1 1 0 00.064454.023438c.44137.19715.79282.55014.99219.99023a1 1 0 00.027344.070313 1 1 0 00.027343.0625c.080323.21819.125.45472.125.70312 0 .24606-.042219.4808-.12109.69727a1 1 0 00-.03125.066406 1 1 0 00-.029297.080078c-.19841.43411-.54751.77954-.98242.97656a1 1 0 00-.070312.027344 1 1 0 00-.0625.029297c-.21789.080069-.45512.12305-.70313.12305-.24841 0-.48494-.044677-.70312-.125a1 1 0 00-.0625-.027343 1 1 0 00-.070313-.027344c-.4401-.19937-.79309-.55082-.99023-.99219a1 1 0 00-.023438-.064454 1 1 0 00-.023437-.050781c-.082543-.22078-.12695-.46091-.12695-.71289 0-.25509.046364-.49769.13086-.7207a1 1 0 00.019531-.044921 1 1 0 00.019531-.052735c.19904-.45094.56078-.81267 1.0117-1.0117a1 1 0 00.052735-.019531 1 1 0 00.044921-.019531c.22302-.084496.46562-.13086.7207-.13086z"/>
</svg>
