<?xml version="1.0" encoding="UTF-8"?>
<svg fill="currentColor" version="1.1" viewBox="0 -960 960 960" xmlns="http://www.w3.org/2000/svg"><path d="m480-290.69q120.69-108.85 155-153.22t34.313-88.148q0-42.595-30.763-73.358t-73.358-30.763q-24.847 0-47.919 10.057-23.072 10.057-37.27 27.805-14.198-17.748-36.679-27.805-22.481-10.057-48.511-10.057-42.595 0-73.358 30.763t-30.763 73.358q0 22.481 5.916 41.412 5.916 18.931 26.03 44.37 20.114 25.439 57.385 62.117t99.98 93.472zm0 283.97q-164.46-41.412-271.54-188.72-107.08-147.31-107.08-327.15v-288.7l378.62-141.98 378.62 141.98v288.7q0 179.84-107.08 327.15-107.08 147.31-271.54 188.72zm0-99.388q123.05-39.045 203.51-156.18 80.457-117.14 80.457-260.3v-223.62l-283.97-106.49-283.97 106.49v223.62q0 143.17 80.457 260.3 80.457 117.14 203.51 156.18z"/></svg>
